<mxfile host="app.diagrams.net" modified="2023-12-29T13:48:58.832Z" agent="Mozilla/5.0 (Windows NT 10.0; Win64; x64) AppleWebKit/537.36 (KHTML, like Gecko) Chrome/120.0.0.0 Safari/537.36 Edg/120.0.0.0" etag="RDnvFTS-cOfUHPSdNtHn" version="22.1.16" type="github">
  <diagram name="第 1 页" id="A3PSz9i19vgbYT_d0EAW">
    <mxGraphModel dx="749" dy="445" grid="1" gridSize="10" guides="1" tooltips="1" connect="1" arrows="1" fold="1" page="1" pageScale="1" pageWidth="1169" pageHeight="827" math="0" shadow="0">
      <root>
        <mxCell id="0" />
        <mxCell id="1" parent="0" />
        <mxCell id="K0I1cs0K1864Aoex6M4k-1" value="" style="shape=image;verticalLabelPosition=bottom;labelBackgroundColor=default;verticalAlign=top;aspect=fixed;imageAspect=0;image=data:image/png,iVBORw0KGgoAAAANSUhEUgAAA0EAAAJFCAYAAAAbG/x7AAAAAXNSR0IArs4c6QAAAARnQU1BAACxjwv8YQUAAAAJcEhZcwAAFiUAABYlAUlSJPAAAP+lSURBVHhe7J0FWBRbH4dhpQRbscDuwm7FFltEQTAxEBtBFLFRTCxU7ERQARExsbs7QRG7r+BVlI+L6O+bGWbZZXfQZVkWWP7v87zPvZw5k2dhz885c0YLBEEQBEEQBEEQOQgKQQRBEARBEARB5CgoBBEEQRAEQRAEkaOgEEQQBEEQBEEQRI6CQhBBEARBEARBEDkKCkEEQRAEQRAEQeQoKAQRBEEQBEEQBJGjoBBEEARBEARBEESOgkIQQRAEQRAEQRA5CgpBBEEQBEEQBEHkKCgEEQRBEARBEASRo6AQRBAEQRAEQRBEjoJCEEEQBEEQBEEQOQoKQQRBEARBEARB5CgoBBEEQRAEQRAEkaOgEEQQBEEQBEEQRI6CQhBBEARBEARBEDkKCkEEQRAEQRAEQeQoKAQRBEEQBEEQBJGjoBBEEARBEARBEESOgkIQQRAEQRAEQRA5CgpBBEEQBEEQBEHkKCgEEQRBEARBEASRo6AQRBAEQRAEQRBEjoJCEEEQBEEQBEEQOQoKQQRBEARBEARB5CgoBBEaz5PXsSRJkiSpcgmCyL5QCCI0HqEvLpIkSZJMrwRBZF8oBBEaj9AXF0mSJEmmV4Igsi8UggiNR+iLiyRJkiTTK0EQ2ZesE4IS3+HiJlf06+OOva8T+UKG+JtYPdgCPTyO4hvicNF7MGwcvXDoyQ++QnbFMxPMmQh9cZEkSZJkeiUIIvuSNUJQQiQCRjVGEwdf3PvKl/EkvvOHg1kN9F3zCAlcSQJeHp0Fizo9seKKTOVsBRNKvozHfq+GGLBgGH7IBZY0+MkWo+sZo5pZSTRrURoNazP/X4v9/zJoXLcoqlUvjclHZjB1cyZCX1wkSZIkmV4Jgsi+ZIEQlICHPt1Qps1C3FD45k4iXu4ajIp13XDyC1+UnUh4h8vbzGFZwwAirVyo6jJYMATFhffH9kMuzBWSXxZz3Qa+p9yYK+GJH8eao0YlM2x5NBOIc4RHEx0YD7DGJ3bZlXZoWqgK1kTNYdbLmQh9cZEkSZJkeiUIIvuS4SEo/t0DXDx/GeEfpYa4SfPlEMZWNMWQoE98gYR7vm4YPqgfbO2X47xsQIq/Co9G+dHV5wl/hyi7kIDHm8bCfq4tbj3vh1HldVHd1V4gBM3B68Mt0aK0CcbtcUa81LKYq11hVaUoBm4dhzi2XkgbTN7hxIWlxBc9YZlXFx2WjU8KT5/s4DqgK27Es+vmTIS+uEiSJEkyvRIEkX3J0BAUc2M9BtXKC5GWCIWbjEfQkzh+iYRv+x1hWrA/dn7mC6SJv4l5LXWgZ7ECEXJJJw7np5pBr6M3nqg9BX3DndCNWLdunYDrsX7jJmzdEYDQE9fwNDq1g2NCyY/BcK6aWghi9cDLgy3RsowJxgYlBaGYK13Rq7Ix7DaMYY5Cfp2v+xqitEFRTDo1U25ZTkXoi4skSZIk0ytBENmXDApBiXh11AOdSudD5R4z4BvojWGNiiJfLXtsui39HE88bsxtDFHTebgdzxdJ8+MYXKrqoebkU0xIkCd6hy0MCtojSO2PBsXj7ZXNcKhjAL3a1nB1d8PQVsVhVKUtbGx7w6KOCcq1GQ6XMb3QoEINdJnoi1tyw/aYUPLXEMQ6B6+OmKNVmZJwXNQGlpWKoO/a0fgqWHcWLs8ygUHROtj1WWh5zkToi4vMBF+8wb5tgRjhsAAtO7nBrO0UNO61CHbuIdh49oPwOhrow/NH4TB4MQatfoAHAsufvH6HbZ7L0G3YTmy9J7T8b8YgdMFsGFcahY7LIvBQsE5GmxWOQdhbZ89imstStO06BXU6TEebQWvgsvYmzkUJ10+fWfc6kKqRIIjsSwaEoFg82DESjco3xrDV5/BWfCMk5g78XTugQuVeWHr+ExOTWGJxcLQptLqtxSuB0XIJEcvR0cAYg3ZF8yUp+XFoDEppdcKqZ6kMtUuNH+9w7/Q++G9ejzWrVmKltze8eVduOoanCt1ZisOF6fVRsO92fGYizKnJZijlsBffuEUR2GxXH5Zr7iM2KhSuzYui2si9eJfiMJlQolAIYvXA47XVUFRLhCqj+3PP+gjWS5yItT30YGjRBeEJAstzKEJfXKR6Db9zFZNtnZC7rD10qo5D7R5z0cF6Nuo1GQHdsoMhqjYJtmsf4a7AugobdR9ek1fDfvFVXBFanlGmcb/3921CtQpDUHrsOdwRWP7kxTN4WA+DVqU5mHXpq/zyvxqNoBlTmGs9HM3nP0wlaGW06TyGDGrL24d2wdxsCEQVR6GW5UJ06z8H9Rs5QKfsCPTc8F5wnfSZFdqCzEgJQpZ58+bh169f/E9EVkb1ISghCnsXL0DgfaEZC+IQdWQpPH3v8nd2YhEy3BhaPTfhHfdzSj7u6IdCBh2xXH4sHMePsHEop9UOyx8rOh7uB8KD3NGjekGItLSgJaBeVWeEKTRBQzxuzGuOQkIhiOHbgdGoVH8qzscBX8OcUM3YGlveSqcgJpQoGIJiLnfh7gD1dm6AFqVKwDFgQopnhJL92g8jSunAzG1oKtvLmQh9cZFq9PljLBgwhuloDkOVwXvgfyNGsuzFGwSvXgmzqvYQVZmK8Qc+pVw3LUacgHVNe+TuGYiw5wLLM8o07jfjQxDji0+4fPNt+kJlek3PMWREW754iUUDHCEq7wzbrc8kd2WiXiJgzU4sOPiP/DqqMCu0BZlhEoQ0jx8/Rq5cueDv78+XEFmZDLgTFI/3D8/j5PlwfJa5QfPl2Q2cP38bL5P/bsThlGsVaLVbJvDMD3B8YjXo1ZiEk6mEkm9B9sgvssLmD3zBH0nE80BH1DTUQzkLV6wNvYgHz97i4+fP+CxldEysghMt/DkExV/3RLPCdvCNZnJh5Cp0KWiOBSnG/DGhRIEQxAWgykXRfyP7DNAcvDzYgglCJTGGf0ZIum7cxdZoaGCEwQFTU5RLzJkIfXGR6vP67jWoWN4eebv4IShCqE40QufNQv6yQ1Bs8BGcfyG17PknXLnzQaAD+RV37r/GlQg+JDz/jNt3j8KK7Tj32I39Dz/iVsQn3Bd3oJntXL33Mbnje+fGIwTtv4nQKx8QzpelUFX7FVDpEMQfk/huwq3rDxCw/xYO3hDovL/4B1dvv8dd/lqGR77HRal1U/oZ126/wS2ZY37w4BkOHLkO//13EHb7c4plnNLH8+Itjh6+jsCzr3FfvFzmGKT947YVvqZfcPXSPQTsu4bA0y9xO8UyASOvYkSLIRDVWoHVgp9DIRXYRzqug2LnEIOrF+9hV+gNBJ9/I9kumSUkCGn69+/P/YN6tWrV6G5QNkC1ISjxFQ5Pb49SBjoQiQqihccFJP2J+IH724ajbiERRAWtsTn5jkgiXm3oAb1y4wTvvmyyMoRe51V48vYUls7cjPspnhtKQPjSttCq4Yaz8vMtyPP1GFxr6cGwgRtOCI+uSyN/DkFxZ91R12Qo9jAFP05PRu1ittieYjwcE0o+94W9SS6UduyHL3KBhQ9AVYph8NaxzHUUl3vgRWhzNCtlivEh0tNneyBydWUYGZaH1z0PvkzWnInQFxepLj9i/Zix0CnriG5rXwoHDsbwW4fRvYY9RGbL4P1AXP4FxxbPhlHZkbDeJnOHKOIYrKrZI491CE4xncy1o0ZDp8xgaKVwKOpMv8V0Gr/i3Mr5yFNxOiYdvIX5Y6fDpJI9V0dU3hFmw/ch+JHUtlW2X6n1pFQuBPHnUMENY4NuwHPUVJSoyJ9DxTFoPuk0TiaHhK84v2o+8pZ1QPd175ifP2O7izN0y41B323sz+J6rDHYP28G8jDt02tj0nCw26eOYVR/N5Tgr1HSPkajwehD2P9Yso/k49l9Hk6WY6BflqlbcRomnWDv9MkeQ9J6f9+2Ytf05vHDGGLpxGyf307ZoSjWcQU8Dsmen5RR9+BiMRRaFSZhxN6/D31TbB/KXQdFt//w6jmMt5mAfOw2uTrDUKqHL3wfSrZDZq4EISY8PJzp+4qSRxbt3r2bX0JkVVQYghLxNtAR7R388Oj1ETib6UGv+kQc+5GID2FuaFq+FUbPcUW/IWtwVyrMJIQvR3uDRvC4Jj8zwgXPlsivlRelGvWD16l3/HNEPIlvsc06H8qPO5IcPP7Ej5OTUUvPEO287il4p+dv/CkEJeDhMguY9lqPpz8eY6tdRdQcE4oP/AkkPPTFRLtqaFfLCHoiLYgM8qF+p+roN7E3HnBTWbPOwYcz3bFo93iBu0QeeBbaEfOTp86eg7dHO6JXNR1oifKjwyQ7RNAzQckIfXGRajLqblLHs9IsTD37RbgO6/OHmNyNqVfRHc5h4uFyX3Bk4SzkLjsCVptlw8hR9Kw8GLmtgnH8+Rec2XsIMxesRuMq9tBv4YUJi4IwffFeeB95ywSvrzizwhNG5UajavORyNvEEyO8wrByYzCG9hgNXabzWc3lAq4lb19V+5VaT0plQ1DSOYxExaajkK/5fIxcGoYVq/3Q03w4RMy5WW54we+Tr1tmOLr4vOXWvx24DpXKD0GJYcdxWbwf1qgHmNRlGES1FmPxDXZf0fCb7IoS7RZj5OKj2Lj3Ovx2HsKYPmOZ6+QA80Xh/N00yTWtZj4aeRp5YPCsnRjn4gefq+x25I9BsW3//Zo+vHgYlg2HwKCxJ8atv4zgE3fgu2Eb2jccCt2Gy7D8mtTdsxQygW/BLBRkQodu3RkYuvpGqpMhKL4PZa6Dgtt/8RLLhjKBsOoUDPK5jJBT9+C/PQQjhmzEipupnSOpbglCjK2tbXIAYq1ZsyZ+//7NLyWyIqq9E5TwFV+4FBCLsAlVoGfYDotO7MaIuk3hcuB1yhAjJvEV/PuboubEE5B/iugHPjx/ic8CM8clhHvDolAzzLumyG0g9o5TL+TVqYCxB1X1R0s+BBW39sa5C6cRus4JFk37YtHOHZhj3QANB/jgitzdJ6GQktHmTIS+uEg1+fgcBjGdPVHVJViW4m6LrO+waMBwaJWfgKFB4uFRioYRcVlqz5GIO6L2yNPGBz5XJM8khd88DusG7BApLyy5Le5Yqmq/wqYrBDHnkK/9Oqy7KgmUt/ZsQNXy9igy7Biup6gr1fFmh4K1HAIds6VYfidpPdYHx3eicaUhKD70KC6Jy+69wVWZ83h4LhAtK9kjb/9DfD3xPgZDp958eJyUHS4n3PlXbNuMqV7TT9g+0QW65V0wJED6bs5XXNi0DCblhqH5/Eepz8IW9RjeE6aiaDl7aJUdgsLmCzDSRzYMpWUfylwHBbcfeQUOLYYgd7fdOKjA54rMHAmC5cGDBynuAokNCgriaxBZkQx4JiiJj/4DUVSnICpVrYvePrf5YXHCJDzeBrsqTTH5qMzdntSIvQMfy8poOeucQHASIgEPlnSAkcyHU0jlJ0aoBcNilVCpmCFKWa7ApUubYV+3KCoP9IXwvA1CISWjzZkIfXGRavLxadjVZUJG9aVY8cfnMD5gyaDhEGVoCBqOzqvfSJWzfsAqh1HQyZD9Cpu+EMScg4/MOTw6CsvqzP4tg3CU279Qxzsau9wnQb/sSPRc/5q/YxSDfR7TYFBuDGy2SoKKoMw59qkhtA+mw75AfHdIWqFjSEW5bSeVCV7Tpzcwps1Q6DZdj22RUuWM4VdD0I4JUwWHHMNNqXJ5P+P03n0YZu2CgnwYKtFtM9Zd4YNlmvahxHVQdPvPn2B2HweIKk+Crc9dXBZ8pojMbAmCxdraWrBPaWZmRneDsjAZFoIS7nuhnZEI+XuuRZQCyebr7a0Y3aEd7BcdwKNUx7cl4tW5DXDu2grW84/htUKJiSUBj5Z1hJFOSXQYOw8LFixI1UWrDqYSWmQRHg4XE7EJNmWqwTH4LRI+nMD0VuXRfsElyL/KSCikZLQ5E6EvLlJNRl7CsGZDmA79fHhyw60E6rAyHb4ZvZiOv1LD4cRlfw9B8h3yaARMc2PCgQN6bfrIl2WhEHRZPgTJncPjU7CtPQS5u+/GIW7/wnUfHN6OuhXsYTzoMC6wHeqoe5jYaSh0Gq7CuhTPmMTg7IEjmOS8DBY9p6Fu20moYT4OhctLn+OfrumfliuybcbUrmnEcVgxgU9UfjgK1XREkRQ6wKCsPfL0O4iLyfv7k9E4ExqKARYjoVNmCIraheIYu6807UOJ65CG7d88vAedmwyDiAlqxq08MXjBaey//4ffI1LtEgTL7du3cePGDW4InDgAXb58GZcuXUJ8vMBwJiJLkGEh6NMpdzQ2FMGw9ULhF6EKEf8Otw4dw51UQ1ACnp47iPNRqVZIlc9+/VFIVBQD/T/zJekltWeC4nBzURsYN56B88zfx9hLHmhRvD0W35QdticUUjLanInQFxepJsXhprwLRuyVHSok5cPTsK03RG5iBLWEoKmTmRDkiD5bxPvI4BB0YCvMmDBSZPiJVGYbC8fUHmwIkg6OfzgHBUOQOPSIai7CIma7D475oUHFIajgdAG3krcXg8OrFqMcU1641XwMnLYL05bsxazFa7hndNIXghTdNmOqIegYFyB0m3hh8prD8For47pj2HzqXarPYwkZfj0MvdjPXmVPzGGf40nTPpS4Dmk8h/D7D7Fu8Xp0bjOK+ZzaI1+bNfC5TkEoq0gQ0tjb23MBqEmTJnwJkZXJkBCUEOmPoY07wrKjCXTYaaIVmsI6Y0l4sBQd8+qh4qh9TGhRBamFIIaP+zCqqgl6b4xEQuIHhDhWQWm77Uj5TlehkJLR5kyEvrhIdRmNwOlu0C8zFNVdL0t1tqX9inMbl8G0XNJdinPJw36+4sSSOTAqOxzd1srM+vXoCHoIhZFafw5BckPJXr/BkkGOEFWYhDEHovkyVe1X2PBr+9C+sj30221DwFOBOg9OwobplOs2WYctycOl/tDZVjQEMeHuwLwZTLhzRJfVUQieNRUGTDgdHiw1xXbkJQxtyu57Fdbckepoy4USJTr/Cm+bLxO6pvw01zoNfbAxeaa6dMqETvfubOicgSmnv6RxH8pcByXP4flLbHWfjvxlh6KRxz168WoWkSCkGTx4MBeCmjZtypcQWRnVh6DP5zDPohb6rL2Hh96dYaRTEWMPsoPBEvHp5SuBYWFqIjEKW+1MoZOvCSYeeKGCGeLicc2zWYoQZDo8OHl2uAfMuRvXmoAw9j1BD1eia7HacA6Tjl9CISWjzZkIfXGR6vPh6T1ozQ7/qeaOEbtfyD03cfNEKHo2GQpRpUkYEfwh5bKty1G07BBUmnBB8pzH82dY5zKFmzY4RRh5fAb9mfCg32YLdqUIF+KOKDupwHqsuyaZVODh+RB0YDrguo2ZDqnUxA2q2W8qPn+MWb1HQFRuLLqtDJd5F9EHBM2dhcLsjHUpQuMfOtsKhyB2EoIgmDMBrFDfjbDvMBT6rbdgp/QxPwpDjyr2MOiyC/ulJgu4dXQnmjPrpSsEKbxtxlSv6Tv4jBwLnfLjYbMl9SnXhQy/dhnLfR9IzQKY5P0zwWhbg/0MrMFG7rm1tOxDieug8PY/447MM0P3929BrQrMZ2PyVXpfUBaRIKQZNGgQF4KaNWvGlxBZGZWFoI8BY9DaZhxGdayAWg4BeMakjLjz01HfQA+Vhvji5nkfDGg3GsHJ7whSP/GP/TCsZl6IDEzRyMoRrjPnYr7SzwTFIsypCvJLTYxQ0HIDXopPLzoME2oZw2L5PSYufcOl+W1h2tQdp5JzkFBIyWhzJkJfXKQ6/YzQZQtQujwThCqNQ1OHzZi8ZB/mLguE0/j5qFFjCDfFc6u5N+Q6qOE3j6E3O1SpkjO6zAjF0rXBGGnrjHxmzqhsxnT8pcMIP4xMVN4JnWYegJf3bkzzjWRCl7gjao88VYYjb/P5cPQ6jKWr/GHVlgkjZR1hvvB+ik6lavYr2Z6sN/f7oRn7XqQKY9DYYSumrTiIBct2Y8QgN27mMqNWPliTYsjTHzrbaQhBT55HJj1sX34oNzW43PuMoh5gSvfhzHFNQPf5p7Hz8HWsX7EB5vWHI3eldIYghbfN+Idrev94IFrXGgKdmlPQx+MgfAIuY3vAKSxevBV9rWbAYZfAy2MZ7+7diCoVhqF0Zy8M8wjGfJ8DmDXbB+aNmf2UG4POK8KT764ovg8lrgOjItt/eHo3WjWbhQFzD2PD3hvw23kQo6zGMOHJGfYBKf+xgMw8CUKagQMHciGoefPmfAmRlVFRCPqBoy7VoCfKj1r91+CaeMq2uFtY2b0UdLREyFe1N7zOfVJs9rcMJP7FSaxxtUOHehVRPL8hdGSmNFRsdrgYnPayRI38zDpGhWFiYoKi+XSgpVcGbVwC+BCVgKhtdihtVAglmeUmxQvCgLkOJq1mIOwju1wopGS0OROhLy5S3f6DsB1+sOo8DnnZGbnYFz8yiso5oEyXZXDe9iiVoXJfcNp/K1o1ZDqq/MsiTbqsxvyDVzC+w1D+paXiul9xMWAbmtcbytd1QIv5D5iOraQj2nnRGUweODFpVjAmFOlWn4jOs87jjLjzrdL9Sm9P1q+4dDAUg62cUYgJh0nXwx46VZmQOCIAW69JpvEW1z+/agH30s0eMi/dFN81kQ4oqdZllp32WcQELebaV5mBycdl98PemQmFTfuRSS/9ZI5J38wNveafwGSb4TBiwh83ecAf95H6csW2nbR+6teUWRa6F/26SX+W2IA9GmY2G+F9PpX3UT2NxAaP5WjayAE6yS8fHYIiLT0xfM0dXE1RX9F9KHcdFNr+o5uYPtgNxfmX4rLLc9ebCtvlt2SOlcxMCUKaAQMGcH3JFi1a8CVEVkZld4K+vY3Ag8fv5KfC/vEejx88wXv6WyGDUEjJaHMmQl9cZGb5FbdvPUbokZsIOHIfR28L/6u9nE/f4NjxOwg59yp5RrWHEe9xPVLgAfFIpu7J+zh45V1ypznlv8Z/wdVL9xEc9hBnHv3lAfN07Vcx795+gv1htxF8/DEu/HEa8WjcvP9BcBjUg/B3MseUel32etx9+BZXI+QDULIvPuHc2TsICgvHOf6YwiM/pGEfrKksV2jbvH+8pl9x63o49h1hrt1J9tr9pS3FMvs/f+4eAg/eRuiFN384flZF9qHkdeD8+/bv33uKA8znY8+Jp7iiyHBLUq0ShDT9+vXjQpC5uTlfQmRlMmRiBILISgh9cZE5yb8NWSJJklROgpDGzs6OC0GtWrXiS4isDIUgQuMR+uIic5IUgkiSzBgJQhpbW1suBLVu3ZovIbIyFIIIjUfoi4vMWV7Zvh6N2kyH407xC1FJkiTTL0FI07dvXy4EtWnThi8hsjIUggiNR+iLiyRJkiTTK0FIY2Njw4Wgtm3b8iVEVoZCEKHxCH1xkSRJkmR6JQhprK2tuRDUvn17voTIyuT4EBQTE8P/H6GpCH1xkSRJkmR6JeRJTEzEkydPcOXKFVy4cCFHyT4LxIaghg0bCi4nlffu3buIjo7mP2WqIUeHoC9fvmDatGn8T4SmIvTFRZIkSZLplZDAdlCXLFmCcuXKcUGAJFVtrly5uMkn2FD0+/dv/pOnPDk6BPn7+6N69er8TwRBEARBEERaOXnyJAwNDbmOqkgkQrt27TB48GA4DB+eoyxbpgx3DUxNTASXk8o5fNgw9LWxgampaXIgsrKywn///cd/ApUjR4cg8VSGUVFRfAlBEARBEAShKMeC/WBgYABtbW04OTnh/v37iP78OUfapUsXrl/JTowgtJxMn58+foS/nx93A4O9zr169UpXEMqxIejnz58oUKAAdxG9vb35UoIgCIIgCEIRwk8EwEBHxAWgDevXC3Zcc5KdO3fm+pXsnTCh5aRqfBYVhXp163LXesyYMfynMe3k2BB06tQp7uKx0iweBEEQBEEQaWOCwyCuH+Uxe7ZgZzWn2alTJ+56dOjQQXA5qTrZIGRsbAx9fX2lJ0zIsSHI2dk5OQTp6enh27dv/BKCIAiCIAgiNX4n/sT7TaORP18e5M2bFy9fvBDsqOY0LSwsuH5lx44dBZeTqnXypEnc9V68eDH/yUwbOTYEVaxYMTkEsQYFBfFLCIIgCIIgiNT4cdQb/oPrcP2noUOHCnZQc6Js+GGvCRuGhJaTqvXhgwfc9W7UqBH/yUwbOTIEhYeHJ4cfsewsJgRBEARBEETq/PfkIqJnNcT6RTO5/tOCBQsEO6g5UfbxCvaasMPihJaTqpe9E1m2bFn+05k2cmQIYm+bSQcgVnZc4a9fv/gaBEEQBEEQhDS/fybgV9xX/PfwJNasWcP1n1YsXy7YOc2JshMisNeEnSBBaDmpeosWLYoSJUrwn9C0kSNDUIsWLVIEILGXLl3iaxAEQRAEQRBi2OeAvm60R/zNfdzPFILkZafGZq8JO1W20PIc4/sXeBIehXf8zy/unEXYoTBcuPdSvm46pRCUBj4zF4x946x0+BHr7u7O1yIIgiAIgiDE/Ahbji9enfDrxxfuZwpB8rZp04a7Jt26dhVcnjP8iPsruiOvfn1MDj6MFUOawiS3iLsuotyl0drJFzffy6zz8Qnu3Y1KWSblq7t3EPFReBmFoDTw+PFjTJs2jVMcflq2bMkFoA0bNvC1CIIgCIIgCJafr+4henZDJLy8w5dQCBKyTevW3DXp3q2b4PKc4UfcXdYFeXSKoUqVEihQrRucF6/H5pXTYGOWDyIdU/RdfxefpNZ5unsEqpXphDlHnkhtJ8kXp5aiV6WqGOb/WG4ZK4UgJWGnxmY/rPSyVIIgCIIgCHl+fY/hngX6+fYhX5IEhSB5W7dqxV2THt27Cy7PGfIhSEuEAg1Gwf/W++RlL/aORU09EYztNiFKep2P9xE0sQWKl7KAx2FJEHpxygu9KpREK7cQhNOdINVSs2ZNVK5cGb6+vnwJQRAEQRAEwfI7MQFfNwzGj6Mr+BIJFILkbWVuzl2Tnj16CC7PGYpDUF5YrgpPuSxqA/oWEsGw/XxclRsS9xDBk8yZINQRHoce49lJL1hWKIEWE/fgYSoBiJVCEEEQBEEQBKFSfhxZii9LOuPXj3/5EgkUguRlH6/gQlDPnoLLc4aSENRrtcwQtpe+GFxSB4at5uCibAhi/fgI+6a0QomStVC7TDE0mxCI+38IQKwUggiCIAiCIAiVkfjlLaLnNMXPV3f5kpRQCJJXPPuwpaWl4PKcYTpCEOOzYx5obyyCVr5mmLz/cYpnh4SkEKQk7Hzu5ubm2Lt3L19CEARBEASRs0n88o4LQezzQKlBIUje5s2bc9fEyspKcHnOUPkQ9Oz4QnQvVwItXbbAd2oblDTtgNmH5CdLkJZCkJLo6OhwH9ZVq1bxJQRBEARBEDkX9jmgf9cPRGzQNL5EGApB8jZr1oy7Jr179xZcnjNULgQlBaCSaO22N+kZIHZonFsrbrKEOUciU9SVlkKQkgwcOBB2dnY4evQoX0IQBEEQBJFz+X7YC1+WdMGvuK98iTAUguRt2rQpd0369OkjuDxnmPYQlBSATNFuWmjK9wF9vI89E5ujWOnOmHf0qaRcSgpBBEEQBEEQRLr4/b9YfFnRk3sv0N+gECRvkyZNuGtibW0tuDxn+BEPvHsgn6ggrNfKDGV76Y9hpZkQ1HYerkiFoLeXNmHO0kN4IjQJwsd7CJo7E1uuvpFfxkghiCAIgiAIglCaxJi3+C/8NH7/SuRL/gyFIHkbN27MXRMbGxvB5TnHN3j2JApvBZa9e/4EUa8/ypUrK4UgJSlQoACMjIywYcMGvoQgCIIgCCJnwb4M9d91/fFtpwtf8ndUEYI+//MPXr96hVcvX2qEHTt2RDGmUz5kyBDB5dnVfz59Emy/rCCFICXJlSsX9wvs4+PDlxAEQRAEQeQsvh9ajC9Lu+JX3De+5O+kJwRdOH8eAwb0h6Fhbm4bZNZWJBKhQ/t2CAoKEmzPzJRCkJIsW7YMS5YswZ07d/gSgiAIgiCInAM7/C129yT8fP2AL1EMZUNQUGAg9PR00al9QwRvn4bbZ1bh7jkfMot65+xqnNg7D8MGWEBXVwdT3d0F2zWzpBBEEDLcf3sJMw/ZkSRJkmSGeOnZYf4bJ/uSGPMGP455K/wckDTKhKBLly5xAWj+jMH4730omc08EjgH+vp6WMu0vVD7ZoYUgpTk8ePHiIiIwL///suXEJrCrddnMCHYgiRJkiQzxDOR2ftF69xzQGvZ54Am8iVpQ5kQNMTeHh1a1xPsYJPZw5mT+qF6tSrc81xCbaxuKQQpiba2NvcLvHbtWr6E0BRkQ9C0g31IkiRJMl1Kf69k9xD0/eDCpOeA/qf4c0DSKBOCChTIj50bJgt2rsns4cu727h2v3jxomAbq1sKQUpCIUhzkQ5Bq8+7IuDuMpIkSZJMl+svT9OYEPS/i374+SZtzwFJk9YQxM4wxta/HLZUsHNNZh/ZIY0HDxwQbGd1SyFISc6ePYszZ87g3bt3fAmhKVAIIkmSJFWtJoSgxOhX+LptFPdi1PSgbAi6emyZYMeazD7mzq2PA/v3C7azuqUQRBAyUAgiSZIkVW12D0G/f/6Hf31s8W2XK1+iPBSCcq4UgjSAnTt3wt/fH5GRkXwJoSlQCCJJkiRVbXYPQdxzQMu6p/suEAuFoJwrhSANgP1lZF23bh1fQmgKFIJIkiRJVZudQ9DvxJ/4+fo+fr6L4EvSB4WgnCuFIA2AQpDmQiGIJEmSVLXZNQQlfn6JL0u6IDHmLV+SfjIrBMXd8cT+/X6Cy+SM3IBTPoMxumd3bL0WonwdKb/eWIgdngMwY9JQbD+4Fd8F6sj67epi7Ns+DXu2TcXeQG+8fSNT5/EanPabjmBm+R6mXmjIGnyQXp7F/FsIevP6NZ4/eya4TNVSCFKS2NhYzoSEBL6E0BQoBJEkSZKqNjuGoKTngPoidvdkvkQ1ZE4ICsYtj7ooZ+mEKNkgIWBc+Eacm9sEhfTrYumFYKXriP16chSszJpg8UFf/HPZDSMb1MWCo3sE66Y0BJ8uemCxZSnk1isBuxVr8E22zpNlmN+6ANpM8cIHBc4tM00tBL17+xaLFi5E8eLFsT80VG55RkghiCBkoBBEkiRJqtrsGIJ+HF+FL8t74Hf8d75ENWRKCIr0xKRauhDlb4gV5/8cWMR+CeiJKoZ/DjiK1PnvfRDOOFdEgQ6OiOBCyjZs6J4flku3IE6wvrzfjvRHs9xaEBWuDY/9/jLLA3F4VG2M8w+QKc96yoagD+/fc58DExMTro1ZQ/buTdH+GSWFICVxcXHhvHLlCl9CaAoUgkiSJElVm91C0K9v/+BX3Fck/vOCL1Ed6g9BIXi53gLdrZqjlr4BWk5dLn83RcAvgZao9rcQpEAdNqSEjSqD3BW6Y38kcyyBfWFeqi68jityJyhJNgRZdOkA24q6MKrRBYE3pIffBeLouAZw2R0oVZY1FYegTx8/Yo2PD8qWLZscfqQtVKgQihQpgho1asC2b18EBQbi8z//CH4+lJVCkBL8/v07uZE2bNjAlxKaAoUgNXnBHXPXjYD7GkV0xJz985LX3Xp4Ijx9nTB//xzskt4mmT4vzcDiHeMxd4crfC4LLBfQL2wCpjFtNG3HVGwXWK5xXpZco9UXBZZLe8sTK3c7YS7zWV16YrFwnUx222EXeGwdh7khHvS7lMFmpxDEBp9ozxZIeHmHL1Etag9Br3ywwrItNlxaijlNDGBgZo2TzwTqvdmOs0ttMM7REuMGdYLb6BYoLxtwFKkjZwier2wJY/0SsOjdEHXNmsFj50Z8uTAVcx06Y8TgHpixaBbuRQqtmyQbgjoPnoKngdZoll8Hpbs44nryOQiEoDfbcHqZLSaOt4bLwJawHjgIe86zd4qC8eLIZHg5tkCXcS7YP6M1zOuYYfym9XgmLh8/Ay+OOcO1R000bNQUblvW4dsTb+wY1xwtzSrDYtgE3BS6fgooDkHs0Dc9Pb3k/rQiNm7cGJcvXRL8jCgjhSAlqVy5Mmcgk0wJzYJCkHr029MdNQyE/9DJq4vqThPhx627CJ6jy0JXS4QiNsNU0/G+6IZJzn0wQ7ZTm1q5huoX0BXV2TYxqIgBexTrtG+cWwe5mTbSb2kF75vCdTTJ5M+tQTn03fmXa3R1JLpXyMV8fvXRZPbsLBgyFmORUwXoaWmjUO8h2CZYh1SV2SUE/U6Ix7+rbRAbMIUvUT3qDkFfQm3R02E63jMB4L5nA+TXM8VYv50y9QJxZU4z9Jg0P2nygTeb4N+vBLT0pAOOInUEfOOLS4tbobKeNgq3s8elcPEyf+zuXxRm9u54+pdneZJCkDs+M8dwfUETlNbLg2ZOc/CGW082BO3EyclmaDnKA2/Zn5lAdGBkBeQp3w7bLwfh/Q1PzGysA4MKjTDdZwYCV4zHvrM78eGWJ6Y30kGBFp0xZ+ZY7Nntjvldi0LHpAnGu/TF0vUeOOzTHU0MC8B29VaFh/JJKz0c7uGDBxg1ahRTlpv/rk+yQf36mDp1KiZPmgQ7W1sYGxsnL8uXLx+OHD4s9xlRRgpBBCEDhSD1mNyZFBmipFlF1Gj4Jyuj/Zwp8OfWVW0I2nVqGLrVMIK2UT2MOff3ck2WQtDfpRBEKmt2CUH/uxqILyt6qvw5IGnUG4J8ETikCTwOB3E/x90YDxtjHZS2nYTXUvXiro+HddmW2HxXUhazvTNK55YEHEXqyBnuhVV9a8Ji7GRsG1EOBoUbYsU5vu6rlVgy0Ar77/99ZjlJCGJ+ZsJXoH05GOmbYpDPOnyXCUHfzznAokAlTD2QdM6s7Hn3LqCNKiNmM9vwxcbuBijSdzL+4ZcnuR0buukz362uyTPMxWzvBFP9Wph/ij/ml8swp5E+6kxYiK/J6ymu0MQIjyMiMMHJCXny5OHa2d/PL8Vy9rmhuXPnQkdHByKRCIsXLUqxXFkpBBGEDBSC1GOaOpMpVHEIOtgb9QyZ45ANQamUZ1lvzcbiTSPgvs4JKxUcyiarMiHI/9QULNg5AQtCZmGHwHJNk0IQqazZIQT9fPMAv38m4FdsNF+SMagzBH2/OAq921hh194FOLWPdRbmdswHnSLNsV5qWuvXK1uicI0+OPFcsq7s8z6K1EnhqzXYZFUCxTuNxP1XzLFcGIWexrqoNMANz98E4c4KaywI9JVfT8AUIYg1YiE8WuSDXtF6WHDIVyoEheCpV2Pk1q+PFZelwtWrVVjcUgc6Dfrj4ssd2NTDAMX6T5Fsj1O+XO78mHPyamWA6qM98SV5PcUVCkFin0ZGYvLkydgXEiK4PDg4WGV3gVgpBCkB+0yQubk556FDh/hSQlOgEKQeKQSp2MsO6FRKBC3D6hh6cIlwnb+oTAjKaVIIIpU1q4egxH+eI3puM/z34DhfknGoLwQF4fzkRrBxc4bvmonJbpthjsp6RrCYu5p/V08wbs80Q+4KPXBI6lmXlAFAkTqSctaYAEtU18uN7gs38kPHAnDevRYKGFbA0Im9MNbTC59k1klNuRDElp0bD9uyOshj1hUzB9XnQxBznLPMoKdTE/NPSk+8wAYcfYjq2uLcc1WEoLkqD0HqlkKQEiQmJnK/jKybNm3iSwlNgUKQesy4ELQEm4Id4OjUFh261UZD8+qo364u2vS3wPBVk7A5ud5iLPHuhQEj66GMPnscZdB6XHcMcLXBaA9LgXI7zD4uEy4uuMF9Vhd07VUPjdrUQtPuzdF7yhAsOiMfQrbvHoRBzj3gsHYa/G95YOFSS1jaNEDT9rXRondr9PMcrfQdHM5MCkFJ59UdAxeMxya5ciXPNw3XNUlF21xS32djXwxkjm+cnye2BA6CtXU9NO3WDL2nj8DyPzwDpvIQlOHnmqTfcSeMd26D9sw6jTo2QKexzOc5bAGFIDWalUPQ74T/4d9V1ogNmsqXZCxqC0EPp2OsRV+ckn2I/9lCTK2ji9yN+uPSy6SylyuaI59eDXhKzdgmDgBL+ACgSB2JwbjjUQdGWgZoN2uV5MWoTxZiVtM8MKjeEweTnw1ifOmL1w9THxYnFIK4We/8e6FhXm3oGZbGBH443KetFjDVyod+PlJ3md5shk8nA5j2d8cHgbCTJIUgRcnRd4Ls7Ow4T58+zZcSmgKFIPWYISHo1mxMH1cDxXNrJ/9DRQpFBihrPRAruWdXFmBi7/zQlq3DHE+LdvkEyivALkBynJv8eqNl5dx8PW1oixj5/9cvY4b+m1N2epOencmF0gNsMLRrceQWSW2bVSRCocadMPOMZJ00mUkhKLVngpQ937Re17S1uVjxZ0gf9Ub3QquyOsntrZ2/Fhz+cP1UGYLUc65eWO3dFjWK5ko+xyS1oWtSHRbdSjHXgUKQOszKISgh8jIXgn7H/+BLMhb1hKBgPFjYDJ2nCU2HvQdXptZAbj1TjNqeFBTirk+AbTEtlGg7AEfvsGFkB85MrYsi+jUx/1RS6FGkjrRvN3RAaR1t5K7VDXuuJ4WIDyec4WJlBrNCuijdsifWBa3C0xveCJnSCyuOyW9D7Nd91mjR11XgztFuXPJoiJL6pnAST4wQOR/u9fRRqMMI3H3F14uYhpGVq2F6KDtDnC8Xdgr3nSwTgnyxobsBjO3cpEJQT1RlQ5743UqvfLgQVHXUHApBBKFpUAhSj6oPQUuwbmkTFNdlO7Jl0H7aCCw+Og87rs3HupDRGD2kKoroMPvTLY7u6xdw9TeETsDcVR2SjoMJD/02sVMfu2DBLqFyV6y+lLQv//12aGHKBA6RPkw7doaz/wxsvb4QG0JGwqFvOeRn9pOruBmGB0vOKykUMF+GBQyhl98ULcb2x4xdblgWNAbOTvVRNi/TsWW2V93JhZ8FL41myRCUtvNN+3VNa5uLj0/yGcpXJA90ipRBi8EWsB7aBE0GDcTaW+J68iZ/bvVLocfKSVga4pa6ewagQ1nhEKSuc/UP7o0Gxux+cqNCr15wD56NrRdmYpF3d7SorJ8cuigEZbxZNQT99/gCEr+8xe/En3xJxpPhIejNdlxca43OpszfGKvB8D+wUXInhvHT2dnw7lceBuzfqCot4bHOCy/eBCNic080L6IFUf7iqFmnLsaMb4sq+kXQffJ03H3CrqtIHSmfr8LWARVQWKQNA+NSaFi3Mtr1d8CJO3vwdNcA9KyYGyLmvET6xmjv6oHXgjPEBeDR/ilY0a8C8pRpgtlrPHBTdiKFV+vhN6BuiimyY06Mw9A6xdB0wFBsXTcecwaZY9xKbybcBODB7mGwrcj87pduhnkB6/lrE4CHgUx5OeZ4zDoz348b8fWWF7aPrAEjraLoNXUGbof74bYvc9wmWjBq3APbDin+slexFIIIIgtDIUg9JncmRQYwrlwKFWqmolkt9PddJLVuKiHo1jQ4tDOEtkgXlUc5yQ+Tu+mGQc30mE6fHmq6TOJnmlPmmSBPuNkVhQ7z5ZmvZU8suiq9jPHWTLj0KcYsF6G49RBs5MvFYUFLpyBaeE5L3n+SCzBrmClzTkyYaNELy1P8S76Qi7Fofgd07W+OLmL71UHF/Eyw0DVGnT5S5YzdJjtiwx869mJVH4LScr5KXFcl21zyGWKOT78kuvgo/o6c5M8tu67CyoYgdZ3rfLgPSNpOwXZ9sOx6ynV8gyxRrzB7V4lCkDrMiiEo8dMzRM9pivib+/gS9aDOiRHS6rd7q3Ay0BNXbgQgjvn/yxf85Dr6itSRGIQXpxfgSMA8XL66M2W9p5twda8nzp7zTRHSlPLJVjyPkA1HvnhwcC6O7F2Gx49TH2qnTikEZXN+/vwJIyMjTl9fX76U0BQoBKlHhTuTuiXQY+NCqXVTuxO0AD6BY+G+bAg8jnhJ1Zcsd+2TH7m0dFCJ6USKZzJLcwi6OBQdTERM574w2q/wlJRLuWNbB5TXZ/8lvwkmXkgqE4eCXCbNMEngmZOtXo2QX6QF3VoW8LwmvzylC5hOdGHmXKSu0x9UdPrqjAhBCp+vUtdVuTaXDkG6tTpi7l+vt0RJeNdF3mKFYGzyJ/PDSJcNGTIhSF3netUR3crnYvZTCO2XCe1nLlx6F2TWoRCkDrNaCPr9Xxz+XdUHsXum8yXqIyuHIDJjVUUIunf3LjZv2sT5/t07wTqKSCFICRISEpI7F5s3b+ZLCU2BQpB6lAwrMkXnReMw13e8sDtcsPK89LqphSAZr3tidbATZq4aBMfJndHNsgbKGbPPReigguM4pUMQGxSqccdtgjauthg1R8DpLVGVCxPlYbs7KUwkh4XG3eElEEi2+7REcR2mU169Azz+2in3wsoNdnCYYS1xWlvUKcJ0rJnr2calT4plI5a7YIvgdlKaESFI0fNV9rqmUME2l3yGtJGn6wCFro3Y5M9tOp4JUte5+h+wQr3czDZyV8OQA0LBaQlWTavBDQmiEJTxZrUQlPjPC3zbPoYLQ+qGQlDOVRUhiA0/4n541NOngnUUkUKQEvz69QtLly7lfPDgAV9KaAoUgtRjmjqTKfxTCFqA5at7wqJNaRjnFTEdwqQ/kqza+nlQsFD6Q5DvhjYopSvZ7h9ln8/YkHQXK7WwIHb7GnEoaK9ACBIwSz4TpPj5KntdlWnzFJ8h66GpB2kBVRGC1HWufjs7ozJ7rLJ3M6Xctrgh8oooBKnDrBSC4u8dwX/hZ/if1E9aQ9Dnf/5Brly5cGb/QsGONZk9/N/bEGhra+Po0aOC7ayoFIIIIoOgEKQeVR+CFmHx9Nooxg4/EomQp3Q51O/aFN1GdofDohFYcHQOXHqzs76lLwTt2NwOZfWZTmfeSug6wwaOs/7g7IGYHZb0L/AUglIqe77KXVfl2vzPQfrPqiIEqetc/QK7JR2rYW04nhD+TGxd2ABGFILUYlYJQYkfozLlOSBp0hqCWM3MamL6RFvBzjWZPTwSOAd6errcS1GF2lhRKQRlMhEREZxfv37lSwhNgUKQelR1CNp1vD9aFmVCgMgINRxGwEfmIXD2+YcxnQ2SOokjlA9B/vt7oS43xKgSBgYLDTESlkJQSmXPV5nrqmybZ3YIUtu5nh0A80JMaNIvhd7bpScXEesFL5dK0KfhcGoxK4Qgdujbl5VWiA2ewZdkDsqEoBUrVqBokYJ4dW+7YAebzNp+fxUM82a1YGfbV7B90yKFoEzkv//+S774W7du5UsJTYFCkHpUdQhihxiZskOMDM3gKPtSU9YLI9CV65DqoNzwsZIQdLg36nNhpy5GS72zJrXygGtOsDbTYTqj+qjh5CLVsZa4ZU1rVChWBGUatIbrqaRjoRCUUrnzVeK6KtvmmR2C1Hau3IxyRlwwqsQEI7nzvOkG+xZscKIQpA6zQgj69b9v+H5ocaY8BySNMiHo7Zs3aNmiOapUKo2bp7wFO9pk1vTl3W3o3qkJTE1K4s7t24LtmxYpBGUiFII0GwpB6lHVIcjPv1PS8w/6pWG1TfqdMIy3ZmGaQwXk4V7YmQumg0fCV7zsZF80MWKPoyz6+Eqtl1r5XS8sm14LBZgOvHbBCrD0mZHivT5+R4ahay22Y8kcX9d+WM1PTZ3hIejuAqw/NBUrDszEZoHtK6J0CLLb6YmtF+en4gJsu5Z0B0NlIUiJ66p0m2d2CFLbuS7BBu/mKMmEJ+0CFdBrzUypacI9MW9yLRgzx0BTZKvHzA5B7PC3H8dX8T9lLsqEINbXr16hR/du3LqN61eDrVUr9LduoxHa9W7FnY8t81+h5dnRfn3aoGOb+tDRyYVatWrg5o0bgu2aVikEZSK/f//GmTNnOD98+MCXEpoChSD1qOoQFHBtAuwaJP2rtkH5mujp1g/OSwdi9BQLtGtijNw6eVC6ciHu3Sz5ew6SzAjGdFR7VGQ7qtrQNsqH4mUroPfmhamXs+tcd8MYyxIwYDqd2rr5UaFdU3Qf0QE9+9ZB5RI63DHoV2yMcfslQ50yPgSl3+QQxH+5pK4IxeyGc9dedSGIMa3XVdk2z/QQxKiuc701E26DysCI3U/uwqje1RyWDm3QrmVx5NExQJlqxaFLzwSpxcwMQT8/RCLaownibx/gSzIXZUOQ2GtXr8Ld3R0jHBwwfNgwjbBatWrcNSlUsKDg8uyq84QJOHTwIDe5hVBbKiOFIILIICgEqUeVhyBG3+AB6NSgANOpE3fWGUUi5KtaG1aLXLF+jTn3r+I65VtiCv/+Hm666RXtUKeMAXKx64kM0Wwu22FNrZxf7/oMzHBrjjrljaCTvD8mMOUtghpW3eF+KOUzGBSCUprq+abxuirX5lkgBLGq5VwZb87ETPcWqFOODVFJ62nnNUbdIYOwcEFjFC5ghBK2absOZNrNrBD0O+F/+OLdC7F7Z/ElmU96Q5AmOnToUO6aVK9eXXA5KZFCUCbCTpHt7+/P+ezZM76U0BQoBGVzb3lipa8DnOfbYcxCe7j7TcMWfkhawK35WH9kGlYdmYnNsg+W31qITcdnYt25hSk7q6mVJ7sAa0OcMXfLGHj4T8Kai8o9j0PKmobrqmybZxnVdK78u4U8tjtjxem0/MMDqQozLQQl/kT8zRAuDGUVKATJSyFIcSkEZSL/+9//ki/+9u3b+VJCU6AQRJIkSarazAhB8TdC8HXLCP6nrAOFIHkpBClu+KNHCA4O5vzw/r1gHUWkEKQEFII0GwpBJEmSpKpVdwj6+eFJ0nNAdw7yJVkHCkHyUghSvxSClCQ2Npbz58+ffAmhKVAIIkmSJFWtOkMQO4HTv6us8T3Egy/JWlAIkpdCkPqlEEQQMlAIIkmSJFWtOkPQr+8x+Pn2YZZ6DkgaCkHyUghSvxSClCAhIQHOzs6cN27c4EsJTYFCEEmSJKlq1RWC/nc9GF+8OuH3zwS+JOtBIUheCkHql0KQEvz48YP7oLL6+vrypYSmQCGIJEmSVLXqCEE/3z9GtEdjxN89zJdkTSgEyUshSP1SCFICdmKEypUrc+7bt48vJTQFCkEkSZKkqlVHCPq6bSS+75vD/5R1oRAkL4Ug9UshiCBkoBBEkiRJqtqMDkE/Xz/Ar7iv+J0Qz5dkXSgEyUshSHHPnjmDcePGcb5+9UqwjiJSCCIIGSgEkSRJkqo2I0PQ/64GItqzBX79+MKXZG1UFYLu3b2LiRMnoqNFJzRu0hQNGzfOtpY0MYGBgQEKFCwouDw72bZdewwZMhSnTp4UbLf0Si9LzUTY4XDm5uacx48f50sJTUE6BC09PRa+N+aRJEmSZLpcdd4lQ0LQz3cRSc8B3TvCl2R90huCLl64gK7dukEkEqGyWT1Yj52MIVPnY9iMRWQmO2TaAthOmIpG7TpDW1sbDRo2xO5duwTbUVkpBGUi379/T774fn5+fCmhKUiHIJIkSZJUtaoMQd8PLcL3/fP4n7IH6QlBZ06fRv4CBdC4Q1d47TuL0Bc/yCzqhvOP0HP4OOTKlQtrmTYXak9lpBCUicTHx8POzo7zwoULfCmhKVAIIkmSJDNSVYWg+NsHuKmwfydmrxe3KxuCxAGo84DhCHkWK9jxJrOeE5ZtVGkQohBEEBnEq5gnCLy1kiRJkiQzxMcfb/PfOMrzvysB3HNAiTFv+JLsgzIh6PM//6BajRpo12cABaBs6JiFq6Grp4fHERGC7ZsWKQQRBEEQBEHkQH6+fYTo2Y3w3/1jfEn2QpkQdOjgQeTS0cG2a1GCnWwya7vv+XeUrlQVM6ZPF2zftEghiCAIgiAIIgcSf2s/vh/24n/KfigTgnpaWqJVTxvBDjaZPRw5dwVKmpji44cPgm2sqDkvBCW+w8VNrujXxx17XyfyhQzxN7F6sAV6eBzFN8Thovdg2Dh64dCTH3yF7IpnFpIgCIIgiKzAj5NrkPjlHf9T9kSZEFSwUCFM3RAg2Lkms4d+d15z7X750iXBNlbUnBWCEiIRMKoxmjj44t5Xvown8Z0/HMxqoO+aR0jgShLw8ugsWNTpiRVXZCpnK2bi+qZ6aFPTGNXMTNCiVVm0MK+AXsNbYeOZiYgXDCuKOgNX19dF6xrGqFqzGpbdms2XeyA8qAW61jWGWcfG8H8gLicIgiAIIrP53+VdSc8BRb/iS7InaQ1B7PNA7HTYi/eeFuxck9lDdkgcO0FC2JEjgu2sqDkoBCXgoU83lGmzEDcUvrmTiJe7BqNiXTeczB7vDROACR+x/THCJBcqOw3GD+bn+I9jEOheASZGxhi+24W5MuJQ44m48P7YfihlmdiY6zbwPeXGXBWp8m92GFbSEMaFdVB/2nBu+1x5nANmNsqPgf5TJHUJgiAIgshUfr55kPQc0IPs/37CtIagfz594uovO3hRsHOdNfwH6/fuxbRNgZi6UcggLDj9SWC9dPjwIRZ4e6Jr9zFwvvBNuE4WU98gNw7s3y/Yzor6/t07Lvywsp8NoTqKmPVD0JdDGFvRFEOCPvEFYuJxz9cNwwf1g639cpyXDUjxV+HBdOa7+jzh7xBlNzyRcL8T2hnmhu12N+5nzoTxWG6hB736rXEhThxS5uD14ZZoUdoE4/Y4p7hLFHO1K6yqFMXAreMQJ1XObrtjncaY6VAIBtWaIuwrvyzaBoNLV8WaZ3OS6xIEQRAEkbmwISju9Ab+p+yNZoYgxsiXWO7REwVFBqgx0g8efgcxx+8AZm1YD1uLmmg89yFChNZT0pA7j7B4Vnfk0e+A4af+FayT1VRFCFKVWT4EfdvvCNOC/bHzM18gTfxNzGupAz2LFYiQSzpxOD/VDHodvfFE7SnoG+6EbsS6desEXI/1Gzdh644AhJ64hqfRqR2cJz7uMENhw3JYdEc8LI11Fs65F4eeUTVsfC0dVDzw8mBLtCxjgrFBSUEo5kpX9KpsDLsNY5gjEtdLkt126T6WeLKvESroFYRDsDtXHnfWHPWbtsGl5IDFShAEQRBEZhG7dzYSoq7yP2V/NDYEMQbtm44qukZoKBN4Qi5swNAlqg1BrIF+42BqSCFIGbN4CIrHjbmNIWo6D7fj+SJpfhyDS1U91Jx8CkIj5aJ32MKgoD2C1P5oUDzeXtkMhzoG0KttDVd3NwxtVRxGVdrCxrY3LOqYoFyb4XAZ0wsNKtRAl4m+uCU3bG8mjrkYw6BKU4T9kA4kM3F6cjHoGFXHpnfSIYh1Dl4dMUerMiXhuKgNLCsVQd+1o/E1RR1WdttF0XSWI+K+DoZTtVwo2b8P3iZ6IMK7Eio69pNZhyAIgiCIzOB/l/wR49kyW74PKDU0OQTtCZ2FqvryISj0RQwCI1Q/ZC3Q3wmlKAQpZRYPQbE4ONoUWt3W4pXUhHBiEiKWo6OBMQbtiuZLUvLj0BiU0uqEVc8EVv4bP97h3ul98N+8HmtWrcRKb294867cdAxP/3p3KQ4XptdHwb7b8ZmJaKcmm6GUw1584xZFYLNdfViuuY/YqFC4Ni+KaiP34p30YcaPhVcbXRSy640P0oEk0RWbrPShU605jqUIR2I98HhtNRTVEqHK6P74JLeckd12u8IYGTqd+XkmzrqXgF5hJlQ9n4JdgwrAct3ElM8PEQRBEAShdpKeA2qI/x6e4Es0g5wWgvaEHcei61IB6P5VTJ46BX1HO6Bpq+7oOvcYtkZJtvHH5VHPsWiRG7oPd0KP/sPRx7E3ilMIUsosH4JChhtDq+cmCE0G+XFHPxQy6Ijl8mPhOH6EjUM5rXZY/jgt4+F+IDzIHT2qF4SI+YVjf+lk1avqjLC/TtIQjxvzmqOQUAhi+HZgNCrVn4rzccDXMCdUM7bGlrdSKehDb9gV0kWbxWNTPOOTENkDloWZgDNuEL5IlYuNudyFuwPU27kBWpQqAceACSnW52S3XYoJPfxwuvib7dHS0AA9V9nAtW4pzLo8K2V9giAIgiDUyu9fv/Ar7ivzHb2PL9EcckIIqj/7Fnbef48dF89irO1gjBCHlMh7cLa2gOW250xI+oYta+xRQt8ULRbfQ/Bfl/+DZTMt0dj5KHzZUBQVgUl9K0BLl0KQMmZaCIqPeY/Xr17hlYCvX39i4g9LHE65VoFWu2UCz/z8wPGJ1aBXYxJOphJIvgXZI7/ICps/8AV/JRHPAx1R01AP5SxcsTb0Ih48e4uPzIX6LGV0TKwCky38OQTFX/dEs8J28I1mZwBfhS4FzbFAaszfj7CmqGJQBM5HZzI/8WEkcSICHYpAz6Qa1j30kJTzcgGoclH038g+AzQHLw+2YIJQSYzhnxES14tltl2jZXtcj+fLEpywuqs+8jYsjQYVGmKfeJKEZAmCIAiCUCff/J3xvyu7+Z80C80PQXoo09UV/V1nwW7McNSv2hUOfEgJ2jMFlcvaYPiWfZi1nXHNJJgZipC7/QqsZ4LNn5avPbcOLcpYw+m6ZH8Bm0bA2IBCkDJmUgiKRsCQkhCJ9FCsenO069ABHRjbN66IfCIt6JQaBH/uhaiJeLWhB/TKjRO48/Iem6wModd5FZ68PYWlMzfjfornhhIQvrQttGq44WwcX/Q3vh6Day09GDZwwwnhEXZp4M8hKO6sO+qaDMUepuDH6cmoXcwW25PHw8XjumdpGBQyg++HpCAS99oBm0aXRvHSFTErzFVmuBofgKoUw+CtY5kAKS73wIvQ5mhWyhTjQ8TTZ8/G1TmlUHyQjdSdpDl45WuG4swfmLyWPfEiUVwuliAIgiAIdfG/izsQM88ciTFv+RLNIqcNh9u5bQNcz7Ah5Rs2zO0Co/L9MHx9yim0p++6Dr+oPy/38eqDvNVdMT9Csr+c+ExQ6L59MDc353zx/LlgHUXMnBAUdwbudfKj7uggRIoDSsxlLOlWCjr5GmJC6Cumk59EQvhytDdoBI9rsjMj/MAFz5bIr5UXpRr1g9epd8nrcCS+xTbrfCg/7khy8PgbP05ORi09Q7TzuqeCabX/FIIS8HCZBUx7rcfTH4+x1a4iao4JxQfuBBLx7sQCdCsvglbegqhvXg6tWpZGE/MqGDazF86+kB2qxjoHH850x6Ld45k9yS7zwLPQjpjPTZ09B++OtUdXZtsGNWpizeUZknqf+8Oxgi4as5MlpFiflSAIgiAIdZD46VnSc0CPTvMlmkeOmxghMgZ7uGd6/sWqaW2Qu5g93O5J1pH4p+XMsqmtoF9+LDzCJeU5MQRl65elJn44gDmOXjgpnvY6PgK+9tVgoFcBfTfcYzryUiS+gn9/U9SceALy7z39gQ/PX+KzwMxxCeHesCjUDPOuKXobiL3r1At5dSpg7MGkwXjpQz4EFbf2xrkLpxG6zgkWTfti0c4dmGPdAA0H+OCK3J0n2SCSmRIEQRAEkdH8jv+O3z8TkPDsBl+imeS4ECTljpX9UUC3NNqsiJBa/gYeqwOxiQlKf1q+dHFvGOq2wKDDMXy5OAS1pxCkhJk/MULiexx1b4FCOsZoM+sUPqW4nZNEwuNtsKvSFJOPytztSY3YO/CxrIyWs84JBKfUSMCDJR1gxF/UP6ncxAi1YFisEioVM0QpyxW4dGkz7OsWReWBvhCet0EojGSWBEEQBEFkNN/8JuD7/nn8T5qLJoegoMBJKK+bG3Vn3kqa6EDGkOs7YVFWD7mMW6Ln0qNYdf4uFi2bgG5zr2LPX5YHXtwI86JaKNR6FjyvsbPNvcJCtw7Ip98Sg8MkwSgrSyEomW+4tdoKZXQMUcth9x+nnf56eytGd2gH+0UH8CjV8W2JeHVuA5y7toL1/GPgHitSmAQ8WtYRRjol0WHsPCxYsCBVF606mEpwkUZ4OFxMxCbYlKkGx+C3SPhwAtNblUf7BZcg/yojoTCSWRIEQRAEkZHEXfBNeg7oi2Y+BySNZoagT1i3ZydG9K0DXeZY8zZyhOOa09gUKVvvG7bsmIkGpXNDm+3IiwqgrNVqLH+kyPJ/sX7dOFQvrAXt/OVQpnZ7dBvTH6b6pmjksger74u3kXWlEMSRiOd7x6BuXh2Ydl+Gq4q80DT+HW4dOoY7qYagBDw9dxDnoxR9Cigln/36o5CoKAb6i8fppYfUngmKw81FbWDceAbOxwKxlzzQonh7LL4pO2xPKIxklgRBEARBZBS/vscgek5T/Bd+hi/RbDT5TpCihtx7gCU7D8DzUAQC0rh8z43rmO93GMsufULIjRtYeuqN4NC7rCiFIIbo8/PQsbgO8jd2xaG03bLJMBIeLEXHvHqoOGofE1zSyx8mRvi4D6OqmqD3xkgkJH5AiGMVlLbbjpTvdBUKI5klQRAEQRAZwa8f/3J3f379q/D7PLI9FIJyrjk+BMWFb8PAKgYwqNwfmx+I74DE4+7yrqjhuAcxfInaSYzCVjtT6ORrgokHXqRzhrh4XPNsliIEmQ4PTp4d7oF3ZxjXmoAw9j1BD1eia7HacA6Tjl5CYSSzJAiCIAhC1fz+/RvfdozDN9+xfEnOgEJQzjVHh6DEd2GY0qwgdEp2wsLzkinRoi95obtpPnT2fpzO8JE+4h/7YVjNvBAZmKKRlSNcZ87FfKWeCYpFmFMV5JeaGKGg5Qa8FN/tiQ7DhFrGsFh+j4lL33BpfluYNnXHqeQcJBRGMkuCIAiCIFRN3LmtiJnfColf3vElOQMKQTnXHByCvuHIhKrQ0xJBx7g8ataqhVqMNauVQWEDEbQM6sBd4TebZhzxL05ijasdOtSriOL5DaEjYo6Nv9isf58dLganvSxRIz9T36gwTExMUDSfDrT0yqCNSwAfoBIQtc0OpY0KoSSz3KR4QRgw18Wk1QyEfWSXC4WRzJIgCIIgCFXy++d/+LK8B/6LOMeX5BwoBOVcVRGCdu3cidKlS3M+f/ZMsI4iZuLECMSfEQojmWXOgn1ANeHlHZIkSZLMEH9+iOTCDxuEciIUgnKuqghBqpJCEEHIEH//KKJn1CVJkiTJDPHLSit83TiEeyYoJ0IhKOdKIYggsjAUgkiSJMkMdU6zHDUbnCzZIwT9g/V792LapkBM3ShkEBac/iSwXhb24UMs8PZE1+5j4HyBfdmqQJ0MlkIQQWRhpEMQ++K6f9cNIEmSJMl0GbO4Y/J3y/fQufw3Ts4k29wJinyJ5R49UVBkgBoj/eDhdxBz/A5g1ob1sLWoicZzH2ab9/Owhtx5hMWzuiOPfgcMP/WvYJ2MlkIQQWRhpEPQ1y0O3JcVSZIkSaZHdips8XfL/y758984OZPsNBwuaN90VNE1QkOZwBNyYQOGLsleIYg10G8cTA0pBLFSCCIIGSgEkSRJkqqWQpCE7BSC9oTOQlV9+RAU+iIGgRGZM6QsPQb6O6EUhSBOCkFKEBcXh6VLl3JGRkbypYSmQCGIJEmSVLUUgiRk9xC0J+w4Fl2XCkBRz7Bw0VRYjZmMXv2s0aLfXEw9yT4v9C+2hvph6PDeaDh6K2ZOtUPN2q3Rw+cc5s2fjM52Q9Fp7EosuPwNIbevwH2aMzrZDUPPWYexNYrd7gssWzsfveynwfXIa2zYvhA9B42FleNItLawRJc5R7GdrZfaftZGICTqORYtckP34U7o0X84+jj2RnEKQZwUgghCBgpBJEmSpKqlECQhO4ag+rNvYef999hx8SzG2g7GiOQQ8Q7zXVqhxoj98GV/ZgLRLIc6yF1uIFzORsPv0mHYNdKDbvlusF2xF+5L1mHG8Y8IfXgc1jW1kM/aD/78vkKubIZ5YRFqTb2OYL4s+OQyWE29iF3MfxsUbonBR2K48oCgyahg2Ah2+9ifv6WyHyZEzbREY+ej8OVCVQQm9a0ALd3sHYK2b9+OfPnycT6LihKso4gUgpQgMTERERERnN+/f+dLCU2BQhBJkiSpaikESch+IUgPZbq6or/rLNiNGY76VbvCgQ8RwSeWoH6B+ugbHJ28TsildWheQATTYaHY/eIFxnc14sLOLn55kv9i9cx20DfuB1fxXaWocIxqrwftJp7wjmTrxGDFjEkYefJfhJz3g5X1XMy5m7R+wMlFqG9QAh3Xi2eok99PyMV1aFHGGk7Xk37m1ts0AsYG2TsEbd60ifs8sEY9fSpYRxEpBCnBhw8fki/+vn37+FJCU6AQRJIkSapaCkESsvtwuJ3bNsD1DBsivmHT/G7Q17fAiLNSw+Mib2Bocz3kqjcTS568ghMTTgrY7mQCkWS7rCGXN6BFwXxoNO8et+3gsCXoYdMHZXTqwIYNVU8uY+gYb6zhAhFrNDYFbcCgcZNgO2kYqusao/3aj/wy+f1sX9oHeau7Yn6EeH3NeCaIQlAmQiFIs6EQRJIkSapaCkESsv3ECJEx2MM/i7NqWmvo6EiGqSXJBpLc0K4zFYsiUg9BoS/ewL1faeg08sDyJ28xy3kSXC9cwIAGeihpH4IdBxegz/ykgBT65A4mDeuC5k57sYENNXc2oqXhn0IQc2xTW0G//Fh4hLM/J0khSCKFICVISEjAmTNnOD8zF5HQLCgEkSRJkqqWQpCEbB+CpNy5YRiKaBVBa+8XkvKoxxjd0QhFbHfBX+AOjbQBu11QRlQTvVZ6w8rtJAKZ8LJmdgfoF7VDf6dJGHMu6Q7TthW2KFR+DGY94tflQlCRP94J2rakNwx1W2DQYUlASwpB7SkEMVIIIggZKASRJEmSqpZCkITsFIKCAiehvG5u1J15K3myghQ+PAaburmRp90yrBYPW7sbiM6VmsJ2D/u8zksunOS19hMMQaFPLmFgQx3kLmWLsfyQupCLa9EsvxbydF6NDfwdpzUz20O3QFeMOME+e/QGy5cNQTlRfrRe+Qq+N14yAU1+PyEXN8K8qBYKtZ4Fz2vstl9hoVsH5NNvicFh0neu1CeFoGzO//73P/j7+3O+efOGLyU0BQpBJEmSpKqlECQhe4SgT1i3ZydG9K0DXWbfeRs5wnHNaWxKfj5HYsDhtehQuyyq2i2E86p1GNC/L7ovvcqEkU9Ys2MRzCswHfZSlhjk90AgSH3DunndUXFYKHYml73ApD6V0XTho+S7T8HHVqGZqQjahSqjclMrWK/0QafSWjCs2guDfO/BR3A//2L9unGoXlgL2vnLoUzt9ug2pj9M9U3RyGUPVt8X7099UgjK5rx79y754u9nGpLQLCgEkSRJkqqWQpAE5UPQBcGOdZYw8iXW7D2MOQEXseGe1CQJinjvAdZxd2okZYFnr2L1Hak6jHuuX8fCgHNYf5et+w2+x0/C69z7FHWE3HPjOub7HcayS58QcuMGlp56Izi0Tx3qGRhQCMrOUAjSbCgEkSRJkqqWQpCEtIYgVoPcuTFvd5hgx5rMHgZH/su1++lTpwTbWFEpBGUiv3//RmxsLCf7ziBCs6AQRJIkSapaCkESlAlBFSpWwrAZiwQ712T2cOmBC9DW1kZEeLhgGyvqkcOH0bNHD86XL14I1lFECkEEIQOFIJIkSVLVUgiSoEwI8pg9G6blKiLkWaxgB5vM+ra3HgiLTp0F2zczpBCkBF+/foWzszPnw4cP+VJCU6AQRJIkSapaCkESlAlBTyMjoaevj5lb9wp2sMms7fYbz6Grp4fg4GDB9s0MKQQpATsjnHgs4oEDB/hSQlOgEESSJEmqWgpBEpQJQayjRo1GgcJFsOr4DcGONpk13XnvHarUaYB69Rvg8z//CLZtZkghSAk+fvyIypUrc54+fZovJTQFCkEkSZKkqqUQJEHZEMTOEmdnZ8cFoRWHLwt2uMms5Y5bL7kAVMusdromMcgIKQQRhAwUgkiSJElVSyFIgrIhiJUNQv0HDODWb9SuM2b7hmJvVBqnpCYz1H3Pv8P7yBVY9BvKvReoTt16WS4AsVIIIggZKASRJEmSqpZCkIT0hCCxZ06fxgAmDOkbGHDbMsqbD/kKFMrW5i1QULA8O5k3fwHkypWLa5N2HTogMCCAC65CbZjZUghSgn/++Qfm5uacly9f5ksJTYFCEEmSJKlqKQRJUEUIEvssKgonjh/Hnj17EBQYmK2tWbMmtmzeLLgsOxkWFob79+8LtpcqZKfFvnnjBuenjx8F6ygihSAleP36NffLy3ro0CG+lNAUKASRJEmSqpZCkARVhiBNcdfOndw1cXJyElxOSqSXpWYi0dHR3IN5rLdv3+ZLCU2BQhBJkiSpaikESaAQJG/dunW5a2JkZITIJ08E65BJUggiiAyCQhBJkiSpaikESaAQlFLxXSCxdDfoz1IIIogMgkIQSZIkqWopBEmgEJRS8V0gsXQ36M9SCMpE2GeC2A8o6/Hjx/lSQlOgEESSJEmqWgpBEigESZS9CySW7galLoWgTOTly5fJF//IkSN8KaEpUAgiSZIkVS2FIAkUgiT26N4dJiYmyf1KVvbnKlWqcLOgCa2T06UQlIl8+/YNS5cu5Xz+/DlfSmgKFIJIkiRJVUshSAKFIHmHDh3KXZPq1asLLiclUggiiAyCQhBJkiSpaikESaAQJC+FIMWlEJSJ/Pz5ExEREZw/fvzgSwlNgUIQSZIkqWopBEmgECQvhSDFpRCUibBD4MQXn30rLqFZUAgiSZIkVS2FIAkUguSlEKS4ly9dwswZMzjfvnkjWEcRKQQpAYUgzYZCEEmSJKlqKQRJoBAkL4Ug9UshSAni4+Nx5swZzpiYGL6U0BQoBJEkSZKqlkKQBApB8lIIUr8UgghCBgpBGW/0xpEInTUI+9Li7CG4ss1DcHvZ0Q9rBmP1gJYY3bkRRvZsBc+p4/FFoB7Ju9MJJz0EPhepOdseF7do0OdlwygcXzAcp1a74avAcjLrSyFIAoUgeSkEqV8KQUrw/ft3+Pv7c75//54vJTQFCkEZ7wunmsjL/LFn/+ArbK7CGD1rhuD2spuflnVBlyIiiJLPTxdNB4xEtEBdMslobwu00pf6PPxN7bywnzJdcFvZz1m4NKgccmtpo2RHO3wQrENmdSkESaAQJC+FIPVLIUgJnj17lvxFe+zYMb6U0BQoBGW8b6a1RLta5WCewrKoUUjE/F5pI08xE7SUXW5WA54LZwpuL3s5A3u7FYYOc565S9WA+6je2OxkiYAVmhHwMsrkEKSdG5WqyHw2hDSrgulzNOHzwkohSBOkECSBQpC8FILUL4UgJaAQpNlQCMosJ2NNc33m9yoXqlra45NgHQ0wxAXejfSY89RFpxETaAicgiaHIP3SmLlklmAdzZVCkCZIIUgChSB5KQSpXwpBSvD792/ExsZyJiYm8qWEpkAhKLPMISEo2AmL6+lCS9sAdhM1ZbhWxkshiEJQdpdCkAQKQfJSCFLMz//8g7Fjx2It8xl68vixYB1FpRBEEDJQCMosFQlBHoiY2wvz7Tthi5c73q6wwfROZujduhHcRg3G7V0p675cNQhrBrXA8NY10K1hFXRpUguDureF94yxeJ1iu3PxcVlfLGS2u3K2M76EuOGCWxe4dq6D3s1qwKZjc8xxGor7ASnXSXbXBBwc3xETOpqhZ6Mq6NqsNob26oh1c5zwLrneLFxz74J5g1ujTxkdJgTponGHDvC0t8AClxF4Kb29nU4IHdse4zrUYrZXDb1aN8TEodY4uVmo8//3ayI+t9UeLvgSNBEnXTpifAczWDatiYE9OmCrl/hhew88W2qLhVYN0LdZdVi1bYKpY+xxL7XzZt05HvvGtMdYZns9G1eDVZvGcBthh0u+spMSpKXt5FVFCEpPG3/1d8KBce0xvmMdWDLn2aste579cXXHHyZfSFM7Jhm9xRHbBrfAMOYz26N5HYzqb4WjG6f/PQQp3A6s6WsLUjkpBEmgECQvhSDFDAwI4K4T66pVqwTrKCqFICX4zFw4Z2dnzidPnvClhKZAISizVCQEzcRpu1Iw0NJDJ7su6G+ikzy5gChPNaxcx3f4QibjwIAqKG+gnfzHMoXaBjDrZIN7wZJtJ03WkAs1evTEslZFkVdbdh0RStZuh8O+knVYv24aAOfqRtDh64m0tRnF6xigTsc+uLmHrTsdfu2NpCZDkGjUoCvucsfigecLu6BvWQOBetrQK1QOTm5O+Cy1f0WuSdK56aB2966Y3aggDGTOTZTHFM4zXXBhTB3UMJS5Zto6KNe8B64FSe8zyZde3WCXfKzseTPy/29Usjo8502WmslMwbZLRVWEIOXa2AORczqgu4me4HnmL1MHq5bL3tFTph1n4+G0lmhVKJfMOtowKFYFI1qbMNdOOASlrR1Y09cWpHJSCJJAIUheCkF/N5Lpc5uYmHDXqWTJknj39q1gPUWlEKQET58+5RqA9cSJE3wpoSlQCMos0xKCRDAuaAS9gqaw6dUW03s3QK+eNngSwtbxwFO3Bqigk9S5HzpyMK5snobPQdPwdPVQrLeqiFK5mN9fnaJwmiOZjCCpg6yNvHlzI3eekrDp3wcHl47HTe9h2DGoNsyMmHCgrYeWg0ZJzeLmjqCuRaCnnQsVm3VE4HJXvGPCTLTfBBwZ2xhN8jLr5CqAAa6TmE4o0zFe44jTi/phYnV2OJw+ug4ZhlOLRuD0yknc+X5Z0wvWRUVc8CjfsBU2LZiAF7unIdJ7EJZ2Kg1j5rhFhqaY6DEl+bgVuSbic8tjqM90wMtg+HA7HPcej2sLrDGxTt6kSRpKFkUlw7xo3rkrdi8ai5srHeA/qCaq6LPnUAgOU6dK7ZM9VivYFGePVQ9Vm7eDn9dEvNszE89X22NllzIoyhyrTpHq8F4lDiyKtF3qqi4Epa2Nv/j0hKVx0nnWaNkB/kuY8wychkdeNnBrUJBpe2Z71drihNQdJGXa8cuqbujKTgzCBOf6Hbpi38rJeLdzEi5Ns4BNWUkAkw1BaW8H1vS1BamcFIIkUAiSl0LQn71z+zZ3bcT9b9/t2wXrpUUKQUrw6tUrVK5cmfPy5ct8KaEpUAjKLNMSgpg/grrFMWamwDtTQlywskluiLR10cRuBD7KLg8ej0V1dZlOpS5aDxmbPDFBUgeZ2S4TWmycnGUmLJiOI31Kcvs1qt8Ft8V3kIKGYmK5XMyxlMK0xbIzkc3AUZtSKMn8gbUYMExyPsFO3P65Z4Jcpe8gTMPe7sbQYzq6BWq1wynZIUkhE+FvkbQ8b20LXObuLrH+/ZpIzq0QBrm6plj+ab456uiyXypMkOvYN2UHOGQS1rUwZK6VDur3dZC6c8GHP+ZYjOt3xqVAqXW49Vz5YxWhfCc7vODKFWi7P5gcgph2NS5aGBVK/Nla3frJtX3a23gaQnskXXPjBl1wReZu2NetthhSgmn/XAXhMG0aX65MO05DCLcfEYo37cHfOZT4ybsLOhVg79DJhiBl2oE1fW1BKieFIAkUguQVh6BKlSrh3r17f/RPz8J8+vhRcB1Znz97Jrg+65vXrwXXkZWtJ7Q+6/PnzwXXkfXjhw+C67M+uH8fIXv3YqSjI3Lnzs1dH1bnCRME66dVCkEEIQOFoMwybSHIoHIbnBIYosV2ZiNWDEOIux2Ob5wtsHwGdlnkgw7TsW/EhCRxx17cQdYp1giBAs9EvJtcD0W1k/Z7WrzfPSMxi7uro4d6nXvjgq/Q/mRMLQQFDMLokmyHOh/6TZQdvpRktHdHmHN3Q8rD01v2Dkvq1yT53IwbYNdOmeW+VuhjyGxTp4jAe5hm4mifEsy2RajQbaAkVOzqh+HsnQ6m8z9M5g6R2M8LW6EuE650ijTATm6firRd6iaHIGb9v6uNgm1t5IaNpbmNAwdjnCnbJvlh7+YuV589p0tTumGVSz+cXMdfO2XakdnP+FLsOgUw1F1oP+7w71iAu2OXIgQp1Q6s6WsLUjkpBEmgECSvOATp6OhI/S0Ttl27doLbYA1/9EhwHVknurgIrs+6e9cuwXVk3eHrK7g+65QpUwTXkZUNQkLrs3bq1ClFXfbaeMyezU2OIFQ/rVIIIggZKARllmkJQUwnt7U13gjWkXGPOx6tcsTh6TZYM7wdnNpXRR3uuYuUdzfEHWQjMwtclXpWSOzHmU1QPhfTaazQCseTO42zcW1EVRRnyrlnMQwLoEHDunAabInAxS5SkyJImUoI+rKmCzoYMNsxqITFa1IJU4H2cCrNdJa182CQm3jdv18T8bnlrtkBF2XuMnzfbQ1bNgSlCFZixdsWoVzXAckhKHp5BzRnO/G6JTBoaC+sGy/gqCZoynX0y2D2Mna7SrSdlMkhSNcEE6aPxc3V4//orU3yoSCtbfxlXVd04ttkyVoFAi6jMu0o2U9lLF0ntI4HHoysgjwyIUi5dmDXTV9bkMpJIUgChSB5KQTJKw5BhoaG6N27N65cvixYT1kpBCnBmzdvYG5uznnr1i2+lNAUKARllml7JqhUJ/nhThJn4PaMznBsbIrSRqLkh75ZRbpGKJ7/DyEoeZKClH6c1QQV+A7yMel/OQ+ZjLARDdGmhMxD8Nq5YFymEobZD8Bt6RnHUglB0V7t0ITtrBrWwkY/qfrS7hmF2eydJy19WI1348v/fk2Sz016KJ9YcQgyqICFq2Q74MIh6NOcFqiuI3Wuf5J79oodKqho2wmrumeCFG/j6CXtkgKEoVnqbSKjMu3I7idpndT382FSXRTWThmClGsHdt30tQWpnBSCJFAIklccgsqUKcOFkD95/NgxwW2wspMFCK0j69UrVwTXZ40IDxdcR1Y2cAmtz3rt6lXBdWT905C6M6dP4/y5c3+skx4pBCkBOyOc+Ivl5MmTfCmhKVAIyizTGII690+l8zYTV0bVQDkd9iF3EQqWKI0urRrCydYCK10H4/ymKfDvmFd1IUjsHjdcm2MNr76N0ad2cRRnJxRg/05o66JaJzs8Fj9rk1oIWt4BLdiOcO7q8NmSyuxcQQ6YUpmdXtsAthPFz6D8/Zr88dyUCEGf55nDTJcJlEblMW6UJXzG/klrHOWGJSrSdqmbKSFIfKfFsAbWbJOvL6Qy7Ri9gh8el5vZz1bhdd5NrIMCMiFIuXZg101fW5DKSSFIAoUgeWliBPVLIUgJPnz4ADs7O86HDx/ypYSmQCEos1RNCPq6pQ9suVm2DGFuPRgRssO/Qt2x0Zy9a6ODeioKQV+CZso8ZD8Xn7Y4YotlORhrszOBVcWK9XznNrVngrZbwToPE5x0S2LyAtlJFnh9rWGXn6mjUwwT5gr8q76aQtCXtV1hwQ3fqoD5cuukZvYLQd+39UJvrk1KYZqXUJt44NGMLpg6sAvWzJmQ9BlQph13WKMf+7OuCdwWCq0zG9eGVICRzHA45dqBlUJQZkghSAKFIHkpBKlfCkEEIQOFoMxSNSHo05zmqMYOEUrtX+J3DsJY9nkMJgTVsR6WrhAU7d0NfcrmR8Gi9bFD5v1BnEwnuhf3vI3U8xiphSBu1jp2KmQmnPUZJnn4PVkPPHauDRPmGHQK18P25P2pPwR9D3LEtCrsnQw9mA8alXwNpX0zqznqFS6EWjWbY9d2th2yYQgKHoN5tXW5mQbNB42WmhqdN2QSNpjnYdpMFy3Fy5VpxxBnrGySNAtfQyaYy10bZpuL67PBXWZiBKXagS2nEJQZUgiSQCFIXgpB6pdCEEHIQCEos1RNCEp+JkPXFG4LpUIGK9Np3W9dFgW5l2TmQjWp/SgTgr7vHgJndops7dxo2XcInqV4v8pM3BxTC2XYzm6JxggSz8yVWghi7yo410Fppr4oT2k4TXNJ0el+u7wnbExycR3y2lb2eJu8LBNCUOhs3BxVDcXYY81XDq4zJ6Y41uiN/TGuMttpZ46pdW884q6L6kLQtIXueLdr2l/9EJjyfNLexrNxb1xNlGTbsHAVeC6aIjXb22w8nNoEdQy0mWtQBUtXi/elTDt64NnURqjMvtsqb1lMmuUqdWfRHWeGV+e2Jz9FtjLtwEohKDOkECSBQpC8FILUL4UgJYiMjISRkRHnuXPn+FJCU6AQlFmq6JmgoJGYXTPpX83zlKoGF4fe8HOzwfoRbTCkTmHkzWWEGmULcO9WKdqub/LMWEqFIKbz+sC1PqroanP/Gl++phkcrVpjinVzDGtmipI6TAdZpxD6jB0v6ZymGoLYZc7w72qCAuwQOp18aNisIZytW2Fc+0qozg6xYs7bpG4HhO2QWidTQhDjnvHY2K4Y8vDHWr9pQzjZtMbELjXRxFiHu/5GZepjS/KsaioKQcx5KGre5r0QJbUNpdqYPc/2/HkaFkHbtk3hamOOUeZlUIZ7kWwBdHMYmfJ8lGlHJqAH9TRNWsegIFq0ZvbDfI7sGxRFwVz6qFWhKAxkngniTHM7sFIIygwpBEmgECQvhSD1SyFICR4/fpz8JXv69Gm+lNAUKARlllOwuV0hmBQugKZ9hyofghg/rbLGqJr5mU6jVKdYW4Qi5WvAzXUMomY15f7VXc+0Cfbyd2iUC0Gs03HDrQ2sK+eHkdT+RLkMUK56bUx1G5tyquw/hSBWpjN8dGQTdCptCL3k7Wkjf8kKGDzADtdk3/OTWSGIdc9EHHRojA6lUh6ryKgwWnWwwL710s+3ZNMQxLrHBaFDG6BVCQPoiM9TOxeKlKuGiS6jhaeYTnM7MgZPwpERzPU0ZUN80joioyKwsOqLiy71YZrXEBW7Cly7NLUDK4WgzJBCkAQKQfJSCFK/FIKU4MuXL1i6dCnn69ev+VJCU6AQpCGGTMW9RQOxw9kKGyfaYZ+XM96IhwOFTEPURhc82DgJr+UmTlDW2XizcSzOLByKsIUjcX3jVLnJEtLmDESuHokT8x1w3scVb1R2nBlh0rGenD8Ux7zG4vEu4RnOsr3M5+aRtyOOzx+OM6smKRgelGhH9t1WK5n9MJ+jO75pef4ph7RDNpVCkAQKQfJSCFK/FIIIQgYKQSRJkqSqpRAkgUKQvBSC1C+FICX477//EBERwRkXF8eXEpoChSCSJElS1VIIkkAhSF4KQeqXQpAShIeHcx9U1rNnz/KlhKZAIYgkSZJUtRSCJFAIkpdCkPqlEKQEFII0GwpBJEmSpKqlECSBQpC8FILUL4UgJWCHwJ05c4bz33//5UsJTYFCEEmSJKlqKQRJoBAkL4Ug9UshiCBkoBBEkiRJqloKQRIoBMlLIUj9UghSgq9fv8Lf35/z06dPfCmhKVAIIkmSJFUthSAJFILkpRCkfikEKcHDhw+5DyrruXPn+FJCU6AQRJIkSapaCkESKATJSyFI/VIIUgIKQZoNhSCSJElS1VIIkkAhSF4KQeqXQpAS/P79G7GxsZy/fv3iSwlNgUIQSZIkqWopBEmgECQvhSD1SyGIIGSgEESSJEmqWgpBElQRgv759AlvXr/WGAcNGsRdk6pVqwouz65+/PBBsP2yghSClOD9+/dwdnbmfP78OV9KaAoUgkiSJElVSyFIQnpC0A5fXzRv1pRbn8weVq5UEQsXLsS7t28F2zSzpBCkBPfv309u2AsXLvClhKZAIYgkSZJUtRSCJCgbgqa4uUFfXw9jh3fH2QOLcPvMKjKLe+XoMsybPhjFjAvBomPHLBWEKAQpwZMnT1C5cmXOmzdv8qWEpkAhiCRJklS1FIIkKBOCdu3cCT09XYQFzcV/70PJbGbk9U0oXaoYxo9jfg8E2jczpBBEEDJQCCJJkiRVLYUgCcqEoFbmLTHSvotgB5vMHu5YOxEF8ufD61evBNtY3VIIIggZKASRJEmSqpZCkIS0hqDP//wDHR0dHA+eJ9i5JrOHsS/3cO1+/NgxwXZWtxSClODZs2cwNzfnfPDgAV9KaAoUgkiSJElVSyFIQlpDEDsTHFuffb5EqHNNZh8NDPRwYP9+wXZWtxSClODevXvcLyPrpUuX+FJCU6AQRJIkSapaCkESlA1BV49RCMru5s6tTyEoO/Pq1SvY2dlxspMkEJoFhSCSJElS1VIIkkAhKOdKIYggsjAUgkiSJElVSyFIAoWgnCuFIILIwlAIIkmSJFUthSAJmRWC4u54Yv9+P8FlckZuwCmfwRjdszu2XgtRvo6UX28sxA7PAZgxaSi2H9yK7wJ1ZP12dTH2bZ+GPdumYm+gN96+kanzeA1O+01HMLN8D1MvNGQNPkgvz2JSCMrmsC9LNTIy4rx27RpfSmgKFIJIkiRJVUshSELmhKBg3PKoi3KWToiSDRICxoVvxLm5TVBIvy6WXghWuo7YrydHwcqsCRYf9MU/l90wskFdLDi6R7BuSkPw6aIHFluWQm69ErBbsQbfZOs8WYb5rQugzRQvfFDg3DJTCkHZnDt37nC/jKyXL1/mSwlNgUIQSZIkqWopBEnIlBAU6YlJtXQhyt8QK87/ObCI/RLQE1UM/xxwFKnz3/sgnHGuiAIdHBHBhZRt2NA9PyyXbkGcYH15vx3pj2a5tSAqXBse+/1llgfi8KjaGOcfIFOe9VQkBL15/VqwXNVSCFKCf/75B0uXLuV89+4dX0poChSCSJIkSVVLIUiC+kNQCF6ut0B3q+aopW+AllOXy99NEfBLoCWq/S0EKVCHDSlho8ogd4Xu2B/JHEtgX5iXqguv44rcCUqSDUEWXTrAtqIujGp0QeAN6eF3gTg6rgFcdgdKlWVN/xSCwo4c4V4/s3LlSsHlqpZCEEHIQCGIJEmSVLUUgiSoPQS98sEKy7bYcGkp5jQxgIGZNU4+E6j3ZjvOLrXBOEdLjBvUCW6jW6C8bMBRpI6cIXi+siWM9UvAondD1DVrBo+dG/HlwlTMdeiMEYN7YMaiWbgXKbRukmwI6jx4Cp4GWqNZfh2U7uKI68nnIBCC3mzD6WW2mDjeGi4DW8J64CDsOc/eKQrGiyOT4eXYAl3GuWD/jNYwr2OG8ZvW45m4fPwMvDjmDNceNdGwUVO4bVmHb0+8sWNcc7Q0qwyLYRNwU+j6KaBQCDp18iTat2/PtXFaPhfplUKQEsTHxyMiIoLzf//7H19KaAoUgkiSJElVSyFIgrpD0JdQW/R0mI73TAC479kA+fVMMdZvp0y9QFyZ0ww9Js1PmnzgzSb49ysBLT3pgKNIHQHf+OLS4laorKeNwu3scSlcvMwfu/sXhZm9O57+5VmepBDkjs/MMVxf0ASl9fKgmdMcvOHWkw1BO3FyshlajvLAW/ZnJhAdGFkBecq3w/bLQXh/wxMzG+vAoEIjTPeZgcAV47Hv7E58uOWJ6Y10UKBFZ8yZORZ7drtjftei0DFpgvEufbF0vQcO+3RHE8MCsF29VeGhfNJKh6AL58+jW9euyeFH2tq1a3N26NAB48aNw/lz5+Q+F+mVQpAS3Lp1K7mRrl69ypcSmgKFIJIkSVLVUgiSoN4Q5IvAIU3gcTiI+znuxnjYGOugtO0kvJaqF3d9PKzLtsTmu5KymO2dUTq3JOAoUkfOcC+s6lsTFmMnY9uIcjAo3BArzvF1X63EkoFW2H//7zPLSUIQ8zMTvgLty8FI3xSDfNbhu0wI+n7OARYFKmHqgaRzZmXPu3cBbVQZMZvZhi82djdAkb6T8Q+/PMnt2NBNH0VsXJNnmIvZ3gmm+rUw/xR/zC+XYU4jfdSZsBBfk9dTXHEI2r59O3LlypXcn1ZENjCFP3ok+BlRRgpBSkAhSLOhEESSJEmqWgpBEtQZgr5fHIXebaywa+8CnNrHOgtzO+aDTpHmWC81rfXrlS1RuEYfnHguWVf2eR9F6qTw1RpssiqB4p1G4v4r5lgujEJPY11UGuCG52+CcGeFNRYE+sqvJ2CKEMQasRAeLfJBr2g9LDjkKxWCQvDUqzFy69fHistS4erVKixuqQOdBv1x8eUObOphgGL9p0i2xylfLnd+zDl5tTJA9dGe+JK8nuJK3wm6xvSh+9nZCYahAf37o3+/fmjTujUMDAySy0sUL44b16/LfUaUkUKQEsTGxuLMmTOc375940sJTYFCEEmSJKlqKQRJUF8ICsL5yY1g4+YM3zUTk902wxyV9YxgMXc1/66eYNyeaYbcFXrgkNSzLikDgCJ1JOWsMQGWqK6XG90XbuSHjgXgvHstFDCsgKETe2Gspxc+yayTmnIhiC07Nx62ZXWQx6wrZg6qz4cg5jhnmUFPpybmn5SeeIENOPoQ1bXFueeqCEFz0x2CxN6+dQv29vbQ1dXl2tnT0zPF8ufPnmH06NHJQcjKyirFcmWlEEQQMlAIIkmSJFUthSAJagtBD6djrEVfnJJ9iP/ZQkyto4vcjfrj0sukspcrmiOfXg14Ss3YJg4AS/gAoEgdicG441EHRloGaDdrleTFqE8WYlbTPDCo3hMHk58NYnzpi9cPUx8WJxSCuFnv/HuhYV5t6BmWxgR+ONynrRYw1cqHfj5Sd5nebIZPJwOY9nfHB4Gwk2TmhCCx7Hs4Rzo6YomXl+Bydta4OR4e+PTxo+DytEohSAliYmLg7+/PGR0dzZcSmgKFIJIkSVLVUgiSoJ4QFIwHC5uh8zSh6bD34MrUGsitZ4pR25OCQtz1CbAtpoUSbQfg6B02jOzAmal1UUS/JuafSgo9itSR9u2GDiito43ctbphz/WkEPHhhDNcrMxgVkgXpVv2xLqgVXh6wxshU3phxTH5bYj9us8aLfq6Ctw52o1LHg1RUt8UTuKJESLnw72ePgp1GIG7r/h6EdMwsnI1TA9lZ4jz5cJO4b6TZUKQLzZ0N4CxnZtUCOqJqmzIE79b6ZUPF4Kqjpqj8hAk9vM//wiWq1oKQQQhA4UgkiRJUtVSCJKQ4SHozXZcXGuNzqb6qG41GP4HNkruxDB+Ojsb3v3Kw0CLCShVWsJjnRdevAlGxOaeaF5EC6L8xVGzTl2MGd8WVfSLoPvk6bj7hF1XkTpSPl+FrQMqoLBIGwbGpdCwbmW06++AE3f24OmuAehZMTdEzHmJ9I3R3tUDrwVniAvAo/1TsKJfBeQp0wSz13jgpuxECq/Ww29A3RRTZMecGIehdYqh6YCh2LpuPOYMMse4ld5MuAnAg93DYFtRC1qlm2FewHr+2gTgYSBTXo45HrPO2BC6EV9veWH7yBow0iqKXlNn4Ha4H277MsdtogWjxj2w7ZDiL3sVq0gIUpcUgghCBukQxBqzqD1JkiRJpkvp7xUKQeqbGCGtfru3CicDPXHlRgDimP+/fMFPrqOvSB2JQXhxegGOBMzD5as7U9Z7uglX93ri7DnfFCFNKZ9sxfMI2XDkiwcH5+LI3mV4/Dj1oXbqlEIQQWRhZEMQSZIkSarSb75j8fv3b/5bJ+eRlUMQmbEaGOhRCCKIrMp/D08ixrMlSZIkSarc6LnNET27EeLvHuG/dXIeaQ1B7DMi7DTKJ0PmC3asyezhj9d7uXY/duyYYDur2+wRghLf4eImV/Tr4469rxOTyuJvYvVgC/TwOIqkSarjcNF7MGwcvXDoyQ+uhCAIgiAIIqsRd347YhZ1wO//xfIlOYu0hiDWpk0bw8mxp2DnmsweBmyegrx5jPDyxQvBNlbUjx8+4NbNm5yvXr4UrKOIWT8EJUQiYFRjNHHwxb2vfBlD4jt/OJjVQN81j5DAlzGV8fLoLFjU6YkVV6QqEwRBEARBZBF+Jybg67ZR+Pn2IV+Ss1AmBG3dupV7nuTcwcWCHWwya/vq3nZUqmDKTYEt1L5p8dHDh9znh9Vvxw7BOoqYxUNQAh76dEOZNgtxQ+GbO4l4uWswKtZ1w8kvfBFBEARBEEQWI+HpFfz8EMn/lHNQJgSxQ+LGjB4NI8PcmOpsg9tnViHq5mY8u7WFzMI+urwOqxaOROlSxdCieTO8fvVKsH3TYs4IQV8OYWxFUwwJ+sQXsMTjnq8bhg/qB1v75TgvFI7ir8KjUX509XkidZeIIAiCIAgi6xAbNA1fN9rj969ffEnOQJkQxMoGIR8fH9SqVSO5E0xmfUuWKI5p06apJACx5ogQ9G2/I0wL9sfOz3yBmPibmNdSB3oWKxAhmHLicH6qGfQ6euMJpSCCIAiCILIgv779g2jPFoi/FcqX5AyUDUFi2TD0/PlzrjOsKfa1sYFIJELNmjUFl2dXn0ZGcrP7CbWjsrLb1fAQFI8bcxtD1HQebsfzRWJ+HINLVT3UnHwKqY2Si95hC4OC9gjKlo8G/cD1TUPRpmY1VDNriBatzNHCvAN6DZ+GjWdeMFdGWWJxdb09Wteohqo1LbHslnhLCQgPckXXutVg1nEs/B8ovweCIAiCIBTnf5d2IjbAjf8pZ5DeEKSJDho0iLsmZmZmgstJiTkgBMXi4GhTaHVbi1f8hHBiEiKWo6OBMQbtiuZL5PlxaAxKaXXCqmcyK2cXYvdhhIkeKjuFcUEv/uMdBLp3gIlRdQzfHZU8zC8ufB+2H5L8LE3M9d3wPfUOKa7At2AMK2kM48IGqD/tvCRExl3EzEalMND/A19AEARBEERGww6F+/3zP/z35CJfovlQCJKXQpDi5ogQFDLcGFo9N+EdXyLm445+KGTQEcuFx8Jx/Agbh3Ja7bD8sbrHw33DndCNWLdunYDrsX7jJmzdEYDQE9fwNDr1Y0u4vwTtDAvBdvt7voQh4SGWW+SFXv3puBDHFiTi9eHJaFG6EcbteZriDlHMVW9YVamBgVsfgKvKw263Y52xmOlQAQbVJiBMfKcsejcGl+6BNdk1NBIEQRBENuXn6weInlk/x8wWRyFIXgpBipsDQlAcTrlWgVa7ZTLP/fzA8YnVoFdjEk7+Yca4b0H2yC+ywma139iIx9srm+FQxwB6ta3h6u6Goa2Kw6hKW9jY9oZFHROUazMcLmN6oUGFGugy0Re3BGaxY4NeYcPWWHRHOtrE4Zx7HegZ9cJG8fuSkICXByejZZmGGBsUyQWhmCve6FW5Guw23OHfoSSB3W7pPpvwZN8oVNArB4fgpEkn4s66o37TmbgknZgIgiAIglALsXtn4991A3LEJAkUguSlEKS4OSAEJeLVhh7QKzcOYSnCzntssjKEXudVePL2FJbO3Iz7co+wJCB8aVto1XDD2bR26n+8w73T++C/eT3WrFqJld7e8OZduekYnip0YykOF6bXR8G+2/GZCW2nJpuhlMPepEASF4HNdvVhueY+YqNC4dq8KKqN3It3KW7A/MAxl2owqDJB5tx/4PTkWtAxssKmFCsw1+qIO1qVaQDHRbNgWakK+q69CfnHodjt1kTTWZcR9zUMTtX0ULK/H94mJiDCuxMqOoYIrEMQBEEQREbz63sMYha2w89X9/gSzYVCkLwUghQ3B4QgJsqEL0d7g0bwuCadcn7ggmdL5NfKi1KN+sFL9pkXlsS32GadD+XHHZG7E5I6PxAe5I4e1QtCxF9YWfWqOsuEktSIx415zVFIKAQxfDswGpXqT8V5JqB9DXNCNWNrbHkrdRbx9+DVxhCF7HyR4kZW4ismAOaHTjUXHJM7jgQ8XmuJolo6qDI6FNKTiifDbrddJYwMZaPOD5x1rwu9wr2x6flH7BpUBpbrnstfS4IgCIIg1MLv/+KQ+O97/Pqh2S86pBAkL4UgxX354gVmTJ/Oee3qVcE6iqjmEBSP9w/P4+T5cHyW6W1/eXYD58/fxstYvoCF6fT79zdFzYknkPLPwQ98eP4Sn+XuACWREO4Ni0LNMO+aoreBEvE80BE1DfVQzsIVa0Mv4sGzt/jIXKDPUkbHxApOQCDPn0NQ/HVPNCtsB99o5lgjV6FLQXMskJ4C74Mv7AoZos3iu9zwNjEJketgWZgJOeMOy1wPIObyClhWqoreziPQolQ9OAY8SbEuB7vdUkzo4YfSxd+ch5aGBdFz1W641m2KWZdpLBxBEARBZCZftzggNmQ2/5NmQiFIXgpB6ld9IYgJNIent0cpAx2IRAXRwuMCkvLOD9zfNhx1C4kgKmiNzdJ3RBgSHm+DXZWmmHxU4I6PELF34GNZGS1nnZMLCqny9Rhca+nBsIEbTqQ+4Vwa+HMIYp+/qWsyFHuYgh+nJ6N2MVtslxre9iNsAqoYVIXzUanbPYkvEOhQFXomvbDuYcooxgWgyjXQf+NtZh+JeHlwEhOEGmBMUMrJEmLDnFCjpSeuiwsTIrC6a37kbdgMDSo4Yh+NhSMIgiCITOXnm6RJEhJe3uFLNA8KQfJSCFK/agpBiXgb6Ij2Dn549PoInM30oFd9Io79SMSHMDc0Ld8Ko+e4ot+QNbgrd/uCySi3t2J0h3awX3QAj8RJQo5EvDq3Ac5dW8F6/jEkzxugAD9OTkYtPUO087qn4J2ev/GnEJSAh8ssYNprPZ7+eIytdhVRc0woPiQfbzyuezaHQSE7+PJj4eJeX8Cm0c1QvLQFZoW9ShEGuQBUxQyDt97jQyVLAl6ETkSzUo0xPuQZf07xuDqnKYoP2i0VDplr5muH4swvXV7L9XiRhmtGEARBEETG8H3/PHzbMY7/SfOgECQvhSD1q747QQlf8YVLAbEIm1AFeobtsOjEboyo2xQuB16n6NgLEv8Otw4dw51UQ1ACnp47iPNRqVZIBXYChl7Iq1MBYw9Kj8VLD/IhqLi1N85dOI3QdU6waNoXi3buwBzrBmg4wAdXku8+JeLdiQXoVl4HWnnLob55a7Rq2QxNzLtj2MzNOPtCdrgaEyLP+GDR7ofMXmRJwLPQRZi/h50xjtnusXnoymzXoIYN1lyWukaf98GxgiEaz7qSYiptgiAIgiAyh9//i8Xv+B/49fUjX6JZUAiSl0KQ+s2UiRE++g9EUZ2CqFS1Lnr73Ja6g5EZJODBkg4wYj547IfvTyo/MUItGBarhErFDFHKcgUuXdoM+7pFUXmgL9T+GiOCIAiCILI8CVFXEePZEr9iP/MlmgOFIHkpBKnfTAlBCfe90M5IhPw91yIq04dgJeDRso4w0imJDmPnYcGCBam6aNVBBUOL8HC4mIhNsClTDY7Bb5Hw4QSmtyqP9gsu0bTUBEEQBEGkgH1f0NcNgxG7ZzpfojlQCJKXQpD6zZQQ9OmUOxobimDYeiGkJ0XLLD779UchUVEM9FfVv7ak9kxQHG4uagPjxjNwPhaIveSBFsXbY/FNGohGEARBEERKfr5/zE2S8PNdOF+iGVAIkpdCkOK+ffMGW7Zs4Xxw/75gHUVUewhKiPTH0MYdYdnRBDrsNNEpXoSTGol4dSUE/r5bsXnTPtxW8a2ThAdL0TGvHiqO2seEFlXwh4kRPu7DqKom6L0xEgmJHxDiWAWl7bbjGU1KQBAEQRCEDD/fReD3z//wO1Fzxs+rKgR9+vgR+0NDsW7tWizx8srWsiGodevW6Nmzp+Dy7CLbFqH79nFtI9RmqjB7viz18znMs6iFPmvv4aF3ZxjpVMTYg2yiScSnl6/+MCwsEe9uBsClqR5ElSco+FxOGkiMwlY7U+jka4KJB17ws6mlh3hc82yWIgSZDg9Onh3uAXPuxrWY82DfE/RwJboWqw3nMM0b80sQBEEQRPr5unk44i748j9lf9Ibgp5GRmL27NkoVdoUevp6KF3OFFVrVUY1MzIzZduAbQu2Tdi2YduIbSuhNkyP2SoEfQwYg9Y24zCqYwXUcgjAMyZlxJ2fjvoGeqg0xBc3z/tgQLvRCJZ5R1AKEsKxvKMhCtn5QqGbR2kk/rEfhtXMC5GBKRpZOcJ15lzMV/qZoFiEOVVBfqmJEQpabsBL8elFh2FCLWNYLL/HxKVvuDS/LUybuuMU5aDM57+PzAd2N0mSJElmjLF3+S8cxYm/cwjRc5tpzGxx6QlBYWFhyJMnD9fZnjBrBI7eC8DFFwfJLCTbJhNmO3JtxLYV22ZCbams2SgE/cBRl2rQE+VHrf5rcE38kpq4W1jZvRR0tETIV7U3vM59QsoIFIunx33gNqQ3unWzhuP0cbAobIC2XvdVcKdGmPgXJ7HG1Q4d6lVE8fyG0BGJki8yq2Kzw8XgtJclauRn1jEqDBMTExTNpwMtvTJo4xLAh6gERG2zQ2mjQijJLDcpXhAGzHUwaTUDYZo5G2b24ctp4Azz0SZJkiTJjDDKnf/CUZzfv39zd4NiA9O+blZE2RCUFICMYOvQC+ef7RfsgJNZR7aN7Ji2MjIyUmkQylZ3gr69jcCDx+/kp8L+8R6PHzzBe7kFMbji3QsVK1li/sFwfP4WBd/B5aAlqgbXE6oeC0cQUlAIIkmSJDNSJUIQS+Lnl0j89IybNS67o0wIunb1KheA2E71hecHBDvdZNaTbat+I6y4IMS2oVDbptXs+UyQgnw55Y76RhUxPFD8EtU4XJrVEHrGA+H/iSsgiIxBOgRdKAzcbkOSJEmS6fN67XSHIJaEqGv4d40dN1FCdkaZEDRs2DDUa1qbAlA2lG2z+s1qY9jQoYJtm1Y1NwQlvsOOAcWgV38GLiTPHP0ZOwcZw7DDMoRn1Fg4gmCRDkE3mwCPR5AkSZJk+nzQRyUh6Hf8D8R4WSDu7Ga+JHuS1hD0/PlzGBoaYuHG6YKdbDLry7Yd24ZsWwq1cVrU3BAUewBjy+mg/LhDkuFzMaEYXVEPtdxOgwbDERkKhSCSJElS1aooBLH89+A4oj2aIPHLW74k+5HWELR0yRKUMCmGc1Ghgh1sMuvLtl0J0+LwWrxYsI3TouaGoOjtsDXSQePZV5D0HtUfuLXUAoW1jDF4VzRXQhAZBoUgkiRJUtWqMASxkyT878Ze/P4v+75oPa0haNTIkejQo5Vg55rMPrJtONLRUbCN06JG3wkaU06EkgN24HXCF9zznwyHEX1R17A23M98xM2NM7HyQtIbdwhC5VAIIkmSJFWtCkMQCxuEYgOn4L/H5/mS7EVaQ1C/fv1g2b+zYMeazD72GtgFtra2gm2cFt+9fYs9e/ZwRoSHC9ZRxCw4McJXXFzYESVFBihcujZ6zNyPpy93YygTjIyK10Q39xBEJt0iIgjVQyGIJEmSVLUqDkEsP0744MuybvidkP06RWkNQWzH2WpgV8GONZl97DO4G2xsbATbODPMgiGIJQExryLx/JPkVm/855d49kFuLm2CUC0UgkiSJElVmwEhiB0O92VpF8SdWseXZB8yJwQFIzB4FhZtmo6FG2dgxeEdOCdYj3U/Dh2Zh8UbmbqbZmLpvs04JVgvpWdvrsKiudbo3GcY1kUI1+GMXAv3AeZw8N8tvJw51qC9s/ljTTrexduWIySKWRblh+1+M7GIK2ePbwaWBK5DmOB2lPThZqzxHoI+3XtgxgXVvY+JQpAGcPbs2eSxiOHh4XwpoRFQCCJJkiRVbQaEIJaEyMv47+FJ/qfsQ6bdCYr0w/rJdZGX2bdebVusfSRQh/WJN0Y1MYCWqDDaLVyPk0J1BDx51Qceg0pDt0IveIeLy/dh/1W/lIEryh/rV4zFktMhkjJZI/2x1aM5iujooLS1C/zvSoURJqQsHFoReiIjNHRdjNA/BS4lPHdnMzbMaop8+vXgdGqfYB1lpBCkAbDBx87OjvPt2+w7OwshAIUgkiRJUtVmUAhi+fnmAb4fWMA9J5RdyMzhcKf22sGsaH7k0TFGl5XbBe8GHd1uiRrG+SDSr4GRh/4QVOTch10z6yG3dAi6MxODxk/Dcbm6f/fUvv6oqW+AZh4bcFZm2eFl5jDSNYHN9uAU5arypJ8lyhhSCEqNHBuCCA2GQhBJkiSpajMwBCXGvEG0R2P89+gUX5L1ycwQdDp0IJr26QOryjowbDYE257I1InaiunWzWAzuBb09c0wJixtIWj37PqSEBTlj9Xja8LUdqpSIYg9VjOD3Gg+d7NcWAtb3poJQaVguyODQpB/L5SjEJQqFIIIzYNCEEmSJKlqMzAEscSd3oAvSzpnm2mzMz0EDXDH5hn1kEfHBL0370y5/PBQtLadCJ+pZlIhaA927xyH4fadYbNgadLzQU82YdWiAbDp3xXOAXv49aVC0P0NWDi+Kcrk0YJhnTYYNK4fpgYH4iJTvnJxf/Ro3xYTDv85YKU5BN1fjblTbWE/ugtatWqKPnMXIpR9johbHoKg7cNhO8gSAxy7w8KiOazmLMQB8fIoP6xb1Bc2w3sx59QZgxxbwoRCUKrk2BB0/vx5GBkZcT558oQvJTQCCkEkSZKkqs3gEPT753+IDZmNX98+8SVZm8wPQdNw7IY7upfKhfwdRmNXpHh5AJaPaIwBO3djR4oQxCyL2g43C30Ukr6rc9cVHfMYoP1y8QQHMneCXuzEtG65UVh6nUc7EbSqE0oYVIVDqGIhqNnstTh6PxDHpAxdwg6HkwpBkRsww7oB7Laxzx/tx741HWGqXwTtFicNpTt7ciSaFa6F0UeS9nkiqC+qGlbF8H3sz8HYMrM5WjovxCFu8oWtmNu3JLR0s2YIevH8OcaPH8958eJFwTqKSCFICU6fPs398rJGRETwpYRGQCGIJEmSVLUZHIJY2GeC4s5sQuI/z/mSrEtWCEHHX+zFBpdq0NetgAG7g7hl5y5PRNeuw+EbuU8+BLGBpqtByhD00B1dC6YxBDGe2tcP1Y0UDUG6qNjNBiNcB6ZwqFUl6EmFoFN7bFG9bCs4bfHAsu2Ma2xQ31Abhu1HIYgJNufOT8EAa3t4303a9omTDmhiUAg91u/BuYtOaFfGHNOvS/Z9YlNXFDPImiFIc1+Wmg14/fo1li5dyhkTE8OXEhoBhSCSJElS1aohBLF82+WKr1sds/wkCVkjBDHB4MIEtC+aC8aWE7E3KgTbpjVHtxXbcI4JMxkZgk6HDkDN5BC0H3u3OWDACCv04x04fyGOcPUUHQ63H0FzGyFP+bZwWi+eVjvJxbt8cCR5SNxe7A1yxqhxNhg6qRNq6+ZHt7VBOLDUHPmrW8NHapa5rPxMEIUggsgIKASRJEmSqlZNISjx3/eIntMU8feP8iVZk6wSgi6+CIT3iHLQNawBxz0e6NehN7zvs+XqDEH7sG1KLeTmO/WshhbjsI8JLoqHIOZ4p9WBYbGOmHcvZb1kn6zH3GGN0NZpNoLYsHPHBe0N2RC0K+lcy1tiOXfMSVII+jM5NgTFxcVxw+BYExIS+FJCI6AQRJIkSapaNYUglv9d9EPcBV/+p6xJ1glBB3H2xEg0y58LRStXQMvpq3CaKxcKQQGY2TM3Cti4qzgEScplVTwEHcThle1QSLcoOq3YKlV3F1asnoG9TKDav6INipTvgWXidyNxISgfdydo/5IWzLZqYqTURA0Ugv5Mjg1Bp06dSr74NDGChkEhiCRJklS1agxBLIlf3iL+9gH+p6xHZoagU0E2MOszGUeTy/yxcEBJ6BZrjRmXxS8kDcFm12rQ06+K4clBJRjLhpaEXqOB2MQGicjt8FlggeoG+mi1UPy+If49QeUtsYILQQGY1csQhp3YOzt7sffCNm6SgtOh/VGDCUGSbQt7KtAGVfQN0HjmWpn3BO3HvkXNYahTHL23JM1Md+76VPQsq4NcxrVgu3Qh/M5vwLplVugzdzUT7JKOS69AY7ic2MvU34VtyyxQUWQEi5U7sf/ASHQoqoUirQdi1TX2GuzEOrd6KKBfC6OTQ2D6pRCkAVAI0mAoBJEkSZKqVs0hKOHZdUTPaoCfH7JmHyVzQtAeBOyZCmebCshdqikcVs6F782k0HP6gD06jZqLY2y9J5uxfv1YWNU1ZI7RANUHjMGCvZu5abGP7xmEegW1kLd0BdRo2hpjfZ3QpZAuSvcYghVn9iLs+GyM6FgEWgbVYbNiKRN89mHH7IYoIMqHUg1aYISfH07f8IbnmDrIr5UPjcZNwzb+GISO1cW2IvRF2ijQqBsmrlmCvewsdlE7sG37RNi3KYJcWjoo220gZvitRRgbjHYMQLPS+hCxfVRRHlS0Gott/J2fs8fGoo2pNkSFTFG9aQsMXjkelqW1YFS1OUb6bsbudZYwK6wFUf7iqFC7HvqMaYcy+kXQ0mUm/LkhgumXQpAG8O+//+LMmTOc7NA4QoOgEESSJEmqWjWHIJbYQHd83TQ0S06SkJl3gtLriUveWLVzCQLvMeElahu2h25KCk+pGoQ9BxZj8/mkGegy2nP3NmHTzrlYdWgrTsgsO33dB2sDliHoLhu89uPQ8cXYeC5QsvyGD3z85mPLpT04d2MNNp/aJTcMLz1SCCKIrAyFIJIkSVLVZkIIYt8Z9O+qPtxkCVmN7ByCSOWlEKQBfPjwAf7+/pyxsbF8KaERZHYIum6DC1s6I2yTgFu64IRvD1zdb4tP9wTWzTCHI/pwD+4YTu4bgETBOuo3/rQljjLHdDTAFrECyzXKLPm5kDetbZJl2/CGDS6mdr2F3NwVt84OF96WCvxyvBfO+/fA5SMDM/3379tJK+5YLh1W/G9BauvkqN/hTAhBLOxdoP+eXMSvuG98SdaAQlDOlEKQBnDixInki//06VO+lNAIMjkExYc0QiuDpM9W6mpDr3BBdO7fDCfPZFzHS+JQXBlfDAbMfkvbWai/s3LTGvsmt8CJmynLPy0sj3zM9TBq3RyRD1Iu0zSz5udC3lTbJJu1Yfz+xmj71+stpcgQw1cNEdxW+s3k378UDsNt1xIwZI7FxKYDvgnWkTX1dXLS73CmhaBfifh3tQ2+H1zIl2QNKATlTFUVgv759AlPIyM53797J1hHESkEKQGFIA0mq4QgHX1UrVsSbRpLWwLm9Yuidil96InYz5828puZ4fCFjO7wZl4nLPGiBVxr6kOUpwJ8r6ZcliNDUJb6XMgr1CbZsQ2TQ5BIH1XqyF5vAZuUxpxtQwW3lX4pBGmEmRSCWBJe3Eb0zPr4+fYRX5L5UAjKmaoqBKlKCkFKkJiYyA2DY83qb2Um0khWCUEGJeG1f5hgHTwaiOuelVErtzbTScuFJmN74odQPRWaWcNxEo83Rzcj5noIdKATLtrgxh5L3DjcH3FS5VnSRwNw17czwrb0xNPbAsv/Ylb9XMgq1CbZsQ2TQ5BBMXjuSeV6q03NDUHZ6nc4vWZiCGKJDZ6JH2HL+Z8yHwpBOVMKQQSRlckOIYhzIEJs80GH+RIxqFUPFzP5WZCM8k8d6Gzl7U4YV5oJJ0al4XM87XdosvPnIju2IYWg1FRtCMpRZnII+v3zP/xOiM8yd4MoBOVMKQRpAOy7gZydnTmjo6P5UkIjyDYhaATezSuHvMyXiKhgZQTcYsuG4+X2VlgyuQn8AwfhS2g7eNhVQN+e1THDozMeSz+PccMGYZ4N4dKnAqzalYV1j2pwn9IWF88K7XM4nq1viumOdeG5vDfiZZfz23Jmt9W+LGwsmf3N6Ijbl1Pv7Cdet8Hx+Q0x0aYS+jDrWPeqgRkzLXDvinidYXiwphm8xlZEbX32ehTFEOfG8JrSGmfPJdWJ3dsOyyY3xtIlPfFZatucaTo/8baaYP1mWyQ8GoCbK5vC3a4y+lqUQz8bMyxc1A1RStzBSVZtIUjocyFlGq8L582+OLGgESbZVIRV29LoaVERjsMbYetWG3yVqZuyTdTXhqpuv/SGIPHxbNzCHM+9fri4pBEmMufRu2N5DLFvhJ1B4gkChuNDcHssc6iG/syx2jC/B7PmdpW5W5gyBH27YoUgNzMM7VIWlp0rY9y4ljh8cLBUfQGV+B2NP2eJXZNqw7FnOfTqVAnjJrTGudND/hho0rqOUPunty1jT3TDZqeasO/MXB+LShg1qjkOH7FH/LFOWOPaCF5LLPFFYL0MN5NDEEv8rVDEzG+NXz++8CWZR3YKQeeuLcCSPbsEl2WqkWvhPsAcDv67hZdnQSkEaQDHjh3jfnlZo6Ki+FJCI8g2IWg4ImeUghHzGdQpWQ37uE6BuLOki67jm8G+XK6kF6YxivKXxTqu8z0cH3c2Q/8qesnLJGpDr1gJuK60kRmakvq/RH8ObI6BydvShkjEyP+/UdlyWLxDdgap4Xi7rREsy+kKrpO/ciVsCGEfMB+CvTaG8sdoUAILQpKui/DzBMqcn3hbItSyN4dPj4LIxz1bIyVzjCZNG+DU5ZTrKazaQpDQ5yKpXJnrknjGApMbGHB3lti6XFuJr41ID/Vs2uDRfUn9lG2ivjZUdfulNwQlHU8u1B3cHPPb5oWBzPGI8hXF5I12uOlZCbXyMJ8LqWXsUMYKnVvifvJdPMnvn0m7ahhSI+m6SLeFKG9h2HtaCd5lUeZ39PnaOmhbTCRz/bVhUKo0xvQ0TjqWFIFGmXWE21/5thyOKB8zmBuLz0+iTuHiGD+6MqrraiFvh5Z49Uh2XTWYBUIQN0nC2n74HjqXL8k8sk8I2ocdM+qhZA9nhEQJLWfdh/1X/WTepyNUlh4Fthflj/UrxmLJ6RCpellbCkEawMWLF1G5cmXO169f86WERpBdQtCd3ljakn0rtDYKtmuBp9yXuqSzVNTYAHrGRdFvWH14jKgK6yHt8JqpkxDWCnamSc+MVGxTFzv8++LTLXu83d8Zq22LoagO06HKUxRTtgyU2p9wCEoIa41+pdht6aJ6pwYICrLD1/tD8fFwV6zrXxzFmG3plCiHtQcl55Hw//bOAzyKan/DuIQQEsoNSO+9dwiEEnpvoQWS0AkgUgNIF0QpIiLSEUEQDYqIVAERkCIKCoJ0RAT0DzbACxhujNHvP7OZTTabk5BsDnuS2e99nve51zPtt7OzzPkyM2f2NEaPQrHLVO3ghw8/1JY50x83PmiB55vmgKfWwclZqzY+P611hPcG4tgbtdBM3x9aeHh5Qxd8sak7bhhXN0QdKOc+n21d2rZ9s8I719MIGdsM+7f0xKUdnfDBhLKokSO25qYTuiW+EpYSXRWChMeFs/ulH3b0yaV9JxaUa+OH7dtCcF/bz1EneuHQ7Epo4KutzyM7BiwKjetEJ/xOXPcdyv7+5ISgp5AjexZ45iuAZ6a1wtEdQTgX0RyTG3hrofIpeJfwRfns3ggIaYBt7/fApZ2dsWV8KVT00vdrTgxfYbu6Y/v9afVoehQsjImvdMEPJwfhjwOdsWFwIRS27pP8mBkxIEEdTv1GdzVEl3z6Mp6o26MB9u7sg/snQ3F6ZT2ElI//44V9oHFmGV3R9+/sd/lomz/aPa1Py4p6QQ2xd5dRw6r66FPRVoN7hyCdv386h7sv+uOfB78bLWrIMCHowjz0qawdP7nqIvzANvE8Z2ag3+hp+PRxbWlR9voUyRBESHomHYWg+VsH4tHZQfGeGYi7R3rh6zVNMKON8RfSLDkxZImtE2rXWcqaB2PfdPwLb3/s7v8feGodDN96dfCFw3DFuBiCD3v5Wqfn9K+HM3F/4ReFoH7Y2Sd2Xfma+OP0Gdu8htZ1xU4v07s1frO2D8DeAbHrz9fUH986PK8Sc7QVhha3aB3AHBi+MrYDmNzzJIk7UM5+vvh16Z36kPm9EW2/3JWBODTsaet+9QlogCtGZy1pB+P0gpoI718FY2z2LQW/XFoHLUsutOtl1645flp7/PKYTlnajgsn98vZjphcQfs+subDC5scRz4biCPD86NwsTxoH94pbgAGUafWFd+h3O/PLgRZPJCvSE6ULZ6cuVC9X+sEV0jj68mJQYtCEvwOI9+tgVr67YGZtHAZ1NL6xwnbNFwMxbr2eojNjLojOhtXu+J/1xavPBjn+LvWlvkoOHafFejQFDfj1ufcb3SPsf8LtW6ES3a/Ed3IHf7ooAcNbXp8oHFmmVhFx4tz32VfbAnKYQ2Xpbo0wzWH7zhqd2P0KKjXwBCk88+f9xDzxy3rlSFVZIwQtAM7lrVF4y6NUCarF2pOWozPHOe5FoFlo6ugSO+p8QFF1JYWZa9PobJCkD40dpOAAKt79+wRzpMSGYIIsSe9hCC9E/A4LV5oFNbW7oQe31nyql4LXzg+FH+6HcaU0EOGN/otdAxIseqdP+tf7bXO9itxVxwEIehUazyj/7VeCyzDloufR3i0sSZqa509j4IV8NFJre1Me4wrrW8/O8KW9BMsMwinlzbE6ldb49inse9cSVUH2unPF78uj6KVsN2x4615f3F55NfChVf12vjysYMNDMSuPrGDEwi/NwftO4BJmabjwtn9cq4r5tTObP2re53gZjj1xeOvYIk6ta74DuV+f7HbsIYg2z5N1qeQu2sLYedevyVxq37s203Dl03RO7u2nBaIx6xxfLfQIBwZlsf6Wyvbr60RrOJ/fzmaiEPco021UU/7rVl8S2Gd8byVs7/R8WX0/a8ts0z0G+2nhY3s1rARF2icWcZQdLw49V1+3QphesjJmgeTN4iGKh+IfYP08MwQpPNvzN/4Y0Fb/O/4JqPF9WSIEHR1JcI7t8DUQ4swzM8LnlWDsPyS/fTVeHm0P4prv2fvGs3Qb1QIpm5anLhtywc4dm4ZXpraGwOebY8mTfzR46WXsd16e902bN8+GaPDGqPhiBewc89E9O9cDRWq10CnlxZgj2gb1vWtxpJXQtG5ZXOM3W3cDnftHaycH4zQEUEICQlAi5ABePnAh0a9j9mO7TM9YWWFIL4sVSFfffUVArT0qfvzzz8brcQUpOsQ9BQ8vLKiaOl8aNelGhav7IF7CZaP7yzl7tzcYZp+a4w/2mbT1pOtKBbvTaJDe6YDJpTVOjSWbBi0xNZBSxyCorbWRYBep9bpGDSlCdbNEzirChpZO6sFMOejwYje1xAdjO0v+SRlt4SlpgPt/OezW5d/PZwVdDIfvlkFZTy0jleVmjj62E50GL5f3xRvzGqMVTZnVke7vHon7WkMmtQovl3zzeXdEn1XjqbluHB+v4Th3IziKKR9bn0bluzZ4desHCZMCMD2Tb0TDYqgK+rUuuI7lPv92YWgrHnx3KoeuLi7ZzIG4fKhhCHDVo+3nx++cbgygm+ao48eghyCeKzxv7XSfRxDUGbUGm67OuTgKS0E5NeOryy5MckIAWn9jS7dJ9r/YfhhZjHk0OqzBRpnlrFNEx0vznyXUZvroIH2OSy+ZbHR4RizeefVssijhSeGoFiiTm7FvTmN8c9DNYM7ZYQQdODDYAQMmqEFhG1474W6yJ6lCHqu2+Qw30ZM65gNeRJcpXFo04LM8z3rIHi9/kzPDmxb0RpFtHNBi1dW47D233uPz0OYnwey12uBPmOGY+7GeZg3tjZ8vathxB494Ai2cXEjNi9ti4JeFTBkuz7PJiwfVw01hr6Ej/XpWiB6bUhpeJdsiZmH9dv4UrIdY91PUIYgE7B37964nX/9+nWjlZiCdHw7XNS5JDqFcdqHlYS35+jaOgqizmic57phTp3M2rGdBUHz+hjtiUNQ5PrqqJIl9jfwWLP4YsJ6rf4P66Dh47bvYGo60M5/PnFnzF6941U2FZ3oREp8Jii1x0Va9ov+fqPDz1dEy+IOgxRYLMhXriiGTWyLK3YjdYn2oyu+Q9nfX1wIStMzQVo9otvvbCEoWxG89rHjd5dcCPJAy0k9HG4PM7QFQ4/seHZVbDB09jf6uP3/YFE5LUzEBxpnlrG1i743Z77LyLeqooL2WT2KVMLOJEaOe7iqMkppyzEExfLvP//g/ur++HP3q0aLa0n/IehdzO3nj6HbP7L+95EvxqLl0x7I33MSdiaY7/Eh6OCHvVGpRBOMeWsWXntbc0UQans/Be+Ww7HZejXoXUzt4IVcXSfEBhjdr0dr/+ZnR/vlm5PYhrbebSGo5BMbgg7vH4r6/ymLAVti69U98sUYNP/PUyg++EVjucdtx2h7gjIEmYBvv/0WwcHBVn//Xe3DhUQyGWVgBKGJw4r99Khtxrp9SmKN7ZYZR892wYxq+i1Qnuiz0PHB7Pj1PnqnBmrot9/kKIRxswKwZnYyzmmOI5+Fxf9lOntJrP3cYbtJmKoOtNOfT34nOpEuHCLb0bTslzjP9cG5dc2xeEQl9PbPjUL6w/v6CciSGZWDW8V1KkX70RXfoezvT1oIEtXjdAjKjCbjkxjYQTu+RhfXrwT9B+Peir0S5NRvdLufMYiFtv+Pivf//YVl4WsfgpxYxtYu2k/OfJdxnzVPeXwguIVO98GS8ijAK0EJiPnjNv796xH++d8Do8V1pPcQdPizEWjepAdmb5qPFZt1Z+GZFjmROU8jTPl8h928jwtBO7D5JT9kL9UcY96YjpffjPeV95ZjjzUEafNr4SS3/TouTEYHXy+0XKQPfy0OQZ9t74Mq1hC0BR/NrY+sWetg3GG72q6uwKiGHshcqw/WfKe3PW47RtsTlCGIkPSMiUMQjjVFsP5wftanMS1CdN+85pfN0TeP3pnKjefets2TeL3RnzRAe+stMIXx6q4kOquOft4EvXLq28+HFz4QbT8MN1b7Y+Y4f6xd18v6F+/UdKCd/3zyO9GJVBiC0rJfdKPPDkp09SHycCAiBhVEPq1TacleHCv2x34m0X50xXco+/tLnyHoKZSJa0tozIFG6Oyj7RNtna8btxE69Rs93hz99H2bNS+ef0+0/8NwblJh+Gi1xAUaZ5YxFO0nZ77LmEON0VUfNc6rIOYaw68ndDDOWN9VxBDkyP++3oL/Lu1pfU7IlaTvEPQRVo+vh5YTxuOFJc/FOXNKUxTL4oP6M1ficNy8jwtB2/DOtBrwzt8ac87apjsqCidTUhGCNmvbqI4sHlXxbILb2vT1ZoWlRjDeuGz77+S2Y1vuyckQREh6xswh6HxPLGqsDxWbGXWGdUrQGYk1DD8uKIsiWgfDo0B5bIp7D4dgvWcD8UIN/a/xWdBsfDfhcwr31lRDnQI5Ud2vGrYe0zphWidggb8HLBYPNBMNVXwxFG9r/9Dr9dmGv4050BCdjA702w7vBUnUWXL688nvRCdSZQhycr9E7WiI3uV9kLtIeXyQ6J0smlqo7Wl9tiX2eRK9TbQfXfEdyv7+0mcI0uqvWB0HHV+Aq+2TKzOLW5938aphN1iAM7/Ri73xRqvY0enqPdtZ+G/I4gD91ki7QOPMMoai/eTUd3k+CEuaatuwZIb/yC6Jj5tvumBmzdj3pjEEJeSfRw9w7+UW+N+xd4wW15CuQ9DpGejZqjdW2A+CoHvpFQyongVZ6/bFWuuVFV1RQEnYtntJC+TOkg9tX19n956f9/D6sufxUZJXglITgrbik9VtkS9TTrRZ/G7c9GPX1mNiay/k6z0Ne61tDEGOMgQ5waeffgofHx+rP/74o9FKTIGZQ5DWWbqhdSCLax0IS878mLCyd4Ig8sfWxggpabF2JGqGdbB7q7povWG4NKsECujryl0QU94MTrCuqINtMK56bMenWOdmuGHtdITh+7mlrO808ShQDAve72s3+lcYri+vglrZntLWVwzLdhudQ62j3cPa0c6PmZviBzLQTdxZcvbzye9EJ3Ygft7fC9/tC8FdwfofZ9qOCyf3yzcdMFEfItuSFU2f7eAwjPcgXJxdGiX177J4JewwRkAT7kcXfIeyvz/7EPTCe/1w/9SAx/rgTHygSbaeNIQg/RbAhmFtcdNunXc/8EdgYS1ge2RD4Kwgu6t2zv1Gf1lRyfp8jcW3IKauCbFbXz+cmFbC+t0kHO7amWViFe0n575LrYaVlVApi/bvR468GPZyN9w15o853g3reudFLi0k6h0mhqDERJ3eibsvNbQOne0q0m8I2ob3ZjdEg0lLEg+HfWMr3ppYBVmzFEH3NRFG2ybM7OoN77ajsO3aR/jo8/U47ND24faR6FzCA5nzVkXvhS/j3aOrseq1bujx0jJjG+9iSnsv+AZNsQsnsbeptVi4MYlt6CEoFJW1EBSmD4xw4WUMqJkVOVs8g4irxjq+fR7dylbCoA9tI8Q9bjtG2xOUIcgE7NmzJ27n37x502glpsDUIUjzfG982CcvfPXbmLL4oF6bipg4vCbG9SiKKvptSNqyRRrXxeHj9sslsd5zPbGhe27ksK7LG3VbV8SE4bUwObQUGhTS/+r6FHzKlUeE/Uhw54KwoYexTPZcaNW1CqYMr4FRnQqgpPUlkdkROL1r/DbOdMBz5bSOuLYuS3ZvlClZEDPeSeYWKKc+n/xOtGzTdlxoOrVfwvDDa+VRMas23ZIFZfxKY+SQWpgxvBqGtcmLwnqHM0tO9J7TM65zLdyPLvgOZX9/cSFIW2dKzdm2CX42lk+2HqdDkAVlKuVBfg8PlPIrg9HDamJCz6KorO8Tiwcqd22KC46fzZnf6MVQ7ByYL3b/Z8uBJp3132g1DGnqi9weWVC9si+8HJ/vcWYZTdF+cvq7vNgHn44sZH0BrP6sWv4y+dG8fn5Uelr7nFmyo0Et/V1GWghqE4BbDEEJ+PfffxH9w9f4NybaaHnypMsQdO1drFnSCw2KZEXJLgPx4pa37G5724VPPn0R43uVtr4TK2u5AAxd+hq2X9uGd16oi/9YcqJonUYY+q4+Apxj2wZ89E4fNCimXzHVj8/sKNNtJNZf1Nf7Id5/dzBaFtd+O5XbYfKHa3H4u7VYPr8dymvHcvFuQ7H4s/cTbeOzk4sxe0QN5MqUE36jpmH9qR3Yv3sMOlUvgKrBYZixdAyGhTZF0MKlRuBJyXZsYenJyRBkAvQR4RYuXGj1wQPXP1BIniBmD0G6WoflyAtV0KGsFzy1TkvsPyRPIVeJwhgc3grnHN9rktx6zwVj//RKaFsm4bosOXKiec962Ltf8IzAud74ZHIFNC/mCQ/bMhYL8lYogSmvdncYLjoM15bXQLsSxryWrOj9cuz7Y5LsLKX688nvRMs2zSFI14n9ol/BurCkFoKr+8AnbhntJOrhidJ1ymDmkh4JhsoW78cn/x3K/v7SVwgajK/Ctc59rmzoMKUzPp1UFnXzWmI7U9p83vnzoU94G1xN6nM58xs9H4rPZlRG21L6laLYZSw5cqH9kBb45tXyKOqbFeX6OPxb4MQyov2Utu+yH84sqoPBAU+jVJ4s8Mnpg+oNy2POsh44PaUIfLT15uzQNO4qkUtNxyFI59+//8Ifrwci+toJo+XJ4kwI6tq3vbBjrd7N+HDnK1h71H6EtcRtR86uwZqNL2Hpx+uwP26+lCrahsCrEXjvozlYvOl1bD5rP4BD+rB7Pzkh6MrlyyhatKjVLVu2COdJiQxBhNijOAS51oG4tbsrPo/ojJN7QnDP8X0mcQ7Cl6PyWTtmJUOSClex6zr2bkcc3dwDP55y7NwJvNgfN3YE4ui7nXFiV2gS6zW8OAh3joTg9olBwhdoik3p53M3ndkvYbj3WQ+c2NgRh9/rivOf9U80WMJj5XcozZiTwfh2U2cc/bAnbicxJHRinfiNnuuHGzu136j2nX/3RQrDtzPLPHG1IDk2P7z1f8NCk/kD0ZM0nYcgncg9C/HH4q5aIHryV4RSG4IGDRyIdt1bCDvWNOPYvkcLDBwwQPgdq5AhyAn+/PNPXNZSqO7ff7t2RBXyhHGrEJRSB+HgkNzwzGRBxYHtESmch1JKFXmuOxa3y4cmTcth8fuCK1u2wRssHmgz1f65KReaAULQv1F/4t4rrfHoyFtGy5MjtSFo4sSJqFG3irBjTTOONfyqYuJzzwm/YxUyBDnBxx9/bP3x6nJgBJPBEGTnIPzx9UBEn+iCl+rpI3ZpHYgpijoQlFKapP2wJSg7PDI9hVIdGuPbBO8K6oeTs8qgvP4Mm29RLE7pcOGyzQAhSCf6h5OIuXPT+pzQkyS1IejLL76wzr9x/0ph55qmfzceWGX9Dr/QvkvRd6xChiAnYAgyMQxB8VpfwJgZnnrnQTvWLbmL4nVnn0ehlNInaOQWf3QoEDtwRq7iBRDYuTwGdS2NDtWyxw4MkTUneszslnj4bFeZQUKQTtS3e/Bw8zTjv54MqQ1Buo0DGlsfrBd1sGn6V//uGjVuJPxuVckQ5AR3797FoUOHrEZFRRmtxBQwBMUZc6gVJjUrCL9KT6Nx84pYsKY3rwJRStOt93a0xOzuhVFZHxHO+ofKp2DJ5oNazSph4Zu91DwLZDMDhaCY36/j7sy6+Ou7Y0aLfJwJQfooYFm9smLlh68IO9k0/bpqywLrd/fOhg3C71aVDEGE2MMQRCmlGdvzA/DLZ73w3achuGP3/ialZqAQpBO5bwn+WNQZ/0Y/mT/0OhOC7vz+O8aMGYNs3tmsnWpRZ5umP/XvytvHG2NGj7Z+h6LvVpUMQU5w69YtREREWH306JHRSkwBQxCllFLZZrAQ9O9fj/DoyLp0FYJ07YNQ2LhQ7Pz6HWHHm6pX/27070j/rtJjANJlCHKCnTt3Wn+8uv/3f/9ntBJTwBBEKaVUthksBOnoQejBexMQc/cno0UezoYgXb0zvXTpUlSoWB4eHpnRslMAhozvg7Ezh2LsC8OoSrXvQP8u9O9E/27070j/rmQHoEsXLyJXrlxWN73/vnCelMgQ5AQMQSaGIYhSSqlsM2II+vdfPNgwEg/eGW20yCMtIcim3rHeuWMHgoOD0aRpAGrVrknTgfp3oX8n+nfzpK7+XLxwIa4frj8rJponJTIEOUFMTAwePnxo9UkPI0lcDEMQpZRS2WbAEKQTc/dH3H3BD39d0s6NEpERgtLiTz/+iI0REcJpKtWHj77+ww/CaSp9a+3adHU7G0MQIU8ChiBKKaWyzaAhSOd/xzch+uqXxn/JQXUIeumll1CiRAn8+ssvwumq7NihAyZNmiScpsorly/D29sbmz/4QDhdhQxBCrmg7fzw8HCr9+/fN1qJKWAIopRSKtsMHIJ0or8/jv99udH4r7SjMgTpV4Hy5s1r3f6yZcuE86jw8KFD1pr051yuX78unEeFo0ePttZVp3btdHM1iCFIITt27Ijb+bdv3zZaiSlgCKKUUirbDB6C/rpyFHdfqIuYOzeNlrShMgTpV4Fsfbj0dDWoXbt2cXVNnTpVOI+rtV0FstWVXq4GMQQp5ODBgyhXrpzV3377zWglpoAhiFJKqWwzeAjSeRARjvvrh0t5FlpVCLK/CmQzPVwNOnjgQIKafH19cfPGDeG8rtR2FchmerkaxBBEyJOAIYhSSqlsTRCCYv64ZR0yWx86O62oCkH2V4FspoerQa1bt05U14znnxfO6yodrwLZTA9XgxiCCHkSMARRSimVrQlCkM6/f/+FR0fewr9RkUaLc6gIQaKrQDZVXg36dN8+YU158uTBjzdvCpdxhY5XgWymh6tBDEEK+fzzzxEQEGD13r17RisxBQxBlFJKZWuiEPTH610QuXeR0eIcKkLQ2W+/tW5P19aBrlq1qvW/P9i0SbiMK4x4912MCw9H2bJl4+oKDQnBiBEjcOizz4TLuMI3V6+27htPT8+4umz774bigRuuff89OnXsaFUPkaJ5UiJDkBNs27Yt7oD45ZdfjFZiChiCKKWUytYkIUhHHynu7sw6+PvX742W1KNyYARdi8Vi3f4r8+cLp6tw3bp1cX3L769eFc6jwsGDB1trqlChgnB6RpYhyAlOnjxpfRuuLofINhkMQZRSSmVrohCk83DL84g6s8v4r9TDEJTYt956Ky4E6Vc6RPOokCFIjNuGIGJiGIIopZTK1mQhSB8hLubuj4i+9pXRkjpUh6A6deqgZs2aeGPVKuF0Fa5dsyYuBP1w7ZpwHhXqw3Xr+yqwSxfh9IwsQxAh9tiHoK+qABdDKKWU0rT5bVtThSCdR59vwL35LfHP/x4YLSlHdQjKnDmzdfsvv/yycLoK17z5ZlwISk8vSx04cKC1pkqVKgmnZ2QZgpxg586d8PHxscr3BJkM+xBEKaWUytYkIejfmGj8d0l3/PnxK0ZLylEdgmwP+8+ZM0c4XYWr33gjLgSpHnjA3n79+llr0geREE3PyDIEOcFHH30Ud6D++uuvRisxBQxBlFJKn6QmCUE60ddPWkeL+zc6ymhJGapDULZs2azbf+nFF4XTVajfmmfrW6aHF6Xa7BMaaq2pRo0awukZWYYgJ7h69SoWLlxo9dGjtL80jKQjIq8AV56hlFJKn4y/bzVOOObg35i/EX3tBP795x+j5fGoDkH6nTz69l+YOVM4XYWrVq6MC0H6O41E86gwuHdva021atYUTleh/nLbb06dspqWdykxBBFCCCGEEKf459F93JvdGFGnthktj0d1CNI7v/r2J4wfL5yuwhXLl8eFoP/76SfhPCrU38Wj19SoUSPhdBXyZakKefjwIS5fvmw1JibGaCWEEEIIcT/+9+V7uDevmTUQpQTVIahixYrW7Q8YMEA4XYXL7ULQ7Vu3hPOo0N/f31pTYGCgcLoKGYIUsmXLlrid//vvvxuthBBCCCHuh35L3H+X98L/TnxgtCSP6hDUuHFj6/Y7duggnK7CZcuWxfUtf759WziPCsuWLWutKWzwYOF0FTIEKYQhiBBCCCEkHn2o7H//eoSYP24ZLUmjOgR17drVuv369esLp6twyZIlcX3LX37+WTiPCn19fa01TZ48WThdhQxBCtGDz6FDh6z+/fffRishhBBCiPsSuXcR/rsqFP/+k/yjAqpD0JCwMOv2//Of/+DC+fPpwhdffDGuY3/u7FnhPK727LffxtX06oIFwn2pQoYgQgghhBCSbvjnz3u4N7cJ/vfVZqNFjOoQNGXKlLhONE2Z69evF+5LFTIEKeTHH39ERESE1b/++stoJYQQQghxb/739Ye490pr/Pt3tNGSGNUh6NTJk3EvTKWPt5AWFNLTu4sYghSyefPmuJ1/9+5do5UQQgghxL3R3xcU88dt61WhpFAdgnQ/+eQTRLz7brpx8KBBcX1L0XSVHjt2TLgPVfntmTNx++q9jRuF86REhiAnYAgihBBCCBHzz8O7uPuiP6JvnjFaEpIeQlB6c+Grr8b3LQXTabwHDxyI21d6mBXNkxIZgpxAfzeQ/q4gXUIIIYQQkpA/d861DputD5/tCENQYhe88op1nzz11FPC6TTeG9evY9XKlegTGorz584J50mJDEGEEEIIIUQq+otT9ReoRp3carTEwxCU2Ffmz7fuk8yZMwunU/kyBDnBmTNnEB4ebvXRo0dGKyGEEEIIsfH37cv4NzrKqj0MQYmd//LL1n3i4eEhnE7lyxDkBJs2bbIeqLr37iX94B8hhBBCiDsTuW8JHm6eZvxXLAxBiZ03b551n2TJkkU4ncqXIcgJ9uzZg3Llylm9f/++0UoIIYQQQuz5++cruDuzDqJ/OGm0MASJnDt3rnWfZM2aVTidypchiBBCCCGEPDH+3L0A/13SHf/+E2P9b4agxM6ZM8e6T7y8vITT3dnLly7hzdWrhdPSIkMQIYQQQgh5Yvz7v4f467vP8e+//1r/myEosZMnT7buE31ghB49esR54vhx4fy6y5YtSzBvUv7y88/C5XUnTpwoXMbe0aNHC5e12btXL+Fy9upDgIuW1T377bfCZQIDA1G3bl3rPtH3zdaPPhIu76wMQU5w8OBBBAQEWP3zzz+NVkIIIYQQIuKf+79arwbp/8sQlNhx4eHWfeLont27hfPrhg0eLFzG0du3bgmX161Tp45wGXsrVKggXNam/hyTaDl79aAkWlb36JEjwmUcHTtmjHB5Z2UIcoL3338/7gv573//a7QSQgghhBAR+lWg+28NwcP3JzIECZwwfrx1n1gsFtSvXz/Oz48eFc6vO3v27ATzJuXPt28Ll9cdMGCAcBl7kwswuo0bNxYuZ++0adOEy+qe/Ppr4TL+/v7Wq0H6VbJTJ08Kl02LDEFO8OWXXyI4ONgqh8gmhBBCCHk8Mb9dw92ZdbF01nMMQQ6+MHOmdZ/kyJFDOJ3KlyGIEEIIIYS4hKgzH2PFa7HvxHl1wQJh59QdnTljhnWf5MyZUzidyjd37twoXLiwcWSmDoYgQgghhBCSKiLWrrJ2+PXbnESdU3f0+enTrfskV65cwulUrvpgEfqth1WqVDGOytThtiFo8+bN8PHxsfrw4UOjlRBCCCGEPI7vvvvO2uGvVKkS7vz+u7CT6m5ON0KQr6+vcDqV61tr11r3t/5MlDO4bQjauHGjdcfpPnjwwGglhBBCCCEpoW3bttZ+1M4dO4SdVHdTHzhA3x/6LVqi6VSu+sAL+v4+eTL+Jb6pwW1D0OXLl7Fw4UKr0dHRRishhBBCCEkJu3btsnZCS5UqhQvnzws7qu7klClTrPsjT548wulUnrZBKPTR55yFzwQRQgghhJBU888//2DIkCHWzmjp0qWTfSmoO2h7WWrevHmF02na1Z8Dsg+bZ8+eNY7G1OO2IUi/BU6/GqRre/sxIYQQQghJOfZBSLd169ZYt24dPt23D0cOH3YrBw0caN0H+u1wounUOQ8fOmS95XLixInInz+/lACk47Yh6N133437wXJgBEIIIYQQ59CD0MqVK1GhQoW4vhWlT0JPT08M1MLmlStXjKPPeRiCNBmCCCGEEELShn5nzYEDB6x/sdevDumjdrmT1atXt/Yrvb29hdOp844ePRqLFi3C77//bhxtacdtQ9Cvv/6KQ4cOWdX/gkEIIYQQQoizPP/889YQVKRIEaOFpGc4MAIxPd/99PCJqwJRHbJVhagW2boS0fZlqwJRHbJVhagW2apEVI9sVSCqQ7aEJIVtiOyiRYsaLSQ947Yh6Pr164iIiLAaExNjtBIzIjqJyVYFojpkqwpRLbJ1JaLty1YFojpkqwpRLbJViage2apAVIdsCUmKqVOnWkNQ8eLFjRaSnnHbEPTOO+9YD1TdyMhIo5WYEdFJTLYqENUhW1WIapGtKxFtX7YqENUhW1WIapGtSkT1yFYFojpkS0hS2IZuLlGihNFC0jMMQQxBpkd0EpOtCkR1yFYVolpk60pE25etCkR1yFYVolpkqxJRPbJVgagO2RKSFJMmTbL2K0uWLGm0kPSM24agv//+2zoqHEeGMz+ik5hsVSCqQ7aqENUiW1ci2r5sVSCqQ7aqENUiW5WI6pGtCkR1yJaQpNBHxdNDkP7iWJL+4cAIxPSITmKyVYGoDtmqQlSLbF2JaPuyVYGoDtmqQlSLbFUiqke2KhDVIVtCkuK5556zhqAyZcoYLSQ947Yh6OTJkwgPD7eqXxUi5kV0EpOtCkR1yFYVolpk60pE25etCkR1yFYVolpkqxJRPbJVgagO2RKSFOPHj7eGoLJlyxotJD3jtiHo7bffth6ouv/73/+MVmJGRCcx2apAVIdsVSGqRbauRLR92apAVIdsVSGqRbYqEdUjWxWI6pAtIUkxbtw4a7+yfPnyRgtJz7htCNq2bRvKlStn9a+//jJaiRkRncRkqwJRHbJVhagW2boS0fZlqwJRHbJVhagW2apEVI9sVSCqQ7aEJMXYsWOtIahChQpGC0nP8JkgYnpEJzHZqkBUh2xVIapFtq5EtH3ZqkBUh2xVIapFtioR1SNbFYjqkC0hSTFmzBhrCKpUqZLRQtIzDEHE9IhOYrJVgagO2apCVItsXYlo+7JVgagO2apCVItsVSKqR7YqENUhW0KSYvTo0dYQVLlyZaOFpGfcNgTt3bsXAQEBVqOjo41WYkZEJzHZqkBUh2xVIapFtq5EtH3ZqkBUh2xVIapFtioR1SNbFYjqkC0hSTFy5EhrCKpSpYrRQtIzbhuC1q1bZz1QdaOiooxWYkZEJzHZqkBUh2xVIapFtq5EtH3ZqkBUh2xVIapFtioR1SNbFYjqkC0hSTFixAhrv7JatWpGC0nPuG0IOnz4MIKDg61yiGxzIzqJyVYFojpkqwpRLbJ1JaLty1YFojpkqwpRLbJViage2apAVIdsCUmKI0eOYPny5XjvvfeMFpKe4TNBxPSITmKyVYGoDtmqQlSLbF2JaPuyVYGoDtmqQlSLbFUiqke2KhDVIVtCiDlgCCKmR3QSk60KRHXIVhWiWmTrSkTbl60KRHXIVhWiWmSrElE9slWBqA7ZEkLMgduGoHfeeQc+Pj5WOTCCuRGdxGSrAlEdslWFqBbZuhLR9mWrAlEdslWFqBbZqkRUj2xVIKpDtoQQc+C2IWjt2rVxAyMwBJkb0UlMtioQ1SFbVYhqka0rEW1ftioQ1SFbVYhqka1KRPXIVgWiOmRLCDEHbhuCzp8/j4ULF1r9559/jFZiRkQnMdmqQFSHbFUhqkW2rkS0fdmqQFSHbFUhqkW2KhHVI1sViOqQLSHEHPCZIGJ6RCcx2apAVIdsVSGqRbauRLR92apAVIdsVSGqRbYqEdUjWxWI6pAtIcQcuG0I+u9//4vLly9bJeZGdBKTrQpEdchWFaJaZOtKRNuXrQpEdchWFaJaZKsSUT2yVYGoDtkSQsyB24agNWvWxD0TFBMTY7QSMyI6iclWBaI6ZKsKUS2ydSWi7ctWBaI6ZKsKUS2yVYmoHtmqQFSHbAkh5oAhiCHI9IhOYrJVgagO2apCVItsXYlo+7JVgagO2apCVItsVSKqR7YqENUhW0KIOeAzQcT0iE5islWBqA7ZqkJUi2xdiWj7slWBqA7ZqkJUi2xVIqpHtioQ1SFbQog5YAgipkd0EpOtCkR1yFYVolpk60pE25etCkR1yFYVolpkqxJRPbJVgagO2RJCzAFDEDE9opOYbFUgqkO2qhDVIltXItq+bFUgqkO2qhDVIluViOqRrQpEdciWEGIOGIKI6RGdxGSrAlEdslWFqBbZuhLR9mWrAlEdslWFqBbZqkRUj2xVIKpDtoQQc8AQlCJmm0D3RXQSk60KRHXIVhWiWmTrSkTbl60KRHXIVhWiWmSrElE9slWBqA7ZEkLMgetDUMxtHFszASE9puCjn+xGZYs6hWX926DzrE/wAI9wbHF/BA1bgI+/izRmUIkoVGQ03RfRSUy2KhDVIVtViGqRrSsRbV+2KhDVIVtViGqRrUpE9chWBaI6ZEsIMQeuDUHRV7FpeD3UH7IBZ+8bbQYxtyMwpFpl9FpxEdHWlmjc/GQm2tTogtePO8zsckShIqPpvohOYrJVgagO2apCVItsXYlo+7JVgagO2apCVItsVSKqR7YqENUhW0KIOXBhCIrGheUdUbzZyziZ4os7Mbj5Xn+UqTkJB/4wmpQgChUZTfdFdBKTrQpEdchWFaJaZOtKRNuXrQpEdchWFaJaZKsSUT2yVYGoDtkSQsyB60LQHx9jZJkiGLj5N6PBRhTObpiEsH4h6D1gEY46BqSoE5jllwsdln9nXCFSgShUZDTdF9FJTLYqENUhW1WIapGtKxFtX7YqENUhW1WIapGtSkT1yFYFojpkSwgxBy4LQQ92DEMR31BsvGM02BN1CnMae8Czzeu4nCjpPMLRqdXg2XoxvlOWgkShIqXOwNdraqN51byoVK0Q6jcsDn//4mgb3BBLD0zQgp1omZT4PE68URNNK+dFhSoV8do3Lxjts3BpcyN0qJkX1VrXQ8R5W7v7IjqJyVYFojpkqwpRLbJ1JaLty1YFojpkqwpRLbJViage2apAVIdsCSHmwEUhKAonX6oHi/8cnI4ymuyJ3IdxFTxRZeJBiO6Uu/tOb3j5DsBmZY8G2YcPJ3wYimFFPFB2VD881P475o/ReHdofngVqII1116Mm+/RpVC8/fE4YTC693UQNhychBj79gfBGFzIG3nzeKD2tDBt3xntj4Zghl8u9I2YHD+vGyM6iclWBaI6ZKsKUS2ydSWi7ctWBaI6ZKsKUS2yVYmoHtmqQFSHbAkh5sBFIeghdj1bBJk6rsSPdgPC2Yi+vAitvfKi33t3jZaERH48AkUztcXSHwQLuwRbkHDO6HNt0dInG4LfnhTX9nBrXRTxehrhe2cYbS/ip92N0ahYYYz6MFyLjfHL3zvRAd3K50PfdaPwyK5dX2/rGvUwY0hueFX0x977xrS7QehfrAJW/BAfsNwZ0UlMtioQ1SFbVYhqka0rEW1ftioQ1SFbVYhqka1KRPXIVgWiOmRLCDEHLgtBW8PyIlOXNbhttNjz6zshyO3VGosS3wtnJXLvKJTM1AKLrrj6frgHOLP9Taxa1VlgF7zxZiDWvdML2/c/g+/vztLmtwWOhP76TnXk9SmFBeds88zC5cVlkSNHGbx+yX65Wbi5qzEaFy+MkZtjg9C94x3QtVxeBK8eoVUTv07dX9+phmI9AvHdNj+U9vTFkC1TrO2PDgegtn8zfPHIfn73RXQSk60KRHXIVhWiWmTrSkTbl60KRHXIVhWiWmSrElE9slWBqA7ZEkLMgYtC0CMcnFAemVq8JnjmJxKfjq8Iz8rP4UASo8Y92DwAuSzdsPYXo8FlROHW8bUYUsMDntWrYMKUxhjUJDt8ypdCUO9KaFMjB0o2q41xIyqiTul8aD++O775wz546M7AvvF54VO1kfb5tP+OnooLu1ohsEw2+E3oi59jHOd/ET/uCUCT4oUwbH4zBJZ9Gr1WPov7CebR1dY7Lh/8Zw7Do/v9MaZiZhQK7YFbMbEBq8ywEIdl3BfRSUy2KhDVIVtViGqRrSsRbV+2KhDVIVtViGqRrUpE9chWBaI6ZEsIMQcuCkEx+HF1Z3iWHIW9iYLOz1jTzRue7Zbiu1sHsXDGWpxL8NxQNC4tbI5MlSfh8COjKTVE3sbZz7YhYu0bWLF0CZYsXozFhkvW7MP3j7249AifTy8E317dcUcLHgcn5kfRISGxV2UejcHa4EIIXDEKD6+FYkJDH1R8JgS37YNN1EgsaJ4FXkULoFHj4mjoXxytevjhpQ3DcDvabr4EzsKVlRWRL5MF5Z8NxW+iefT1tsiDZ7ZP1/57Bg5PKQjPPJWw5vpkvNfvPwhcNT7h80NujOgkJlsViOqQrSpEtcjWlYi2L1sViOqQrSpEtchWJaJ6ZKsCUR2yJYSYAxeFIC3KXFqEll5+mPWV48gIkfh8dmPkypQDRf1CsODgba3zbkfMLazvmROlRu3RgkdqiMSlzVPQuZIvLJkyIZNAzwrhglDmSBROzimG3KIQpPlgpx/K1m6Co49m4/5ef1TMWwVv3bJ7FueX7gjOkwVNXx6R4Dmf5Lz3ZXvrFaDu4XXQqGhBDNs0NvGy+nqLaqHnp9htRZ1qicbeXuiyNAgTahbFzC9nJpzfjRGdxGSrAlEdslWFqBbZuhLR9mWrAlEdslWFqBbZqkRUj2xVIKpDtoQQc5DGEBSFny8cxYGjl3DHYcyCP344iaNHT+Om7d+LmB8REVoEVcbvR+L3nkbil+s3cUcwclz0pcVok7sB5nyVmstAMbj+wTBU8fZEyTYTsHL7MZz/4RZ+vXMHd+y8e+9hCt49lHwIivq6JRrkqYYNd2cj+mpHtPctgXmnbcNSz8ZDLRiV934aY+MGQEheawAqlw+hb+rPAL2Im7saaUGoEEYYzwjZ5tPXW7lxS3wdZbRFj8GyDlmRo24x1CldF9tsgyTE6b6ITmKyVYGoDtmqQlSLbF2JaPuyVYGoDtmqQlSLbFUiqke2KhDVIVtCiDlwPgRpoWb39JYo6uUBi8UXjWZ9jth/GiJxbn0Yaua2wOLbE2tvxaej6CvrEVzeHxM/cbjakxQPz2B5YDk0nnlEEJyS4f4+TKjqCe86k7BfPOBcKkg+BOmDENQsXAsfPpiNyM8ao3r+qnj7tu1K0Av46qVi8M5RAStv2I/UJtYagMrnR/91I61Dace2z8KN7Q3RoGgRjN5qGz77BZx4sSgK9AvS9ottvhfx44ZqKJApE3IEdsGNRM8auS+ik5hsVSCqQ7aqENUiW1ci2r5sVSCqQ7aqENUiW5WI6pGtCkR1yJYQYg6cDEExuPXBMLQc8i4u/rQH4dU84VlpPPZFxuCXvZPgX6oJnn1xAkIGrsC3Dld37p9eh2dbtcCA+TtxMcn722Lw45HVCO/QBD3n7sNPKUpM8UQemIiqnt5oseBsCq70PI7kQtAsXHitDIp07YLvI8diXXBuVBkRil+sAeRF3N7fCp1KZ0Ymzzzo8lJf/JDkM0C6L+KXQ50w//3RWox0nDYLP2xvjbnWobO19e5riQ6lLPCqXAUrvnw+fr47oRhWOgvq6YMlJFhe130RncRkqwJRHbJVhagW2boS0fZlqwJRHbJVhagW2apEVI9sVSCqQ7aEEHPg/JWg6Pv4wxpiHmLv2PLw9G6B+fvfx9Ca/hi386fkr/RE3cY3H+/DmSRDUDS+P7ILR6+l7imgWPRBGLoih0dpjNwl4x+rxCGoQM8OOPL5IGxf5Y82/lUxf2MPvNizEOr26YTjdx3DR3rRfRGdxGSrAlEdslWFqBbZuhLR9mWrAlEdslWFqBbZqkRUj2xVIKpDtoQQcyBlYIRfI/oin4cvylaoie7LTxu3xakiGudfbQUfh0EQRDo7MIJ3/jwomz8Liga2xxdfdMWAmj4o17c7riR7pUe17ovoJCZbFYjqkK0qRLXI1pWIti9bFYjqkK0qRLXIViWiemSrAlEdsiWEmAMpISj63AK08LEgV5eVuJbKW9fkE42Lr7WGj0chtBo5B/PmzUvS+Ut3acHFWCxJxLfD3bsciKDieTFsy0RE/zIQ05v4ouW8oYL3+aQX3RfRSUy2KhDVIVtViGqRrSsRbV+2KhDVIVtViGqRrUpE9chWBaI6ZEsIMQdSQtBvB6egnrcF3k1fxmnBCG+u5s67ochtyYe+EXeMlrSQ1DNBM3FqfknkrdcURx/OxsMvmqNRgdJ45ZTj0NTpRfdFdBKTrQpEdchWFaJaZOtKRNuXrQpEdchWFaJaZKsSUT2yVYGoDtkSQsxBmkNQ9NUIDKrXGoGtC8MjTzA2/GJMUEj0+YVoncMTZYZv04JLWklmYIRfQzG8Qg50fzMc0TGTsXXY0ygW3B0/JBqZLT3ovohOYrJVgagO2apCVItsXYlo+7JVgagO2apCVItsVSKqR7YqENUhW0KIOUhbCLpzBHPaVEWPlWdxYXE7+HiUwchd97UJMfjt5o/Q/58SYq5hXXAReOSsj/E7b6RxhLgofDU7YQgqEhYcNzrc+cVlkbeqP/bq7wm60AEd8hdA+N6p2jTHEKJa90V0EpOtCkR1yFYVolpk60pE25etCkR1yFYVolpkqxJRPbJVgagO2RJCzIFTIejXTSPQNGgUhrcujapDNuEHLWU8Ojodtb08UXbgBpw6uhx9WjyLLdZ3BD3AhQ9fQljXzug3/wB+iXmIyzvm49meHdCxz/PYcuXJ3D8XdeVdDK6SAxavIvDrNgwTZryEuU49E/QQe8c8jVx2Icg3sAtu2q723O2PsVW90WbRSC0uPY8v5pZCEf8AHLxjH0DSg+6L6CQmWxWI6pCtKkS1yNaViLYvWxWI6pCtKkS1yFYlonpkqwJRHbIlhJgDJ0JQJD4ZVxGellyoGroCX9neYvroGyzpVBQemSzIWaE7Fhz5DTGIxnfrBqPjsNewYlQ9eBUaiNeWPYO+z63Apg3T0Sa/BUWHfIg0v880CaJuHMCKCcFoVasMCuTyhofFksrR4e7hswWBqJxLm98nGwoXzoF8ObV1eP4Hzcb1MkaDm4Vr66uhmDa9kDa9cAEveGV6CoWbNMXeXx2DiErdF9FJTLYqENUhW1WIapGtKxFtX7YqENUhW1WIapGtSkT1yFYFojpkSwgxB05dCXpw6zLOX7mdeCjsyJ9x5fx3+Nl+woM/cD8mGhcXtoK3TzG0nX049jmdmB/xRqA3PBvPxTfpYDAFYl5EJzHZqkBUh2xVIapFtq5EtH3ZqkBUh2xVIapFtioR1SNbFYjqkC0hxBykeWCElHEXmwbkh2e1Cdhve1Ao5jpWdPaGV4tXcT5tD+0Qkiyik5hsVSCqQ7aqENUiW1ci2r5sVSCqQ7aqENUiW5WI6pGtCkR1yJYQYg5cE4IiP8PEKl6oNGE/4u4+e7ATI0t5oMyojxW/XJWYHdFJTLYqENUhW1WIapGtKxFtX7YqENUhW1WIapGtSkT1yFYFojpkSwgxBy4JQdEXXkULrxwIWhc/fvbdHSNRzrsWph7hPyjkySI6iclWBaI6ZKsKUS2ydSWi7ctWBaI6ZKsKUS2yVYmoHtmqQFSHbAkh5sAlIeiXDcHInSk3+kbEDoEQ/dPHmOCXFzXH7sBtfQA5Qp4gopOYbFUgqkO2qhDVIltXItq+bFUgqkO2qhDVIluViOqRrQpEdciWEGIOXBCCHmL36DLwyFUEZWq1QZ/+PRBQvTa6Pb8VVx4ZsxDyBBGdxGSrAlEdslWFqBbZuhLR9mWrAlEdslWFqBbZqkRUj2xVIKpDtoQQc/DkQ1DUScxu6IX8/d/Dr/dv4erl7/HzA17+Ia5DdBKTrQpEdchWFaJaZOtKRNuXrQpEdchWFaJaZKsSUT2yVYGoDtkSQszBEw9BMTffQNccXmj12iVwEDiiAtFJTLYqENUhW1WIapGtKxFtX7YqENUhW1WIapGtSkT1yFYFojpkSwgxB088BD3YOQoVc+dG+TajsP4UXwhEXI/oJCZbFYjqkK0qRLXI1pWIti9bFYjqkK0qRLXIViWiemSrAlEdsiWEmAOXDIyQHtm8eTMCAgLQpk0bo4WYFdFJTLYqENUhW1WIapGtKxFtX7YqENUhW1WIapGtSkT1yFYFojpkSwgxB24bgl577TVkypQJ2bJlM1qIWRGdxGSrAlEdslWFqBbZuhLR9mWrAlEdslWFqBbZqkRUj2xVIKpDtoQQc+C2IWj37t0IDg7GgAEDjBZiVkQnMdmqQFSHbFUhqkW2rkS0fdmqQFSHbFUhqkW2KhHVI1sViOqQLSHEHLhtCCLug+gkJlsViOqQrSpEtcjWlYi2L1sViOqQrSpEtchWJaJ6ZKsCUR2yJYSYA4YgYnpEJzHZqkBUh2xVIapFtq5EtH3ZqkBUh2xVIapFtioR1SNbFYjqkC0hxBy4bQhaunQpfHx8kD9/fqOFmBXRSUy2KhDVIVtViGqRrSsRbV+2KhDVIVtViGqRrUpE9chWBaI6ZEsIMQduG4IWLlxoHRhBD0LE3IhOYrJVgagO2apCVItsXYlo+7JVgagO2apCVItsVSKqR7YqENUhW0KIOXDbEHTq1ClrEFqyZInRQsyK6CQmWxWI6pCtKkS1yNaViLYvWxWI6pCtKkS1yFYlonpkqwJRHbIlhJgDPhNETI/oJCZbFYjqkK0qRLXI1pWIti9bFYjqkK0qRLXIViWiemSrAlEdsiWEmAO3DUH37t3D5cuXcfXqVaOFmBXRSUy2KhDVIVtViGqRrSsRbV+2KhDVIVtViGqRrUpE9chWBaI6ZEsIMQduG4IWLFhgfSYoR44cRgsxK6KTmGxVIKpDtqoQ1SJbVyLavmxVIKpDtqoQ1SJblYjqka0KRHXIlhBiDhiCGIJMj+gkJlsViOqQrSpEtcjWlYi2L1sViOqQrSpEtchWJaJ6ZKsCUR2yJYSYA7cNQT/99BMOHTqEo0ePGi3ErIhOYrJVgagO2apCVItsXYlo+7JVgagO2apCVItsVSKqR7YqENUhW0KIOeDACMT0iE5islWBqA7ZqkJUi2xdiWj7slWBqA7ZqkJUi2xVIqpHtioQ1SFbQog5cNsQdPHiRURERGDz5s1GCzEropOYbFUgqkO2qhDVIltXItq+bFUgqkO2qhDVIluViOqRrQpEdciWEGIO3DYEzZ8/3/pMUM6cOY0WYlZEJzHZqkBUh2xVIapFtq5EtH3ZqkBUh2xVIapFtioR1SNbFYjqkC0hxBwwBDEEEUIIIYQQ4la4bQiKjo7Gw4cP8eeffxothBBCCCGEEHeAAyMQQgghhBBC3Aq3DUEHDhxAeHg4pk2bZrQQQgghhBBC3AG3DUHz5s2zPhP0n//8x2ghhBBCCCGEuANuG4JWr16NcuXKoU6dOkYLIYQQQgghxB3gM0GEEEIIIYQQt4IhiBBCCCGEEOJWuG0IioiIQEBAADp16mS0EEIIIYQQQtwBtw1Bc+fOtQ6MkDt3bqOFEEIIIYQQ4g64bQjavn07goODMWTIEKOFEEIIIYQQ4g7wmSBCCCGEEEKIW8EQRAghhBBCCHEr3DYELViwAD4+PihevLjRQgghhBBCCHEH3DYEzZ492zowwtNPP220EEIIIYQQQtwBtw1BJ06cwMKFC7FixQqjhRBCCCGEEOIO8JkgQgghhBBCiFvhtiHo7t27uHz5Mr7//nujhRBCCCGEEOIOuG0IevHFF63PBOXNm9doIYQQQgghhLgDDEEMQYQQQgghhLgVbhuCbt68iUOHDuHYsWNGCyGEEEIIIcQd4MAIhBBCCCGEELfCbUPQuXPnEBERgY8++shoIaYh5hHw6BqllFL6ZIy+a5xwCCEZFbcNQbNmzbI+E5Q/f36jhZiGPz4DDmmHNqWUUvokvDbFOOEQQjIq2i/ZPWEIMjEMQZRSSp+kDEGEZHi0X7J7Eh0djYcPH+LPP/80WohpcAxBX1WhlFJK0+YXhRiCCDER2i+ZEJNhH4JO1QeuDKWUUkrT5vkeDEGEmAi3DUGffPIJwsPD8cILLxgtxDQwBFFKKZUtQxAhpsJtQ9DMmTOtzwQVLFjQaCGmgSGIUkqpbBmCCDEVbhuCli5dinLlyqFRo0ZGCzENDEGUUkplyxBEiKlw2xBETAxDEKWUUtkyBBFiKhiCiPlgCKKUUipbhiBCTIXbhqC33noLAQEB6N69u9FCTANDEKWUUtkyBBFiKtw2BD3//PPWgREKFSpktBDTwBBEKaVUtgxBhJgKtw1BmzdvRnBwMEaMGGG0ENPAEEQppVS2DEGEmAq3DUHExDAEUUoplS1DECGmgiGImA+GIEoppbJlCCLEVLhtCHrppZfg4+OD8uXLGy3ENDAEUUoplS1DECGmwm1D0PTp060DIxQpUsRoIaaBIYhSSqlsGYIIMRVuG4KOHTuGhQsXYvXq1UYLMQ0MQZRSSmXLEESIqXDbEERMDEMQpZRS2TIEEWIq3DYE/f7777h8+TJ++OEHo4WYBoYgSimlsmUIIsRUuG0Imjp1qvWZoGLFihktxDQwBFFKKZUtQxAhpoIhiCHIfDAEUUoplS1DECGmwm1D0PXr13Ho0CEcP37caCGmgSGIUkqpbBmCCDEVbhuCiIlhCHJwEH7cEYgvNnXB6QP9BdPpE/d0CL7V9v8Xm7riu+Nh4nniHIibO/R5A3Hh6GDBdBrn10H4/K122LtG4FvtsX9DZ5zY0Ru/nRUsmw6M/rwnjmvHxfGdoYgUTBcZ9VkgPtE+3yebeuOhYDp9gjIEEWIq3DYEnTlzBhEREdi+fbvRQkwDQ1BCzwfh9cYeyJQpM+qO6IxHonmetKd6YtvERth/SjDNDYzaUQ/NvTJp34EFZbo2xw8XxfNZPdcd8+tl1ubNgh5z+iBGNA+1GrXVD02s+zU5n4JnHl+0C22AA4ceF0BTqKTj+beXSyGnVqNP04a4el48j6POLEMlyRBEiKlw2xA0efJk6wmyePHiRgsxDQxBCVUcgmKOtcGEKllhyV4aG06I5zG78SFIM0tO9H+1d9LhhiEoxcaFII+sqFCzEJrVs7cgAmrnQ/WiWeFpiQ1DuapVw+7P0xaEZB7PDEEZTIYgQkwFQxBDkPlgCEqo6hD0aUN09NE6oQxBsSFI07NYOUQcSKIz7i4h6GIffLtBv22tC74/LZieAuNCkFchLNiRxK2DF/vi69nlUDXbU8hkyYz6I7uk+NYzkTKPZ2cCTfSxIJz8MBAnd4equarrzjIEEWIq3DYE/fXXX3j48CEiIyONFmIaGIISyhCk3LgQ5OGD4gUtsCR3W5y7hKDTbTGqmBZMfIph+afOXZ1JUQiy2hdbe+eEhxY4vKrWwrE0PCOkOgRRhTIEEWIq3DYEERPDEJTQZELQw49a4LWJ9fHG2t6IvtgHp5b4Y0pwOfRqUxIhQdXw8vyOuCb6K/2pXtg/zw/PBZVBt+bF0KVNGQwL88O6dUG4HzffYJxf0QALRpZB9ax6RzUfBobXw4LJTXH4iK3TG4Y7u9phzYTqeKZLKQQ2K4ZOrUpjUP/aWPlGD9yNW1e8TtesGfN1ED6dWxfjg8qiR8sS6Nm1Mp6f0QZnkxqs4GQQ9s6ui/AepdFNmz8osBKef741Tn+Zuk57XAjyKY75cyqhSlat85/UbXEpCUFGXeP0ulpon6NzRUyZ3BzHDjsGgTDcfLsJXtX2V8QH/fDH9haYFVwavbpon2NWO1w5Fb8/33xL259nQ3DsVT+M19bbvXUpDBzgh42bbTWE4ZctLfHakIoI1fZ1kLbvZr7UwemrOK4NQUNxe05J5NACh8W3HDZ9Yz8tpcdgSo7nWFN6nCUIQef64vSyBpgaXBZBrUsiuEdVzJmnHctn4ufXjf2+6mHhq11wJ1G7c7+Lh/s7Yu2YKhjQrgQC25TF8OENsXvPAETta4sVE/yw4NVA/CFYzu1kCCLEVLhtCNq1axfCw8MxZ84co4WYBoaghCYTgmI7YRZUHRCA5Z19kdP67ISdlqdQ2L8ODn4Zv0zMoTaYWMfL+ld1fR6LNo/FtpzFE7WCmuHiOX3egfgoyBsW27psehXEvK1ah1XrqH0aXgxl9NuUHOfR1dZVo3cLfO/wF3JnatY7urfW+yGwZBajHr1mTeP/5ypXFqu3DrSbfyjufNAQfct7Cuf3KVESr7yT8qs08SGoBFYdDMW2EF/rcyrC2+KSDUFh+HVjA4TG1WXvU/DMXxATlgTZfceDcHx0fnhp6+owugEGlMwct5wll1aLFj5i92dm1OzfEHOb54CXw/605MyHiW8G49Tssqia3eG7smRG6XaNcc6ZKysuDUFhuPp8UfhoNXsUqohttjCQqmPwMcezsZ3UHGdxIaheZczoIDqWLSjauC4OHTfqtV/G4eqRs7+La8urISCvrcZ4PfIUwOhny6FSlkzI0aoxfkxuMA93kSGIEFPhtiFo0qRJ1n/oS5YsabQQ08AQlNDHhqCnkNM3K7xzPY2Qsc2wf0tPXNrRCR9MKIsaObTOoSULmk7ohijrMv2wo08urQNvQbk2fti+LQT3tY5Y1IleODS7Ehr4avN7ZMeARaFa513rsO8NxLE3aqGZNQAUw8sb9KGfu+PGN2G4vaQCymodLEuufBg2sx2+Pdwfj84OwO3dHbF+SBEU89CWyeKLCesShpPU1zwU0Xsao0eh2PaqHfzw4YfBuH+mP2580ALPN82hfR5tfbVq43Ojcxy9tylCisbOX6ltHWzerM1/bhB+3d0Bq0ILIL9Wm0fBkli5K/mrDzYThKDPwhBzpDWeLZvEbXHJhKDovU0QXESvKzPKNKuJdyJ64bdvBuDWjnZY1js/8ml1WbLnw+S3+hrL2ELQU8iX1wueefMhZHBtzBpaAT0HtsBP2nZt+zNH9izwzFcAz0xrhaM7gnAuojkmN/DWwu5T8C7hi/LZvREQ0gDb3u+BSzs7Y8v4UqjopX/fOTF8hRNDr7syBJ3pjoWNs2r7+yn4tmiE7637O7XHYHLHc+x2Unuc2QKNfi6y5MyDXiObYM9mff92wdbJ5VDTOJab2x3LtmXEISh1v4tH2/zR7mm9PSvqBTXE3l19cP9kKE6vqo8+FW1BjiEoToYgQkyF24agV199FeXKlUOLFi2MFmIaGIIS+tgQpHV0tOASMr83ou2m6X/5PjTsaa0DrXW4Ahrgit7hOtsRkytYkClrPrywaZDdvLHzHxmeH4WL5UH78E5xD58Ln6G42BtvtNI6pVpnvsGoLonfd3K+JxY18tA6YR5oMalHgrpSXfOVAdg7wBeeehBo6o9vHa5axBxthaHFtc/kkQPDV+qd+X7Y2ec/sfM38cdph9uRcDEEH/aKnV6md2v8Zj8tCR1DkPWKwfJKqJxF64A63haXZAjqj939Y7frW68OvnAcntlaV+znzOlfD2esV+NsIUjbdtY8GPtm4qtX8fszJwYtCkkwPfLdGqil3/qlhbVyQS2toSlu2YuhWNdeDxYpedZsME4vqInw/lUwxmbfUvDLpX/+XGjXy65dc/y09vglBZ1u+xA0f+tALcAMivfMQNw90gtfr2mCGW2MKyPavh6yRA/o2vJOHoNJPxOU2uPMft/nQMjLvRIdy58N1Y9lLaBqwe26sT9sy4hDkL6ulP4u+mJLUA5ryC3VpRmu2a1LN2q3FugKat+PtgxDkCFDECGmwm1DEDExDEEJTUEI8ihaCdsF7zy5v7g88mudR6/qtfGl3qk71xVzamsddEsW1AluhlNfPP4v+OJO40Dc3N4Je5a1wtGDonUMxNZePloHLTPqax3UNNV8pj3GldY7n9kRtqRfovn1oHB6aUOsfrU1jn06UDtmWuMZ/WqL1jEdtlx8hePRxpqorYUDj4IV8NHJxNMdTRyCtHYtRGwNFtwWl1QIOt0OY0ron8Mb/RYmDjO6+nasVym0UPCK9cpIfAjyql4LXwhuW4vbn4UqYqvjZ/myKXpn19anBZUxaxJekdPXfWRYHmsnvWy/to95cedA7OoTOzCB3ql+nCkdKCAuBAnWkUiLFxqFtbXrzDt3DCYZglJ7nGltcfu+WGXsSvCcUqwPllZAIf1YrmEcy3bLJBWCUvy7+LoVwvSQo4XjyRsc/6ChOxD7BumhjiEoToYgQkwFQxAxHwxBCU1BCPLxr4ezgk7nwzeroIyH1nGqUhNHrZ2wMJybURyF9NuEtM6vJXt2+DUrhwkTArB9U2+7QRHiTdFoWuf64cauQBxc1QJrptXBhB7FUSuffrtY2muO3tcQHbJp289WFEs+eXxoi9paFwF6x1rrHA6a0gTr5gmcVQWNrGGjAOZ89Phb4oQhSFO/LW64421xSYSg6L3+aGt8jsV7k/gcZzpggra+TJZsGLRE72jH3w6Xu3Nz3BMsY9uf3n5++MZ69cjOb5qjjx6C4kKV/fT4dZfu87gQFIbv1zfFG7MaY5XNmdXRLq/eCX8agyY1im/XfHN5N2GtjiYfgp6Ch1dWFC2dD+26VMPilT2SX2cKj8GkjufUHme6ccdyg/o4n8SxXDbB789umSRCUEp/F1Gb66CBtu8svmWxMYnf5Z1XyyKPFpwYggwZgggxFW4bglatWoWAgACEhIQYLcQ0MAQlNCUhKIm/vIs6YfrD5Iefr4iWxR0ezrdYkK9cUQyb2BZX7EahSjoEDcSV1fUxsmVeFM+R8MFsS1YvFMrzmBCUwpqjPqyDhnpHObkQZmfk+uqokiW+lmTVnxdZL/orekKTCkG22+Iq2d8Wl0QIsnVakw+T3TCnTuyyQfP6aG3xQaVYcGthUInbn3G3SdlpC0HZiuC1jx079qkJQQIlPxPkeDtc1LmUrDP1x2BSx3NqjzNdZ35/SS2T2nVFvlUVFbTj3KNIJexMatS4VZVRSluGIciQIYgQU+G2Iei5556znuhKly5ttBDTwBCUUNkhyOa5Pji3rjkWj6iE3v65UUh/SF5bl/7QfuXgVnGdJnGncRC+nVUKpfXOv+Up5C6eH506V8SEkfXwxqJ2OHlIf15BH4lLQgiyXdnJXhJrP088v6OP3qmBGlm1TnCOQhg3KwBrZifjnOY4kiDUiE06BGk63ha3r5s4BG0zOvw+JbHGYUjmOM92wYxq2rIWT/RZqN/KZx+C2iQfgkT7MwOFoMcNkZ1Y547BJENQKo8zXWd+f0ktk9p1xR3necrjA8Htc7oPlpRHAV4JipchiBBT4bYhaOPGjQgODsbYsWONFmIaGIIS+gRCUPTZQQ4PXg9F5OFARAwqiHxap8mSvThW7I/t2Io6jTFHmqFPfr3zmRXNhrfDTcfbsK70w4aO+pWmzKjzbBpr/rwJeuXUtqUP5vCB6KpNGG6s9sfMcf5Yu64XIj9pgPbW25oK49VdznXOHU02BGnGHGmFZ8oYt8V1rosJfolDEI41RbA+kEDWpzEtIomrT182R9882jxZcuO5t/V5GIKS0tljMMkrm6k8zvTfjzO/v6SWSe26Yg41Rld9xDivgpgbN8S3vYNxZkJBeGvrZAgyZAgixFS4bQgiJoYhKKESQ1DUjoboXd4HuYuUxwcJ3jdiqHUEe1qfIYl/VibmQEN0MjqNbxvLRK6vhsr6LWdJXdU42Q7h+rMtWs21numUthCkdVwW+HvAYvFAM7vhgeO8GIq3O2azdnatwwefDcQLNfSrKVnQbHy3BNu2eW9NNdQpkBPV/aph67HHd+AfF4L0DvJPyyrG3hanbTeX9X08DiFIH62ssT5ssdYpH9YJDxIsrxuGHxeURRHts3sUKI9N1n3NEJSUzh6DouPZamqPM60t1cdyMsuk/ncRhCVNtZBnyQz/kV0SH0/fdMHMmrHvlWIIMmQIIsRUMAQR88EQlFCZV4K+6YCJ+hDZlqxo+mwHh2GMB+Hi7NIoqXfCi1fCDttIY1ow6mENRvkxc1PsqFhxz7dkzYvpGx1GHdM6i/uGF0RuizY9kwWVB3WIG25bN/UdxzB8P7cUCut1FSiGBe/3jQ8W2rTry6ugVranYMldDMt2653hMFyaVQIFtPktuQtiypvBCTq0UQfbYFx1/QqBFiw6N8ONFHQOHx+CNLXP/ZFxW1zscykOIUir64YWcorrdeXMjwkreyeo64+tjRFS0mLt1NYM62C84T8dh6ArA/Hz/l74bl8I7gq+x5SYlhDk9DEoOJ5jTe1x5syxnPQyzvwuflkZ+zyaJUdeDHu5G+4a88Yc74Z1vfMil3EsMgQZMgQRYircNgRNmzYNPj4+qF69utFCTANDUEKl3g4Xhh9eK4+KWWOvWJTxK42RQ2phxvBqGNYmLwrrHaosOdF7Ts/4DvqZDniunP4XdW1adm+UKVkQM9Z2wly/2CCRo0wJTJreDJuXtMD652tjaINcyOnhharlc1jfuZK/W4sEo3o503HEuSBs6JEbOay36uVCq65VMGV4DYzqVAAlrS/8zI7A6V3jO/LnemJDd2P+LN6o27oiJgyvhcmhpdCgkP7X8afgU648IlI4CliKQpBmzGHbbXF659MxBGme740P++SFr7UuH9RrUxETh9fEuB5FUUW/VU6rq0jjujh83LZMeg5BaTdNzwSdDXTuGBQdz+8Yt7+l8jhz5lhOahmnfhcX++DTkYWsL//Vn+XLXyY/mtfPj0pPa8d4luxoUEt/L5UWgtoE4BZDEEMQISbDbUPQ+PHjtZNYJpQpU8ZoIaaBISih0p8JGogLS2ohuLoPfIy/FOtaPDxRuk4ZzFzSw2Go7DBcW14D7Up4wkOf35IVvV/ugwe7mmOUnw+87NahP6Cet1IpTF/UHT+vqWIdvcqzdBXstnt/jXM1a57rjU8mV0DzYkYd1u1ZkLdCCUx5tXvi4ZPPBWP/9EpoW8bL7uqM/lfznGjesx727k/iuRyBKQ1B+r76aalxW5woBOleDMWRF6qgQ9mEdeUqURiDw1vhXIJ3/TAEJWekU8eg+HiO+55ScZw5cywntYzTv4sr/XBmUR0MDngapfJkgU9OH1RvWB5zlvXA6SlF4KOtM2eHpnFXidxahiBCTIXbhqDDhw9j4cKFeOutt4wWYhoYglxkGO591gMnNnbE4fe64vxn/RMNlpDAi4Nw50gIbp8YFN9hvNgf329qiw8WNMWGha2w94PeuGf7i/PFAfj5YG/8cDAUdxM9tJ4GtW3e2BGIo+92xoldoSnovA/Erd1dcezdjji6uQd+PJWyqz9P3ti6Po/ojJN7QnBP5j5yJ509BkXHc4LpqT3O0puD8dXY/PDWQm7JUHGAdjsZgggxFW4bgoiJYQiilNLkPdcdi9vlQ5Om5bD4fcFVzYu98UarrNaBHtpMDUr+DxzuIkMQIabCbUPQb7/9hsuXL+P69etGCzENDEGUUvoY+2FLUHZ4ZHoKpTo0xrcJ3hXUDydnlUF5/Rk/36JYLGmo+AwvQxAhpsJtQ9C4ceOs92qXK1fOaCGmgSGIUkofa+QWf3QoEDugRq7iBRDYuTwGdS2NDtWyxw7ukDUneszsJhiO3U1lCCLEVDAEMQSZD4YgSilNkfd2tMTs7oVRWR8RTjsnWgf/yOaDWs0qYeGbvfgskL0MQYSYCrcNQdeuXcOhQ4fw1VdfGS3ENDAEUUpp6jw/AL981gvffRqCO2d4+5tQhiBCTIXbhiBiYhiCKKWUypYhiBBT4bYh6NSpU4iIiMCuXbuMFmIaGIIopZTKliGIEFPhtiFo7Nix1meCKlSoYLQQ08AQRCmlVLYMQYSYCoYghiDzwRBEKaVUtgxBhJgKtw1Bf/31Fx4+fIjIyEijhZgGhiBKKaWyZQgixFS4bQgiJoYhiFJKqWwZgggxFW4bgrZu3Yrw8HDMnz/faCGmgSGIUkqpbBmCCDEVbhuCRo8ebX0mqGLFikYLMQ0MQZRSSmXLEESIqXDbEDRnzhyUK1cO7du3N1qIaWAIopRSKluGIEJMhduGIGJiGIIopZTKliGIEFPBEETMB0MQpZRS2TIEEWIq3DYELV68GAEBARgwYIDRQkwDQxCllFLZMgQRYircNgSNHDnSOjBC5cqVjRZiGhiCKKWUypYhiBBT4bYhaP369QgODsbEiRONFmIaGIIopZTKliGIEFPhtiGImBiGIEoppbJlCCLEVDAEEfNhH4J0j2SjlFJK06b9eYUhiJAMj/ZLdk/Gjx8PHx8f1KtXz2ghpsExBFFKKaUyZQgiJMOj/ZLdkxEjRlgHRqhatarRQkzDg5PAydqUUkrpk/H/lhknHEJIRsVtQ9DBgwexcOFCbNiwwWghhBBCCCGEuANuG4IIIYQQQggh7onbhqBff/0Vly9fxo0bN4wWQgghhBBCiDvgtiFo+PDh1meCqlevbrQQQgghhBBC3AGGIIYgQgghhBBC3Aq3DUFXr17FoUOHcPLkSaOFEEIIIYQQ4g5wYARCCCGEEEKIW+G2Ieirr75CREQE9uzZY7QQQgghhBBC3AG3DUHDhg2zPhNUo0YNo4UQQgghhBDiDjAEMQQRQgghhBDiVrhtCIqKisLDhw8RGRlptBBCCCGEEELcAQ6MQAghhBBCCHEr3DYEbd68GeHh4XjttdeMFkIIIYQQQog74LYhaOjQodZngmrVqmW0EEIIIYQQQtwBtw1BM2bMQLly5dC1a1ejhRBCCCGEEOIO8JkgQgghhBBCiFvBEEQIIYQQQghxK9w2BC1YsAABAQHWZ4MIIYQQQggh7oPbhqCwsDDrwAh16tQxWgghhBBCCCHugNuGoDfffBPBwcGYNm2a0UIIIYQQQghxB/hMECGEEEIIIcStYAgihBBCCCGEuBVuG4KeffZZ+Pj4oEmTJkYLIYQQQgghxB1w2xA0aNAg68AIdevWNVoIIYQQQggh7oDbhqB9+/Zh4cKFiIiIMFqI2fjup4eUUkqpdAkhGR8+E0RMi+jERdOTz1NKk1T0m6HpRUJIxochiJgW0YmLpidFHT9Kaayi3wxNLxJCMj6uDUExt3FszQSE9JiCj36KiW2LOoVl/dug86xP8ACPcGxxfwQNW4CPv4uMna6U2RlMYo/oxEXTk6KOH6U0VtFvhqYXCSEZH9eFoOir2DS8HuoP2YCz9402jZjbERhSrTJ6rbiIaGtLNG5+MhNtanTB68ftZlSCKGik0j9GY8eCuugzbzAiRdNT7Ax8vaYWmlXJi4q1ymPilrHannKch9gjOnHR9KSo40cpjVX0m6HpRUJIxsdFISgaF5Z3RPFmL+Nkii7wxODme/1RpuYkHPjDaFKCY8hIhdGT8OX6AARW9oIlU2ZUGNc/UQh6dCkUb388ThBmZuPe10HYcHCStifs2h+GYmhhC0oOC8U9+/Y4iT2iExdNT4o6fpTSWEW/GZpeJIRkfFwTgv74GCPLFMHAzb8ZDTpROLthEsL6haD3gEU46hiOok5gll8udFj+nXGFSAWioJESZ+HKmnoY8FJvfHM9BMNLZUGlCQMcQtCL+Gl3YzQqVhijPgzX9kb8tHsnOqBb+Xzou24UHtm1R59rixbeXuj51sSE4ShOYo/oxEXTk6KOH6U0VtFvhqYXCSEZH5eEoAc7hqGIbyg23jEabESdwpzGHvBs8zouJ0o6j3B0ajV4tl6M71yegh7gzPY3sWpVZ4Fd8MabgVj3Ti9s3/8Mvr87S5tfFEgMI/sjvIIoBOnOws1djdG4eGGM3BwbhO4d74Cu5fIiePUIrYqE8//6TjXk8S6BeadfSNAeL7FHdOKi6UlRx49SGqvoN0PTi4SQjI8LQlAUTr5UDxb/OTgdZTTZiNyHcRU8UWXiQS0gJObuO73h5TsAm13+aFAUbh1fiyE1tIBWvQomTGmMQU2yw6d8KQT1roQ2NXKgZLPaGDeiIuqUzof247vjmz9EoUQz2RCk+yJ+3BOAJsULYdj8Zggs+zR6rXwW9xPNNwP7xuWFV7n62PvQcZpNYo/oxEXTk6KOH6U0VtFvhqYXCSEZHxeEoIfY9WwRZOq4Ej8aA8LZiL68CK298qLfe3eNloREfjwCRTO1xdIfHBZMCZG3cfazbYhY+wZWLF2CJYsXY7HhkjX78P1jry49wufTC8G3V3fc0QLIwYn5UXRISOzVmUdjsDa4EAJXjMLDa6GY0NAHFZ8Jwe0Yx1Ci+dgQpDsLV1ZWRL5MFpR/NhS/ieaJGokFzbIgd+/u+Fk03SqxR3TiounHC8cGYFj/Ngh5fQTOCzuBGcsLR/tjiPZ5+i0blcTnmYT1s9uh4+CeWHdWNP1xTsP2ec2Rt6wfWr82BheE8zxp00MNYr85PBjTxrVF8w4BqNGqKZr164RxK5/FkWvi+dOmK/aD+HdD04eEkIyPS0LQ1rC8yNRlDW4bLTZ+fScEub1aY1Hie+GsRO4dhZKZWmDRldTcDxeJS5unoHMlX1gyZUImgZ4VwrH3sQM0ROHknGLILQpBmg92+qFs7SY4+mg27u/1R8W8VfDWrRet0xKYghB078v21itA3cProFHRghi2aWyCZ4Ss/tIdwbmzoOn8EYmnxUnsEZ24aPrx3I6uqFKqJvINHYTTwk6gYq+NwoKJHTHglWdwXDTdwXPbAlGxdC0UGxmGM4Lp390Yh1k9ayNT2RaY+cX0xNMf61Rsfj4A2UrURsO5oxUFxzTWkMp9mlJPfxyEgGq1YCnjh6qBrdExtAVq+9WBR4k66LJ6UqL5064rvgvx74amDwkhGR8nQ1AUfr5wFAeOXsIdh4s0f/xwEkePnsbNuH8jHuHghPLI1OI1h+d+IvHp+IrwrPwcDiQRSB5sHoBclm5Y+4vR8FhicP2DYaji7YmSbSZg5fZjOP/DLfx65w7u2Hn33sMUDLaQfAiK+rolGuSphg13ZyP6ake0903iWZ3HhCBrACqXD6Fv6s8AvYibuxppQagQRhjPCNnme6gFrXJeT2Ps3hlxbdHfd0HPJk1wWAtisW3EHtGJi6Yf030IujwQPavURLYuvbH3umC6g08+BGnemIIvT03Et6JprjItNaRyn6bIGxMwv09dWEo1QO914+KvylybgE0remLerimJl5HhE/8uxL8bmj4khGR8Uh+CYn7E7uktUdTLAxaLLxrN+hyx/xxE4tz6MNTMbYHFtyfW3rKloxj8uLozPEuOcrj68jPWdPOGZ7ul+O7WQSycsRbnEjwzFI1LC5sjU+VJWiffaHoc9/dhQlVPeNeZhP3iO+xSQfIh6NHhANQsXAsfPpiNyM8ao3r+qnj7tuBK0J1eGFA4M4oNC8EfDtOsAah8fvRfN1Lbh7b2WbixvSEaFC2C0Vttw2e/gK9eKgav3Fro+sWY71E4Ng7Oi9LPhNo9P0TsEZ24aPoxyRB0fQqOn5kc99f1b74ehU07nsWuk4LOrDbvibOT4zq+Z06OxmZt3u3HJ+OS/Xw2jXUn7rhOx5lzz+H4ZSOcXJ+K09/2Rze9w945CDsuTMY3l6fgXDIdd6dDUGo+r9bxPnF6Er69Efvfl65OwjG7ZRM6FV+dnohvHGo+f34cdu4ZjogdI7D39NQE06za13NjIj7ZPRwfHH4O52zTHWqwN9l1p3ifTsOJL0Zi07Zn8MFnEx4fkK8+g6GNasFStT2WXRZMF5qCbaRhP6TsM2jzHBuJ97YPx5ajE+PXG6f4d0PTh4SQjE8qQ1AMbn0wDC2HvIuLP+1BeDVPeFYaj32RMfhl7yT4l2qCZ1+cgJCBK/CtXaCJvrQILb38MOsr+5QTic9nN0auTDlQ1C8ECw7e1tZuR8wtrO+ZE6VG7dGCR8qIPDARVT290WLBWQnDaicXgmbhwmtlUKRrF3wfORbrgnOjyohQ/GL3TFD0he4YH1wRLar6wNOSCRavnKjdthJCxnfH+Sh9nhfxy6FOmP/+aMEVoln4YXtrzLUOnf0ibu9vhY6lLMjkkwvV6hdBfc1aZbLBkikbgjdMsluO2CM6cdH0ozgETceRJa2QvXRjjNw8HLOHN0HBMjWRqXhNWMrUQ8PnBuFAXKfZmLdMUzy361nMHdkUhcsa85aqi2phodhy0Tav7jTse6U5fErURc/1DgHj8gB0q1gT2XuG4KDWuV053A8e2nr0dcVbCzWmPyvorMbqXAhK3ec9urQVcpSog06r9Fu8puLtcQ2QpWQ99FrveMvXNOyY0xTZtc/a9c3YaacPDsDw0MYoaOyj2G34oc6zfbHjSvw24up5PwxjAushawlt3jJN8Nz+adbpCWuIXe7x607ZPj31aT8MDPTX1m9ML1EL+Vu3x6yPk7ml7dpIjGtTC5lKN8LQj5KZzzBl23BuP6R0/RdOhGF0kD9yxs1TG0U7d8eGC/HrEf1maPqREJLxSf2VoOj7+MOaSh5i79jy8PRugfn738fQmv4Yt/OnhEHGRsyPiAgtgirj9yPhu08j8cv1m7jjOGqcRvSlxWiTuwHmfJXSy0D6FaeuyOFRGiN3yfgHKnEIKtCzA458PgjbV/mjjX9VzN/YAy/2LIS6fTrh+F37EKNKYo/oxEXTj0mFoEOvt4RPyboo4++HnA1b4ZmF/fH6sh7oElAblpJ+CFw93rjKY5vXDxUa1kWO+i0xdEF/LHkzGIM6+yGL1vmsOG4Ivopb9zTsebkZsmkd125rHUNQf3QpVxPZugXj0+vTcOijvpgxryPqla+JrI3aYOz83pj+SggW75kovsKk6WwISvXnLV4b7ZdPtC5/+oPOKFuqFgoOHoAvbdvRvTYKz7XXlq/aBq+c1Lc1Fe9ObISCLdrgmVf6482PhuPdjX0xokc9bT/VQcB828P98fu0YoAfsvs1R/+ZPTFqXA8sP6GvJ3ENKVv34/fphWP9EFi3FrzqtcSoN4Zhy/4R2LC6G1pqbVnqtsOir+yuniVQC3zzmsFXCxRZajbFoGXDkxwMIeXbcGY/pHD9NybgtUFaIKwQgH7Lh2HrwZGIeDsEQwcG4vVT9p9R/Luh6UNCSMYnTQMj/BrRF/k8fFG2Qk10X37auC1OTPSV9Qgu74+Jnzhc8RHx8AyWB5ZD45lHHEJTckTj/Kut4CMYCMFRZwdG8M6fB2XzZ0HRwPb44ouuGFDTB+X6dseVaFEgUSGxR3TiounHZENQ8ZrI2bIzVp3Q/+oeO+2bD7uggjb/01qH/2uHebM364Tlx+PnvXRqAHrW0W+RaoNXT9s6likNQbY2VzwT5Mzntet467eCNa4Fj2ptsehM7HK65z/tiXpla6HAoP74wtZ2diJOOHyOC0d6o3HZmsgR2teYL74ej1qtMOuA4+1ygho0U7ZuzST36RS8Pb4hspRqiIGbEl6R+XxNOxQuGTsAQZKjsF0bi8VjmyBfydgrL3kCtDC53DEMpWYbzuyHFK7/6jAMaVQL2ToGYVeyx5X4d0PTh4SQjE+aQlD0uQVo4WNBri4rce2xyQa4f3odnm3VAgPm78RF4T1uMfjxyGqEd2iCnnP34acUrDOeaFx8rTV8PAqh1cg5mDdvXpLOX7pLCy7GYkkivh3u3uVABBXPi2FbJiL6l4GY3sQXLecNFbzXR4XEHtGJi6Yfkw9BtdHOrpNt9WJ/BFbSOtCBvfGJtfNoN/3nnKEAAAp1SURBVO8yh3l/moylQ/zgUcofgzbbOrDpOQSl7vPaX4V5b0ojZC1RF13eeM64YjQN22Y1gVfJegha57hfHNQ+Y4/K4m00nCca+llUQxImWndsm3Cffj8cI5rVQhb/Llh/1a5d89KJELTQwpTvwAE4Zdee2Kn47KNQDO7ZEL5GGCrYsStW2cJxqrbhxH5I6fqvj8ULPerAUq4Rei8fiS+FzxTpin83NH1ICMn4pCkE/XZwCup5W+Dd9OXEL0JNiqjb+ObjfTgjDEHR+P7ILhy9ltKngBJy591Q5LbkQ9+IO0ZLWkjqmaCZODW/JPLWa4qjD2fj4RfN0ahAabxyaqa2jCiYuFJij+jERdOPjwtBiTrZVwahd/VayNYpCB8nGQpsTsWmaY21cFAHXddMNtrSUQj6MnEIcvbznt/dHTVL10Tefv3wud6hvjYS49vWgkfdjliV4BmTaTi8sx+eC2+HNl2aoGbzRqgcUB95tO8g/jMmt0+Tm56SdWsmtU/1Z7K0wGcpVRu5q9TF0wmsA68SNZE9pC+OxW0vOafi0PZQ9GlTFx7FayFfcCj26dtK1Tac2A+pWP+p3cFoV782LFpQy9ukJfrPG4Qd5+xvhdMV/25o+pAQkvFxOgRFX43AoHqtEdi6MDzyBGNDioexfnJEn1+I1jk8UWb4Ni24pJVkBkb4NRTDK+RA9zfDER0zGVuHPY1iwd3xg+hlqS6V2CM6cdH04xMPQVP1EFQXPd6yBZ4nHIJ2dkM1LYw8HTbQ7vPYeX0MpnbWQ1ArzLY+p6O3S/i8RuixVGmN+dp6z+/rgTplaqH0mCH4Jm5907B7aRuU1NrzNGmFvtOCMO3VEMx8pZP1GZ20haCUrlvzMSEoS/02mLiiHxasdHDVAKw9OCnJ57FEXvq6P7rW0vZLuZZ4UX+OJ1XbcGI/pPIzXDo3Gqte6YJ2zfysgy7k1G/p/No+CIl/NzR9SAjJ+DgXgu4cwZw2VdFj5VlcWNwOPh5lMHLXfW1CDH67+SP0/6eEmGtYF1wEHjnrY/zOG2kcIS4KX81OGIKKhAXHjQ53fnFZ5K3qj736e4IudECH/AUQvneqNs0xmLhSYo/oxEXTjzJDUKJbyX6aiFf71YWldCOM2Gm7HW469r/aAj4laqPjyoQjen13sR86i0JQ1ZSHoEtfhaKlto6sLbph0/eCec4PRJDWKc9SvzPeirtdyrnPm3Deadg5p6kW7uqi/bJx2DKzCbxKNUTYFrugd3UoBvnr2+6IFWfsOtqJQkky9VgVTE/xuo020T41hrn2qNsJb8aNVJdGtdA5pZMeOpti8mfTUrkNZ/aDk5/h+gSsm9IUuUrUgt+skXbDnYt/NzR9SAjJ+KQqBP26aQSaBo3C8NalUXXIJvygpYxHR6ejtpcnyg7cgFNHl6NPi2exJe4dQa4n6sq7GFwlByxeReDXbRgmzHgJc516Jugh9o55GrnsQpBvYBfctF3tudsfY6t6o82ikVpceh5fzC2FIv4BOHjHPpS4WmKP6MRF04/yQpA+qEAXrPoqflCBC0dD0ErrgGepp3VI7YbJPrWuPfJpnc2yY4fEP19yfRxWjQuwDlecIARdGYxQLbRkbdYV74lCjaPXx2Jm9zqwlKyHjkvGOLyLaDI2v9QMebRtV5wwzO4KjTOfN/G8+iAEAVoAy90rEANaaTU37YqN9jVf7I/O5WvCq30QdtgNFvDNJz3RUA9/aQlBKV63ZpL7dBKWP1MPHqXqI+itCam74vPVMCzaMMpuFMBYzx0KRvPKxjFgfX9QarbhxH5I8fqn4ozDM0P6b6Fqae3YmPiM3RDs4t8NTR8SQjI+qQhBkfhkXEV4WnKhaugKfGUbtu3RN1jSqSg8MlmQs0J3LDjy2+NHf3vCRN04gBUTgtGqVhkUyOUND4sllaPD3cNnCwJROZc2v082FC6cA/lyauvw/A+ajetljAY3C9fWV0MxbXohbXrhAl7wyvQUCjdpir2/OoYTV0nsEZ24aPpRZgjKXr42cjRshWEL+mHh0p7o1lwLIyXqIuDlUQne66OPGtddv0WqbAO0fz4UC1cG45neDZCzWgOUq6at2z4EGbevWUr5o+2MPliwOAjTNoQnPUKZ5qkdPdBA63hbStdDvSHdMO31vpj3WhCG9mtsHbnMp0knrEhwy5Mzn1cw7/Xw2IftS9WyDg2e6H1G10Zhcifts5T2R6e5g7Bx93C88XoXBNSujWxl0xiCUrxuzWT26blPe6Np1VrwqBKAHrP6YvmmYXh70yC88ko39OrWFEPec7iF0fDbjwJRvnRtFGvXBoNnBWPu8j6Y+UInBNTTtqMF0navj4m7upLybTixHzRTsv4LnwWhSYNm6PNSP6w2hhMf3k0PTw0wYJPt+TVd8e+Gpg8JIRmfVF0JenDrMs5fuZ14KOzIn3Hl/Hf42XT/LoiCRnqW2CM6cdH047mPu6G6FoIKDR9sN5BA/EsoOzu8hNJ2FUHUYW83fzAm9jVGBdNCUZZKDdFuZhgO2TrfcU7DZxHd0KSu1kHW5tNfUlm4fUfM3TUMo1vVMl6Wapt3Oo5t6oaGemiyzlsHjeaOsrtdSeR0fLErFP27NUBu7bNZX4Sp6VGhPvyH9sI6u6tVtvlT83mTnFeb9tny1tagZSnfFBM/ddyOfmUmFEEt68a+9FOrKWu1xug6dyAmBtWGjxb+rIMHJLuNpKenbN2xyye9T7Vp20MQ0rE+chjfo66lrB+qBQVi8dHEn8nq9+FYPas9/P3qwMPYvj4y3NONWyJsxQicSDB/Srfh3H5I0fovPovp/RujgPFSXN1stZqg96JnHWoV/25o+pAQkvFxemAEQtI7ohMXTU9Ox5nzk/BNohdbTsWpc5MTXskwPH9pEr6+aruS4vjX+Gk48cUobNk7Gocu2l9tEfj9ROz7dAS2HpkQF8AuXLZft51XtXkPjMKu45MeE4AS+u3psdixdwS2fDoWn1tvx0rKlH5e3aTn1ffHtxcm4sTlJMKC7o0pOHJ4BDbvHYMjRk2Xrk5OxTZ0k5ieonUbJrtPp+Obr8dg2x5t3x3Q991jvkub2vaPHhmJD3aNwPbPJyZTv25KtuHkfrD6+PWfOxuOndrx8eH+cBwX3m4p+s3Q9CIhJOPDEERMi+jERdOToo5fanzcLUuUZmRFvxmaXiSEZHwYgohpEZ24aHpS1PFLjQxB1MyKfjM0vUgIyfgwBBHTIjpx0fSkqOOXOo+/3QV+zZpi2Eb7B8opNYOi3wxNLxJCMj4MQcS0iE5clFJKaVolhGR8GIKIaRGduCillNK0SgjJ+DAEEdMiOnFRSimlaZUQkvFhCCKmRXTiopRSStMqISTjwxBECCGEEEIIcSsYggghhBBCCCFuBUMQIYQQQgghxK1gCCKEEEIIIYS4FQxBhBBCCCGEELeCIYgQQgghhBDiVjAEEUIIIYQQQtwKhiBCCCGEEEKIW8EQRAghhBBCCHErGIIIIYQQQgghbgVDECGEEEIIIcStYAgihBBCCCGEuBUMQYQQQgghhBC3giGIEEIIIYQQ4lYwBBFCCCGEEELcCOD/AZjfP2Gn1mv5AAAAAElFTkSuQmCC;" vertex="1" parent="1">
          <mxGeometry x="180" y="730" width="389.63" height="271.76" as="geometry" />
        </mxCell>
        <mxCell id="K0I1cs0K1864Aoex6M4k-2" value="" style="shape=image;verticalLabelPosition=bottom;labelBackgroundColor=default;verticalAlign=top;aspect=fixed;imageAspect=0;image=data:image/png,iVBORw0KGgoAAAANSUhEUgAAA0EAAAJFCAYAAAAbG/x7AAAAAXNSR0IArs4c6QAAAARnQU1BAACxjwv8YQUAAAAJcEhZcwAAFiUAABYlAUlSJPAAAP+lSURBVHhe7J0FWBRbH4dhpQRbscDuwm7FFltEQTAxEBtBFLFRTCxU7ERQARExsbs7QRG7r+BVlI+L6O+bGWbZZXfQZVkWWP7v87zPvZw5k2dhz885c0YLBEEQBEEQBEEQOQgKQQRBEARBEARB5CgoBBEEQRAEQRAEkaOgEEQQBEEQBEEQRI6CQhBBEARBEARBEDkKCkEEQRAEQRAEQeQoKAQRBEEQBEEQBJGjoBBEEARBEARBEESOgkIQQRAEQRAEQRA5CgpBBEEQBEEQBEHkKCgEEQRBEARBEASRo6AQRBAEQRAEQRBEjoJCEEEQBEEQBEEQOQoKQQRBEARBEARB5CgoBBEEQRAEQRAEkaOgEEQQBEEQBEEQRI6CQhBBEARBEARBEDkKCkEEQRAEQRAEQeQoKAQRBEEQBEEQBJGjoBBEEARBEARBEESOgkIQQRAEQRAEQRA5CgpBBEEQBEEQBEHkKCgEEQRBEARBEASRo6AQRBAEQRAEQRBEjoJCEEEQBEEQBEEQOQoKQQRBEARBEARB5CgoBBEaz5PXsSRJkiSpcgmCyL5QCCI0HqEvLpIkSZJMrwRBZF8oBBEaj9AXF0mSJEmmV4Igsi8UggiNR+iLiyRJkiTTK0EQ2ZesE4IS3+HiJlf06+OOva8T+UKG+JtYPdgCPTyO4hvicNF7MGwcvXDoyQ++QnbFMxPMmQh9cZEkSZJkeiUIIvuSNUJQQiQCRjVGEwdf3PvKl/EkvvOHg1kN9F3zCAlcSQJeHp0Fizo9seKKTOVsBRNKvozHfq+GGLBgGH7IBZY0+MkWo+sZo5pZSTRrURoNazP/X4v9/zJoXLcoqlUvjclHZjB1cyZCX1wkSZIkmV4Jgsi+ZIEQlICHPt1Qps1C3FD45k4iXu4ajIp13XDyC1+UnUh4h8vbzGFZwwAirVyo6jJYMATFhffH9kMuzBWSXxZz3Qa+p9yYK+GJH8eao0YlM2x5NBOIc4RHEx0YD7DGJ3bZlXZoWqgK1kTNYdbLmQh9cZEkSZJkeiUIIvuS4SEo/t0DXDx/GeEfpYa4SfPlEMZWNMWQoE98gYR7vm4YPqgfbO2X47xsQIq/Co9G+dHV5wl/hyi7kIDHm8bCfq4tbj3vh1HldVHd1V4gBM3B68Mt0aK0CcbtcUa81LKYq11hVaUoBm4dhzi2XkgbTN7hxIWlxBc9YZlXFx2WjU8KT5/s4DqgK27Es+vmTIS+uEiSJEkyvRIEkX3J0BAUc2M9BtXKC5GWCIWbjEfQkzh+iYRv+x1hWrA/dn7mC6SJv4l5LXWgZ7ECEXJJJw7np5pBr6M3nqg9BX3DndCNWLdunYDrsX7jJmzdEYDQE9fwNDq1g2NCyY/BcK6aWghi9cDLgy3RsowJxgYlBaGYK13Rq7Ix7DaMYY5Cfp2v+xqitEFRTDo1U25ZTkXoi4skSZIk0ytBENmXDApBiXh11AOdSudD5R4z4BvojWGNiiJfLXtsui39HE88bsxtDFHTebgdzxdJ8+MYXKrqoebkU0xIkCd6hy0MCtojSO2PBsXj7ZXNcKhjAL3a1nB1d8PQVsVhVKUtbGx7w6KOCcq1GQ6XMb3QoEINdJnoi1tyw/aYUPLXEMQ6B6+OmKNVmZJwXNQGlpWKoO/a0fgqWHcWLs8ygUHROtj1WWh5zkToi4vMBF+8wb5tgRjhsAAtO7nBrO0UNO61CHbuIdh49oPwOhrow/NH4TB4MQatfoAHAsufvH6HbZ7L0G3YTmy9J7T8b8YgdMFsGFcahY7LIvBQsE5GmxWOQdhbZ89imstStO06BXU6TEebQWvgsvYmzkUJ10+fWfc6kKqRIIjsSwaEoFg82DESjco3xrDV5/BWfCMk5g78XTugQuVeWHr+ExOTWGJxcLQptLqtxSuB0XIJEcvR0cAYg3ZF8yUp+XFoDEppdcKqZ6kMtUuNH+9w7/Q++G9ejzWrVmKltze8eVduOoanCt1ZisOF6fVRsO92fGYizKnJZijlsBffuEUR2GxXH5Zr7iM2KhSuzYui2si9eJfiMJlQolAIYvXA47XVUFRLhCqj+3PP+gjWS5yItT30YGjRBeEJAstzKEJfXKR6Db9zFZNtnZC7rD10qo5D7R5z0cF6Nuo1GQHdsoMhqjYJtmsf4a7AugobdR9ek1fDfvFVXBFanlGmcb/3921CtQpDUHrsOdwRWP7kxTN4WA+DVqU5mHXpq/zyvxqNoBlTmGs9HM3nP0wlaGW06TyGDGrL24d2wdxsCEQVR6GW5UJ06z8H9Rs5QKfsCPTc8F5wnfSZFdqCzEgJQpZ58+bh169f/E9EVkb1ISghCnsXL0DgfaEZC+IQdWQpPH3v8nd2YhEy3BhaPTfhHfdzSj7u6IdCBh2xXH4sHMePsHEop9UOyx8rOh7uB8KD3NGjekGItLSgJaBeVWeEKTRBQzxuzGuOQkIhiOHbgdGoVH8qzscBX8OcUM3YGlveSqcgJpQoGIJiLnfh7gD1dm6AFqVKwDFgQopnhJL92g8jSunAzG1oKtvLmQh9cZFq9PljLBgwhuloDkOVwXvgfyNGsuzFGwSvXgmzqvYQVZmK8Qc+pVw3LUacgHVNe+TuGYiw5wLLM8o07jfjQxDji0+4fPNt+kJlek3PMWREW754iUUDHCEq7wzbrc8kd2WiXiJgzU4sOPiP/DqqMCu0BZlhEoQ0jx8/Rq5cueDv78+XEFmZDLgTFI/3D8/j5PlwfJa5QfPl2Q2cP38bL5P/bsThlGsVaLVbJvDMD3B8YjXo1ZiEk6mEkm9B9sgvssLmD3zBH0nE80BH1DTUQzkLV6wNvYgHz97i4+fP+CxldEysghMt/DkExV/3RLPCdvCNZnJh5Cp0KWiOBSnG/DGhRIEQxAWgykXRfyP7DNAcvDzYgglCJTGGf0ZIum7cxdZoaGCEwQFTU5RLzJkIfXGR6vP67jWoWN4eebv4IShCqE40QufNQv6yQ1Bs8BGcfyG17PknXLnzQaAD+RV37r/GlQg+JDz/jNt3j8KK7Tj32I39Dz/iVsQn3Bd3oJntXL33Mbnje+fGIwTtv4nQKx8QzpelUFX7FVDpEMQfk/huwq3rDxCw/xYO3hDovL/4B1dvv8dd/lqGR77HRal1U/oZ126/wS2ZY37w4BkOHLkO//13EHb7c4plnNLH8+Itjh6+jsCzr3FfvFzmGKT947YVvqZfcPXSPQTsu4bA0y9xO8UyASOvYkSLIRDVWoHVgp9DIRXYRzqug2LnEIOrF+9hV+gNBJ9/I9kumSUkCGn69+/P/YN6tWrV6G5QNkC1ISjxFQ5Pb49SBjoQiQqihccFJP2J+IH724ajbiERRAWtsTn5jkgiXm3oAb1y4wTvvmyyMoRe51V48vYUls7cjPspnhtKQPjSttCq4Yaz8vMtyPP1GFxr6cGwgRtOCI+uSyN/DkFxZ91R12Qo9jAFP05PRu1ittieYjwcE0o+94W9SS6UduyHL3KBhQ9AVYph8NaxzHUUl3vgRWhzNCtlivEh0tNneyBydWUYGZaH1z0PvkzWnInQFxepLj9i/Zix0CnriG5rXwoHDsbwW4fRvYY9RGbL4P1AXP4FxxbPhlHZkbDeJnOHKOIYrKrZI491CE4xncy1o0ZDp8xgaKVwKOpMv8V0Gr/i3Mr5yFNxOiYdvIX5Y6fDpJI9V0dU3hFmw/ch+JHUtlW2X6n1pFQuBPHnUMENY4NuwHPUVJSoyJ9DxTFoPuk0TiaHhK84v2o+8pZ1QPd175ifP2O7izN0y41B323sz+J6rDHYP28G8jDt02tj0nCw26eOYVR/N5Tgr1HSPkajwehD2P9Yso/k49l9Hk6WY6BflqlbcRomnWDv9MkeQ9J6f9+2Ytf05vHDGGLpxGyf307ZoSjWcQU8Dsmen5RR9+BiMRRaFSZhxN6/D31TbB/KXQdFt//w6jmMt5mAfOw2uTrDUKqHL3wfSrZDZq4EISY8PJzp+4qSRxbt3r2bX0JkVVQYghLxNtAR7R388Oj1ETib6UGv+kQc+5GID2FuaFq+FUbPcUW/IWtwVyrMJIQvR3uDRvC4Jj8zwgXPlsivlRelGvWD16l3/HNEPIlvsc06H8qPO5IcPP7Ej5OTUUvPEO287il4p+dv/CkEJeDhMguY9lqPpz8eY6tdRdQcE4oP/AkkPPTFRLtqaFfLCHoiLYgM8qF+p+roN7E3HnBTWbPOwYcz3bFo93iBu0QeeBbaEfOTp86eg7dHO6JXNR1oifKjwyQ7RNAzQckIfXGRajLqblLHs9IsTD37RbgO6/OHmNyNqVfRHc5h4uFyX3Bk4SzkLjsCVptlw8hR9Kw8GLmtgnH8+Rec2XsIMxesRuMq9tBv4YUJi4IwffFeeB95ywSvrzizwhNG5UajavORyNvEEyO8wrByYzCG9hgNXabzWc3lAq4lb19V+5VaT0plQ1DSOYxExaajkK/5fIxcGoYVq/3Q03w4RMy5WW54we+Tr1tmOLr4vOXWvx24DpXKD0GJYcdxWbwf1qgHmNRlGES1FmPxDXZf0fCb7IoS7RZj5OKj2Lj3Ovx2HsKYPmOZ6+QA80Xh/N00yTWtZj4aeRp5YPCsnRjn4gefq+x25I9BsW3//Zo+vHgYlg2HwKCxJ8atv4zgE3fgu2Eb2jccCt2Gy7D8mtTdsxQygW/BLBRkQodu3RkYuvpGqpMhKL4PZa6Dgtt/8RLLhjKBsOoUDPK5jJBT9+C/PQQjhmzEipupnSOpbglCjK2tbXIAYq1ZsyZ+//7NLyWyIqq9E5TwFV+4FBCLsAlVoGfYDotO7MaIuk3hcuB1yhAjJvEV/PuboubEE5B/iugHPjx/ic8CM8clhHvDolAzzLumyG0g9o5TL+TVqYCxB1X1R0s+BBW39sa5C6cRus4JFk37YtHOHZhj3QANB/jgitzdJ6GQktHmTIS+uEg1+fgcBjGdPVHVJViW4m6LrO+waMBwaJWfgKFB4uFRioYRcVlqz5GIO6L2yNPGBz5XJM8khd88DusG7BApLyy5Le5Yqmq/wqYrBDHnkK/9Oqy7KgmUt/ZsQNXy9igy7Biup6gr1fFmh4K1HAIds6VYfidpPdYHx3eicaUhKD70KC6Jy+69wVWZ83h4LhAtK9kjb/9DfD3xPgZDp958eJyUHS4n3PlXbNuMqV7TT9g+0QW65V0wJED6bs5XXNi0DCblhqH5/Eepz8IW9RjeE6aiaDl7aJUdgsLmCzDSRzYMpWUfylwHBbcfeQUOLYYgd7fdOKjA54rMHAmC5cGDBynuAokNCgriaxBZkQx4JiiJj/4DUVSnICpVrYvePrf5YXHCJDzeBrsqTTH5qMzdntSIvQMfy8poOeucQHASIgEPlnSAkcyHU0jlJ0aoBcNilVCpmCFKWa7ApUubYV+3KCoP9IXwvA1CISWjzZkIfXGRavLxadjVZUJG9aVY8cfnMD5gyaDhEGVoCBqOzqvfSJWzfsAqh1HQyZD9Cpu+EMScg4/MOTw6CsvqzP4tg3CU279Qxzsau9wnQb/sSPRc/5q/YxSDfR7TYFBuDGy2SoKKoMw59qkhtA+mw75AfHdIWqFjSEW5bSeVCV7Tpzcwps1Q6DZdj22RUuWM4VdD0I4JUwWHHMNNqXJ5P+P03n0YZu2CgnwYKtFtM9Zd4YNlmvahxHVQdPvPn2B2HweIKk+Crc9dXBZ8pojMbAmCxdraWrBPaWZmRneDsjAZFoIS7nuhnZEI+XuuRZQCyebr7a0Y3aEd7BcdwKNUx7cl4tW5DXDu2grW84/htUKJiSUBj5Z1hJFOSXQYOw8LFixI1UWrDqYSWmQRHg4XE7EJNmWqwTH4LRI+nMD0VuXRfsElyL/KSCikZLQ5E6EvLlJNRl7CsGZDmA79fHhyw60E6rAyHb4ZvZiOv1LD4cRlfw9B8h3yaARMc2PCgQN6bfrIl2WhEHRZPgTJncPjU7CtPQS5u+/GIW7/wnUfHN6OuhXsYTzoMC6wHeqoe5jYaSh0Gq7CuhTPmMTg7IEjmOS8DBY9p6Fu20moYT4OhctLn+OfrumfliuybcbUrmnEcVgxgU9UfjgK1XREkRQ6wKCsPfL0O4iLyfv7k9E4ExqKARYjoVNmCIraheIYu6807UOJ65CG7d88vAedmwyDiAlqxq08MXjBaey//4ffI1LtEgTL7du3cePGDW4InDgAXb58GZcuXUJ8vMBwJiJLkGEh6NMpdzQ2FMGw9ULhF6EKEf8Otw4dw51UQ1ACnp47iPNRqVZIlc9+/VFIVBQD/T/zJekltWeC4nBzURsYN56B88zfx9hLHmhRvD0W35QdticUUjLanInQFxepJsXhprwLRuyVHSok5cPTsK03RG5iBLWEoKmTmRDkiD5bxPvI4BB0YCvMmDBSZPiJVGYbC8fUHmwIkg6OfzgHBUOQOPSIai7CIma7D475oUHFIajgdAG3krcXg8OrFqMcU1641XwMnLYL05bsxazFa7hndNIXghTdNmOqIegYFyB0m3hh8prD8For47pj2HzqXarPYwkZfj0MvdjPXmVPzGGf40nTPpS4Dmk8h/D7D7Fu8Xp0bjOK+ZzaI1+bNfC5TkEoq0gQ0tjb23MBqEmTJnwJkZXJkBCUEOmPoY07wrKjCXTYaaIVmsI6Y0l4sBQd8+qh4qh9TGhRBamFIIaP+zCqqgl6b4xEQuIHhDhWQWm77Uj5TlehkJLR5kyEvrhIdRmNwOlu0C8zFNVdL0t1tqX9inMbl8G0XNJdinPJw36+4sSSOTAqOxzd1srM+vXoCHoIhZFafw5BckPJXr/BkkGOEFWYhDEHovkyVe1X2PBr+9C+sj30221DwFOBOg9OwobplOs2WYctycOl/tDZVjQEMeHuwLwZTLhzRJfVUQieNRUGTDgdHiw1xXbkJQxtyu57Fdbckepoy4USJTr/Cm+bLxO6pvw01zoNfbAxeaa6dMqETvfubOicgSmnv6RxH8pcByXP4flLbHWfjvxlh6KRxz168WoWkSCkGTx4MBeCmjZtypcQWRnVh6DP5zDPohb6rL2Hh96dYaRTEWMPsoPBEvHp5SuBYWFqIjEKW+1MoZOvCSYeeKGCGeLicc2zWYoQZDo8OHl2uAfMuRvXmoAw9j1BD1eia7HacA6Tjl9CISWjzZkIfXGR6vPh6T1ozQ7/qeaOEbtfyD03cfNEKHo2GQpRpUkYEfwh5bKty1G07BBUmnBB8pzH82dY5zKFmzY4RRh5fAb9mfCg32YLdqUIF+KOKDupwHqsuyaZVODh+RB0YDrguo2ZDqnUxA2q2W8qPn+MWb1HQFRuLLqtDJd5F9EHBM2dhcLsjHUpQuMfOtsKhyB2EoIgmDMBrFDfjbDvMBT6rbdgp/QxPwpDjyr2MOiyC/ulJgu4dXQnmjPrpSsEKbxtxlSv6Tv4jBwLnfLjYbMl9SnXhQy/dhnLfR9IzQKY5P0zwWhbg/0MrMFG7rm1tOxDieug8PY/447MM0P3929BrQrMZ2PyVXpfUBaRIKQZNGgQF4KaNWvGlxBZGZWFoI8BY9DaZhxGdayAWg4BeMakjLjz01HfQA+Vhvji5nkfDGg3GsHJ7whSP/GP/TCsZl6IDEzRyMoRrjPnYr7SzwTFIsypCvJLTYxQ0HIDXopPLzoME2oZw2L5PSYufcOl+W1h2tQdp5JzkFBIyWhzJkJfXKQ6/YzQZQtQujwThCqNQ1OHzZi8ZB/mLguE0/j5qFFjCDfFc6u5N+Q6qOE3j6E3O1SpkjO6zAjF0rXBGGnrjHxmzqhsxnT8pcMIP4xMVN4JnWYegJf3bkzzjWRCl7gjao88VYYjb/P5cPQ6jKWr/GHVlgkjZR1hvvB+ik6lavYr2Z6sN/f7oRn7XqQKY9DYYSumrTiIBct2Y8QgN27mMqNWPliTYsjTHzrbaQhBT55HJj1sX34oNzW43PuMoh5gSvfhzHFNQPf5p7Hz8HWsX7EB5vWHI3eldIYghbfN+Idrev94IFrXGgKdmlPQx+MgfAIuY3vAKSxevBV9rWbAYZfAy2MZ7+7diCoVhqF0Zy8M8wjGfJ8DmDXbB+aNmf2UG4POK8KT764ovg8lrgOjItt/eHo3WjWbhQFzD2PD3hvw23kQo6zGMOHJGfYBKf+xgMw8CUKagQMHciGoefPmfAmRlVFRCPqBoy7VoCfKj1r91+CaeMq2uFtY2b0UdLREyFe1N7zOfVJs9rcMJP7FSaxxtUOHehVRPL8hdGSmNFRsdrgYnPayRI38zDpGhWFiYoKi+XSgpVcGbVwC+BCVgKhtdihtVAglmeUmxQvCgLkOJq1mIOwju1wopGS0OROhLy5S3f6DsB1+sOo8DnnZGbnYFz8yiso5oEyXZXDe9iiVoXJfcNp/K1o1ZDqq/MsiTbqsxvyDVzC+w1D+paXiul9xMWAbmtcbytd1QIv5D5iOraQj2nnRGUweODFpVjAmFOlWn4jOs87jjLjzrdL9Sm9P1q+4dDAUg62cUYgJh0nXwx46VZmQOCIAW69JpvEW1z+/agH30s0eMi/dFN81kQ4oqdZllp32WcQELebaV5mBycdl98PemQmFTfuRSS/9ZI5J38wNveafwGSb4TBiwh83ecAf95H6csW2nbR+6teUWRa6F/26SX+W2IA9GmY2G+F9PpX3UT2NxAaP5WjayAE6yS8fHYIiLT0xfM0dXE1RX9F9KHcdFNr+o5uYPtgNxfmX4rLLc9ebCtvlt2SOlcxMCUKaAQMGcH3JFi1a8CVEVkZld4K+vY3Ag8fv5KfC/vEejx88wXv6WyGDUEjJaHMmQl9cZGb5FbdvPUbokZsIOHIfR28L/6u9nE/f4NjxOwg59yp5RrWHEe9xPVLgAfFIpu7J+zh45V1ypznlv8Z/wdVL9xEc9hBnHv3lAfN07Vcx795+gv1htxF8/DEu/HEa8WjcvP9BcBjUg/B3MseUel32etx9+BZXI+QDULIvPuHc2TsICgvHOf6YwiM/pGEfrKksV2jbvH+8pl9x63o49h1hrt1J9tr9pS3FMvs/f+4eAg/eRuiFN384flZF9qHkdeD8+/bv33uKA8znY8+Jp7iiyHBLUq0ShDT9+vXjQpC5uTlfQmRlMmRiBILISgh9cZE5yb8NWSJJklROgpDGzs6OC0GtWrXiS4isDIUgQuMR+uIic5IUgkiSzBgJQhpbW1suBLVu3ZovIbIyFIIIjUfoi4vMWV7Zvh6N2kyH407xC1FJkiTTL0FI07dvXy4EtWnThi8hsjIUggiNR+iLiyRJkiTTK0FIY2Njw4Wgtm3b8iVEVoZCEKHxCH1xkSRJkmR6JQhprK2tuRDUvn17voTIyuT4EBQTE8P/H6GpCH1xkSRJkmR6JeRJTEzEkydPcOXKFVy4cCFHyT4LxIaghg0bCi4nlffu3buIjo7mP2WqIUeHoC9fvmDatGn8T4SmIvTFRZIkSZLplZDAdlCXLFmCcuXKcUGAJFVtrly5uMkn2FD0+/dv/pOnPDk6BPn7+6N69er8TwRBEARBEERaOXnyJAwNDbmOqkgkQrt27TB48GA4DB+eoyxbpgx3DUxNTASXk8o5fNgw9LWxgampaXIgsrKywn///cd/ApUjR4cg8VSGUVFRfAlBEARBEAShKMeC/WBgYABtbW04OTnh/v37iP78OUfapUsXrl/JTowgtJxMn58+foS/nx93A4O9zr169UpXEMqxIejnz58oUKAAdxG9vb35UoIgCIIgCEIRwk8EwEBHxAWgDevXC3Zcc5KdO3fm+pXsnTCh5aRqfBYVhXp163LXesyYMfynMe3k2BB06tQp7uKx0iweBEEQBEEQaWOCwyCuH+Uxe7ZgZzWn2alTJ+56dOjQQXA5qTrZIGRsbAx9fX2lJ0zIsSHI2dk5OQTp6enh27dv/BKCIAiCIAgiNX4n/sT7TaORP18e5M2bFy9fvBDsqOY0LSwsuH5lx44dBZeTqnXypEnc9V68eDH/yUwbOTYEVaxYMTkEsQYFBfFLCIIgCIIgiNT4cdQb/oPrcP2noUOHCnZQc6Js+GGvCRuGhJaTqvXhgwfc9W7UqBH/yUwbOTIEhYeHJ4cfsewsJgRBEARBEETq/PfkIqJnNcT6RTO5/tOCBQsEO6g5UfbxCvaasMPihJaTqpe9E1m2bFn+05k2cmQIYm+bSQcgVnZc4a9fv/gaBEEQBEEQhDS/fybgV9xX/PfwJNasWcP1n1YsXy7YOc2JshMisNeEnSBBaDmpeosWLYoSJUrwn9C0kSNDUIsWLVIEILGXLl3iaxAEQRAEQRBi2OeAvm60R/zNfdzPFILkZafGZq8JO1W20PIc4/sXeBIehXf8zy/unEXYoTBcuPdSvm46pRCUBj4zF4x946x0+BHr7u7O1yIIgiAIgiDE/Ahbji9enfDrxxfuZwpB8rZp04a7Jt26dhVcnjP8iPsruiOvfn1MDj6MFUOawiS3iLsuotyl0drJFzffy6zz8Qnu3Y1KWSblq7t3EPFReBmFoDTw+PFjTJs2jVMcflq2bMkFoA0bNvC1CIIgCIIgCJafr+4henZDJLy8w5dQCBKyTevW3DXp3q2b4PKc4UfcXdYFeXSKoUqVEihQrRucF6/H5pXTYGOWDyIdU/RdfxefpNZ5unsEqpXphDlHnkhtJ8kXp5aiV6WqGOb/WG4ZK4UgJWGnxmY/rPSyVIIgCIIgCHl+fY/hngX6+fYhX5IEhSB5W7dqxV2THt27Cy7PGfIhSEuEAg1Gwf/W++RlL/aORU09EYztNiFKep2P9xE0sQWKl7KAx2FJEHpxygu9KpREK7cQhNOdINVSs2ZNVK5cGb6+vnwJQRAEQRAEwfI7MQFfNwzGj6Mr+BIJFILkbWVuzl2Tnj16CC7PGYpDUF5YrgpPuSxqA/oWEsGw/XxclRsS9xDBk8yZINQRHoce49lJL1hWKIEWE/fgYSoBiJVCEEEQBEEQBKFSfhxZii9LOuPXj3/5EgkUguRlH6/gQlDPnoLLc4aSENRrtcwQtpe+GFxSB4at5uCibAhi/fgI+6a0QomStVC7TDE0mxCI+38IQKwUggiCIAiCIAiVkfjlLaLnNMXPV3f5kpRQCJJXPPuwpaWl4PKcYTpCEOOzYx5obyyCVr5mmLz/cYpnh4SkEKQk7Hzu5ubm2Lt3L19CEARBEASRs0n88o4LQezzQKlBIUje5s2bc9fEyspKcHnOUPkQ9Oz4QnQvVwItXbbAd2oblDTtgNmH5CdLkJZCkJLo6OhwH9ZVq1bxJQRBEARBEDkX9jmgf9cPRGzQNL5EGApB8jZr1oy7Jr179xZcnjNULgQlBaCSaO22N+kZIHZonFsrbrKEOUciU9SVlkKQkgwcOBB2dnY4evQoX0IQBEEQBJFz+X7YC1+WdMGvuK98iTAUguRt2rQpd0369OkjuDxnmPYQlBSATNFuWmjK9wF9vI89E5ujWOnOmHf0qaRcSgpBBEEQBEEQRLr4/b9YfFnRk3sv0N+gECRvkyZNuGtibW0tuDxn+BEPvHsgn6ggrNfKDGV76Y9hpZkQ1HYerkiFoLeXNmHO0kN4IjQJwsd7CJo7E1uuvpFfxkghiCAIgiAIglCaxJi3+C/8NH7/SuRL/gyFIHkbN27MXRMbGxvB5TnHN3j2JApvBZa9e/4EUa8/ypUrK4UgJSlQoACMjIywYcMGvoQgCIIgCCJnwb4M9d91/fFtpwtf8ndUEYI+//MPXr96hVcvX2qEHTt2RDGmUz5kyBDB5dnVfz59Emy/rCCFICXJlSsX9wvs4+PDlxAEQRAEQeQsvh9ajC9Lu+JX3De+5O+kJwRdOH8eAwb0h6Fhbm4bZNZWJBKhQ/t2CAoKEmzPzJRCkJIsW7YMS5YswZ07d/gSgiAIgiCInAM7/C129yT8fP2AL1EMZUNQUGAg9PR00al9QwRvn4bbZ1bh7jkfMot65+xqnNg7D8MGWEBXVwdT3d0F2zWzpBBEEDLcf3sJMw/ZkSRJkmSGeOnZYf4bJ/uSGPMGP455K/wckDTKhKBLly5xAWj+jMH4730omc08EjgH+vp6WMu0vVD7ZoYUgpTk8ePHiIiIwL///suXEJrCrddnMCHYgiRJkiQzxDOR2ftF69xzQGvZ54Am8iVpQ5kQNMTeHh1a1xPsYJPZw5mT+qF6tSrc81xCbaxuKQQpiba2NvcLvHbtWr6E0BRkQ9C0g31IkiRJMl1Kf69k9xD0/eDCpOeA/qf4c0DSKBOCChTIj50bJgt2rsns4cu727h2v3jxomAbq1sKQUpCIUhzkQ5Bq8+7IuDuMpIkSZJMl+svT9OYEPS/i374+SZtzwFJk9YQxM4wxta/HLZUsHNNZh/ZIY0HDxwQbGd1SyFISc6ePYszZ87g3bt3fAmhKVAIIkmSJFWtJoSgxOhX+LptFPdi1PSgbAi6emyZYMeazD7mzq2PA/v3C7azuqUQRBAyUAgiSZIkVW12D0G/f/6Hf31s8W2XK1+iPBSCcq4UgjSAnTt3wt/fH5GRkXwJoSlQCCJJkiRVbXYPQdxzQMu6p/suEAuFoJwrhSANgP1lZF23bh1fQmgKFIJIkiRJVZudQ9DvxJ/4+fo+fr6L4EvSB4WgnCuFIA2AQpDmQiGIJEmSVLXZNQQlfn6JL0u6IDHmLV+SfjIrBMXd8cT+/X6Cy+SM3IBTPoMxumd3bL0WonwdKb/eWIgdngMwY9JQbD+4Fd8F6sj67epi7Ns+DXu2TcXeQG+8fSNT5/EanPabjmBm+R6mXmjIGnyQXp7F/FsIevP6NZ4/eya4TNVSCFKS2NhYzoSEBL6E0BQoBJEkSZKqNjuGoKTngPoidvdkvkQ1ZE4ICsYtj7ooZ+mEKNkgIWBc+Eacm9sEhfTrYumFYKXriP16chSszJpg8UFf/HPZDSMb1MWCo3sE66Y0BJ8uemCxZSnk1isBuxVr8E22zpNlmN+6ANpM8cIHBc4tM00tBL17+xaLFi5E8eLFsT80VG55RkghiCBkoBBEkiRJqtrsGIJ+HF+FL8t74Hf8d75ENWRKCIr0xKRauhDlb4gV5/8cWMR+CeiJKoZ/DjiK1PnvfRDOOFdEgQ6OiOBCyjZs6J4flku3IE6wvrzfjvRHs9xaEBWuDY/9/jLLA3F4VG2M8w+QKc96yoagD+/fc58DExMTro1ZQ/buTdH+GSWFICVxcXHhvHLlCl9CaAoUgkiSJElVm91C0K9v/+BX3Fck/vOCL1Ed6g9BIXi53gLdrZqjlr4BWk5dLn83RcAvgZao9rcQpEAdNqSEjSqD3BW6Y38kcyyBfWFeqi68jityJyhJNgRZdOkA24q6MKrRBYE3pIffBeLouAZw2R0oVZY1FYegTx8/Yo2PD8qWLZscfqQtVKgQihQpgho1asC2b18EBQbi8z//CH4+lJVCkBL8/v07uZE2bNjAlxKaAoUgNXnBHXPXjYD7GkV0xJz985LX3Xp4Ijx9nTB//xzskt4mmT4vzcDiHeMxd4crfC4LLBfQL2wCpjFtNG3HVGwXWK5xXpZco9UXBZZLe8sTK3c7YS7zWV16YrFwnUx222EXeGwdh7khHvS7lMFmpxDEBp9ozxZIeHmHL1Etag9Br3ywwrItNlxaijlNDGBgZo2TzwTqvdmOs0ttMM7REuMGdYLb6BYoLxtwFKkjZwier2wJY/0SsOjdEHXNmsFj50Z8uTAVcx06Y8TgHpixaBbuRQqtmyQbgjoPnoKngdZoll8Hpbs44nryOQiEoDfbcHqZLSaOt4bLwJawHjgIe86zd4qC8eLIZHg5tkCXcS7YP6M1zOuYYfym9XgmLh8/Ay+OOcO1R000bNQUblvW4dsTb+wY1xwtzSrDYtgE3BS6fgooDkHs0Dc9Pb3k/rQiNm7cGJcvXRL8jCgjhSAlqVy5Mmcgk0wJzYJCkHr029MdNQyE/9DJq4vqThPhx627CJ6jy0JXS4QiNsNU0/G+6IZJzn0wQ7ZTm1q5huoX0BXV2TYxqIgBexTrtG+cWwe5mTbSb2kF75vCdTTJ5M+tQTn03fmXa3R1JLpXyMV8fvXRZPbsLBgyFmORUwXoaWmjUO8h2CZYh1SV2SUE/U6Ix7+rbRAbMIUvUT3qDkFfQm3R02E63jMB4L5nA+TXM8VYv50y9QJxZU4z9Jg0P2nygTeb4N+vBLT0pAOOInUEfOOLS4tbobKeNgq3s8elcPEyf+zuXxRm9u54+pdneZJCkDs+M8dwfUETlNbLg2ZOc/CGW082BO3EyclmaDnKA2/Zn5lAdGBkBeQp3w7bLwfh/Q1PzGysA4MKjTDdZwYCV4zHvrM78eGWJ6Y30kGBFp0xZ+ZY7Nntjvldi0LHpAnGu/TF0vUeOOzTHU0MC8B29VaFh/JJKz0c7uGDBxg1ahRTlpv/rk+yQf36mDp1KiZPmgQ7W1sYGxsnL8uXLx+OHD4s9xlRRgpBBCEDhSD1mNyZFBmipFlF1Gj4Jyuj/Zwp8OfWVW0I2nVqGLrVMIK2UT2MOff3ck2WQtDfpRBEKmt2CUH/uxqILyt6qvw5IGnUG4J8ETikCTwOB3E/x90YDxtjHZS2nYTXUvXiro+HddmW2HxXUhazvTNK55YEHEXqyBnuhVV9a8Ji7GRsG1EOBoUbYsU5vu6rlVgy0Ar77/99ZjlJCGJ+ZsJXoH05GOmbYpDPOnyXCUHfzznAokAlTD2QdM6s7Hn3LqCNKiNmM9vwxcbuBijSdzL+4ZcnuR0buukz362uyTPMxWzvBFP9Wph/ij/ml8swp5E+6kxYiK/J6ymu0MQIjyMiMMHJCXny5OHa2d/PL8Vy9rmhuXPnQkdHByKRCIsXLUqxXFkpBBGEDBSC1GOaOpMpVHEIOtgb9QyZ45ANQamUZ1lvzcbiTSPgvs4JKxUcyiarMiHI/9QULNg5AQtCZmGHwHJNk0IQqazZIQT9fPMAv38m4FdsNF+SMagzBH2/OAq921hh194FOLWPdRbmdswHnSLNsV5qWuvXK1uicI0+OPFcsq7s8z6K1EnhqzXYZFUCxTuNxP1XzLFcGIWexrqoNMANz98E4c4KaywI9JVfT8AUIYg1YiE8WuSDXtF6WHDIVyoEheCpV2Pk1q+PFZelwtWrVVjcUgc6Dfrj4ssd2NTDAMX6T5Fsj1O+XO78mHPyamWA6qM98SV5PcUVCkFin0ZGYvLkydgXEiK4PDg4WGV3gVgpBCkB+0yQubk556FDh/hSQlOgEKQeKQSp2MsO6FRKBC3D6hh6cIlwnb+oTAjKaVIIIpU1q4egxH+eI3puM/z34DhfknGoLwQF4fzkRrBxc4bvmonJbpthjsp6RrCYu5p/V08wbs80Q+4KPXBI6lmXlAFAkTqSctaYAEtU18uN7gs38kPHAnDevRYKGFbA0Im9MNbTC59k1klNuRDElp0bD9uyOshj1hUzB9XnQxBznLPMoKdTE/NPSk+8wAYcfYjq2uLcc1WEoLkqD0HqlkKQEiQmJnK/jKybNm3iSwlNgUKQesy4ELQEm4Id4OjUFh261UZD8+qo364u2vS3wPBVk7A5ud5iLPHuhQEj66GMPnscZdB6XHcMcLXBaA9LgXI7zD4uEy4uuMF9Vhd07VUPjdrUQtPuzdF7yhAsOiMfQrbvHoRBzj3gsHYa/G95YOFSS1jaNEDT9rXRondr9PMcrfQdHM5MCkFJ59UdAxeMxya5ciXPNw3XNUlF21xS32djXwxkjm+cnye2BA6CtXU9NO3WDL2nj8DyPzwDpvIQlOHnmqTfcSeMd26D9sw6jTo2QKexzOc5bAGFIDWalUPQ74T/4d9V1ogNmsqXZCxqC0EPp2OsRV+ckn2I/9lCTK2ji9yN+uPSy6SylyuaI59eDXhKzdgmDgBL+ACgSB2JwbjjUQdGWgZoN2uV5MWoTxZiVtM8MKjeEweTnw1ifOmL1w9THxYnFIK4We/8e6FhXm3oGZbGBH443KetFjDVyod+PlJ3md5shk8nA5j2d8cHgbCTJIUgRcnRd4Ls7Ow4T58+zZcSmgKFIPWYISHo1mxMH1cDxXNrJ/9DRQpFBihrPRAruWdXFmBi7/zQlq3DHE+LdvkEyivALkBynJv8eqNl5dx8PW1oixj5/9cvY4b+m1N2epOencmF0gNsMLRrceQWSW2bVSRCocadMPOMZJ00mUkhKLVngpQ937Re17S1uVjxZ0gf9Ub3QquyOsntrZ2/Fhz+cP1UGYLUc65eWO3dFjWK5ko+xyS1oWtSHRbdSjHXgUKQOszKISgh8jIXgn7H/+BLMhb1hKBgPFjYDJ2nCU2HvQdXptZAbj1TjNqeFBTirk+AbTEtlGg7AEfvsGFkB85MrYsi+jUx/1RS6FGkjrRvN3RAaR1t5K7VDXuuJ4WIDyec4WJlBrNCuijdsifWBa3C0xveCJnSCyuOyW9D7Nd91mjR11XgztFuXPJoiJL6pnAST4wQOR/u9fRRqMMI3H3F14uYhpGVq2F6KDtDnC8Xdgr3nSwTgnyxobsBjO3cpEJQT1RlQ5743UqvfLgQVHXUHApBBKFpUAhSj6oPQUuwbmkTFNdlO7Jl0H7aCCw+Og87rs3HupDRGD2kKoroMPvTLY7u6xdw9TeETsDcVR2SjoMJD/02sVMfu2DBLqFyV6y+lLQv//12aGHKBA6RPkw7doaz/wxsvb4QG0JGwqFvOeRn9pOruBmGB0vOKykUMF+GBQyhl98ULcb2x4xdblgWNAbOTvVRNi/TsWW2V93JhZ8FL41myRCUtvNN+3VNa5uLj0/yGcpXJA90ipRBi8EWsB7aBE0GDcTaW+J68iZ/bvVLocfKSVga4pa6ewagQ1nhEKSuc/UP7o0Gxux+cqNCr15wD56NrRdmYpF3d7SorJ8cuigEZbxZNQT99/gCEr+8xe/En3xJxpPhIejNdlxca43OpszfGKvB8D+wUXInhvHT2dnw7lceBuzfqCot4bHOCy/eBCNic080L6IFUf7iqFmnLsaMb4sq+kXQffJ03H3CrqtIHSmfr8LWARVQWKQNA+NSaFi3Mtr1d8CJO3vwdNcA9KyYGyLmvET6xmjv6oHXgjPEBeDR/ilY0a8C8pRpgtlrPHBTdiKFV+vhN6BuiimyY06Mw9A6xdB0wFBsXTcecwaZY9xKbybcBODB7mGwrcj87pduhnkB6/lrE4CHgUx5OeZ4zDoz348b8fWWF7aPrAEjraLoNXUGbof74bYvc9wmWjBq3APbDin+slexFIIIIgtDIUg9JncmRQYwrlwKFWqmolkt9PddJLVuKiHo1jQ4tDOEtkgXlUc5yQ+Tu+mGQc30mE6fHmq6TOJnmlPmmSBPuNkVhQ7z5ZmvZU8suiq9jPHWTLj0KcYsF6G49RBs5MvFYUFLpyBaeE5L3n+SCzBrmClzTkyYaNELy1P8S76Qi7Fofgd07W+OLmL71UHF/Eyw0DVGnT5S5YzdJjtiwx869mJVH4LScr5KXFcl21zyGWKOT78kuvgo/o6c5M8tu67CyoYgdZ3rfLgPSNpOwXZ9sOx6ynV8gyxRrzB7V4lCkDrMiiEo8dMzRM9pivib+/gS9aDOiRHS6rd7q3Ay0BNXbgQgjvn/yxf85Dr6itSRGIQXpxfgSMA8XL66M2W9p5twda8nzp7zTRHSlPLJVjyPkA1HvnhwcC6O7F2Gx49TH2qnTikEZXN+/vwJIyMjTl9fX76U0BQoBKlHhTuTuiXQY+NCqXVTuxO0AD6BY+G+bAg8jnhJ1Zcsd+2TH7m0dFCJ6USKZzJLcwi6OBQdTERM574w2q/wlJRLuWNbB5TXZ/8lvwkmXkgqE4eCXCbNMEngmZOtXo2QX6QF3VoW8LwmvzylC5hOdGHmXKSu0x9UdPrqjAhBCp+vUtdVuTaXDkG6tTpi7l+vt0RJeNdF3mKFYGzyJ/PDSJcNGTIhSF3netUR3crnYvZTCO2XCe1nLlx6F2TWoRCkDrNaCPr9Xxz+XdUHsXum8yXqIyuHIDJjVUUIunf3LjZv2sT5/t07wTqKSCFICRISEpI7F5s3b+ZLCU2BQpB6lAwrMkXnReMw13e8sDtcsPK89LqphSAZr3tidbATZq4aBMfJndHNsgbKGbPPReigguM4pUMQGxSqccdtgjauthg1R8DpLVGVCxPlYbs7KUwkh4XG3eElEEi2+7REcR2mU169Azz+2in3wsoNdnCYYS1xWlvUKcJ0rJnr2calT4plI5a7YIvgdlKaESFI0fNV9rqmUME2l3yGtJGn6wCFro3Y5M9tOp4JUte5+h+wQr3czDZyV8OQA0LBaQlWTavBDQmiEJTxZrUQlPjPC3zbPoYLQ+qGQlDOVRUhiA0/4n541NOngnUUkUKQEvz69QtLly7lfPDgAV9KaAoUgtRjmjqTKfxTCFqA5at7wqJNaRjnFTEdwqQ/kqza+nlQsFD6Q5DvhjYopSvZ7h9ln8/YkHQXK7WwIHb7GnEoaK9ACBIwSz4TpPj5KntdlWnzFJ8h66GpB2kBVRGC1HWufjs7ozJ7rLJ3M6Xctrgh8oooBKnDrBSC4u8dwX/hZ/if1E9aQ9Dnf/5Brly5cGb/QsGONZk9/N/bEGhra+Po0aOC7ayoFIIIIoOgEKQeVR+CFmHx9Nooxg4/EomQp3Q51O/aFN1GdofDohFYcHQOXHqzs76lLwTt2NwOZfWZTmfeSug6wwaOs/7g7IGYHZb0L/AUglIqe77KXVfl2vzPQfrPqiIEqetc/QK7JR2rYW04nhD+TGxd2ABGFILUYlYJQYkfozLlOSBp0hqCWM3MamL6RFvBzjWZPTwSOAd6errcS1GF2lhRKQRlMhEREZxfv37lSwhNgUKQelR1CNp1vD9aFmVCgMgINRxGwEfmIXD2+YcxnQ2SOokjlA9B/vt7oS43xKgSBgYLDTESlkJQSmXPV5nrqmybZ3YIUtu5nh0A80JMaNIvhd7bpScXEesFL5dK0KfhcGoxK4Qgdujbl5VWiA2ewZdkDsqEoBUrVqBokYJ4dW+7YAebzNp+fxUM82a1YGfbV7B90yKFoEzkv//+S774W7du5UsJTYFCkHpUdQhihxiZskOMDM3gKPtSU9YLI9CV65DqoNzwsZIQdLg36nNhpy5GS72zJrXygGtOsDbTYTqj+qjh5CLVsZa4ZU1rVChWBGUatIbrqaRjoRCUUrnzVeK6KtvmmR2C1Hau3IxyRlwwqsQEI7nzvOkG+xZscKIQpA6zQgj69b9v+H5ocaY8BySNMiHo7Zs3aNmiOapUKo2bp7wFO9pk1vTl3W3o3qkJTE1K4s7t24LtmxYpBGUiFII0GwpB6lHVIcjPv1PS8w/6pWG1TfqdMIy3ZmGaQwXk4V7YmQumg0fCV7zsZF80MWKPoyz6+Eqtl1r5XS8sm14LBZgOvHbBCrD0mZHivT5+R4ahay22Y8kcX9d+WM1PTZ3hIejuAqw/NBUrDszEZoHtK6J0CLLb6YmtF+en4gJsu5Z0B0NlIUiJ66p0m2d2CFLbuS7BBu/mKMmEJ+0CFdBrzUypacI9MW9yLRgzx0BTZKvHzA5B7PC3H8dX8T9lLsqEINbXr16hR/du3LqN61eDrVUr9LduoxHa9W7FnY8t81+h5dnRfn3aoGOb+tDRyYVatWrg5o0bgu2aVikEZSK/f//GmTNnOD98+MCXEpoChSD1qOoQFHBtAuwaJP2rtkH5mujp1g/OSwdi9BQLtGtijNw6eVC6ciHu3Sz5ew6SzAjGdFR7VGQ7qtrQNsqH4mUroPfmhamXs+tcd8MYyxIwYDqd2rr5UaFdU3Qf0QE9+9ZB5RI63DHoV2yMcfslQ50yPgSl3+QQxH+5pK4IxeyGc9dedSGIMa3XVdk2z/QQxKiuc701E26DysCI3U/uwqje1RyWDm3QrmVx5NExQJlqxaFLzwSpxcwMQT8/RCLaownibx/gSzIXZUOQ2GtXr8Ld3R0jHBwwfNgwjbBatWrcNSlUsKDg8uyq84QJOHTwIDe5hVBbKiOFIILIICgEqUeVhyBG3+AB6NSgANOpE3fWGUUi5KtaG1aLXLF+jTn3r+I65VtiCv/+Hm666RXtUKeMAXKx64kM0Wwu22FNrZxf7/oMzHBrjjrljaCTvD8mMOUtghpW3eF+KOUzGBSCUprq+abxuirX5lkgBLGq5VwZb87ETPcWqFOODVFJ62nnNUbdIYOwcEFjFC5ghBK2absOZNrNrBD0O+F/+OLdC7F7Z/ElmU96Q5AmOnToUO6aVK9eXXA5KZFCUCbCTpHt7+/P+ezZM76U0BQoBGVzb3lipa8DnOfbYcxCe7j7TcMWfkhawK35WH9kGlYdmYnNsg+W31qITcdnYt25hSk7q6mVJ7sAa0OcMXfLGHj4T8Kai8o9j0PKmobrqmybZxnVdK78u4U8tjtjxem0/MMDqQozLQQl/kT8zRAuDGUVKATJSyFIcSkEZSL/+9//ki/+9u3b+VJCU6AQRJIkSarazAhB8TdC8HXLCP6nrAOFIHkpBClu+KNHCA4O5vzw/r1gHUWkEKQEFII0GwpBJEmSpKpVdwj6+eFJ0nNAdw7yJVkHCkHyUghSvxSClCQ2Npbz58+ffAmhKVAIIkmSJFWtOkMQO4HTv6us8T3Egy/JWlAIkpdCkPqlEEQQMlAIIkmSJFWtOkPQr+8x+Pn2YZZ6DkgaCkHyUghSvxSClCAhIQHOzs6cN27c4EsJTYFCEEmSJKlq1RWC/nc9GF+8OuH3zwS+JOtBIUheCkHql0KQEvz48YP7oLL6+vrypYSmQCGIJEmSVLXqCEE/3z9GtEdjxN89zJdkTSgEyUshSP1SCFICdmKEypUrc+7bt48vJTQFCkEkSZKkqlVHCPq6bSS+75vD/5R1oRAkL4Ug9UshiCBkoBBEkiRJqtqMDkE/Xz/Ar7iv+J0Qz5dkXSgEyUshSHHPnjmDcePGcb5+9UqwjiJSCCIIGSgEkSRJkqo2I0PQ/64GItqzBX79+MKXZG1UFYLu3b2LiRMnoqNFJzRu0hQNGzfOtpY0MYGBgQEKFCwouDw72bZdewwZMhSnTp4UbLf0Si9LzUTY4XDm5uacx48f50sJTUE6BC09PRa+N+aRJEmSZLpcdd4lQ0LQz3cRSc8B3TvCl2R90huCLl64gK7dukEkEqGyWT1Yj52MIVPnY9iMRWQmO2TaAthOmIpG7TpDW1sbDRo2xO5duwTbUVkpBGUi379/T774fn5+fCmhKUiHIJIkSZJUtaoMQd8PLcL3/fP4n7IH6QlBZ06fRv4CBdC4Q1d47TuL0Bc/yCzqhvOP0HP4OOTKlQtrmTYXak9lpBCUicTHx8POzo7zwoULfCmhKVAIIkmSJDNSVYWg+NsHuKmwfydmrxe3KxuCxAGo84DhCHkWK9jxJrOeE5ZtVGkQohBEEBnEq5gnCLy1kiRJkiQzxMcfb/PfOMrzvysB3HNAiTFv+JLsgzIh6PM//6BajRpo12cABaBs6JiFq6Grp4fHERGC7ZsWKQQRBEEQBEHkQH6+fYTo2Y3w3/1jfEn2QpkQdOjgQeTS0cG2a1GCnWwya7vv+XeUrlQVM6ZPF2zftEghiCAIgiAIIgcSf2s/vh/24n/KfigTgnpaWqJVTxvBDjaZPRw5dwVKmpji44cPgm2sqDkvBCW+w8VNrujXxx17XyfyhQzxN7F6sAV6eBzFN8Thovdg2Dh64dCTH3yF7IpnFpIgCIIgiKzAj5NrkPjlHf9T9kSZEFSwUCFM3RAg2Lkms4d+d15z7X750iXBNlbUnBWCEiIRMKoxmjj44t5Xvown8Z0/HMxqoO+aR0jgShLw8ugsWNTpiRVXZCpnK2bi+qZ6aFPTGNXMTNCiVVm0MK+AXsNbYeOZiYgXDCuKOgNX19dF6xrGqFqzGpbdms2XeyA8qAW61jWGWcfG8H8gLicIgiAIIrP53+VdSc8BRb/iS7InaQ1B7PNA7HTYi/eeFuxck9lDdkgcO0FC2JEjgu2sqDkoBCXgoU83lGmzEDcUvrmTiJe7BqNiXTeczB7vDROACR+x/THCJBcqOw3GD+bn+I9jEOheASZGxhi+24W5MuJQ44m48P7YfihlmdiY6zbwPeXGXBWp8m92GFbSEMaFdVB/2nBu+1x5nANmNsqPgf5TJHUJgiAIgshUfr55kPQc0IPs/37CtIagfz594uovO3hRsHOdNfwH6/fuxbRNgZi6UcggLDj9SWC9dPjwIRZ4e6Jr9zFwvvBNuE4WU98gNw7s3y/Yzor6/t07Lvywsp8NoTqKmPVD0JdDGFvRFEOCPvEFYuJxz9cNwwf1g639cpyXDUjxV+HBdOa7+jzh7xBlNzyRcL8T2hnmhu12N+5nzoTxWG6hB736rXEhThxS5uD14ZZoUdoE4/Y4p7hLFHO1K6yqFMXAreMQJ1XObrtjncaY6VAIBtWaIuwrvyzaBoNLV8WaZ3OS6xIEQRAEkbmwISju9Ab+p+yNZoYgxsiXWO7REwVFBqgx0g8efgcxx+8AZm1YD1uLmmg89yFChNZT0pA7j7B4Vnfk0e+A4af+FayT1VRFCFKVWT4EfdvvCNOC/bHzM18gTfxNzGupAz2LFYiQSzpxOD/VDHodvfFE7SnoG+6EbsS6desEXI/1Gzdh644AhJ64hqfRqR2cJz7uMENhw3JYdEc8LI11Fs65F4eeUTVsfC0dVDzw8mBLtCxjgrFBSUEo5kpX9KpsDLsNY5gjEtdLkt126T6WeLKvESroFYRDsDtXHnfWHPWbtsGl5IDFShAEQRBEZhG7dzYSoq7yP2V/NDYEMQbtm44qukZoKBN4Qi5swNAlqg1BrIF+42BqSCFIGbN4CIrHjbmNIWo6D7fj+SJpfhyDS1U91Jx8CkIj5aJ32MKgoD2C1P5oUDzeXtkMhzoG0KttDVd3NwxtVRxGVdrCxrY3LOqYoFyb4XAZ0wsNKtRAl4m+uCU3bG8mjrkYw6BKU4T9kA4kM3F6cjHoGFXHpnfSIYh1Dl4dMUerMiXhuKgNLCsVQd+1o/E1RR1WdttF0XSWI+K+DoZTtVwo2b8P3iZ6IMK7Eio69pNZhyAIgiCIzOB/l/wR49kyW74PKDU0OQTtCZ2FqvryISj0RQwCI1Q/ZC3Q3wmlKAQpZRYPQbE4ONoUWt3W4pXUhHBiEiKWo6OBMQbtiuZLUvLj0BiU0uqEVc8EVv4bP97h3ul98N+8HmtWrcRKb294867cdAxP/3p3KQ4XptdHwb7b8ZmJaKcmm6GUw1584xZFYLNdfViuuY/YqFC4Ni+KaiP34p30YcaPhVcbXRSy640P0oEk0RWbrPShU605jqUIR2I98HhtNRTVEqHK6P74JLeckd12u8IYGTqd+XkmzrqXgF5hJlQ9n4JdgwrAct3ElM8PEQRBEAShdpKeA2qI/x6e4Es0g5wWgvaEHcei61IB6P5VTJ46BX1HO6Bpq+7oOvcYtkZJtvHH5VHPsWiRG7oPd0KP/sPRx7E3ilMIUsosH4JChhtDq+cmCE0G+XFHPxQy6Ijl8mPhOH6EjUM5rXZY/jgt4+F+IDzIHT2qF4SI+YVjf+lk1avqjLC/TtIQjxvzmqOQUAhi+HZgNCrVn4rzccDXMCdUM7bGlrdSKehDb9gV0kWbxWNTPOOTENkDloWZgDNuEL5IlYuNudyFuwPU27kBWpQqAceACSnW52S3XYoJPfxwuvib7dHS0AA9V9nAtW4pzLo8K2V9giAIgiDUyu9fv/Ar7ivzHb2PL9EcckIIqj/7Fnbef48dF89irO1gjBCHlMh7cLa2gOW250xI+oYta+xRQt8ULRbfQ/Bfl/+DZTMt0dj5KHzZUBQVgUl9K0BLl0KQMmZaCIqPeY/Xr17hlYCvX39i4g9LHE65VoFWu2UCz/z8wPGJ1aBXYxJOphJIvgXZI7/ICps/8AV/JRHPAx1R01AP5SxcsTb0Ih48e4uPzIX6LGV0TKwCky38OQTFX/dEs8J28I1mZwBfhS4FzbFAaszfj7CmqGJQBM5HZzI/8WEkcSICHYpAz6Qa1j30kJTzcgGoclH038g+AzQHLw+2YIJQSYzhnxES14tltl2jZXtcj+fLEpywuqs+8jYsjQYVGmKfeJKEZAmCIAiCUCff/J3xvyu7+Z80C80PQXoo09UV/V1nwW7McNSv2hUOfEgJ2jMFlcvaYPiWfZi1nXHNJJgZipC7/QqsZ4LNn5avPbcOLcpYw+m6ZH8Bm0bA2IBCkDJmUgiKRsCQkhCJ9FCsenO069ABHRjbN66IfCIt6JQaBH/uhaiJeLWhB/TKjRO48/Iem6wModd5FZ68PYWlMzfjfornhhIQvrQttGq44WwcX/Q3vh6Day09GDZwwwnhEXZp4M8hKO6sO+qaDMUepuDH6cmoXcwW25PHw8XjumdpGBQyg++HpCAS99oBm0aXRvHSFTErzFVmuBofgKoUw+CtY5kAKS73wIvQ5mhWyhTjQ8TTZ8/G1TmlUHyQjdSdpDl45WuG4swfmLyWPfEiUVwuliAIgiAIdfG/izsQM88ciTFv+RLNIqcNh9u5bQNcz7Ah5Rs2zO0Co/L9MHx9yim0p++6Dr+oPy/38eqDvNVdMT9Csr+c+ExQ6L59MDc353zx/LlgHUXMnBAUdwbudfKj7uggRIoDSsxlLOlWCjr5GmJC6Cumk59EQvhytDdoBI9rsjMj/MAFz5bIr5UXpRr1g9epd8nrcCS+xTbrfCg/7khy8PgbP05ORi09Q7TzuqeCabX/FIIS8HCZBUx7rcfTH4+x1a4iao4JxQfuBBLx7sQCdCsvglbegqhvXg6tWpZGE/MqGDazF86+kB2qxjoHH850x6Ld45k9yS7zwLPQjpjPTZ09B++OtUdXZtsGNWpizeUZknqf+8Oxgi4as5MlpFiflSAIgiAIdZD46VnSc0CPTvMlmkeOmxghMgZ7uGd6/sWqaW2Qu5g93O5J1pH4p+XMsqmtoF9+LDzCJeU5MQRl65elJn44gDmOXjgpnvY6PgK+9tVgoFcBfTfcYzryUiS+gn9/U9SceALy7z39gQ/PX+KzwMxxCeHesCjUDPOuKXobiL3r1At5dSpg7MGkwXjpQz4EFbf2xrkLpxG6zgkWTfti0c4dmGPdAA0H+OCK3J0n2SCSmRIEQRAEkdH8jv+O3z8TkPDsBl+imeS4ECTljpX9UUC3NNqsiJBa/gYeqwOxiQlKf1q+dHFvGOq2wKDDMXy5OAS1pxCkhJk/MULiexx1b4FCOsZoM+sUPqW4nZNEwuNtsKvSFJOPytztSY3YO/CxrIyWs84JBKfUSMCDJR1gxF/UP6ncxAi1YFisEioVM0QpyxW4dGkz7OsWReWBvhCet0EojGSWBEEQBEFkNN/8JuD7/nn8T5qLJoegoMBJKK+bG3Vn3kqa6EDGkOs7YVFWD7mMW6Ln0qNYdf4uFi2bgG5zr2LPX5YHXtwI86JaKNR6FjyvsbPNvcJCtw7Ip98Sg8MkwSgrSyEomW+4tdoKZXQMUcth9x+nnf56eytGd2gH+0UH8CjV8W2JeHVuA5y7toL1/GPgHitSmAQ8WtYRRjol0WHsPCxYsCBVF606mEpwkUZ4OFxMxCbYlKkGx+C3SPhwAtNblUf7BZcg/yojoTCSWRIEQRAEkZHEXfBNeg7oi2Y+BySNZoagT1i3ZydG9K0DXeZY8zZyhOOa09gUKVvvG7bsmIkGpXNDm+3IiwqgrNVqLH+kyPJ/sX7dOFQvrAXt/OVQpnZ7dBvTH6b6pmjksger74u3kXWlEMSRiOd7x6BuXh2Ydl+Gq4q80DT+HW4dOoY7qYagBDw9dxDnoxR9Cigln/36o5CoKAb6i8fppYfUngmKw81FbWDceAbOxwKxlzzQonh7LL4pO2xPKIxklgRBEARBZBS/vscgek5T/Bd+hi/RbDT5TpCihtx7gCU7D8DzUAQC0rh8z43rmO93GMsufULIjRtYeuqN4NC7rCiFIIbo8/PQsbgO8jd2xaG03bLJMBIeLEXHvHqoOGofE1zSyx8mRvi4D6OqmqD3xkgkJH5AiGMVlLbbjpTvdBUKI5klQRAEQRAZwa8f/3J3f379q/D7PLI9FIJyrjk+BMWFb8PAKgYwqNwfmx+I74DE4+7yrqjhuAcxfInaSYzCVjtT6ORrgokHXqRzhrh4XPNsliIEmQ4PTp4d7oF3ZxjXmoAw9j1BD1eia7HacA6Tjl5CYSSzJAiCIAhC1fz+/RvfdozDN9+xfEnOgEJQzjVHh6DEd2GY0qwgdEp2wsLzkinRoi95obtpPnT2fpzO8JE+4h/7YVjNvBAZmKKRlSNcZ87FfKWeCYpFmFMV5JeaGKGg5Qa8FN/tiQ7DhFrGsFh+j4lL33BpfluYNnXHqeQcJBRGMkuCIAiCIFRN3LmtiJnfColf3vElOQMKQTnXHByCvuHIhKrQ0xJBx7g8ataqhVqMNauVQWEDEbQM6sBd4TebZhzxL05ijasdOtSriOL5DaEjYo6Nv9isf58dLganvSxRIz9T36gwTExMUDSfDrT0yqCNSwAfoBIQtc0OpY0KoSSz3KR4QRgw18Wk1QyEfWSXC4WRzJIgCIIgCFXy++d/+LK8B/6LOMeX5BwoBOVcVRGCdu3cidKlS3M+f/ZMsI4iZuLECMSfEQojmWXOgn1ANeHlHZIkSZLMEH9+iOTCDxuEciIUgnKuqghBqpJCEEHIEH//KKJn1CVJkiTJDPHLSit83TiEeyYoJ0IhKOdKIYggsjAUgkiSJMkMdU6zHDUbnCzZIwT9g/V792LapkBM3ShkEBac/iSwXhb24UMs8PZE1+5j4HyBfdmqQJ0MlkIQQWRhpEMQ++K6f9cNIEmSJMl0GbO4Y/J3y/fQufw3Ts4k29wJinyJ5R49UVBkgBoj/eDhdxBz/A5g1ob1sLWoicZzH2ab9/Owhtx5hMWzuiOPfgcMP/WvYJ2MlkIQQWRhpEPQ1y0O3JcVSZIkSaZHdips8XfL/y758984OZPsNBwuaN90VNE1QkOZwBNyYQOGLsleIYg10G8cTA0pBLFSCCIIGSgEkSRJkqqWQpCE7BSC9oTOQlV9+RAU+iIGgRGZM6QsPQb6O6EUhSBOCkFKEBcXh6VLl3JGRkbypYSmQCGIJEmSVLUUgiRk9xC0J+w4Fl2XCkBRz7Bw0VRYjZmMXv2s0aLfXEw9yT4v9C+2hvph6PDeaDh6K2ZOtUPN2q3Rw+cc5s2fjM52Q9Fp7EosuPwNIbevwH2aMzrZDUPPWYexNYrd7gssWzsfveynwfXIa2zYvhA9B42FleNItLawRJc5R7GdrZfaftZGICTqORYtckP34U7o0X84+jj2RnEKQZwUgghCBgpBJEmSpKqlECQhO4ag+rNvYef999hx8SzG2g7GiOQQ8Q7zXVqhxoj98GV/ZgLRLIc6yF1uIFzORsPv0mHYNdKDbvlusF2xF+5L1mHG8Y8IfXgc1jW1kM/aD/78vkKubIZ5YRFqTb2OYL4s+OQyWE29iF3MfxsUbonBR2K48oCgyahg2Ah2+9ifv6WyHyZEzbREY+ej8OVCVQQm9a0ALd3sHYK2b9+OfPnycT6LihKso4gUgpQgMTERERERnN+/f+dLCU2BQhBJkiSpaikESch+IUgPZbq6or/rLNiNGY76VbvCgQ8RwSeWoH6B+ugbHJ28TsildWheQATTYaHY/eIFxnc14sLOLn55kv9i9cx20DfuB1fxXaWocIxqrwftJp7wjmTrxGDFjEkYefJfhJz3g5X1XMy5m7R+wMlFqG9QAh3Xi2eok99PyMV1aFHGGk7Xk37m1ts0AsYG2TsEbd60ifs8sEY9fSpYRxEpBCnBhw8fki/+vn37+FJCU6AQRJIkSapaCkESsvtwuJ3bNsD1DBsivmHT/G7Q17fAiLNSw+Mib2Bocz3kqjcTS568ghMTTgrY7mQCkWS7rCGXN6BFwXxoNO8et+3gsCXoYdMHZXTqwIYNVU8uY+gYb6zhAhFrNDYFbcCgcZNgO2kYqusao/3aj/wy+f1sX9oHeau7Yn6EeH3NeCaIQlAmQiFIs6EQRJIkSapaCkESsv3ECJEx2MM/i7NqWmvo6EiGqSXJBpLc0K4zFYsiUg9BoS/ewL1faeg08sDyJ28xy3kSXC9cwIAGeihpH4IdBxegz/ykgBT65A4mDeuC5k57sYENNXc2oqXhn0IQc2xTW0G//Fh4hLM/J0khSCKFICVISEjAmTNnOD8zF5HQLCgEkSRJkqqWQpCEbB+CpNy5YRiKaBVBa+8XkvKoxxjd0QhFbHfBX+AOjbQBu11QRlQTvVZ6w8rtJAKZ8LJmdgfoF7VDf6dJGHMu6Q7TthW2KFR+DGY94tflQlCRP94J2rakNwx1W2DQYUlASwpB7SkEMVIIIggZKASRJEmSqpZCkITsFIKCAiehvG5u1J15K3myghQ+PAaburmRp90yrBYPW7sbiM6VmsJ2D/u8zksunOS19hMMQaFPLmFgQx3kLmWLsfyQupCLa9EsvxbydF6NDfwdpzUz20O3QFeMOME+e/QGy5cNQTlRfrRe+Qq+N14yAU1+PyEXN8K8qBYKtZ4Fz2vstl9hoVsH5NNvicFh0neu1CeFoGzO//73P/j7+3O+efOGLyU0BQpBJEmSpKqlECQhe4SgT1i3ZydG9K0DXWbfeRs5wnHNaWxKfj5HYsDhtehQuyyq2i2E86p1GNC/L7ovvcqEkU9Ys2MRzCswHfZSlhjk90AgSH3DunndUXFYKHYml73ApD6V0XTho+S7T8HHVqGZqQjahSqjclMrWK/0QafSWjCs2guDfO/BR3A//2L9unGoXlgL2vnLoUzt9ug2pj9M9U3RyGUPVt8X7099UgjK5rx79y754u9nGpLQLCgEkSRJkqqWQpAE5UPQBcGOdZYw8iXW7D2MOQEXseGe1CQJinjvAdZxd2okZYFnr2L1Hak6jHuuX8fCgHNYf5et+w2+x0/C69z7FHWE3HPjOub7HcayS58QcuMGlp56Izi0Tx3qGRhQCMrOUAjSbCgEkSRJkqqWQpCEtIYgVoPcuTFvd5hgx5rMHgZH/su1++lTpwTbWFEpBGUiv3//RmxsLCf7ziBCs6AQRJIkSapaCkESlAlBFSpWwrAZiwQ712T2cOmBC9DW1kZEeLhgGyvqkcOH0bNHD86XL14I1lFECkEEIQOFIJIkSVLVUgiSoEwI8pg9G6blKiLkWaxgB5vM+ra3HgiLTp0F2zczpBCkBF+/foWzszPnw4cP+VJCU6AQRJIkSapaCkESlAlBTyMjoaevj5lb9wp2sMms7fYbz6Grp4fg4GDB9s0MKQQpATsjnHgs4oEDB/hSQlOgEESSJEmqWgpBEpQJQayjRo1GgcJFsOr4DcGONpk13XnvHarUaYB69Rvg8z//CLZtZkghSAk+fvyIypUrc54+fZovJTQFCkEkSZKkqqUQJEHZEMTOEmdnZ8cFoRWHLwt2uMms5Y5bL7kAVMusdromMcgIKQQRhAwUgkiSJElVSyFIgrIhiJUNQv0HDODWb9SuM2b7hmJvVBqnpCYz1H3Pv8P7yBVY9BvKvReoTt16WS4AsVIIIggZKASRJEmSqpZCkIT0hCCxZ06fxgAmDOkbGHDbMsqbD/kKFMrW5i1QULA8O5k3fwHkypWLa5N2HTogMCCAC65CbZjZUghSgn/++Qfm5uacly9f5ksJTYFCEEmSJKlqKQRJUEUIEvssKgonjh/Hnj17EBQYmK2tWbMmtmzeLLgsOxkWFob79+8LtpcqZKfFvnnjBuenjx8F6ygihSAleP36NffLy3ro0CG+lNAUKASRJEmSqpZCkARVhiBNcdfOndw1cXJyElxOSqSXpWYi0dHR3IN5rLdv3+ZLCU2BQhBJkiSpaikESaAQJG/dunW5a2JkZITIJ08E65BJUggiiAyCQhBJkiSpaikESaAQlFLxXSCxdDfoz1IIIogMgkIQSZIkqWopBEmgEJRS8V0gsXQ36M9SCMpE2GeC2A8o6/Hjx/lSQlOgEESSJEmqWgpBEigESZS9CySW7galLoWgTOTly5fJF//IkSN8KaEpUAgiSZIkVS2FIAkUgiT26N4dJiYmyf1KVvbnKlWqcLOgCa2T06UQlIl8+/YNS5cu5Xz+/DlfSmgKFIJIkiRJVUshSAKFIHmHDh3KXZPq1asLLiclUggiiAyCQhBJkiSpaikESaAQJC+FIMWlEJSJ/Pz5ExEREZw/fvzgSwlNgUIQSZIkqWopBEmgECQvhSDFpRCUibBD4MQXn30rLqFZUAgiSZIkVS2FIAkUguSlEKS4ly9dwswZMzjfvnkjWEcRKQQpAYUgzYZCEEmSJKlqKQRJoBAkL4Ug9UshSAni4+Nx5swZzpiYGL6U0BQoBJEkSZKqlkKQBApB8lIIUr8UgghCBgpBGW/0xpEInTUI+9Li7CG4ss1DcHvZ0Q9rBmP1gJYY3bkRRvZsBc+p4/FFoB7Ju9MJJz0EPhepOdseF7do0OdlwygcXzAcp1a74avAcjLrSyFIAoUgeSkEqV8KQUrw/ft3+Pv7c75//54vJTQFCkEZ7wunmsjL/LFn/+ArbK7CGD1rhuD2spuflnVBlyIiiJLPTxdNB4xEtEBdMslobwu00pf6PPxN7bywnzJdcFvZz1m4NKgccmtpo2RHO3wQrENmdSkESaAQJC+FIPVLIUgJnj17lvxFe+zYMb6U0BQoBGW8b6a1RLta5WCewrKoUUjE/F5pI08xE7SUXW5WA54LZwpuL3s5A3u7FYYOc565S9WA+6je2OxkiYAVmhHwMsrkEKSdG5WqyHw2hDSrgulzNOHzwkohSBOkECSBQpC8FILUL4UgJaAQpNlQCMosJ2NNc33m9yoXqlra45NgHQ0wxAXejfSY89RFpxETaAicgiaHIP3SmLlklmAdzZVCkCZIIUgChSB5KQSpXwpBSvD792/ExsZyJiYm8qWEpkAhKLPMISEo2AmL6+lCS9sAdhM1ZbhWxkshiEJQdpdCkAQKQfJSCFLMz//8g7Fjx2It8xl68vixYB1FpRBEEDJQCMosFQlBHoiY2wvz7Tthi5c73q6wwfROZujduhHcRg3G7V0p675cNQhrBrXA8NY10K1hFXRpUguDureF94yxeJ1iu3PxcVlfLGS2u3K2M76EuOGCWxe4dq6D3s1qwKZjc8xxGor7ASnXSXbXBBwc3xETOpqhZ6Mq6NqsNob26oh1c5zwLrneLFxz74J5g1ujTxkdJgTponGHDvC0t8AClxF4Kb29nU4IHdse4zrUYrZXDb1aN8TEodY4uVmo8//3ayI+t9UeLvgSNBEnXTpifAczWDatiYE9OmCrl/hhew88W2qLhVYN0LdZdVi1bYKpY+xxL7XzZt05HvvGtMdYZns9G1eDVZvGcBthh0u+spMSpKXt5FVFCEpPG3/1d8KBce0xvmMdWDLn2aste579cXXHHyZfSFM7Jhm9xRHbBrfAMOYz26N5HYzqb4WjG6f/PQQp3A6s6WsLUjkpBEmgECQvhSDFDAwI4K4T66pVqwTrKCqFICX4zFw4Z2dnzidPnvClhKZAISizVCQEzcRpu1Iw0NJDJ7su6G+ikzy5gChPNaxcx3f4QibjwIAqKG+gnfzHMoXaBjDrZIN7wZJtJ03WkAs1evTEslZFkVdbdh0RStZuh8O+knVYv24aAOfqRtDh64m0tRnF6xigTsc+uLmHrTsdfu2NpCZDkGjUoCvucsfigecLu6BvWQOBetrQK1QOTm5O+Cy1f0WuSdK56aB2966Y3aggDGTOTZTHFM4zXXBhTB3UMJS5Zto6KNe8B64FSe8zyZde3WCXfKzseTPy/29Usjo8502WmslMwbZLRVWEIOXa2AORczqgu4me4HnmL1MHq5bL3tFTph1n4+G0lmhVKJfMOtowKFYFI1qbMNdOOASlrR1Y09cWpHJSCJJAIUheCkF/N5Lpc5uYmHDXqWTJknj39q1gPUWlEKQET58+5RqA9cSJE3wpoSlQCMos0xKCRDAuaAS9gqaw6dUW03s3QK+eNngSwtbxwFO3Bqigk9S5HzpyMK5snobPQdPwdPVQrLeqiFK5mN9fnaJwmiOZjCCpg6yNvHlzI3eekrDp3wcHl47HTe9h2DGoNsyMmHCgrYeWg0ZJzeLmjqCuRaCnnQsVm3VE4HJXvGPCTLTfBBwZ2xhN8jLr5CqAAa6TmE4o0zFe44jTi/phYnV2OJw+ug4ZhlOLRuD0yknc+X5Z0wvWRUVc8CjfsBU2LZiAF7unIdJ7EJZ2Kg1j5rhFhqaY6DEl+bgVuSbic8tjqM90wMtg+HA7HPcej2sLrDGxTt6kSRpKFkUlw7xo3rkrdi8ai5srHeA/qCaq6LPnUAgOU6dK7ZM9VivYFGePVQ9Vm7eDn9dEvNszE89X22NllzIoyhyrTpHq8F4lDiyKtF3qqi4Epa2Nv/j0hKVx0nnWaNkB/kuY8wychkdeNnBrUJBpe2Z71drihNQdJGXa8cuqbujKTgzCBOf6Hbpi38rJeLdzEi5Ns4BNWUkAkw1BaW8H1vS1BamcFIIkUAiSl0LQn71z+zZ3bcT9b9/t2wXrpUUKQUrw6tUrVK5cmfPy5ct8KaEpUAjKLNMSgpg/grrFMWamwDtTQlywskluiLR10cRuBD7KLg8ej0V1dZlOpS5aDxmbPDFBUgeZ2S4TWmycnGUmLJiOI31Kcvs1qt8Ft8V3kIKGYmK5XMyxlMK0xbIzkc3AUZtSKMn8gbUYMExyPsFO3P65Z4Jcpe8gTMPe7sbQYzq6BWq1wynZIUkhE+FvkbQ8b20LXObuLrH+/ZpIzq0QBrm6plj+ab456uiyXypMkOvYN2UHOGQS1rUwZK6VDur3dZC6c8GHP+ZYjOt3xqVAqXW49Vz5YxWhfCc7vODKFWi7P5gcgph2NS5aGBVK/Nla3frJtX3a23gaQnskXXPjBl1wReZu2NetthhSgmn/XAXhMG0aX65MO05DCLcfEYo37cHfOZT4ybsLOhVg79DJhiBl2oE1fW1BKieFIAkUguQVh6BKlSrh3r17f/RPz8J8+vhRcB1Znz97Jrg+65vXrwXXkZWtJ7Q+6/PnzwXXkfXjhw+C67M+uH8fIXv3YqSjI3Lnzs1dH1bnCRME66dVCkEEIQOFoMwybSHIoHIbnBIYosV2ZiNWDEOIux2Ob5wtsHwGdlnkgw7TsW/EhCRxx17cQdYp1giBAs9EvJtcD0W1k/Z7WrzfPSMxi7uro4d6nXvjgq/Q/mRMLQQFDMLokmyHOh/6TZQdvpRktHdHmHN3Q8rD01v2Dkvq1yT53IwbYNdOmeW+VuhjyGxTp4jAe5hm4mifEsy2RajQbaAkVOzqh+HsnQ6m8z9M5g6R2M8LW6EuE650ijTATm6firRd6iaHIGb9v6uNgm1t5IaNpbmNAwdjnCnbJvlh7+YuV589p0tTumGVSz+cXMdfO2XakdnP+FLsOgUw1F1oP+7w71iAu2OXIgQp1Q6s6WsLUjkpBEmgECSvOATp6OhI/S0Ttl27doLbYA1/9EhwHVknurgIrs+6e9cuwXVk3eHrK7g+65QpUwTXkZUNQkLrs3bq1ClFXfbaeMyezU2OIFQ/rVIIIggZKARllmkJQUwnt7U13gjWkXGPOx6tcsTh6TZYM7wdnNpXRR3uuYuUdzfEHWQjMwtclXpWSOzHmU1QPhfTaazQCseTO42zcW1EVRRnyrlnMQwLoEHDunAabInAxS5SkyJImUoI+rKmCzoYMNsxqITFa1IJU4H2cCrNdJa182CQm3jdv18T8bnlrtkBF2XuMnzfbQ1bNgSlCFZixdsWoVzXAckhKHp5BzRnO/G6JTBoaC+sGy/gqCZoynX0y2D2Mna7SrSdlMkhSNcEE6aPxc3V4//orU3yoSCtbfxlXVd04ttkyVoFAi6jMu0o2U9lLF0ntI4HHoysgjwyIUi5dmDXTV9bkMpJIUgChSB5KQTJKw5BhoaG6N27N65cvixYT1kpBCnBmzdvYG5uznnr1i2+lNAUKARllml7JqhUJ/nhThJn4PaMznBsbIrSRqLkh75ZRbpGKJ7/DyEoeZKClH6c1QQV+A7yMel/OQ+ZjLARDdGmhMxD8Nq5YFymEobZD8Bt6RnHUglB0V7t0ITtrBrWwkY/qfrS7hmF2eydJy19WI1348v/fk2Sz016KJ9YcQgyqICFq2Q74MIh6NOcFqiuI3Wuf5J79oodKqho2wmrumeCFG/j6CXtkgKEoVnqbSKjMu3I7idpndT382FSXRTWThmClGsHdt30tQWpnBSCJFAIklccgsqUKcOFkD95/NgxwW2wspMFCK0j69UrVwTXZ40IDxdcR1Y2cAmtz3rt6lXBdWT905C6M6dP4/y5c3+skx4pBCkBOyOc+Ivl5MmTfCmhKVAIyizTGII690+l8zYTV0bVQDkd9iF3EQqWKI0urRrCydYCK10H4/ymKfDvmFd1IUjsHjdcm2MNr76N0ad2cRRnJxRg/05o66JaJzs8Fj9rk1oIWt4BLdiOcO7q8NmSyuxcQQ6YUpmdXtsAthPFz6D8/Zr88dyUCEGf55nDTJcJlEblMW6UJXzG/klrHOWGJSrSdqmbKSFIfKfFsAbWbJOvL6Qy7Ri9gh8el5vZz1bhdd5NrIMCMiFIuXZg101fW5DKSSFIAoUgeWliBPVLIUgJPnz4ADs7O86HDx/ypYSmQCEos1RNCPq6pQ9suVm2DGFuPRgRssO/Qt2x0Zy9a6ODeioKQV+CZso8ZD8Xn7Y4YotlORhrszOBVcWK9XznNrVngrZbwToPE5x0S2LyAtlJFnh9rWGXn6mjUwwT5gr8q76aQtCXtV1hwQ3fqoD5cuukZvYLQd+39UJvrk1KYZqXUJt44NGMLpg6sAvWzJmQ9BlQph13WKMf+7OuCdwWCq0zG9eGVICRzHA45dqBlUJQZkghSAKFIHkpBKlfCkEEIQOFoMxSNSHo05zmqMYOEUrtX+J3DsJY9nkMJgTVsR6WrhAU7d0NfcrmR8Gi9bFD5v1BnEwnuhf3vI3U8xiphSBu1jp2KmQmnPUZJnn4PVkPPHauDRPmGHQK18P25P2pPwR9D3LEtCrsnQw9mA8alXwNpX0zqznqFS6EWjWbY9d2th2yYQgKHoN5tXW5mQbNB42WmhqdN2QSNpjnYdpMFy3Fy5VpxxBnrGySNAtfQyaYy10bZpuL67PBXWZiBKXagS2nEJQZUgiSQCFIXgpB6pdCEEHIQCEos1RNCEp+JkPXFG4LpUIGK9Np3W9dFgW5l2TmQjWp/SgTgr7vHgJndops7dxo2XcInqV4v8pM3BxTC2XYzm6JxggSz8yVWghi7yo410Fppr4oT2k4TXNJ0el+u7wnbExycR3y2lb2eJu8LBNCUOhs3BxVDcXYY81XDq4zJ6Y41uiN/TGuMttpZ46pdW884q6L6kLQtIXueLdr2l/9EJjyfNLexrNxb1xNlGTbsHAVeC6aIjXb22w8nNoEdQy0mWtQBUtXi/elTDt64NnURqjMvtsqb1lMmuUqdWfRHWeGV+e2Jz9FtjLtwEohKDOkECSBQpC8FILUL4UgJYiMjISRkRHnuXPn+FJCU6AQlFmq6JmgoJGYXTPpX83zlKoGF4fe8HOzwfoRbTCkTmHkzWWEGmULcO9WKdqub/LMWEqFIKbz+sC1PqroanP/Gl++phkcrVpjinVzDGtmipI6TAdZpxD6jB0v6ZymGoLYZc7w72qCAuwQOp18aNisIZytW2Fc+0qozg6xYs7bpG4HhO2QWidTQhDjnvHY2K4Y8vDHWr9pQzjZtMbELjXRxFiHu/5GZepjS/KsaioKQcx5KGre5r0QJbUNpdqYPc/2/HkaFkHbtk3hamOOUeZlUIZ7kWwBdHMYmfJ8lGlHJqAH9TRNWsegIFq0ZvbDfI7sGxRFwVz6qFWhKAxkngniTHM7sFIIygwpBEmgECQvhSD1SyFICR4/fpz8JXv69Gm+lNAUKARlllOwuV0hmBQugKZ9hyofghg/rbLGqJr5mU6jVKdYW4Qi5WvAzXUMomY15f7VXc+0Cfbyd2iUC0Gs03HDrQ2sK+eHkdT+RLkMUK56bUx1G5tyquw/hSBWpjN8dGQTdCptCL3k7Wkjf8kKGDzADtdk3/OTWSGIdc9EHHRojA6lUh6ryKgwWnWwwL710s+3ZNMQxLrHBaFDG6BVCQPoiM9TOxeKlKuGiS6jhaeYTnM7MgZPwpERzPU0ZUN80joioyKwsOqLiy71YZrXEBW7Cly7NLUDK4WgzJBCkAQKQfJSCFK/FIKU4MuXL1i6dCnn69ev+VJCU6AQpCGGTMW9RQOxw9kKGyfaYZ+XM96IhwOFTEPURhc82DgJr+UmTlDW2XizcSzOLByKsIUjcX3jVLnJEtLmDESuHokT8x1w3scVb1R2nBlh0rGenD8Ux7zG4vEu4RnOsr3M5+aRtyOOzx+OM6smKRgelGhH9t1WK5n9MJ+jO75pef4ph7RDNpVCkAQKQfJSCFK/FIIIQgYKQSRJkqSqpRAkgUKQvBSC1C+FICX477//EBERwRkXF8eXEpoChSCSJElS1VIIkkAhSF4KQeqXQpAShIeHcx9U1rNnz/KlhKZAIYgkSZJUtRSCJFAIkpdCkPqlEKQEFII0GwpBJEmSpKqlECSBQpC8FILUL4UgJWCHwJ05c4bz33//5UsJTYFCEEmSJKlqKQRJoBAkL4Ug9UshiCBkoBBEkiRJqloKQRIoBMlLIUj9UghSgq9fv8Lf35/z06dPfCmhKVAIIkmSJFUthSAJFILkpRCkfikEKcHDhw+5DyrruXPn+FJCU6AQRJIkSapaCkESKATJSyFI/VIIUgIKQZoNhSCSJElS1VIIkkAhSF4KQeqXQpAS/P79G7GxsZy/fv3iSwlNgUIQSZIkqWopBEmgECQvhSD1SyGIIGSgEESSJEmqWgpBElQRgv759AlvXr/WGAcNGsRdk6pVqwouz65+/PBBsP2yghSClOD9+/dwdnbmfP78OV9KaAoUgkiSJElVSyFIQnpC0A5fXzRv1pRbn8weVq5UEQsXLsS7t28F2zSzpBCkBPfv309u2AsXLvClhKZAIYgkSZJUtRSCJCgbgqa4uUFfXw9jh3fH2QOLcPvMKjKLe+XoMsybPhjFjAvBomPHLBWEKAQpwZMnT1C5cmXOmzdv8qWEpkAhiCRJklS1FIIkKBOCdu3cCT09XYQFzcV/70PJbGbk9U0oXaoYxo9jfg8E2jczpBBEEDJQCCJJkiRVLYUgCcqEoFbmLTHSvotgB5vMHu5YOxEF8ufD61evBNtY3VIIIggZKASRJEmSqpZCkIS0hqDP//wDHR0dHA+eJ9i5JrOHsS/3cO1+/NgxwXZWtxSClODZs2cwNzfnfPDgAV9KaAoUgkiSJElVSyFIQlpDEDsTHFuffb5EqHNNZh8NDPRwYP9+wXZWtxSClODevXvcLyPrpUuX+FJCU6AQRJIkSapaCkESlA1BV49RCMru5s6tTyEoO/Pq1SvY2dlxspMkEJoFhSCSJElS1VIIkkAhKOdKIYggsjAUgkiSJElVSyFIAoWgnCuFIILIwlAIIkmSJFUthSAJmRWC4u54Yv9+P8FlckZuwCmfwRjdszu2XgtRvo6UX28sxA7PAZgxaSi2H9yK7wJ1ZP12dTH2bZ+GPdumYm+gN96+kanzeA1O+01HMLN8D1MvNGQNPkgvz2JSCMrmsC9LNTIy4rx27RpfSmgKFIJIkiRJVUshSELmhKBg3PKoi3KWToiSDRICxoVvxLm5TVBIvy6WXghWuo7YrydHwcqsCRYf9MU/l90wskFdLDi6R7BuSkPw6aIHFluWQm69ErBbsQbfZOs8WYb5rQugzRQvfFDg3DJTCkHZnDt37nC/jKyXL1/mSwlNgUIQSZIkqWopBEnIlBAU6YlJtXQhyt8QK87/ObCI/RLQE1UM/xxwFKnz3/sgnHGuiAIdHBHBhZRt2NA9PyyXbkGcYH15vx3pj2a5tSAqXBse+/1llgfi8KjaGOcfIFOe9VQkBL15/VqwXNVSCFKCf/75B0uXLuV89+4dX0poChSCSJIkSVVLIUiC+kNQCF6ut0B3q+aopW+AllOXy99NEfBLoCWq/S0EKVCHDSlho8ogd4Xu2B/JHEtgX5iXqguv44rcCUqSDUEWXTrAtqIujGp0QeAN6eF3gTg6rgFcdgdKlWVN/xSCwo4c4V4/s3LlSsHlqpZCEEHIQCGIJEmSVLUUgiSoPQS98sEKy7bYcGkp5jQxgIGZNU4+E6j3ZjvOLrXBOEdLjBvUCW6jW6C8bMBRpI6cIXi+siWM9UvAondD1DVrBo+dG/HlwlTMdeiMEYN7YMaiWbgXKbRukmwI6jx4Cp4GWqNZfh2U7uKI68nnIBCC3mzD6WW2mDjeGi4DW8J64CDsOc/eKQrGiyOT4eXYAl3GuWD/jNYwr2OG8ZvW45m4fPwMvDjmDNceNdGwUVO4bVmHb0+8sWNcc7Q0qwyLYRNwU+j6KaBQCDp18iTat2/PtXFaPhfplUKQEsTHxyMiIoLzf//7H19KaAoUgkiSJElVSyFIgrpD0JdQW/R0mI73TAC479kA+fVMMdZvp0y9QFyZ0ww9Js1PmnzgzSb49ysBLT3pgKNIHQHf+OLS4laorKeNwu3scSlcvMwfu/sXhZm9O57+5VmepBDkjs/MMVxf0ASl9fKgmdMcvOHWkw1BO3FyshlajvLAW/ZnJhAdGFkBecq3w/bLQXh/wxMzG+vAoEIjTPeZgcAV47Hv7E58uOWJ6Y10UKBFZ8yZORZ7drtjftei0DFpgvEufbF0vQcO+3RHE8MCsF29VeGhfNJKh6AL58+jW9euyeFH2tq1a3N26NAB48aNw/lz5+Q+F+mVQpAS3Lp1K7mRrl69ypcSmgKFIJIkSVLVUgiSoN4Q5IvAIU3gcTiI+znuxnjYGOugtO0kvJaqF3d9PKzLtsTmu5KymO2dUTq3JOAoUkfOcC+s6lsTFmMnY9uIcjAo3BArzvF1X63EkoFW2H//7zPLSUIQ8zMTvgLty8FI3xSDfNbhu0wI+n7OARYFKmHqgaRzZmXPu3cBbVQZMZvZhi82djdAkb6T8Q+/PMnt2NBNH0VsXJNnmIvZ3gmm+rUw/xR/zC+XYU4jfdSZsBBfk9dTXHEI2r59O3LlypXcn1ZENjCFP3ok+BlRRgpBSkAhSLOhEESSJEmqWgpBEtQZgr5fHIXebaywa+8CnNrHOgtzO+aDTpHmWC81rfXrlS1RuEYfnHguWVf2eR9F6qTw1RpssiqB4p1G4v4r5lgujEJPY11UGuCG52+CcGeFNRYE+sqvJ2CKEMQasRAeLfJBr2g9LDjkKxWCQvDUqzFy69fHistS4erVKixuqQOdBv1x8eUObOphgGL9p0i2xylfLnd+zDl5tTJA9dGe+JK8nuJK3wm6xvSh+9nZCYahAf37o3+/fmjTujUMDAySy0sUL44b16/LfUaUkUKQEsTGxuLMmTOc375940sJTYFCEEmSJKlqKQRJUF8ICsL5yY1g4+YM3zUTk902wxyV9YxgMXc1/66eYNyeaYbcFXrgkNSzLikDgCJ1JOWsMQGWqK6XG90XbuSHjgXgvHstFDCsgKETe2Gspxc+yayTmnIhiC07Nx62ZXWQx6wrZg6qz4cg5jhnmUFPpybmn5SeeIENOPoQ1bXFueeqCEFz0x2CxN6+dQv29vbQ1dXl2tnT0zPF8ufPnmH06NHJQcjKyirFcmWlEEQQMlAIIkmSJFUthSAJagtBD6djrEVfnJJ9iP/ZQkyto4vcjfrj0sukspcrmiOfXg14Ss3YJg4AS/gAoEgdicG441EHRloGaDdrleTFqE8WYlbTPDCo3hMHk58NYnzpi9cPUx8WJxSCuFnv/HuhYV5t6BmWxgR+ONynrRYw1cqHfj5Sd5nebIZPJwOY9nfHB4Gwk2TmhCCx7Hs4Rzo6YomXl+Bydta4OR4e+PTxo+DytEohSAliYmLg7+/PGR0dzZcSmgKFIJIkSVLVUgiSoJ4QFIwHC5uh8zSh6bD34MrUGsitZ4pR25OCQtz1CbAtpoUSbQfg6B02jOzAmal1UUS/JuafSgo9itSR9u2GDiito43ctbphz/WkEPHhhDNcrMxgVkgXpVv2xLqgVXh6wxshU3phxTH5bYj9us8aLfq6Ctw52o1LHg1RUt8UTuKJESLnw72ePgp1GIG7r/h6EdMwsnI1TA9lZ4jz5cJO4b6TZUKQLzZ0N4CxnZtUCOqJqmzIE79b6ZUPF4Kqjpqj8hAk9vM//wiWq1oKQQQhA4UgkiRJUtVSCJKQ4SHozXZcXGuNzqb6qG41GP4HNkruxDB+Ojsb3v3Kw0CLCShVWsJjnRdevAlGxOaeaF5EC6L8xVGzTl2MGd8WVfSLoPvk6bj7hF1XkTpSPl+FrQMqoLBIGwbGpdCwbmW06++AE3f24OmuAehZMTdEzHmJ9I3R3tUDrwVniAvAo/1TsKJfBeQp0wSz13jgpuxECq/Ww29A3RRTZMecGIehdYqh6YCh2LpuPOYMMse4ld5MuAnAg93DYFtRC1qlm2FewHr+2gTgYSBTXo45HrPO2BC6EV9veWH7yBow0iqKXlNn4Ha4H277MsdtogWjxj2w7ZDiL3sVq0gIUpcUgghCBukQxBqzqD1JkiRJpkvp7xUKQeqbGCGtfru3CicDPXHlRgDimP+/fMFPrqOvSB2JQXhxegGOBMzD5as7U9Z7uglX93ri7DnfFCFNKZ9sxfMI2XDkiwcH5+LI3mV4/Dj1oXbqlEIQQWRhZEMQSZIkSarSb75j8fv3b/5bJ+eRlUMQmbEaGOhRCCKIrMp/D08ixrMlSZIkSarc6LnNET27EeLvHuG/dXIeaQ1B7DMi7DTKJ0PmC3asyezhj9d7uXY/duyYYDur2+wRghLf4eImV/Tr4469rxOTyuJvYvVgC/TwOIqkSarjcNF7MGwcvXDoyQ+uhCAIgiAIIqsRd347YhZ1wO//xfIlOYu0hiDWpk0bw8mxp2DnmsweBmyegrx5jPDyxQvBNlbUjx8+4NbNm5yvXr4UrKOIWT8EJUQiYFRjNHHwxb2vfBlD4jt/OJjVQN81j5DAlzGV8fLoLFjU6YkVV6QqEwRBEARBZBF+Jybg67ZR+Pn2IV+Ss1AmBG3dupV7nuTcwcWCHWwya/vq3nZUqmDKTYEt1L5p8dHDh9znh9Vvxw7BOoqYxUNQAh76dEOZNgtxQ+GbO4l4uWswKtZ1w8kvfBFBEARBEEQWI+HpFfz8EMn/lHNQJgSxQ+LGjB4NI8PcmOpsg9tnViHq5mY8u7WFzMI+urwOqxaOROlSxdCieTO8fvVKsH3TYs4IQV8OYWxFUwwJ+sQXsMTjnq8bhg/qB1v75TgvFI7ir8KjUX509XkidZeIIAiCIAgi6xAbNA1fN9rj969ffEnOQJkQxMoGIR8fH9SqVSO5E0xmfUuWKI5p06apJACx5ogQ9G2/I0wL9sfOz3yBmPibmNdSB3oWKxAhmHLicH6qGfQ6euMJpSCCIAiCILIgv779g2jPFoi/FcqX5AyUDUFi2TD0/PlzrjOsKfa1sYFIJELNmjUFl2dXn0ZGcrP7CbWjsrLb1fAQFI8bcxtD1HQebsfzRWJ+HINLVT3UnHwKqY2Si95hC4OC9gjKlo8G/cD1TUPRpmY1VDNriBatzNHCvAN6DZ+GjWdeMFdGWWJxdb09Wteohqo1LbHslnhLCQgPckXXutVg1nEs/B8ovweCIAiCIBTnf5d2IjbAjf8pZ5DeEKSJDho0iLsmZmZmgstJiTkgBMXi4GhTaHVbi1f8hHBiEiKWo6OBMQbtiuZL5PlxaAxKaXXCqmcyK2cXYvdhhIkeKjuFcUEv/uMdBLp3gIlRdQzfHZU8zC8ufB+2H5L8LE3M9d3wPfUOKa7At2AMK2kM48IGqD/tvCRExl3EzEalMND/A19AEARBEERGww6F+/3zP/z35CJfovlQCJKXQpDi5ogQFDLcGFo9N+EdXyLm445+KGTQEcuFx8Jx/Agbh3Ja7bD8sbrHw33DndCNWLdunYDrsX7jJmzdEYDQE9fwNDr1Y0u4vwTtDAvBdvt7voQh4SGWW+SFXv3puBDHFiTi9eHJaFG6EcbteZriDlHMVW9YVamBgVsfgKvKw263Y52xmOlQAQbVJiBMfKcsejcGl+6BNdk1NBIEQRBENuXn6weInlk/x8wWRyFIXgpBipsDQlAcTrlWgVa7ZTLP/fzA8YnVoFdjEk7+Yca4b0H2yC+ywma139iIx9srm+FQxwB6ta3h6u6Goa2Kw6hKW9jY9oZFHROUazMcLmN6oUGFGugy0Re3BGaxY4NeYcPWWHRHOtrE4Zx7HegZ9cJG8fuSkICXByejZZmGGBsUyQWhmCve6FW5Guw23OHfoSSB3W7pPpvwZN8oVNArB4fgpEkn4s66o37TmbgknZgIgiAIglALsXtn4991A3LEJAkUguSlEKS4OSAEJeLVhh7QKzcOYSnCzntssjKEXudVePL2FJbO3Iz7co+wJCB8aVto1XDD2bR26n+8w73T++C/eT3WrFqJld7e8OZduekYnip0YykOF6bXR8G+2/GZCW2nJpuhlMPepEASF4HNdvVhueY+YqNC4dq8KKqN3It3KW7A/MAxl2owqDJB5tx/4PTkWtAxssKmFCsw1+qIO1qVaQDHRbNgWakK+q69CfnHodjt1kTTWZcR9zUMTtX0ULK/H94mJiDCuxMqOoYIrEMQBEEQREbz63sMYha2w89X9/gSzYVCkLwUghQ3B4QgJsqEL0d7g0bwuCadcn7ggmdL5NfKi1KN+sFL9pkXlsS32GadD+XHHZG7E5I6PxAe5I4e1QtCxF9YWfWqOsuEktSIx415zVFIKAQxfDswGpXqT8V5JqB9DXNCNWNrbHkrdRbx9+DVxhCF7HyR4kZW4ismAOaHTjUXHJM7jgQ8XmuJolo6qDI6FNKTiifDbrddJYwMZaPOD5x1rwu9wr2x6flH7BpUBpbrnstfS4IgCIIg1MLv/+KQ+O97/Pqh2S86pBAkL4UgxX354gVmTJ/Oee3qVcE6iqjmEBSP9w/P4+T5cHyW6W1/eXYD58/fxstYvoCF6fT79zdFzYknkPLPwQ98eP4Sn+XuACWREO4Ni0LNMO+aoreBEvE80BE1DfVQzsIVa0Mv4sGzt/jIXKDPUkbHxApOQCDPn0NQ/HVPNCtsB99o5lgjV6FLQXMskJ4C74Mv7AoZos3iu9zwNjEJketgWZgJOeMOy1wPIObyClhWqoreziPQolQ9OAY8SbEuB7vdUkzo4YfSxd+ch5aGBdFz1W641m2KWZdpLBxBEARBZCZftzggNmQ2/5NmQiFIXgpB6ld9IYgJNIent0cpAx2IRAXRwuMCkvLOD9zfNhx1C4kgKmiNzdJ3RBgSHm+DXZWmmHxU4I6PELF34GNZGS1nnZMLCqny9Rhca+nBsIEbTqQ+4Vwa+HMIYp+/qWsyFHuYgh+nJ6N2MVtslxre9iNsAqoYVIXzUanbPYkvEOhQFXomvbDuYcooxgWgyjXQf+NtZh+JeHlwEhOEGmBMUMrJEmLDnFCjpSeuiwsTIrC6a37kbdgMDSo4Yh+NhSMIgiCITOXnm6RJEhJe3uFLNA8KQfJSCFK/agpBiXgb6Ij2Dn549PoInM30oFd9Io79SMSHMDc0Ld8Ko+e4ot+QNbgrd/uCySi3t2J0h3awX3QAj8RJQo5EvDq3Ac5dW8F6/jEkzxugAD9OTkYtPUO087qn4J2ev/GnEJSAh8ssYNprPZ7+eIytdhVRc0woPiQfbzyuezaHQSE7+PJj4eJeX8Cm0c1QvLQFZoW9ShEGuQBUxQyDt97jQyVLAl6ETkSzUo0xPuQZf07xuDqnKYoP2i0VDplr5muH4swvXV7L9XiRhmtGEARBEETG8H3/PHzbMY7/SfOgECQvhSD1q747QQlf8YVLAbEIm1AFeobtsOjEboyo2xQuB16n6NgLEv8Otw4dw51UQ1ACnp47iPNRqVZIBXYChl7Iq1MBYw9Kj8VLD/IhqLi1N85dOI3QdU6waNoXi3buwBzrBmg4wAdXku8+JeLdiQXoVl4HWnnLob55a7Rq2QxNzLtj2MzNOPtCdrgaEyLP+GDR7ofMXmRJwLPQRZi/h50xjtnusXnoymzXoIYN1lyWukaf98GxgiEaz7qSYiptgiAIgiAyh9//i8Xv+B/49fUjX6JZUAiSl0KQ+s2UiRE++g9EUZ2CqFS1Lnr73Ja6g5EZJODBkg4wYj547IfvTyo/MUItGBarhErFDFHKcgUuXdoM+7pFUXmgL9T+GiOCIAiCILI8CVFXEePZEr9iP/MlmgOFIHkpBKnfTAlBCfe90M5IhPw91yIq04dgJeDRso4w0imJDmPnYcGCBam6aNVBBUOL8HC4mIhNsClTDY7Bb5Hw4QSmtyqP9gsu0bTUBEEQBEGkgH1f0NcNgxG7ZzpfojlQCJKXQpD6zZQQ9OmUOxobimDYeiGkJ0XLLD779UchUVEM9FfVv7ak9kxQHG4uagPjxjNwPhaIveSBFsXbY/FNGohGEARBEERKfr5/zE2S8PNdOF+iGVAIkpdCkOK+ffMGW7Zs4Xxw/75gHUVUewhKiPTH0MYdYdnRBDrsNNEpXoSTGol4dSUE/r5bsXnTPtxW8a2ThAdL0TGvHiqO2seEFlXwh4kRPu7DqKom6L0xEgmJHxDiWAWl7bbjGU1KQBAEQRCEDD/fReD3z//wO1Fzxs+rKgR9+vgR+0NDsW7tWizx8srWsiGodevW6Nmzp+Dy7CLbFqH79nFtI9RmqjB7viz18znMs6iFPmvv4aF3ZxjpVMTYg2yiScSnl6/+MCwsEe9uBsClqR5ElSco+FxOGkiMwlY7U+jka4KJB17ws6mlh3hc82yWIgSZDg9Onh3uAXPuxrWY82DfE/RwJboWqw3nMM0b80sQBEEQRPr5unk44i748j9lf9Ibgp5GRmL27NkoVdoUevp6KF3OFFVrVUY1MzIzZduAbQu2Tdi2YduIbSuhNkyP2SoEfQwYg9Y24zCqYwXUcgjAMyZlxJ2fjvoGeqg0xBc3z/tgQLvRCJZ5R1AKEsKxvKMhCtn5QqGbR2kk/rEfhtXMC5GBKRpZOcJ15lzMV/qZoFiEOVVBfqmJEQpabsBL8elFh2FCLWNYLL/HxKVvuDS/LUybuuMU5aDM57+PzAd2N0mSJElmjLF3+S8cxYm/cwjRc5tpzGxx6QlBYWFhyJMnD9fZnjBrBI7eC8DFFwfJLCTbJhNmO3JtxLYV22ZCbams2SgE/cBRl2rQE+VHrf5rcE38kpq4W1jZvRR0tETIV7U3vM59QsoIFIunx33gNqQ3unWzhuP0cbAobIC2XvdVcKdGmPgXJ7HG1Q4d6lVE8fyG0BGJki8yq2Kzw8XgtJclauRn1jEqDBMTExTNpwMtvTJo4xLAh6gERG2zQ2mjQijJLDcpXhAGzHUwaTUDYZo5G2b24ctp4Azz0SZJkiTJjDDKnf/CUZzfv39zd4NiA9O+blZE2RCUFICMYOvQC+ef7RfsgJNZR7aN7Ji2MjIyUmkQylZ3gr69jcCDx+/kp8L+8R6PHzzBe7kFMbji3QsVK1li/sFwfP4WBd/B5aAlqgbXE6oeC0cQUlAIIkmSJDNSJUIQS+Lnl0j89IybNS67o0wIunb1KheA2E71hecHBDvdZNaTbat+I6y4IMS2oVDbptXs+UyQgnw55Y76RhUxPFD8EtU4XJrVEHrGA+H/iSsgiIxBOgRdKAzcbkOSJEmS6fN67XSHIJaEqGv4d40dN1FCdkaZEDRs2DDUa1qbAlA2lG2z+s1qY9jQoYJtm1Y1NwQlvsOOAcWgV38GLiTPHP0ZOwcZw7DDMoRn1Fg4gmCRDkE3mwCPR5AkSZJk+nzQRyUh6Hf8D8R4WSDu7Ga+JHuS1hD0/PlzGBoaYuHG6YKdbDLry7Yd24ZsWwq1cVrU3BAUewBjy+mg/LhDkuFzMaEYXVEPtdxOgwbDERkKhSCSJElS1aooBLH89+A4oj2aIPHLW74k+5HWELR0yRKUMCmGc1Ghgh1sMuvLtl0J0+LwWrxYsI3TouaGoOjtsDXSQePZV5D0HtUfuLXUAoW1jDF4VzRXQhAZBoUgkiRJUtWqMASxkyT878Ze/P4v+75oPa0haNTIkejQo5Vg55rMPrJtONLRUbCN06JG3wkaU06EkgN24HXCF9zznwyHEX1R17A23M98xM2NM7HyQtIbdwhC5VAIIkmSJFWtCkMQCxuEYgOn4L/H5/mS7EVaQ1C/fv1g2b+zYMeazD72GtgFtra2gm2cFt+9fYs9e/ZwRoSHC9ZRxCw4McJXXFzYESVFBihcujZ6zNyPpy93YygTjIyK10Q39xBEJt0iIgjVQyGIJEmSVLUqDkEsP0744MuybvidkP06RWkNQWzH2WpgV8GONZl97DO4G2xsbATbODPMgiGIJQExryLx/JPkVm/855d49kFuLm2CUC0UgkiSJElVmwEhiB0O92VpF8SdWseXZB8yJwQFIzB4FhZtmo6FG2dgxeEdOCdYj3U/Dh2Zh8UbmbqbZmLpvs04JVgvpWdvrsKiudbo3GcY1kUI1+GMXAv3AeZw8N8tvJw51qC9s/ljTTrexduWIySKWRblh+1+M7GIK2ePbwaWBK5DmOB2lPThZqzxHoI+3XtgxgXVvY+JQpAGcPbs2eSxiOHh4XwpoRFQCCJJkiRVbQaEIJaEyMv47+FJ/qfsQ6bdCYr0w/rJdZGX2bdebVusfSRQh/WJN0Y1MYCWqDDaLVyPk0J1BDx51Qceg0pDt0IveIeLy/dh/1W/lIEryh/rV4zFktMhkjJZI/2x1aM5iujooLS1C/zvSoURJqQsHFoReiIjNHRdjNA/BS4lPHdnMzbMaop8+vXgdGqfYB1lpBCkAbDBx87OjvPt2+w7OwshAIUgkiRJUtVmUAhi+fnmAb4fWMA9J5RdyMzhcKf22sGsaH7k0TFGl5XbBe8GHd1uiRrG+SDSr4GRh/4QVOTch10z6yG3dAi6MxODxk/Dcbm6f/fUvv6oqW+AZh4bcFZm2eFl5jDSNYHN9uAU5arypJ8lyhhSCEqNHBuCCA2GQhBJkiSpajMwBCXGvEG0R2P89+gUX5L1ycwQdDp0IJr26QOryjowbDYE257I1InaiunWzWAzuBb09c0wJixtIWj37PqSEBTlj9Xja8LUdqpSIYg9VjOD3Gg+d7NcWAtb3poJQaVguyODQpB/L5SjEJQqFIIIzYNCEEmSJKlqMzAEscSd3oAvSzpnm2mzMz0EDXDH5hn1kEfHBL0370y5/PBQtLadCJ+pZlIhaA927xyH4fadYbNgadLzQU82YdWiAbDp3xXOAXv49aVC0P0NWDi+Kcrk0YJhnTYYNK4fpgYH4iJTvnJxf/Ro3xYTDv85YKU5BN1fjblTbWE/ugtatWqKPnMXIpR9johbHoKg7cNhO8gSAxy7w8KiOazmLMQB8fIoP6xb1Bc2w3sx59QZgxxbwoRCUKrk2BB0/vx5GBkZcT558oQvJTQCCkEkSZKkqs3gEPT753+IDZmNX98+8SVZm8wPQdNw7IY7upfKhfwdRmNXpHh5AJaPaIwBO3djR4oQxCyL2g43C30Ukr6rc9cVHfMYoP1y8QQHMneCXuzEtG65UVh6nUc7EbSqE0oYVIVDqGIhqNnstTh6PxDHpAxdwg6HkwpBkRsww7oB7Laxzx/tx741HWGqXwTtFicNpTt7ciSaFa6F0UeS9nkiqC+qGlbF8H3sz8HYMrM5WjovxCFu8oWtmNu3JLR0s2YIevH8OcaPH8958eJFwTqKSCFICU6fPs398rJGRETwpYRGQCGIJEmSVLUZHIJY2GeC4s5sQuI/z/mSrEtWCEHHX+zFBpdq0NetgAG7g7hl5y5PRNeuw+EbuU8+BLGBpqtByhD00B1dC6YxBDGe2tcP1Y0UDUG6qNjNBiNcB6ZwqFUl6EmFoFN7bFG9bCs4bfHAsu2Ma2xQ31Abhu1HIYgJNufOT8EAa3t4303a9omTDmhiUAg91u/BuYtOaFfGHNOvS/Z9YlNXFDPImiFIc1+Wmg14/fo1li5dyhkTE8OXEhoBhSCSJElS1aohBLF82+WKr1sds/wkCVkjBDHB4MIEtC+aC8aWE7E3KgTbpjVHtxXbcI4JMxkZgk6HDkDN5BC0H3u3OWDACCv04x04fyGOcPUUHQ63H0FzGyFP+bZwWi+eVjvJxbt8cCR5SNxe7A1yxqhxNhg6qRNq6+ZHt7VBOLDUHPmrW8NHapa5rPxMEIUggsgIKASRJEmSqlZNISjx3/eIntMU8feP8iVZk6wSgi6+CIT3iHLQNawBxz0e6NehN7zvs+XqDEH7sG1KLeTmO/WshhbjsI8JLoqHIOZ4p9WBYbGOmHcvZb1kn6zH3GGN0NZpNoLYsHPHBe0N2RC0K+lcy1tiOXfMSVII+jM5NgTFxcVxw+BYExIS+FJCI6AQRJIkSapaNYUglv9d9EPcBV/+p6xJ1glBB3H2xEg0y58LRStXQMvpq3CaKxcKQQGY2TM3Cti4qzgEScplVTwEHcThle1QSLcoOq3YKlV3F1asnoG9TKDav6INipTvgWXidyNxISgfdydo/5IWzLZqYqTURA0Ugv5Mjg1Bp06dSr74NDGChkEhiCRJklS1agxBLIlf3iL+9gH+p6xHZoagU0E2MOszGUeTy/yxcEBJ6BZrjRmXxS8kDcFm12rQ06+K4clBJRjLhpaEXqOB2MQGicjt8FlggeoG+mi1UPy+If49QeUtsYILQQGY1csQhp3YOzt7sffCNm6SgtOh/VGDCUGSbQt7KtAGVfQN0HjmWpn3BO3HvkXNYahTHL23JM1Md+76VPQsq4NcxrVgu3Qh/M5vwLplVugzdzUT7JKOS69AY7ic2MvU34VtyyxQUWQEi5U7sf/ASHQoqoUirQdi1TX2GuzEOrd6KKBfC6OTQ2D6pRCkAVAI0mAoBJEkSZKqVs0hKOHZdUTPaoCfH7JmHyVzQtAeBOyZCmebCshdqikcVs6F782k0HP6gD06jZqLY2y9J5uxfv1YWNU1ZI7RANUHjMGCvZu5abGP7xmEegW1kLd0BdRo2hpjfZ3QpZAuSvcYghVn9iLs+GyM6FgEWgbVYbNiKRN89mHH7IYoIMqHUg1aYISfH07f8IbnmDrIr5UPjcZNwzb+GISO1cW2IvRF2ijQqBsmrlmCvewsdlE7sG37RNi3KYJcWjoo220gZvitRRgbjHYMQLPS+hCxfVRRHlS0Gott/J2fs8fGoo2pNkSFTFG9aQsMXjkelqW1YFS1OUb6bsbudZYwK6wFUf7iqFC7HvqMaYcy+kXQ0mUm/LkhgumXQpAG8O+//+LMmTOc7NA4QoOgEESSJEmqWjWHIJbYQHd83TQ0S06SkJl3gtLriUveWLVzCQLvMeElahu2h25KCk+pGoQ9BxZj8/mkGegy2nP3NmHTzrlYdWgrTsgsO33dB2sDliHoLhu89uPQ8cXYeC5QsvyGD3z85mPLpT04d2MNNp/aJTcMLz1SCCKIrAyFIJIkSVLVZkIIYt8Z9O+qPtxkCVmN7ByCSOWlEKQBfPjwAf7+/pyxsbF8KaERZHYIum6DC1s6I2yTgFu64IRvD1zdb4tP9wTWzTCHI/pwD+4YTu4bgETBOuo3/rQljjLHdDTAFrECyzXKLPm5kDetbZJl2/CGDS6mdr2F3NwVt84OF96WCvxyvBfO+/fA5SMDM/3379tJK+5YLh1W/G9BauvkqN/hTAhBLOxdoP+eXMSvuG98SdaAQlDOlEKQBnDixInki//06VO+lNAIMjkExYc0QiuDpM9W6mpDr3BBdO7fDCfPZFzHS+JQXBlfDAbMfkvbWai/s3LTGvsmt8CJmynLPy0sj3zM9TBq3RyRD1Iu0zSz5udC3lTbJJu1Yfz+xmj71+stpcgQw1cNEdxW+s3k378UDsNt1xIwZI7FxKYDvgnWkTX1dXLS73CmhaBfifh3tQ2+H1zIl2QNKATlTFUVgv759AlPIyM53797J1hHESkEKQGFIA0mq4QgHX1UrVsSbRpLWwLm9Yuidil96InYz5828puZ4fCFjO7wZl4nLPGiBVxr6kOUpwJ8r6ZcliNDUJb6XMgr1CbZsQ2TQ5BIH1XqyF5vAZuUxpxtQwW3lX4pBGmEmRSCWBJe3Eb0zPr4+fYRX5L5UAjKmaoqBKlKCkFKkJiYyA2DY83qb2Um0khWCUEGJeG1f5hgHTwaiOuelVErtzbTScuFJmN74odQPRWaWcNxEo83Rzcj5noIdKATLtrgxh5L3DjcH3FS5VnSRwNw17czwrb0xNPbAsv/Ylb9XMgq1CbZsQ2TQ5BBMXjuSeV6q03NDUHZ6nc4vWZiCGKJDZ6JH2HL+Z8yHwpBOVMKQQSRlckOIYhzIEJs80GH+RIxqFUPFzP5WZCM8k8d6Gzl7U4YV5oJJ0al4XM87XdosvPnIju2IYWg1FRtCMpRZnII+v3zP/xOiM8yd4MoBOVMKQRpAOy7gZydnTmjo6P5UkIjyDYhaATezSuHvMyXiKhgZQTcYsuG4+X2VlgyuQn8AwfhS2g7eNhVQN+e1THDozMeSz+PccMGYZ4N4dKnAqzalYV1j2pwn9IWF88K7XM4nq1viumOdeG5vDfiZZfz23Jmt9W+LGwsmf3N6Ijbl1Pv7Cdet8Hx+Q0x0aYS+jDrWPeqgRkzLXDvinidYXiwphm8xlZEbX32ehTFEOfG8JrSGmfPJdWJ3dsOyyY3xtIlPfFZatucaTo/8baaYP1mWyQ8GoCbK5vC3a4y+lqUQz8bMyxc1A1RStzBSVZtIUjocyFlGq8L582+OLGgESbZVIRV29LoaVERjsMbYetWG3yVqZuyTdTXhqpuv/SGIPHxbNzCHM+9fri4pBEmMufRu2N5DLFvhJ1B4gkChuNDcHssc6iG/syx2jC/B7PmdpW5W5gyBH27YoUgNzMM7VIWlp0rY9y4ljh8cLBUfQGV+B2NP2eJXZNqw7FnOfTqVAnjJrTGudND/hho0rqOUPunty1jT3TDZqeasO/MXB+LShg1qjkOH7FH/LFOWOPaCF5LLPFFYL0MN5NDEEv8rVDEzG+NXz++8CWZR3YKQeeuLcCSPbsEl2WqkWvhPsAcDv67hZdnQSkEaQDHjh3jfnlZo6Ki+FJCI8g2IWg4ImeUghHzGdQpWQ37uE6BuLOki67jm8G+XK6kF6YxivKXxTqu8z0cH3c2Q/8qesnLJGpDr1gJuK60kRmakvq/RH8ObI6BydvShkjEyP+/UdlyWLxDdgap4Xi7rREsy+kKrpO/ciVsCGEfMB+CvTaG8sdoUAILQpKui/DzBMqcn3hbItSyN4dPj4LIxz1bIyVzjCZNG+DU5ZTrKazaQpDQ5yKpXJnrknjGApMbGHB3lti6XFuJr41ID/Vs2uDRfUn9lG2ivjZUdfulNwQlHU8u1B3cHPPb5oWBzPGI8hXF5I12uOlZCbXyMJ8LqWXsUMYKnVvifvJdPMnvn0m7ahhSI+m6SLeFKG9h2HtaCd5lUeZ39PnaOmhbTCRz/bVhUKo0xvQ0TjqWFIFGmXWE21/5thyOKB8zmBuLz0+iTuHiGD+6MqrraiFvh5Z49Uh2XTWYBUIQN0nC2n74HjqXL8k8sk8I2ocdM+qhZA9nhEQJLWfdh/1X/WTepyNUlh4Fthflj/UrxmLJ6RCpellbCkEawMWLF1G5cmXO169f86WERpBdQtCd3ljakn0rtDYKtmuBp9yXuqSzVNTYAHrGRdFvWH14jKgK6yHt8JqpkxDWCnamSc+MVGxTFzv8++LTLXu83d8Zq22LoagO06HKUxRTtgyU2p9wCEoIa41+pdht6aJ6pwYICrLD1/tD8fFwV6zrXxzFmG3plCiHtQcl55Hw//bOAzyKan/DuIQQEsoNSO+9dwiEEnpvoQWS0AkgUgNIF0QpIiLSEUEQDYqIVAERkCIKCoJ0RAT0DzbACxhujNHvP7OZTTabk5BsDnuS2e99nve51zPtt7OzzPkyM2f2NEaPQrHLVO3ghw8/1JY50x83PmiB55vmgKfWwclZqzY+P611hPcG4tgbtdBM3x9aeHh5Qxd8sak7bhhXN0QdKOc+n21d2rZ9s8I719MIGdsM+7f0xKUdnfDBhLKokSO25qYTuiW+EpYSXRWChMeFs/ulH3b0yaV9JxaUa+OH7dtCcF/bz1EneuHQ7Epo4KutzyM7BiwKjetEJ/xOXPcdyv7+5ISgp5AjexZ45iuAZ6a1wtEdQTgX0RyTG3hrofIpeJfwRfns3ggIaYBt7/fApZ2dsWV8KVT00vdrTgxfYbu6Y/v9afVoehQsjImvdMEPJwfhjwOdsWFwIRS27pP8mBkxIEEdTv1GdzVEl3z6Mp6o26MB9u7sg/snQ3F6ZT2ElI//44V9oHFmGV3R9+/sd/lomz/aPa1Py4p6QQ2xd5dRw6r66FPRVoN7hyCdv386h7sv+uOfB78bLWrIMCHowjz0qawdP7nqIvzANvE8Z2ag3+hp+PRxbWlR9voUyRBESHomHYWg+VsH4tHZQfGeGYi7R3rh6zVNMKON8RfSLDkxZImtE2rXWcqaB2PfdPwLb3/s7v8feGodDN96dfCFw3DFuBiCD3v5Wqfn9K+HM3F/4ReFoH7Y2Sd2Xfma+OP0Gdu8htZ1xU4v07s1frO2D8DeAbHrz9fUH986PK8Sc7QVhha3aB3AHBi+MrYDmNzzJIk7UM5+vvh16Z36kPm9EW2/3JWBODTsaet+9QlogCtGZy1pB+P0gpoI718FY2z2LQW/XFoHLUsutOtl1645flp7/PKYTlnajgsn98vZjphcQfs+subDC5scRz4biCPD86NwsTxoH94pbgAGUafWFd+h3O/PLgRZPJCvSE6ULZ6cuVC9X+sEV0jj68mJQYtCEvwOI9+tgVr67YGZtHAZ1NL6xwnbNFwMxbr2eojNjLojOhtXu+J/1xavPBjn+LvWlvkoOHafFejQFDfj1ufcb3SPsf8LtW6ES3a/Ed3IHf7ooAcNbXp8oHFmmVhFx4tz32VfbAnKYQ2Xpbo0wzWH7zhqd2P0KKjXwBCk88+f9xDzxy3rlSFVZIwQtAM7lrVF4y6NUCarF2pOWozPHOe5FoFlo6ugSO+p8QFF1JYWZa9PobJCkD40dpOAAKt79+wRzpMSGYIIsSe9hCC9E/A4LV5oFNbW7oQe31nyql4LXzg+FH+6HcaU0EOGN/otdAxIseqdP+tf7bXO9itxVxwEIehUazyj/7VeCyzDloufR3i0sSZqa509j4IV8NFJre1Me4wrrW8/O8KW9BMsMwinlzbE6ldb49inse9cSVUH2unPF78uj6KVsN2x4615f3F55NfChVf12vjysYMNDMSuPrGDEwi/NwftO4BJmabjwtn9cq4r5tTObP2re53gZjj1xeOvYIk6ta74DuV+f7HbsIYg2z5N1qeQu2sLYedevyVxq37s203Dl03RO7u2nBaIx6xxfLfQIBwZlsf6Wyvbr60RrOJ/fzmaiEPco021UU/7rVl8S2Gd8byVs7/R8WX0/a8ts0z0G+2nhY3s1rARF2icWcZQdLw49V1+3QphesjJmgeTN4iGKh+IfYP08MwQpPNvzN/4Y0Fb/O/4JqPF9WSIEHR1JcI7t8DUQ4swzM8LnlWDsPyS/fTVeHm0P4prv2fvGs3Qb1QIpm5anLhtywc4dm4ZXpraGwOebY8mTfzR46WXsd16e902bN8+GaPDGqPhiBewc89E9O9cDRWq10CnlxZgj2gb1vWtxpJXQtG5ZXOM3W3cDnftHaycH4zQEUEICQlAi5ABePnAh0a9j9mO7TM9YWWFIL4sVSFfffUVArT0qfvzzz8brcQUpOsQ9BQ8vLKiaOl8aNelGhav7IF7CZaP7yzl7tzcYZp+a4w/2mbT1pOtKBbvTaJDe6YDJpTVOjSWbBi0xNZBSxyCorbWRYBep9bpGDSlCdbNEzirChpZO6sFMOejwYje1xAdjO0v+SRlt4SlpgPt/OezW5d/PZwVdDIfvlkFZTy0jleVmjj62E50GL5f3xRvzGqMVTZnVke7vHon7WkMmtQovl3zzeXdEn1XjqbluHB+v4Th3IziKKR9bn0bluzZ4desHCZMCMD2Tb0TDYqgK+rUuuI7lPv92YWgrHnx3KoeuLi7ZzIG4fKhhCHDVo+3nx++cbgygm+ao48eghyCeKzxv7XSfRxDUGbUGm67OuTgKS0E5NeOryy5MckIAWn9jS7dJ9r/YfhhZjHk0OqzBRpnlrFNEx0vznyXUZvroIH2OSy+ZbHR4RizeefVssijhSeGoFiiTm7FvTmN8c9DNYM7ZYQQdODDYAQMmqEFhG1474W6yJ6lCHqu2+Qw30ZM65gNeRJcpXFo04LM8z3rIHi9/kzPDmxb0RpFtHNBi1dW47D233uPz0OYnwey12uBPmOGY+7GeZg3tjZ8vathxB494Ai2cXEjNi9ti4JeFTBkuz7PJiwfVw01hr6Ej/XpWiB6bUhpeJdsiZmH9dv4UrIdY91PUIYgE7B37964nX/9+nWjlZiCdHw7XNS5JDqFcdqHlYS35+jaOgqizmic57phTp3M2rGdBUHz+hjtiUNQ5PrqqJIl9jfwWLP4YsJ6rf4P66Dh47bvYGo60M5/PnFnzF6941U2FZ3oREp8Jii1x0Va9ov+fqPDz1dEy+IOgxRYLMhXriiGTWyLK3YjdYn2oyu+Q9nfX1wIStMzQVo9otvvbCEoWxG89rHjd5dcCPJAy0k9HG4PM7QFQ4/seHZVbDB09jf6uP3/YFE5LUzEBxpnlrG1i743Z77LyLeqooL2WT2KVMLOJEaOe7iqMkppyzEExfLvP//g/ur++HP3q0aLa0n/IehdzO3nj6HbP7L+95EvxqLl0x7I33MSdiaY7/Eh6OCHvVGpRBOMeWsWXntbc0UQans/Be+Ww7HZejXoXUzt4IVcXSfEBhjdr0dr/+ZnR/vlm5PYhrbebSGo5BMbgg7vH4r6/ymLAVti69U98sUYNP/PUyg++EVjucdtx2h7gjIEmYBvv/0WwcHBVn//Xe3DhUQyGWVgBKGJw4r99Khtxrp9SmKN7ZYZR892wYxq+i1Qnuiz0PHB7Pj1PnqnBmrot9/kKIRxswKwZnYyzmmOI5+Fxf9lOntJrP3cYbtJmKoOtNOfT34nOpEuHCLb0bTslzjP9cG5dc2xeEQl9PbPjUL6w/v6CciSGZWDW8V1KkX70RXfoezvT1oIEtXjdAjKjCbjkxjYQTu+RhfXrwT9B+Peir0S5NRvdLufMYiFtv+Pivf//YVl4WsfgpxYxtYu2k/OfJdxnzVPeXwguIVO98GS8ijAK0EJiPnjNv796xH++d8Do8V1pPcQdPizEWjepAdmb5qPFZt1Z+GZFjmROU8jTPl8h928jwtBO7D5JT9kL9UcY96YjpffjPeV95ZjjzUEafNr4SS3/TouTEYHXy+0XKQPfy0OQZ9t74Mq1hC0BR/NrY+sWetg3GG72q6uwKiGHshcqw/WfKe3PW47RtsTlCGIkPSMiUMQjjVFsP5wftanMS1CdN+85pfN0TeP3pnKjefets2TeL3RnzRAe+stMIXx6q4kOquOft4EvXLq28+HFz4QbT8MN1b7Y+Y4f6xd18v6F+/UdKCd/3zyO9GJVBiC0rJfdKPPDkp09SHycCAiBhVEPq1TacleHCv2x34m0X50xXco+/tLnyHoKZSJa0tozIFG6Oyj7RNtna8btxE69Rs93hz99H2bNS+ef0+0/8NwblJh+Gi1xAUaZ5YxFO0nZ77LmEON0VUfNc6rIOYaw68ndDDOWN9VxBDkyP++3oL/Lu1pfU7IlaTvEPQRVo+vh5YTxuOFJc/FOXNKUxTL4oP6M1ficNy8jwtB2/DOtBrwzt8ac87apjsqCidTUhGCNmvbqI4sHlXxbILb2vT1ZoWlRjDeuGz77+S2Y1vuyckQREh6xswh6HxPLGqsDxWbGXWGdUrQGYk1DD8uKIsiWgfDo0B5bIp7D4dgvWcD8UIN/a/xWdBsfDfhcwr31lRDnQI5Ud2vGrYe0zphWidggb8HLBYPNBMNVXwxFG9r/9Dr9dmGv4050BCdjA702w7vBUnUWXL688nvRCdSZQhycr9E7WiI3uV9kLtIeXyQ6J0smlqo7Wl9tiX2eRK9TbQfXfEdyv7+0mcI0uqvWB0HHV+Aq+2TKzOLW5938aphN1iAM7/Ri73xRqvY0enqPdtZ+G/I4gD91ki7QOPMMoai/eTUd3k+CEuaatuwZIb/yC6Jj5tvumBmzdj3pjEEJeSfRw9w7+UW+N+xd4wW15CuQ9DpGejZqjdW2A+CoHvpFQyongVZ6/bFWuuVFV1RQEnYtntJC+TOkg9tX19n956f9/D6sufxUZJXglITgrbik9VtkS9TTrRZ/G7c9GPX1mNiay/k6z0Ne61tDEGOMgQ5waeffgofHx+rP/74o9FKTIGZQ5DWWbqhdSCLax0IS878mLCyd4Ig8sfWxggpabF2JGqGdbB7q7povWG4NKsECujryl0QU94MTrCuqINtMK56bMenWOdmuGHtdITh+7mlrO808ShQDAve72s3+lcYri+vglrZntLWVwzLdhudQ62j3cPa0c6PmZviBzLQTdxZcvbzye9EJ3Ygft7fC9/tC8FdwfofZ9qOCyf3yzcdMFEfItuSFU2f7eAwjPcgXJxdGiX177J4JewwRkAT7kcXfIeyvz/7EPTCe/1w/9SAx/rgTHygSbaeNIQg/RbAhmFtcdNunXc/8EdgYS1ge2RD4Kwgu6t2zv1Gf1lRyfp8jcW3IKauCbFbXz+cmFbC+t0kHO7amWViFe0n575LrYaVlVApi/bvR468GPZyN9w15o853g3reudFLi0k6h0mhqDERJ3eibsvNbQOne0q0m8I2ob3ZjdEg0lLEg+HfWMr3ppYBVmzFEH3NRFG2ybM7OoN77ajsO3aR/jo8/U47ND24faR6FzCA5nzVkXvhS/j3aOrseq1bujx0jJjG+9iSnsv+AZNsQsnsbeptVi4MYlt6CEoFJW1EBSmD4xw4WUMqJkVOVs8g4irxjq+fR7dylbCoA9tI8Q9bjtG2xOUIcgE7NmzJ27n37x502glpsDUIUjzfG982CcvfPXbmLL4oF6bipg4vCbG9SiKKvptSNqyRRrXxeHj9sslsd5zPbGhe27ksK7LG3VbV8SE4bUwObQUGhTS/+r6FHzKlUeE/Uhw54KwoYexTPZcaNW1CqYMr4FRnQqgpPUlkdkROL1r/DbOdMBz5bSOuLYuS3ZvlClZEDPeSeYWKKc+n/xOtGzTdlxoOrVfwvDDa+VRMas23ZIFZfxKY+SQWpgxvBqGtcmLwnqHM0tO9J7TM65zLdyPLvgOZX9/cSFIW2dKzdm2CX42lk+2HqdDkAVlKuVBfg8PlPIrg9HDamJCz6KorO8Tiwcqd22KC46fzZnf6MVQ7ByYL3b/Z8uBJp3132g1DGnqi9weWVC9si+8HJ/vcWYZTdF+cvq7vNgHn44sZH0BrP6sWv4y+dG8fn5Uelr7nFmyo0Et/V1GWghqE4BbDEEJ+PfffxH9w9f4NybaaHnypMsQdO1drFnSCw2KZEXJLgPx4pa37G5724VPPn0R43uVtr4TK2u5AAxd+hq2X9uGd16oi/9YcqJonUYY+q4+Apxj2wZ89E4fNCimXzHVj8/sKNNtJNZf1Nf7Id5/dzBaFtd+O5XbYfKHa3H4u7VYPr8dymvHcvFuQ7H4s/cTbeOzk4sxe0QN5MqUE36jpmH9qR3Yv3sMOlUvgKrBYZixdAyGhTZF0MKlRuBJyXZsYenJyRBkAvQR4RYuXGj1wQPXP1BIniBmD0G6WoflyAtV0KGsFzy1TkvsPyRPIVeJwhgc3grnHN9rktx6zwVj//RKaFsm4bosOXKiec962Ltf8IzAud74ZHIFNC/mCQ/bMhYL8lYogSmvdncYLjoM15bXQLsSxryWrOj9cuz7Y5LsLKX688nvRMs2zSFI14n9ol/BurCkFoKr+8AnbhntJOrhidJ1ymDmkh4JhsoW78cn/x3K/v7SVwgajK/Ctc59rmzoMKUzPp1UFnXzWmI7U9p83vnzoU94G1xN6nM58xs9H4rPZlRG21L6laLYZSw5cqH9kBb45tXyKOqbFeX6OPxb4MQyov2Utu+yH84sqoPBAU+jVJ4s8Mnpg+oNy2POsh44PaUIfLT15uzQNO4qkUtNxyFI59+//8Ifrwci+toJo+XJ4kwI6tq3vbBjrd7N+HDnK1h71H6EtcRtR86uwZqNL2Hpx+uwP26+lCrahsCrEXjvozlYvOl1bD5rP4BD+rB7Pzkh6MrlyyhatKjVLVu2COdJiQxBhNijOAS51oG4tbsrPo/ojJN7QnDP8X0mcQ7Cl6PyWTtmJUOSClex6zr2bkcc3dwDP55y7NwJvNgfN3YE4ui7nXFiV2gS6zW8OAh3joTg9olBwhdoik3p53M3ndkvYbj3WQ+c2NgRh9/rivOf9U80WMJj5XcozZiTwfh2U2cc/bAnbicxJHRinfiNnuuHGzu136j2nX/3RQrDtzPLPHG1IDk2P7z1f8NCk/kD0ZM0nYcgncg9C/HH4q5aIHryV4RSG4IGDRyIdt1bCDvWNOPYvkcLDBwwQPgdq5AhyAn+/PNPXNZSqO7ff7t2RBXyhHGrEJRSB+HgkNzwzGRBxYHtESmch1JKFXmuOxa3y4cmTcth8fuCK1u2wRssHmgz1f65KReaAULQv1F/4t4rrfHoyFtGy5MjtSFo4sSJqFG3irBjTTOONfyqYuJzzwm/YxUyBDnBxx9/bP3x6nJgBJPBEGTnIPzx9UBEn+iCl+rpI3ZpHYgpijoQlFKapP2wJSg7PDI9hVIdGuPbBO8K6oeTs8qgvP4Mm29RLE7pcOGyzQAhSCf6h5OIuXPT+pzQkyS1IejLL76wzr9x/0ph55qmfzceWGX9Dr/QvkvRd6xChiAnYAgyMQxB8VpfwJgZnnrnQTvWLbmL4nVnn0ehlNInaOQWf3QoEDtwRq7iBRDYuTwGdS2NDtWyxw4MkTUneszslnj4bFeZQUKQTtS3e/Bw8zTjv54MqQ1Buo0DGlsfrBd1sGn6V//uGjVuJPxuVckQ5AR3797FoUOHrEZFRRmtxBQwBMUZc6gVJjUrCL9KT6Nx84pYsKY3rwJRStOt93a0xOzuhVFZHxHO+ofKp2DJ5oNazSph4Zu91DwLZDMDhaCY36/j7sy6+Ou7Y0aLfJwJQfooYFm9smLlh68IO9k0/bpqywLrd/fOhg3C71aVDEGE2MMQRCmlGdvzA/DLZ73w3achuGP3/ialZqAQpBO5bwn+WNQZ/0Y/mT/0OhOC7vz+O8aMGYNs3tmsnWpRZ5umP/XvytvHG2NGj7Z+h6LvVpUMQU5w69YtREREWH306JHRSkwBQxCllFLZZrAQ9O9fj/DoyLp0FYJ07YNQ2LhQ7Pz6HWHHm6pX/27070j/rtJjANJlCHKCnTt3Wn+8uv/3f/9ntBJTwBBEKaVUthksBOnoQejBexMQc/cno0UezoYgXb0zvXTpUlSoWB4eHpnRslMAhozvg7Ezh2LsC8OoSrXvQP8u9O9E/27070j/rmQHoEsXLyJXrlxWN73/vnCelMgQ5AQMQSaGIYhSSqlsM2II+vdfPNgwEg/eGW20yCMtIcim3rHeuWMHgoOD0aRpAGrVrknTgfp3oX8n+nfzpK7+XLxwIa4frj8rJponJTIEOUFMTAwePnxo9UkPI0lcDEMQpZRS2WbAEKQTc/dH3H3BD39d0s6NEpERgtLiTz/+iI0REcJpKtWHj77+ww/CaSp9a+3adHU7G0MQIU8ChiBKKaWyzaAhSOd/xzch+uqXxn/JQXUIeumll1CiRAn8+ssvwumq7NihAyZNmiScpsorly/D29sbmz/4QDhdhQxBCrmg7fzw8HCr9+/fN1qJKWAIopRSKtsMHIJ0or8/jv99udH4r7SjMgTpV4Hy5s1r3f6yZcuE86jw8KFD1pr051yuX78unEeFo0ePttZVp3btdHM1iCFIITt27Ijb+bdv3zZaiSlgCKKUUirbDB6C/rpyFHdfqIuYOzeNlrShMgTpV4Fsfbj0dDWoXbt2cXVNnTpVOI+rtV0FstWVXq4GMQQp5ODBgyhXrpzV3377zWglpoAhiFJKqWwzeAjSeRARjvvrh0t5FlpVCLK/CmQzPVwNOnjgQIKafH19cfPGDeG8rtR2FchmerkaxBBEyJOAIYhSSqlsTRCCYv64ZR0yWx86O62oCkH2V4FspoerQa1bt05U14znnxfO6yodrwLZTA9XgxiCCHkSMARRSimVrQlCkM6/f/+FR0fewr9RkUaLc6gIQaKrQDZVXg36dN8+YU158uTBjzdvCpdxhY5XgWymh6tBDEEK+fzzzxEQEGD13r17RisxBQxBlFJKZWuiEPTH610QuXeR0eIcKkLQ2W+/tW5P19aBrlq1qvW/P9i0SbiMK4x4912MCw9H2bJl4+oKDQnBiBEjcOizz4TLuMI3V6+27htPT8+4umz774bigRuuff89OnXsaFUPkaJ5UiJDkBNs27Yt7oD45ZdfjFZiChiCKKWUytYkIUhHHynu7sw6+PvX742W1KNyYARdi8Vi3f4r8+cLp6tw3bp1cX3L769eFc6jwsGDB1trqlChgnB6RpYhyAlOnjxpfRuuLofINhkMQZRSSmVrohCk83DL84g6s8v4r9TDEJTYt956Ky4E6Vc6RPOokCFIjNuGIGJiGIIopZTK1mQhSB8hLubuj4i+9pXRkjpUh6A6deqgZs2aeGPVKuF0Fa5dsyYuBP1w7ZpwHhXqw3Xr+yqwSxfh9IwsQxAh9tiHoK+qABdDKKWU0rT5bVtThSCdR59vwL35LfHP/x4YLSlHdQjKnDmzdfsvv/yycLoK17z5ZlwISk8vSx04cKC1pkqVKgmnZ2QZgpxg586d8PHxscr3BJkM+xBEKaWUytYkIejfmGj8d0l3/PnxK0ZLylEdgmwP+8+ZM0c4XYWr33gjLgSpHnjA3n79+llr0geREE3PyDIEOcFHH30Ud6D++uuvRisxBQxBlFJKn6QmCUE60ddPWkeL+zc6ymhJGapDULZs2azbf+nFF4XTVajfmmfrW6aHF6Xa7BMaaq2pRo0awukZWYYgJ7h69SoWLlxo9dGjtL80jKQjIq8AV56hlFJKn4y/bzVOOObg35i/EX3tBP795x+j5fGoDkH6nTz69l+YOVM4XYWrVq6MC0H6O41E86gwuHdva021atYUTleh/nLbb06dspqWdykxBBFCCCGEEKf459F93JvdGFGnthktj0d1CNI7v/r2J4wfL5yuwhXLl8eFoP/76SfhPCrU38Wj19SoUSPhdBXyZakKefjwIS5fvmw1JibGaCWEEEIIcT/+9+V7uDevmTUQpQTVIahixYrW7Q8YMEA4XYXL7ULQ7Vu3hPOo0N/f31pTYGCgcLoKGYIUsmXLlrid//vvvxuthBBCCCHuh35L3H+X98L/TnxgtCSP6hDUuHFj6/Y7duggnK7CZcuWxfUtf759WziPCsuWLWutKWzwYOF0FTIEKYQhiBBCCCEkHn2o7H//eoSYP24ZLUmjOgR17drVuv369esLp6twyZIlcX3LX37+WTiPCn19fa01TZ48WThdhQxBCtGDz6FDh6z+/fffRishhBBCiPsSuXcR/rsqFP/+k/yjAqpD0JCwMOv2//Of/+DC+fPpwhdffDGuY3/u7FnhPK727LffxtX06oIFwn2pQoYgQgghhBCSbvjnz3u4N7cJ/vfVZqNFjOoQNGXKlLhONE2Z69evF+5LFTIEKeTHH39ERESE1b/++stoJYQQQghxb/739Ye490pr/Pt3tNGSGNUh6NTJk3EvTKWPt5AWFNLTu4sYghSyefPmuJ1/9+5do5UQQgghxL3R3xcU88dt61WhpFAdgnQ/+eQTRLz7brpx8KBBcX1L0XSVHjt2TLgPVfntmTNx++q9jRuF86REhiAnYAgihBBCCBHzz8O7uPuiP6JvnjFaEpIeQlB6c+Grr8b3LQXTabwHDxyI21d6mBXNkxIZgpxAfzeQ/q4gXUIIIYQQkpA/d861DputD5/tCENQYhe88op1nzz11FPC6TTeG9evY9XKlegTGorz584J50mJDEGEEEIIIUQq+otT9ReoRp3carTEwxCU2Ffmz7fuk8yZMwunU/kyBDnBmTNnEB4ebvXRo0dGKyGEEEIIsfH37cv4NzrKqj0MQYmd//LL1n3i4eEhnE7lyxDkBJs2bbIeqLr37iX94B8hhBBCiDsTuW8JHm6eZvxXLAxBiZ03b551n2TJkkU4ncqXIcgJ9uzZg3Llylm9f/++0UoIIYQQQuz5++cruDuzDqJ/OGm0MASJnDt3rnWfZM2aVTidypchiBBCCCGEPDH+3L0A/13SHf/+E2P9b4agxM6ZM8e6T7y8vITT3dnLly7hzdWrhdPSIkMQIYQQQgh5Yvz7v4f467vP8e+//1r/myEosZMnT7buE31ghB49esR54vhx4fy6y5YtSzBvUv7y88/C5XUnTpwoXMbe0aNHC5e12btXL+Fy9upDgIuW1T377bfCZQIDA1G3bl3rPtH3zdaPPhIu76wMQU5w8OBBBAQEWP3zzz+NVkIIIYQQIuKf+79arwbp/8sQlNhx4eHWfeLont27hfPrhg0eLFzG0du3bgmX161Tp45wGXsrVKggXNam/hyTaDl79aAkWlb36JEjwmUcHTtmjHB5Z2UIcoL3338/7gv573//a7QSQgghhBAR+lWg+28NwcP3JzIECZwwfrx1n1gsFtSvXz/Oz48eFc6vO3v27ATzJuXPt28Ll9cdMGCAcBl7kwswuo0bNxYuZ++0adOEy+qe/Ppr4TL+/v7Wq0H6VbJTJ08Kl02LDEFO8OWXXyI4ONgqh8gmhBBCCHk8Mb9dw92ZdbF01nMMQQ6+MHOmdZ/kyJFDOJ3KlyGIEEIIIYS4hKgzH2PFa7HvxHl1wQJh59QdnTljhnWf5MyZUzidyjd37twoXLiwcWSmDoYgQgghhBCSKiLWrrJ2+PXbnESdU3f0+enTrfskV65cwulUrvpgEfqth1WqVDGOytThtiFo8+bN8PHxsfrw4UOjlRBCCCGEPI7vvvvO2uGvVKkS7vz+u7CT6m5ON0KQr6+vcDqV61tr11r3t/5MlDO4bQjauHGjdcfpPnjwwGglhBBCCCEpoW3bttZ+1M4dO4SdVHdTHzhA3x/6LVqi6VSu+sAL+v4+eTL+Jb6pwW1D0OXLl7Fw4UKr0dHRRishhBBCCEkJu3btsnZCS5UqhQvnzws7qu7klClTrPsjT548wulUnrZBKPTR55yFzwQRQgghhJBU888//2DIkCHWzmjp0qWTfSmoO2h7WWrevHmF02na1Z8Dsg+bZ8+eNY7G1OO2IUi/BU6/GqRre/sxIYQQQghJOfZBSLd169ZYt24dPt23D0cOH3YrBw0caN0H+u1wounUOQ8fOmS95XLixInInz+/lACk47Yh6N133437wXJgBEIIIYQQ59CD0MqVK1GhQoW4vhWlT0JPT08M1MLmlStXjKPPeRiCNBmCCCGEEELShn5nzYEDB6x/sdevDumjdrmT1atXt/Yrvb29hdOp844ePRqLFi3C77//bhxtacdtQ9Cvv/6KQ4cOWdX/gkEIIYQQQoizPP/889YQVKRIEaOFpGc4MAIxPd/99PCJqwJRHbJVhagW2boS0fZlqwJRHbJVhagW2apEVI9sVSCqQ7aEJIVtiOyiRYsaLSQ947Yh6Pr164iIiLAaExNjtBIzIjqJyVYFojpkqwpRLbJ1JaLty1YFojpkqwpRLbJViage2apAVIdsCUmKqVOnWkNQ8eLFjRaSnnHbEPTOO+9YD1TdyMhIo5WYEdFJTLYqENUhW1WIapGtKxFtX7YqENUhW1WIapGtSkT1yFYFojpkS0hS2IZuLlGihNFC0jMMQQxBpkd0EpOtCkR1yFYVolpk60pE25etCkR1yFYVolpkqxJRPbJVgagO2RKSFJMmTbL2K0uWLGm0kPSM24agv//+2zoqHEeGMz+ik5hsVSCqQ7aqENUiW1ci2r5sVSCqQ7aqENUiW5WI6pGtCkR1yJaQpNBHxdNDkP7iWJL+4cAIxPSITmKyVYGoDtmqQlSLbF2JaPuyVYGoDtmqQlSLbFUiqke2KhDVIVtCkuK5556zhqAyZcoYLSQ947Yh6OTJkwgPD7eqXxUi5kV0EpOtCkR1yFYVolpk60pE25etCkR1yFYVolpkqxJRPbJVgagO2RKSFOPHj7eGoLJlyxotJD3jtiHo7bffth6ouv/73/+MVmJGRCcx2apAVIdsVSGqRbauRLR92apAVIdsVSGqRbYqEdUjWxWI6pAtIUkxbtw4a7+yfPnyRgtJz7htCNq2bRvKlStn9a+//jJaiRkRncRkqwJRHbJVhagW2boS0fZlqwJRHbJVhagW2apEVI9sVSCqQ7aEJMXYsWOtIahChQpGC0nP8JkgYnpEJzHZqkBUh2xVIapFtq5EtH3ZqkBUh2xVIapFtioR1SNbFYjqkC0hSTFmzBhrCKpUqZLRQtIzDEHE9IhOYrJVgagO2apCVItsXYlo+7JVgagO2apCVItsVSKqR7YqENUhW0KSYvTo0dYQVLlyZaOFpGfcNgTt3bsXAQEBVqOjo41WYkZEJzHZqkBUh2xVIapFtq5EtH3ZqkBUh2xVIapFtioR1SNbFYjqkC0hSTFy5EhrCKpSpYrRQtIzbhuC1q1bZz1QdaOiooxWYkZEJzHZqkBUh2xVIapFtq5EtH3ZqkBUh2xVIapFtioR1SNbFYjqkC0hSTFixAhrv7JatWpGC0nPuG0IOnz4MIKDg61yiGxzIzqJyVYFojpkqwpRLbJ1JaLty1YFojpkqwpRLbJViage2apAVIdsCUmKI0eOYPny5XjvvfeMFpKe4TNBxPSITmKyVYGoDtmqQlSLbF2JaPuyVYGoDtmqQlSLbFUiqke2KhDVIVtCiDlgCCKmR3QSk60KRHXIVhWiWmTrSkTbl60KRHXIVhWiWmSrElE9slWBqA7ZEkLMgduGoHfeeQc+Pj5WOTCCuRGdxGSrAlEdslWFqBbZuhLR9mWrAlEdslWFqBbZqkRUj2xVIKpDtoQQc+C2IWjt2rVxAyMwBJkb0UlMtioQ1SFbVYhqka0rEW1ftioQ1SFbVYhqka1KRPXIVgWiOmRLCDEHbhuCzp8/j4ULF1r9559/jFZiRkQnMdmqQFSHbFUhqkW2rkS0fdmqQFSHbFUhqkW2KhHVI1sViOqQLSHEHPCZIGJ6RCcx2apAVIdsVSGqRbauRLR92apAVIdsVSGqRbYqEdUjWxWI6pAtIcQcuG0I+u9//4vLly9bJeZGdBKTrQpEdchWFaJaZOtKRNuXrQpEdchWFaJaZKsSUT2yVYGoDtkSQsyB24agNWvWxD0TFBMTY7QSMyI6iclWBaI6ZKsKUS2ydSWi7ctWBaI6ZKsKUS2yVYmoHtmqQFSHbAkh5oAhiCHI9IhOYrJVgagO2apCVItsXYlo+7JVgagO2apCVItsVSKqR7YqENUhW0KIOeAzQcT0iE5islWBqA7ZqkJUi2xdiWj7slWBqA7ZqkJUi2xVIqpHtioQ1SFbQog5YAgipkd0EpOtCkR1yFYVolpk60pE25etCkR1yFYVolpkqxJRPbJVgagO2RJCzAFDEDE9opOYbFUgqkO2qhDVIltXItq+bFUgqkO2qhDVIluViOqRrQpEdciWEGIOGIKI6RGdxGSrAlEdslWFqBbZuhLR9mWrAlEdslWFqBbZqkRUj2xVIKpDtoQQc8AQlCJmm0D3RXQSk60KRHXIVhWiWmTrSkTbl60KRHXIVhWiWmSrElE9slWBqA7ZEkLMgetDUMxtHFszASE9puCjn+xGZYs6hWX926DzrE/wAI9wbHF/BA1bgI+/izRmUIkoVGQ03RfRSUy2KhDVIVtViGqRrSsRbV+2KhDVIVtViGqRrUpE9chWBaI6ZEsIMQeuDUHRV7FpeD3UH7IBZ+8bbQYxtyMwpFpl9FpxEdHWlmjc/GQm2tTogtePO8zsckShIqPpvohOYrJVgagO2apCVItsXYlo+7JVgagO2apCVItsVSKqR7YqENUhW0KIOXBhCIrGheUdUbzZyziZ4os7Mbj5Xn+UqTkJB/4wmpQgChUZTfdFdBKTrQpEdchWFaJaZOtKRNuXrQpEdchWFaJaZKsSUT2yVYGoDtkSQsyB60LQHx9jZJkiGLj5N6PBRhTObpiEsH4h6D1gEY46BqSoE5jllwsdln9nXCFSgShUZDTdF9FJTLYqENUhW1WIapGtKxFtX7YqENUhW1WIapGtSkT1yFYFojpkSwgxBy4LQQ92DEMR31BsvGM02BN1CnMae8Czzeu4nCjpPMLRqdXg2XoxvlOWgkShIqXOwNdraqN51byoVK0Q6jcsDn//4mgb3BBLD0zQgp1omZT4PE68URNNK+dFhSoV8do3Lxjts3BpcyN0qJkX1VrXQ8R5W7v7IjqJyVYFojpkqwpRLbJ1JaLty1YFojpkqwpRLbJViage2apAVIdsCSHmwEUhKAonX6oHi/8cnI4ymuyJ3IdxFTxRZeJBiO6Uu/tOb3j5DsBmZY8G2YcPJ3wYimFFPFB2VD881P475o/ReHdofngVqII1116Mm+/RpVC8/fE4YTC693UQNhychBj79gfBGFzIG3nzeKD2tDBt3xntj4Zghl8u9I2YHD+vGyM6iclWBaI6ZKsKUS2ydSWi7ctWBaI6ZKsKUS2yVYmoHtmqQFSHbAkh5sBFIeghdj1bBJk6rsSPdgPC2Yi+vAitvfKi33t3jZaERH48AkUztcXSHwQLuwRbkHDO6HNt0dInG4LfnhTX9nBrXRTxehrhe2cYbS/ip92N0ahYYYz6MFyLjfHL3zvRAd3K50PfdaPwyK5dX2/rGvUwY0hueFX0x977xrS7QehfrAJW/BAfsNwZ0UlMtioQ1SFbVYhqka0rEW1ftioQ1SFbVYhqka1KRPXIVgWiOmRLCDEHLgtBW8PyIlOXNbhttNjz6zshyO3VGosS3wtnJXLvKJTM1AKLrrj6frgHOLP9Taxa1VlgF7zxZiDWvdML2/c/g+/vztLmtwWOhP76TnXk9SmFBeds88zC5cVlkSNHGbx+yX65Wbi5qzEaFy+MkZtjg9C94x3QtVxeBK8eoVUTv07dX9+phmI9AvHdNj+U9vTFkC1TrO2PDgegtn8zfPHIfn73RXQSk60KRHXIVhWiWmTrSkTbl60KRHXIVhWiWmSrElE9slWBqA7ZEkLMgYtC0CMcnFAemVq8JnjmJxKfjq8Iz8rP4UASo8Y92DwAuSzdsPYXo8FlROHW8bUYUsMDntWrYMKUxhjUJDt8ypdCUO9KaFMjB0o2q41xIyqiTul8aD++O775wz546M7AvvF54VO1kfb5tP+OnooLu1ohsEw2+E3oi59jHOd/ET/uCUCT4oUwbH4zBJZ9Gr1WPov7CebR1dY7Lh/8Zw7Do/v9MaZiZhQK7YFbMbEBq8ywEIdl3BfRSUy2KhDVIVtViGqRrSsRbV+2KhDVIVtViGqRrUpE9chWBaI6ZEsIMQcuCkEx+HF1Z3iWHIW9iYLOz1jTzRue7Zbiu1sHsXDGWpxL8NxQNC4tbI5MlSfh8COjKTVE3sbZz7YhYu0bWLF0CZYsXozFhkvW7MP3j7249AifTy8E317dcUcLHgcn5kfRISGxV2UejcHa4EIIXDEKD6+FYkJDH1R8JgS37YNN1EgsaJ4FXkULoFHj4mjoXxytevjhpQ3DcDvabr4EzsKVlRWRL5MF5Z8NxW+iefT1tsiDZ7ZP1/57Bg5PKQjPPJWw5vpkvNfvPwhcNT7h80NujOgkJlsViOqQrSpEtcjWlYi2L1sViOqQrSpEtchWJaJ6ZKsCUR2yJYSYAxeFIC3KXFqEll5+mPWV48gIkfh8dmPkypQDRf1CsODgba3zbkfMLazvmROlRu3RgkdqiMSlzVPQuZIvLJkyIZNAzwrhglDmSBROzimG3KIQpPlgpx/K1m6Co49m4/5ef1TMWwVv3bJ7FueX7gjOkwVNXx6R4Dmf5Lz3ZXvrFaDu4XXQqGhBDNs0NvGy+nqLaqHnp9htRZ1qicbeXuiyNAgTahbFzC9nJpzfjRGdxGSrAlEdslWFqBbZuhLR9mWrAlEdslWFqBbZqkRUj2xVIKpDtoQQc5DGEBSFny8cxYGjl3DHYcyCP344iaNHT+Om7d+LmB8REVoEVcbvR+L3nkbil+s3cUcwclz0pcVok7sB5nyVmstAMbj+wTBU8fZEyTYTsHL7MZz/4RZ+vXMHd+y8e+9hCt49lHwIivq6JRrkqYYNd2cj+mpHtPctgXmnbcNSz8ZDLRiV934aY+MGQEheawAqlw+hb+rPAL2Im7saaUGoEEYYzwjZ5tPXW7lxS3wdZbRFj8GyDlmRo24x1CldF9tsgyTE6b6ITmKyVYGoDtmqQlSLbF2JaPuyVYGoDtmqQlSLbFUiqke2KhDVIVtCiDlwPgRpoWb39JYo6uUBi8UXjWZ9jth/GiJxbn0Yaua2wOLbE2tvxaej6CvrEVzeHxM/cbjakxQPz2B5YDk0nnlEEJyS4f4+TKjqCe86k7BfPOBcKkg+BOmDENQsXAsfPpiNyM8ao3r+qnj7tu1K0Av46qVi8M5RAStv2I/UJtYagMrnR/91I61Dace2z8KN7Q3RoGgRjN5qGz77BZx4sSgK9AvS9ottvhfx44ZqKJApE3IEdsGNRM8auS+ik5hsVSCqQ7aqENUiW1ci2r5sVSCqQ7aqENUiW5WI6pGtCkR1yJYQYg6cDEExuPXBMLQc8i4u/rQH4dU84VlpPPZFxuCXvZPgX6oJnn1xAkIGrsC3Dld37p9eh2dbtcCA+TtxMcn722Lw45HVCO/QBD3n7sNPKUpM8UQemIiqnt5oseBsCq70PI7kQtAsXHitDIp07YLvI8diXXBuVBkRil+sAeRF3N7fCp1KZ0Ymzzzo8lJf/JDkM0C6L+KXQ50w//3RWox0nDYLP2xvjbnWobO19e5riQ6lLPCqXAUrvnw+fr47oRhWOgvq6YMlJFhe130RncRkqwJRHbJVhagW2boS0fZlqwJRHbJVhagW2apEVI9sVSCqQ7aEEHPg/JWg6Pv4wxpiHmLv2PLw9G6B+fvfx9Ca/hi386fkr/RE3cY3H+/DmSRDUDS+P7ILR6+l7imgWPRBGLoih0dpjNwl4x+rxCGoQM8OOPL5IGxf5Y82/lUxf2MPvNizEOr26YTjdx3DR3rRfRGdxGSrAlEdslWFqBbZuhLR9mWrAlEdslWFqBbZqkRUj2xVIKpDtoQQcyBlYIRfI/oin4cvylaoie7LTxu3xakiGudfbQUfh0EQRDo7MIJ3/jwomz8Liga2xxdfdMWAmj4o17c7riR7pUe17ovoJCZbFYjqkK0qRLXI1pWIti9bFYjqkK0qRLXIViWiemSrAlEdsiWEmAMpISj63AK08LEgV5eVuJbKW9fkE42Lr7WGj0chtBo5B/PmzUvS+Ut3acHFWCxJxLfD3bsciKDieTFsy0RE/zIQ05v4ouW8oYL3+aQX3RfRSUy2KhDVIVtViGqRrSsRbV+2KhDVIVtViGqRrUpE9chWBaI6ZEsIMQdSQtBvB6egnrcF3k1fxmnBCG+u5s67ochtyYe+EXeMlrSQ1DNBM3FqfknkrdcURx/OxsMvmqNRgdJ45ZTj0NTpRfdFdBKTrQpEdchWFaJaZOtKRNuXrQpEdchWFaJaZKsSUT2yVYGoDtkSQsxBmkNQ9NUIDKrXGoGtC8MjTzA2/GJMUEj0+YVoncMTZYZv04JLWklmYIRfQzG8Qg50fzMc0TGTsXXY0ygW3B0/JBqZLT3ovohOYrJVgagO2apCVItsXYlo+7JVgagO2apCVItsVSKqR7YqENUhW0KIOUhbCLpzBHPaVEWPlWdxYXE7+HiUwchd97UJMfjt5o/Q/58SYq5hXXAReOSsj/E7b6RxhLgofDU7YQgqEhYcNzrc+cVlkbeqP/bq7wm60AEd8hdA+N6p2jTHEKJa90V0EpOtCkR1yFYVolpk60pE25etCkR1yFYVolpkqxJRPbJVgagO2RJCzIFTIejXTSPQNGgUhrcujapDNuEHLWU8Ojodtb08UXbgBpw6uhx9WjyLLdZ3BD3AhQ9fQljXzug3/wB+iXmIyzvm49meHdCxz/PYcuXJ3D8XdeVdDK6SAxavIvDrNgwTZryEuU49E/QQe8c8jVx2Icg3sAtu2q723O2PsVW90WbRSC0uPY8v5pZCEf8AHLxjH0DSg+6L6CQmWxWI6pCtKkS1yNaViLYvWxWI6pCtKkS1yFYlonpkqwJRHbIlhJgDJ0JQJD4ZVxGellyoGroCX9neYvroGyzpVBQemSzIWaE7Fhz5DTGIxnfrBqPjsNewYlQ9eBUaiNeWPYO+z63Apg3T0Sa/BUWHfIg0v880CaJuHMCKCcFoVasMCuTyhofFksrR4e7hswWBqJxLm98nGwoXzoF8ObV1eP4Hzcb1MkaDm4Vr66uhmDa9kDa9cAEveGV6CoWbNMXeXx2DiErdF9FJTLYqENUhW1WIapGtKxFtX7YqENUhW1WIapGtSkT1yFYFojpkSwgxB05dCXpw6zLOX7mdeCjsyJ9x5fx3+Nl+woM/cD8mGhcXtoK3TzG0nX049jmdmB/xRqA3PBvPxTfpYDAFYl5EJzHZqkBUh2xVIapFtq5EtH3ZqkBUh2xVIapFtioR1SNbFYjqkC0hxBykeWCElHEXmwbkh2e1Cdhve1Ao5jpWdPaGV4tXcT5tD+0Qkiyik5hsVSCqQ7aqENUiW1ci2r5sVSCqQ7aqENUiW5WI6pGtCkR1yJYQYg5cE4IiP8PEKl6oNGE/4u4+e7ATI0t5oMyojxW/XJWYHdFJTLYqENUhW1WIapGtKxFtX7YqENUhW1WIapGtSkT1yFYFojpkSwgxBy4JQdEXXkULrxwIWhc/fvbdHSNRzrsWph7hPyjkySI6iclWBaI6ZKsKUS2ydSWi7ctWBaI6ZKsKUS2yVYmoHtmqQFSHbAkh5sAlIeiXDcHInSk3+kbEDoEQ/dPHmOCXFzXH7sBtfQA5Qp4gopOYbFUgqkO2qhDVIltXItq+bFUgqkO2qhDVIluViOqRrQpEdciWEGIOXBCCHmL36DLwyFUEZWq1QZ/+PRBQvTa6Pb8VVx4ZsxDyBBGdxGSrAlEdslWFqBbZuhLR9mWrAlEdslWFqBbZqkRUj2xVIKpDtoQQc/DkQ1DUScxu6IX8/d/Dr/dv4erl7/HzA17+Ia5DdBKTrQpEdchWFaJaZOtKRNuXrQpEdchWFaJaZKsSUT2yVYGoDtkSQszBEw9BMTffQNccXmj12iVwEDiiAtFJTLYqENUhW1WIapGtKxFtX7YqENUhW1WIapGtSkT1yFYFojpkSwgxB088BD3YOQoVc+dG+TajsP4UXwhEXI/oJCZbFYjqkK0qRLXI1pWIti9bFYjqkK0qRLXIViWiemSrAlEdsiWEmAOXDIyQHtm8eTMCAgLQpk0bo4WYFdFJTLYqENUhW1WIapGtKxFtX7YqENUhW1WIapGtSkT1yFYFojpkSwgxB24bgl577TVkypQJ2bJlM1qIWRGdxGSrAlEdslWFqBbZuhLR9mWrAlEdslWFqBbZqkRUj2xVIKpDtoQQc+C2IWj37t0IDg7GgAEDjBZiVkQnMdmqQFSHbFUhqkW2rkS0fdmqQFSHbFUhqkW2KhHVI1sViOqQLSHEHLhtCCLug+gkJlsViOqQrSpEtcjWlYi2L1sViOqQrSpEtchWJaJ6ZKsCUR2yJYSYA4YgYnpEJzHZqkBUh2xVIapFtq5EtH3ZqkBUh2xVIapFtioR1SNbFYjqkC0hxBy4bQhaunQpfHx8kD9/fqOFmBXRSUy2KhDVIVtViGqRrSsRbV+2KhDVIVtViGqRrUpE9chWBaI6ZEsIMQduG4IWLlxoHRhBD0LE3IhOYrJVgagO2apCVItsXYlo+7JVgagO2apCVItsVSKqR7YqENUhW0KIOXDbEHTq1ClrEFqyZInRQsyK6CQmWxWI6pCtKkS1yNaViLYvWxWI6pCtKkS1yFYlonpkqwJRHbIlhJgDPhNETI/oJCZbFYjqkK0qRLXI1pWIti9bFYjqkK0qRLXIViWiemSrAlEdsiWEmAO3DUH37t3D5cuXcfXqVaOFmBXRSUy2KhDVIVtViGqRrSsRbV+2KhDVIVtViGqRrUpE9chWBaI6ZEsIMQduG4IWLFhgfSYoR44cRgsxK6KTmGxVIKpDtqoQ1SJbVyLavmxVIKpDtqoQ1SJblYjqka0KRHXIlhBiDhiCGIJMj+gkJlsViOqQrSpEtcjWlYi2L1sViOqQrSpEtchWJaJ6ZKsCUR2yJYSYA7cNQT/99BMOHTqEo0ePGi3ErIhOYrJVgagO2apCVItsXYlo+7JVgagO2apCVItsVSKqR7YqENUhW0KIOeDACMT0iE5islWBqA7ZqkJUi2xdiWj7slWBqA7ZqkJUi2xVIqpHtioQ1SFbQog5cNsQdPHiRURERGDz5s1GCzEropOYbFUgqkO2qhDVIltXItq+bFUgqkO2qhDVIluViOqRrQpEdciWEGIO3DYEzZ8/3/pMUM6cOY0WYlZEJzHZqkBUh2xVIapFtq5EtH3ZqkBUh2xVIapFtioR1SNbFYjqkC0hxBwwBDEEEUIIIYQQ4la4bQiKjo7Gw4cP8eeffxothBBCCCGEEHeAAyMQQgghhBBC3Aq3DUEHDhxAeHg4pk2bZrQQQgghhBBC3AG3DUHz5s2zPhP0n//8x2ghhBBCCCGEuANuG4JWr16NcuXKoU6dOkYLIYQQQgghxB3gM0GEEEIIIYQQt4IhiBBCCCGEEOJWuG0IioiIQEBAADp16mS0EEIIIYQQQtwBtw1Bc+fOtQ6MkDt3bqOFEEIIIYQQ4g64bQjavn07goODMWTIEKOFEEIIIYQQ4g7wmSBCCCGEEEKIW8EQRAghhBBCCHEr3DYELViwAD4+PihevLjRQgghhBBCCHEH3DYEzZ492zowwtNPP220EEIIIYQQQtwBtw1BJ06cwMKFC7FixQqjhRBCCCGEEOIO8JkgQgghhBBCiFvhtiHo7t27uHz5Mr7//nujhRBCCCGEEOIOuG0IevHFF63PBOXNm9doIYQQQgghhLgDDEEMQYQQQgghhLgVbhuCbt68iUOHDuHYsWNGCyGEEEIIIcQd4MAIhBBCCCGEELfCbUPQuXPnEBERgY8++shoIaYh5hHw6BqllFL6ZIy+a5xwCCEZFbcNQbNmzbI+E5Q/f36jhZiGPz4DDmmHNqWUUvokvDbFOOEQQjIq2i/ZPWEIMjEMQZRSSp+kDEGEZHi0X7J7Eh0djYcPH+LPP/80WohpcAxBX1WhlFJK0+YXhRiCCDER2i+ZEJNhH4JO1QeuDKWUUkrT5vkeDEGEmAi3DUGffPIJwsPD8cILLxgtxDQwBFFKKZUtQxAhpsJtQ9DMmTOtzwQVLFjQaCGmgSGIUkqpbBmCCDEVbhuCli5dinLlyqFRo0ZGCzENDEGUUkplyxBEiKlw2xBETAxDEKWUUtkyBBFiKhiCiPlgCKKUUipbhiBCTIXbhqC33noLAQEB6N69u9FCTANDEKWUUtkyBBFiKtw2BD3//PPWgREKFSpktBDTwBBEKaVUtgxBhJgKtw1BmzdvRnBwMEaMGGG0ENPAEEQppVS2DEGEmAq3DUHExDAEUUoplS1DECGmgiGImA+GIEoppbJlCCLEVLhtCHrppZfg4+OD8uXLGy3ENDAEUUoplS1DECGmwm1D0PTp060DIxQpUsRoIaaBIYhSSqlsGYIIMRVuG4KOHTuGhQsXYvXq1UYLMQ0MQZRSSmXLEESIqXDbEERMDEMQpZRS2TIEEWIq3DYE/f7777h8+TJ++OEHo4WYBoYgSimlsmUIIsRUuG0Imjp1qvWZoGLFihktxDQwBFFKKZUtQxAhpoIhiCHIfDAEUUoplS1DECGmwm1D0PXr13Ho0CEcP37caCGmgSGIUkqpbBmCCDEVbhuCiIlhCHJwEH7cEYgvNnXB6QP9BdPpE/d0CL7V9v8Xm7riu+Nh4nniHIibO/R5A3Hh6GDBdBrn10H4/K122LtG4FvtsX9DZ5zY0Ru/nRUsmw6M/rwnjmvHxfGdoYgUTBcZ9VkgPtE+3yebeuOhYDp9gjIEEWIq3DYEnTlzBhEREdi+fbvRQkwDQ1BCzwfh9cYeyJQpM+qO6IxHonmetKd6YtvERth/SjDNDYzaUQ/NvTJp34EFZbo2xw8XxfNZPdcd8+tl1ubNgh5z+iBGNA+1GrXVD02s+zU5n4JnHl+0C22AA4ceF0BTqKTj+beXSyGnVqNP04a4el48j6POLEMlyRBEiKlw2xA0efJk6wmyePHiRgsxDQxBCVUcgmKOtcGEKllhyV4aG06I5zG78SFIM0tO9H+1d9LhhiEoxcaFII+sqFCzEJrVs7cgAmrnQ/WiWeFpiQ1DuapVw+7P0xaEZB7PDEEZTIYgQkwFQxBDkPlgCEqo6hD0aUN09NE6oQxBsSFI07NYOUQcSKIz7i4h6GIffLtBv22tC74/LZieAuNCkFchLNiRxK2DF/vi69nlUDXbU8hkyYz6I7uk+NYzkTKPZ2cCTfSxIJz8MBAnd4equarrzjIEEWIq3DYE/fXXX3j48CEiIyONFmIaGIISyhCk3LgQ5OGD4gUtsCR3W5y7hKDTbTGqmBZMfIph+afOXZ1JUQiy2hdbe+eEhxY4vKrWwrE0PCOkOgRRhTIEEWIq3DYEERPDEJTQZELQw49a4LWJ9fHG2t6IvtgHp5b4Y0pwOfRqUxIhQdXw8vyOuCb6K/2pXtg/zw/PBZVBt+bF0KVNGQwL88O6dUG4HzffYJxf0QALRpZB9ax6RzUfBobXw4LJTXH4iK3TG4Y7u9phzYTqeKZLKQQ2K4ZOrUpjUP/aWPlGD9yNW1e8TtesGfN1ED6dWxfjg8qiR8sS6Nm1Mp6f0QZnkxqs4GQQ9s6ui/AepdFNmz8osBKef741Tn+Zuk57XAjyKY75cyqhSlat85/UbXEpCUFGXeP0ulpon6NzRUyZ3BzHDjsGgTDcfLsJXtX2V8QH/fDH9haYFVwavbpon2NWO1w5Fb8/33xL259nQ3DsVT+M19bbvXUpDBzgh42bbTWE4ZctLfHakIoI1fZ1kLbvZr7UwemrOK4NQUNxe05J5NACh8W3HDZ9Yz8tpcdgSo7nWFN6nCUIQef64vSyBpgaXBZBrUsiuEdVzJmnHctn4ufXjf2+6mHhq11wJ1G7c7+Lh/s7Yu2YKhjQrgQC25TF8OENsXvPAETta4sVE/yw4NVA/CFYzu1kCCLEVLhtCNq1axfCw8MxZ84co4WYBoaghCYTgmI7YRZUHRCA5Z19kdP67ISdlqdQ2L8ODn4Zv0zMoTaYWMfL+ld1fR6LNo/FtpzFE7WCmuHiOX3egfgoyBsW27psehXEvK1ah1XrqH0aXgxl9NuUHOfR1dZVo3cLfO/wF3JnatY7urfW+yGwZBajHr1mTeP/5ypXFqu3DrSbfyjufNAQfct7Cuf3KVESr7yT8qs08SGoBFYdDMW2EF/rcyrC2+KSDUFh+HVjA4TG1WXvU/DMXxATlgTZfceDcHx0fnhp6+owugEGlMwct5wll1aLFj5i92dm1OzfEHOb54CXw/605MyHiW8G49Tssqia3eG7smRG6XaNcc6ZKysuDUFhuPp8UfhoNXsUqohttjCQqmPwMcezsZ3UHGdxIaheZczoIDqWLSjauC4OHTfqtV/G4eqRs7+La8urISCvrcZ4PfIUwOhny6FSlkzI0aoxfkxuMA93kSGIEFPhtiFo0qRJ1n/oS5YsabQQ08AQlNDHhqCnkNM3K7xzPY2Qsc2wf0tPXNrRCR9MKIsaObTOoSULmk7ohijrMv2wo08urQNvQbk2fti+LQT3tY5Y1IleODS7Ehr4avN7ZMeARaFa513rsO8NxLE3aqGZNQAUw8sb9KGfu+PGN2G4vaQCymodLEuufBg2sx2+Pdwfj84OwO3dHbF+SBEU89CWyeKLCesShpPU1zwU0Xsao0eh2PaqHfzw4YfBuH+mP2580ALPN82hfR5tfbVq43Ojcxy9tylCisbOX6ltHWzerM1/bhB+3d0Bq0ILIL9Wm0fBkli5K/mrDzYThKDPwhBzpDWeLZvEbXHJhKDovU0QXESvKzPKNKuJdyJ64bdvBuDWjnZY1js/8ml1WbLnw+S3+hrL2ELQU8iX1wueefMhZHBtzBpaAT0HtsBP2nZt+zNH9izwzFcAz0xrhaM7gnAuojkmN/DWwu5T8C7hi/LZvREQ0gDb3u+BSzs7Y8v4UqjopX/fOTF8hRNDr7syBJ3pjoWNs2r7+yn4tmiE7637O7XHYHLHc+x2Unuc2QKNfi6y5MyDXiObYM9mff92wdbJ5VDTOJab2x3LtmXEISh1v4tH2/zR7mm9PSvqBTXE3l19cP9kKE6vqo8+FW1BjiEoToYgQkyF24agV199FeXKlUOLFi2MFmIaGIIS+tgQpHV0tOASMr83ou2m6X/5PjTsaa0DrXW4Ahrgit7hOtsRkytYkClrPrywaZDdvLHzHxmeH4WL5UH78E5xD58Ln6G42BtvtNI6pVpnvsGoLonfd3K+JxY18tA6YR5oMalHgrpSXfOVAdg7wBeeehBo6o9vHa5axBxthaHFtc/kkQPDV+qd+X7Y2ec/sfM38cdph9uRcDEEH/aKnV6md2v8Zj8tCR1DkPWKwfJKqJxF64A63haXZAjqj939Y7frW68OvnAcntlaV+znzOlfD2esV+NsIUjbdtY8GPtm4qtX8fszJwYtCkkwPfLdGqil3/qlhbVyQS2toSlu2YuhWNdeDxYpedZsME4vqInw/lUwxmbfUvDLpX/+XGjXy65dc/y09vglBZ1u+xA0f+tALcAMivfMQNw90gtfr2mCGW2MKyPavh6yRA/o2vJOHoNJPxOU2uPMft/nQMjLvRIdy58N1Y9lLaBqwe26sT9sy4hDkL6ulP4u+mJLUA5ryC3VpRmu2a1LN2q3FugKat+PtgxDkCFDECGmwm1DEDExDEEJTUEI8ihaCdsF7zy5v7g88mudR6/qtfGl3qk71xVzamsddEsW1AluhlNfPP4v+OJO40Dc3N4Je5a1wtGDonUMxNZePloHLTPqax3UNNV8pj3GldY7n9kRtqRfovn1oHB6aUOsfrU1jn06UDtmWuMZ/WqL1jEdtlx8hePRxpqorYUDj4IV8NHJxNMdTRyCtHYtRGwNFtwWl1QIOt0OY0ron8Mb/RYmDjO6+nasVym0UPCK9cpIfAjyql4LXwhuW4vbn4UqYqvjZ/myKXpn19anBZUxaxJekdPXfWRYHmsnvWy/to95cedA7OoTOzCB3ql+nCkdKCAuBAnWkUiLFxqFtbXrzDt3DCYZglJ7nGltcfu+WGXsSvCcUqwPllZAIf1YrmEcy3bLJBWCUvy7+LoVwvSQo4XjyRsc/6ChOxD7BumhjiEoToYgQkwFQxAxHwxBCU1BCPLxr4ezgk7nwzeroIyH1nGqUhNHrZ2wMJybURyF9NuEtM6vJXt2+DUrhwkTArB9U2+7QRHiTdFoWuf64cauQBxc1QJrptXBhB7FUSuffrtY2muO3tcQHbJp289WFEs+eXxoi9paFwF6x1rrHA6a0gTr5gmcVQWNrGGjAOZ89Phb4oQhSFO/LW64421xSYSg6L3+aGt8jsV7k/gcZzpggra+TJZsGLRE72jH3w6Xu3Nz3BMsY9uf3n5++MZ69cjOb5qjjx6C4kKV/fT4dZfu87gQFIbv1zfFG7MaY5XNmdXRLq/eCX8agyY1im/XfHN5N2GtjiYfgp6Ch1dWFC2dD+26VMPilT2SX2cKj8GkjufUHme6ccdyg/o4n8SxXDbB789umSRCUEp/F1Gb66CBtu8svmWxMYnf5Z1XyyKPFpwYggwZgggxFW4bglatWoWAgACEhIQYLcQ0MAQlNCUhKIm/vIs6YfrD5Iefr4iWxR0ezrdYkK9cUQyb2BZX7EahSjoEDcSV1fUxsmVeFM+R8MFsS1YvFMrzmBCUwpqjPqyDhnpHObkQZmfk+uqokiW+lmTVnxdZL/orekKTCkG22+Iq2d8Wl0QIsnVakw+T3TCnTuyyQfP6aG3xQaVYcGthUInbn3G3SdlpC0HZiuC1jx079qkJQQIlPxPkeDtc1LmUrDP1x2BSx3NqjzNdZ35/SS2T2nVFvlUVFbTj3KNIJexMatS4VZVRSluGIciQIYgQU+G2Iei5556znuhKly5ttBDTwBCUUNkhyOa5Pji3rjkWj6iE3v65UUh/SF5bl/7QfuXgVnGdJnGncRC+nVUKpfXOv+Up5C6eH506V8SEkfXwxqJ2OHlIf15BH4lLQgiyXdnJXhJrP088v6OP3qmBGlm1TnCOQhg3KwBrZifjnOY4kiDUiE06BGk63ha3r5s4BG0zOvw+JbHGYUjmOM92wYxq2rIWT/RZqN/KZx+C2iQfgkT7MwOFoMcNkZ1Y547BJENQKo8zXWd+f0ktk9p1xR3necrjA8Htc7oPlpRHAV4JipchiBBT4bYhaOPGjQgODsbYsWONFmIaGIIS+gRCUPTZQQ4PXg9F5OFARAwqiHxap8mSvThW7I/t2Io6jTFHmqFPfr3zmRXNhrfDTcfbsK70w4aO+pWmzKjzbBpr/rwJeuXUtqUP5vCB6KpNGG6s9sfMcf5Yu64XIj9pgPbW25oK49VdznXOHU02BGnGHGmFZ8oYt8V1rosJfolDEI41RbA+kEDWpzEtIomrT182R9882jxZcuO5t/V5GIKS0tljMMkrm6k8zvTfjzO/v6SWSe26Yg41Rld9xDivgpgbN8S3vYNxZkJBeGvrZAgyZAgixFS4bQgiJoYhKKESQ1DUjoboXd4HuYuUxwcJ3jdiqHUEe1qfIYl/VibmQEN0MjqNbxvLRK6vhsr6LWdJXdU42Q7h+rMtWs21numUthCkdVwW+HvAYvFAM7vhgeO8GIq3O2azdnatwwefDcQLNfSrKVnQbHy3BNu2eW9NNdQpkBPV/aph67HHd+AfF4L0DvJPyyrG3hanbTeX9X08DiFIH62ssT5ssdYpH9YJDxIsrxuGHxeURRHts3sUKI9N1n3NEJSUzh6DouPZamqPM60t1cdyMsuk/ncRhCVNtZBnyQz/kV0SH0/fdMHMmrHvlWIIMmQIIsRUMAQR88EQlFCZV4K+6YCJ+hDZlqxo+mwHh2GMB+Hi7NIoqXfCi1fCDttIY1ow6mENRvkxc1PsqFhxz7dkzYvpGx1GHdM6i/uGF0RuizY9kwWVB3WIG25bN/UdxzB8P7cUCut1FSiGBe/3jQ8W2rTry6ugVranYMldDMt2653hMFyaVQIFtPktuQtiypvBCTq0UQfbYFx1/QqBFiw6N8ONFHQOHx+CNLXP/ZFxW1zscykOIUir64YWcorrdeXMjwkreyeo64+tjRFS0mLt1NYM62C84T8dh6ArA/Hz/l74bl8I7gq+x5SYlhDk9DEoOJ5jTe1x5syxnPQyzvwuflkZ+zyaJUdeDHu5G+4a88Yc74Z1vfMil3EsMgQZMgQRYircNgRNmzYNPj4+qF69utFCTANDUEKl3g4Xhh9eK4+KWWOvWJTxK42RQ2phxvBqGNYmLwrrHaosOdF7Ts/4DvqZDniunP4XdW1adm+UKVkQM9Z2wly/2CCRo0wJTJreDJuXtMD652tjaINcyOnhharlc1jfuZK/W4sEo3o503HEuSBs6JEbOay36uVCq65VMGV4DYzqVAAlrS/8zI7A6V3jO/LnemJDd2P+LN6o27oiJgyvhcmhpdCgkP7X8afgU648IlI4CliKQpBmzGHbbXF659MxBGme740P++SFr7UuH9RrUxETh9fEuB5FUUW/VU6rq0jjujh83LZMeg5BaTdNzwSdDXTuGBQdz+8Yt7+l8jhz5lhOahmnfhcX++DTkYWsL//Vn+XLXyY/mtfPj0pPa8d4luxoUEt/L5UWgtoE4BZDEEMQISbDbUPQ+PHjtZNYJpQpU8ZoIaaBISih0p8JGogLS2ohuLoPfIy/FOtaPDxRuk4ZzFzSw2Go7DBcW14D7Up4wkOf35IVvV/ugwe7mmOUnw+87NahP6Cet1IpTF/UHT+vqWIdvcqzdBXstnt/jXM1a57rjU8mV0DzYkYd1u1ZkLdCCUx5tXvi4ZPPBWP/9EpoW8bL7uqM/lfznGjesx727k/iuRyBKQ1B+r76aalxW5woBOleDMWRF6qgQ9mEdeUqURiDw1vhXIJ3/TAEJWekU8eg+HiO+55ScZw5cywntYzTv4sr/XBmUR0MDngapfJkgU9OH1RvWB5zlvXA6SlF4KOtM2eHpnFXidxahiBCTIXbhqDDhw9j4cKFeOutt4wWYhoYglxkGO591gMnNnbE4fe64vxn/RMNlpDAi4Nw50gIbp8YFN9hvNgf329qiw8WNMWGha2w94PeuGf7i/PFAfj5YG/8cDAUdxM9tJ4GtW3e2BGIo+92xoldoSnovA/Erd1dcezdjji6uQd+PJWyqz9P3ti6Po/ojJN7QnBP5j5yJ509BkXHc4LpqT3O0puD8dXY/PDWQm7JUHGAdjsZgggxFW4bgoiJYQiilNLkPdcdi9vlQ5Om5bD4fcFVzYu98UarrNaBHtpMDUr+DxzuIkMQIabCbUPQb7/9hsuXL+P69etGCzENDEGUUvoY+2FLUHZ4ZHoKpTo0xrcJ3hXUDydnlUF5/Rk/36JYLGmo+AwvQxAhpsJtQ9C4ceOs92qXK1fOaCGmgSGIUkofa+QWf3QoEDugRq7iBRDYuTwGdS2NDtWyxw7ukDUneszsJhiO3U1lCCLEVDAEMQSZD4YgSilNkfd2tMTs7oVRWR8RTjsnWgf/yOaDWs0qYeGbvfgskL0MQYSYCrcNQdeuXcOhQ4fw1VdfGS3ENDAEUUpp6jw/AL981gvffRqCO2d4+5tQhiBCTIXbhiBiYhiCKKWUypYhiBBT4bYh6NSpU4iIiMCuXbuMFmIaGIIopZTKliGIEFPhtiFo7Nix1meCKlSoYLQQ08AQRCmlVLYMQYSYCoYghiDzwRBEKaVUtgxBhJgKtw1Bf/31Fx4+fIjIyEijhZgGhiBKKaWyZQgixFS4bQgiJoYhiFJKqWwZgggxFW4bgrZu3Yrw8HDMnz/faCGmgSGIUkqpbBmCCDEVbhuCRo8ebX0mqGLFikYLMQ0MQZRSSmXLEESIqXDbEDRnzhyUK1cO7du3N1qIaWAIopRSKluGIEJMhduGIGJiGIIopZTKliGIEFPBEETMB0MQpZRS2TIEEWIq3DYELV68GAEBARgwYIDRQkwDQxCllFLZMgQRYircNgSNHDnSOjBC5cqVjRZiGhiCKKWUypYhiBBT4bYhaP369QgODsbEiRONFmIaGIIopZTKliGIEFPhtiGImBiGIEoppbJlCCLEVDAEEfNhH4J0j2SjlFJK06b9eYUhiJAMj/ZLdk/Gjx8PHx8f1KtXz2ghpsExBFFKKaUyZQgiJMOj/ZLdkxEjRlgHRqhatarRQkzDg5PAydqUUkrpk/H/lhknHEJIRsVtQ9DBgwexcOFCbNiwwWghhBBCCCGEuANuG4IIIYQQQggh7onbhqBff/0Vly9fxo0bN4wWQgghhBBCiDvgtiFo+PDh1meCqlevbrQQQgghhBBC3AGGIIYgQgghhBBC3Aq3DUFXr17FoUOHcPLkSaOFEEIIIYQQ4g5wYARCCCGEEEKIW+G2Ieirr75CREQE9uzZY7QQQgghhBBC3AG3DUHDhg2zPhNUo0YNo4UQQgghhBDiDjAEMQQRQgghhBDiVrhtCIqKisLDhw8RGRlptBBCCCGEEELcAQ6MQAghhBBCCHEr3DYEbd68GeHh4XjttdeMFkIIIYQQQog74LYhaOjQodZngmrVqmW0EEIIIYQQQtwBtw1BM2bMQLly5dC1a1ejhRBCCCGEEOIO8JkgQgghhBBCiFvBEEQIIYQQQghxK9w2BC1YsAABAQHWZ4MIIYQQQggh7oPbhqCwsDDrwAh16tQxWgghhBBCCCHugNuGoDfffBPBwcGYNm2a0UIIIYQQQghxB/hMECGEEEIIIcStYAgihBBCCCGEuBVuG4KeffZZ+Pj4oEmTJkYLIYQQQgghxB1w2xA0aNAg68AIdevWNVoIIYQQQggh7oDbhqB9+/Zh4cKFiIiIMFqI2fjup4eUUkqpdAkhGR8+E0RMi+jERdOTz1NKk1T0m6HpRUJIxochiJgW0YmLpidFHT9Kaayi3wxNLxJCMj6uDUExt3FszQSE9JiCj36KiW2LOoVl/dug86xP8ACPcGxxfwQNW4CPv4uMna6U2RlMYo/oxEXTk6KOH6U0VtFvhqYXCSEZH9eFoOir2DS8HuoP2YCz9402jZjbERhSrTJ6rbiIaGtLNG5+MhNtanTB68ftZlSCKGik0j9GY8eCuugzbzAiRdNT7Ax8vaYWmlXJi4q1ymPilrHannKch9gjOnHR9KSo40cpjVX0m6HpRUJIxsdFISgaF5Z3RPFmL+Nkii7wxODme/1RpuYkHPjDaFKCY8hIhdGT8OX6AARW9oIlU2ZUGNc/UQh6dCkUb388ThBmZuPe10HYcHCStifs2h+GYmhhC0oOC8U9+/Y4iT2iExdNT4o6fpTSWEW/GZpeJIRkfFwTgv74GCPLFMHAzb8ZDTpROLthEsL6haD3gEU46hiOok5gll8udFj+nXGFSAWioJESZ+HKmnoY8FJvfHM9BMNLZUGlCQMcQtCL+Gl3YzQqVhijPgzX9kb8tHsnOqBb+Xzou24UHtm1R59rixbeXuj51sSE4ShOYo/oxEXTk6KOH6U0VtFvhqYXCSEZH5eEoAc7hqGIbyg23jEabESdwpzGHvBs8zouJ0o6j3B0ajV4tl6M71yegh7gzPY3sWpVZ4Fd8MabgVj3Ti9s3/8Mvr87S5tfFEgMI/sjvIIoBOnOws1djdG4eGGM3BwbhO4d74Cu5fIiePUIrYqE8//6TjXk8S6BeadfSNAeL7FHdOKi6UlRx49SGqvoN0PTi4SQjI8LQlAUTr5UDxb/OTgdZTTZiNyHcRU8UWXiQS0gJObuO73h5TsAm13+aFAUbh1fiyE1tIBWvQomTGmMQU2yw6d8KQT1roQ2NXKgZLPaGDeiIuqUzof247vjmz9EoUQz2RCk+yJ+3BOAJsULYdj8Zggs+zR6rXwW9xPNNwP7xuWFV7n62PvQcZpNYo/oxEXTk6KOH6U0VtFvhqYXCSEZHxeEoIfY9WwRZOq4Ej8aA8LZiL68CK298qLfe3eNloREfjwCRTO1xdIfHBZMCZG3cfazbYhY+wZWLF2CJYsXY7HhkjX78P1jry49wufTC8G3V3fc0QLIwYn5UXRISOzVmUdjsDa4EAJXjMLDa6GY0NAHFZ8Jwe0Yx1Ci+dgQpDsLV1ZWRL5MFpR/NhS/ieaJGokFzbIgd+/u+Fk03SqxR3TiounHC8cGYFj/Ngh5fQTOCzuBGcsLR/tjiPZ5+i0blcTnmYT1s9uh4+CeWHdWNP1xTsP2ec2Rt6wfWr82BheE8zxp00MNYr85PBjTxrVF8w4BqNGqKZr164RxK5/FkWvi+dOmK/aD+HdD04eEkIyPS0LQ1rC8yNRlDW4bLTZ+fScEub1aY1Hie+GsRO4dhZKZWmDRldTcDxeJS5unoHMlX1gyZUImgZ4VwrH3sQM0ROHknGLILQpBmg92+qFs7SY4+mg27u/1R8W8VfDWrRet0xKYghB078v21itA3cProFHRghi2aWyCZ4Ss/tIdwbmzoOn8EYmnxUnsEZ24aPrx3I6uqFKqJvINHYTTwk6gYq+NwoKJHTHglWdwXDTdwXPbAlGxdC0UGxmGM4Lp390Yh1k9ayNT2RaY+cX0xNMf61Rsfj4A2UrURsO5oxUFxzTWkMp9mlJPfxyEgGq1YCnjh6qBrdExtAVq+9WBR4k66LJ6UqL5064rvgvx74amDwkhGR8nQ1AUfr5wFAeOXsIdh4s0f/xwEkePnsbNuH8jHuHghPLI1OI1h+d+IvHp+IrwrPwcDiQRSB5sHoBclm5Y+4vR8FhicP2DYaji7YmSbSZg5fZjOP/DLfx65w7u2Hn33sMUDLaQfAiK+rolGuSphg13ZyP6ake0903iWZ3HhCBrACqXD6Fv6s8AvYibuxppQagQRhjPCNnme6gFrXJeT2Ps3hlxbdHfd0HPJk1wWAtisW3EHtGJi6Yf030IujwQPavURLYuvbH3umC6g08+BGnemIIvT03Et6JprjItNaRyn6bIGxMwv09dWEo1QO914+KvylybgE0remLerimJl5HhE/8uxL8bmj4khGR8Uh+CYn7E7uktUdTLAxaLLxrN+hyx/xxE4tz6MNTMbYHFtyfW3rKloxj8uLozPEuOcrj68jPWdPOGZ7ul+O7WQSycsRbnEjwzFI1LC5sjU+VJWiffaHoc9/dhQlVPeNeZhP3iO+xSQfIh6NHhANQsXAsfPpiNyM8ao3r+qnj7tuBK0J1eGFA4M4oNC8EfDtOsAah8fvRfN1Lbh7b2WbixvSEaFC2C0Vttw2e/gK9eKgav3Fro+sWY71E4Ng7Oi9LPhNo9P0TsEZ24aPoxyRB0fQqOn5kc99f1b74ehU07nsWuk4LOrDbvibOT4zq+Z06OxmZt3u3HJ+OS/Xw2jXUn7rhOx5lzz+H4ZSOcXJ+K09/2Rze9w945CDsuTMY3l6fgXDIdd6dDUGo+r9bxPnF6Er69Efvfl65OwjG7ZRM6FV+dnohvHGo+f34cdu4ZjogdI7D39NQE06za13NjIj7ZPRwfHH4O52zTHWqwN9l1p3ifTsOJL0Zi07Zn8MFnEx4fkK8+g6GNasFStT2WXRZMF5qCbaRhP6TsM2jzHBuJ97YPx5ajE+PXG6f4d0PTh4SQjE8qQ1AMbn0wDC2HvIuLP+1BeDVPeFYaj32RMfhl7yT4l2qCZ1+cgJCBK/CtXaCJvrQILb38MOsr+5QTic9nN0auTDlQ1C8ECw7e1tZuR8wtrO+ZE6VG7dGCR8qIPDARVT290WLBWQnDaicXgmbhwmtlUKRrF3wfORbrgnOjyohQ/GL3TFD0he4YH1wRLar6wNOSCRavnKjdthJCxnfH+Sh9nhfxy6FOmP/+aMEVoln4YXtrzLUOnf0ibu9vhY6lLMjkkwvV6hdBfc1aZbLBkikbgjdMsluO2CM6cdH0ozgETceRJa2QvXRjjNw8HLOHN0HBMjWRqXhNWMrUQ8PnBuFAXKfZmLdMUzy361nMHdkUhcsa85aqi2phodhy0Tav7jTse6U5fErURc/1DgHj8gB0q1gT2XuG4KDWuV053A8e2nr0dcVbCzWmPyvorMbqXAhK3ec9urQVcpSog06r9Fu8puLtcQ2QpWQ99FrveMvXNOyY0xTZtc/a9c3YaacPDsDw0MYoaOyj2G34oc6zfbHjSvw24up5PwxjAushawlt3jJN8Nz+adbpCWuIXe7x607ZPj31aT8MDPTX1m9ML1EL+Vu3x6yPk7ml7dpIjGtTC5lKN8LQj5KZzzBl23BuP6R0/RdOhGF0kD9yxs1TG0U7d8eGC/HrEf1maPqREJLxSf2VoOj7+MOaSh5i79jy8PRugfn738fQmv4Yt/OnhEHGRsyPiAgtgirj9yPhu08j8cv1m7jjOGqcRvSlxWiTuwHmfJXSy0D6FaeuyOFRGiN3yfgHKnEIKtCzA458PgjbV/mjjX9VzN/YAy/2LIS6fTrh+F37EKNKYo/oxEXTj0mFoEOvt4RPyboo4++HnA1b4ZmF/fH6sh7oElAblpJ+CFw93rjKY5vXDxUa1kWO+i0xdEF/LHkzGIM6+yGL1vmsOG4Ivopb9zTsebkZsmkd125rHUNQf3QpVxPZugXj0+vTcOijvpgxryPqla+JrI3aYOz83pj+SggW75kovsKk6WwISvXnLV4b7ZdPtC5/+oPOKFuqFgoOHoAvbdvRvTYKz7XXlq/aBq+c1Lc1Fe9ObISCLdrgmVf6482PhuPdjX0xokc9bT/VQcB828P98fu0YoAfsvs1R/+ZPTFqXA8sP6GvJ3ENKVv34/fphWP9EFi3FrzqtcSoN4Zhy/4R2LC6G1pqbVnqtsOir+yuniVQC3zzmsFXCxRZajbFoGXDkxwMIeXbcGY/pHD9NybgtUFaIKwQgH7Lh2HrwZGIeDsEQwcG4vVT9p9R/Luh6UNCSMYnTQMj/BrRF/k8fFG2Qk10X37auC1OTPSV9Qgu74+Jnzhc8RHx8AyWB5ZD45lHHEJTckTj/Kut4CMYCMFRZwdG8M6fB2XzZ0HRwPb44ouuGFDTB+X6dseVaFEgUSGxR3TiounHZENQ8ZrI2bIzVp3Q/+oeO+2bD7uggjb/01qH/2uHebM364Tlx+PnvXRqAHrW0W+RaoNXT9s6likNQbY2VzwT5Mzntet467eCNa4Fj2ptsehM7HK65z/tiXpla6HAoP74wtZ2diJOOHyOC0d6o3HZmsgR2teYL74ej1qtMOuA4+1ygho0U7ZuzST36RS8Pb4hspRqiIGbEl6R+XxNOxQuGTsAQZKjsF0bi8VjmyBfydgrL3kCtDC53DEMpWYbzuyHFK7/6jAMaVQL2ToGYVeyx5X4d0PTh4SQjE+aQlD0uQVo4WNBri4rce2xyQa4f3odnm3VAgPm78RF4T1uMfjxyGqEd2iCnnP34acUrDOeaFx8rTV8PAqh1cg5mDdvXpLOX7pLCy7GYkkivh3u3uVABBXPi2FbJiL6l4GY3sQXLecNFbzXR4XEHtGJi6Yfkw9BtdHOrpNt9WJ/BFbSOtCBvfGJtfNoN/3nnKEAAAp1SURBVO8yh3l/moylQ/zgUcofgzbbOrDpOQSl7vPaX4V5b0ojZC1RF13eeM64YjQN22Y1gVfJegha57hfHNQ+Y4/K4m00nCca+llUQxImWndsm3Cffj8cI5rVQhb/Llh/1a5d89KJELTQwpTvwAE4Zdee2Kn47KNQDO7ZEL5GGCrYsStW2cJxqrbhxH5I6fqvj8ULPerAUq4Rei8fiS+FzxTpin83NH1ICMn4pCkE/XZwCup5W+Dd9OXEL0JNiqjb+ObjfTgjDEHR+P7ILhy9ltKngBJy591Q5LbkQ9+IO0ZLWkjqmaCZODW/JPLWa4qjD2fj4RfN0ahAabxyaqa2jCiYuFJij+jERdOPjwtBiTrZVwahd/VayNYpCB8nGQpsTsWmaY21cFAHXddMNtrSUQj6MnEIcvbznt/dHTVL10Tefv3wud6hvjYS49vWgkfdjliV4BmTaTi8sx+eC2+HNl2aoGbzRqgcUB95tO8g/jMmt0+Tm56SdWsmtU/1Z7K0wGcpVRu5q9TF0wmsA68SNZE9pC+OxW0vOafi0PZQ9GlTFx7FayFfcCj26dtK1Tac2A+pWP+p3cFoV782LFpQy9ukJfrPG4Qd5+xvhdMV/25o+pAQkvFxOgRFX43AoHqtEdi6MDzyBGNDioexfnJEn1+I1jk8UWb4Ni24pJVkBkb4NRTDK+RA9zfDER0zGVuHPY1iwd3xg+hlqS6V2CM6cdH04xMPQVP1EFQXPd6yBZ4nHIJ2dkM1LYw8HTbQ7vPYeX0MpnbWQ1ArzLY+p6O3S/i8RuixVGmN+dp6z+/rgTplaqH0mCH4Jm5907B7aRuU1NrzNGmFvtOCMO3VEMx8pZP1GZ20haCUrlvzMSEoS/02mLiiHxasdHDVAKw9OCnJ57FEXvq6P7rW0vZLuZZ4UX+OJ1XbcGI/pPIzXDo3Gqte6YJ2zfysgy7k1G/p/No+CIl/NzR9SAjJ+DgXgu4cwZw2VdFj5VlcWNwOPh5lMHLXfW1CDH67+SP0/6eEmGtYF1wEHjnrY/zOG2kcIS4KX81OGIKKhAXHjQ53fnFZ5K3qj736e4IudECH/AUQvneqNs0xmLhSYo/oxEXTjzJDUKJbyX6aiFf71YWldCOM2Gm7HW469r/aAj4laqPjyoQjen13sR86i0JQ1ZSHoEtfhaKlto6sLbph0/eCec4PRJDWKc9SvzPeirtdyrnPm3Deadg5p6kW7uqi/bJx2DKzCbxKNUTYFrugd3UoBvnr2+6IFWfsOtqJQkky9VgVTE/xuo020T41hrn2qNsJb8aNVJdGtdA5pZMeOpti8mfTUrkNZ/aDk5/h+gSsm9IUuUrUgt+skXbDnYt/NzR9SAjJ+KQqBP26aQSaBo3C8NalUXXIJvygpYxHR6ejtpcnyg7cgFNHl6NPi2exJe4dQa4n6sq7GFwlByxeReDXbRgmzHgJc516Jugh9o55GrnsQpBvYBfctF3tudsfY6t6o82ikVpceh5fzC2FIv4BOHjHPpS4WmKP6MRF04/yQpA+qEAXrPoqflCBC0dD0ErrgGepp3VI7YbJPrWuPfJpnc2yY4fEP19yfRxWjQuwDlecIARdGYxQLbRkbdYV74lCjaPXx2Jm9zqwlKyHjkvGOLyLaDI2v9QMebRtV5wwzO4KjTOfN/G8+iAEAVoAy90rEANaaTU37YqN9jVf7I/O5WvCq30QdtgNFvDNJz3RUA9/aQlBKV63ZpL7dBKWP1MPHqXqI+itCam74vPVMCzaMMpuFMBYzx0KRvPKxjFgfX9QarbhxH5I8fqn4ozDM0P6b6Fqae3YmPiM3RDs4t8NTR8SQjI+qQhBkfhkXEV4WnKhaugKfGUbtu3RN1jSqSg8MlmQs0J3LDjy2+NHf3vCRN04gBUTgtGqVhkUyOUND4sllaPD3cNnCwJROZc2v082FC6cA/lyauvw/A+ajetljAY3C9fWV0MxbXohbXrhAl7wyvQUCjdpir2/OoYTV0nsEZ24aPpRZgjKXr42cjRshWEL+mHh0p7o1lwLIyXqIuDlUQne66OPGtddv0WqbAO0fz4UC1cG45neDZCzWgOUq6at2z4EGbevWUr5o+2MPliwOAjTNoQnPUKZ5qkdPdBA63hbStdDvSHdMO31vpj3WhCG9mtsHbnMp0knrEhwy5Mzn1cw7/Xw2IftS9WyDg2e6H1G10Zhcifts5T2R6e5g7Bx93C88XoXBNSujWxl0xiCUrxuzWT26blPe6Np1VrwqBKAHrP6YvmmYXh70yC88ko39OrWFEPec7iF0fDbjwJRvnRtFGvXBoNnBWPu8j6Y+UInBNTTtqMF0navj4m7upLybTixHzRTsv4LnwWhSYNm6PNSP6w2hhMf3k0PTw0wYJPt+TVd8e+Gpg8JIRmfVF0JenDrMs5fuZ14KOzIn3Hl/Hf42XT/LoiCRnqW2CM6cdH047mPu6G6FoIKDR9sN5BA/EsoOzu8hNJ2FUHUYW83fzAm9jVGBdNCUZZKDdFuZhgO2TrfcU7DZxHd0KSu1kHW5tNfUlm4fUfM3TUMo1vVMl6Wapt3Oo5t6oaGemiyzlsHjeaOsrtdSeR0fLErFP27NUBu7bNZX4Sp6VGhPvyH9sI6u6tVtvlT83mTnFeb9tny1tagZSnfFBM/ddyOfmUmFEEt68a+9FOrKWu1xug6dyAmBtWGjxb+rIMHJLuNpKenbN2xyye9T7Vp20MQ0rE+chjfo66lrB+qBQVi8dHEn8nq9+FYPas9/P3qwMPYvj4y3NONWyJsxQicSDB/Srfh3H5I0fovPovp/RujgPFSXN1stZqg96JnHWoV/25o+pAQkvFxemAEQtI7ohMXTU9Ox5nzk/BNohdbTsWpc5MTXskwPH9pEr6+aruS4vjX+Gk48cUobNk7Gocu2l9tEfj9ROz7dAS2HpkQF8AuXLZft51XtXkPjMKu45MeE4AS+u3psdixdwS2fDoWn1tvx0rKlH5e3aTn1ffHtxcm4sTlJMKC7o0pOHJ4BDbvHYMjRk2Xrk5OxTZ0k5ieonUbJrtPp+Obr8dg2x5t3x3Q991jvkub2vaPHhmJD3aNwPbPJyZTv25KtuHkfrD6+PWfOxuOndrx8eH+cBwX3m4p+s3Q9CIhJOPDEERMi+jERdOToo5fanzcLUuUZmRFvxmaXiSEZHwYgohpEZ24aHpS1PFLjQxB1MyKfjM0vUgIyfgwBBHTIjpx0fSkqOOXOo+/3QV+zZpi2Eb7B8opNYOi3wxNLxJCMj4MQcS0iE5clFJKaVolhGR8GIKIaRGduCillNK0SgjJ+DAEEdMiOnFRSimlaZUQkvFhCCKmRXTiopRSStMqISTjwxBECCGEEEIIcSsYggghhBBCCCFuBUMQIYQQQgghxK1gCCKEEEIIIYS4FQxBhBBCCCGEELeCIYgQQgghhBDiVjAEEUIIIYQQQtwKhiBCCCGEEEKIW8EQRAghhBBCCHErGIIIIYQQQgghbgVDECGEEEIIIcStYAgihBBCCCGEuBUMQYQQQgghhBC3giGIEEIIIYQQ4lYwBBFCCCGEEELcCOD/AZjfP2Gn1mv5AAAAAElFTkSuQmCC;" vertex="1" parent="1">
          <mxGeometry x="210" y="220" width="389.63" height="271.76" as="geometry" />
        </mxCell>
      </root>
    </mxGraphModel>
  </diagram>
</mxfile>
